<svg width="87" height="55" viewBox="0 0 87 55" fill="none" xmlns="http://www.w3.org/2000/svg">
<path d="M14.6851 0.0193405C14.3713 0.0812234 14.0931 0.263398 13.9084 0.526603L0.239453 19.2695C-0.15494 19.8125 -0.0517993 20.5708 0.472632 20.9875L11.9667 30.203L10.2972 31.8825C8.17264 34.0188 8.17264 37.5166 10.2972 39.6528C11.5801 40.9428 13.2938 41.3001 14.8021 41.1755C15.2763 41.1363 15.7175 41.0596 16.1613 40.941C16.1318 42.3103 16.6424 43.6891 17.6756 44.7291C19.1518 46.2134 21.3094 46.5978 23.1514 45.9006C23.1757 47.2097 23.6351 48.6129 24.7437 49.7268C26.4575 51.4508 29.1299 51.7384 31.1895 50.6254C31.4053 51.6382 31.8933 52.6214 32.6656 53.3971C34.7902 55.5343 38.2688 55.5343 40.3933 53.3971L43.5 50.2733L46.6067 53.3971C48.7312 55.5343 52.2098 55.5343 54.3343 53.3971C55.1023 52.6258 55.5548 51.6661 55.7715 50.6638C57.8242 51.8099 60.5494 51.4439 62.2563 49.7268C63.3468 48.6312 63.8408 47.2376 63.8877 45.9396C65.7192 46.6195 67.8682 46.1933 69.3244 44.729C70.3195 43.7284 70.8014 42.4374 70.7997 41.1361C71.2972 41.2669 71.8139 41.3593 72.353 41.3706C73.831 41.402 75.4546 40.9078 76.7028 39.6527C78.8317 37.512 78.5318 34.2286 76.7808 31.9991L75.2656 30.0467L86.5274 20.9872C87.0518 20.5705 87.1549 19.8122 86.7606 19.2692L73.0916 0.526293C72.7006 -0.0271814 71.9422 -0.165769 71.3822 0.214266C68.773 1.97927 65.7314 2.51786 63.3832 2.51786C60.9813 2.51786 59.4625 1.96352 57.8684 1.34643C56.2742 0.729341 54.5726 0.018983 52.1984 0.018983C49.6301 0.018983 46.5909 0.597739 43.4218 2.32258C40.5448 0.920162 37.2562 0.018983 34.8012 0.018983C32.427 0.018983 30.7255 0.729341 29.1313 1.34643C27.5371 1.96352 26.0186 2.51786 23.6165 2.51786C21.2683 2.51786 18.2266 1.9792 15.6174 0.214266C15.3756 0.055634 15.0878 -0.0132151 14.8017 0.0190272C14.7627 0.0172841 14.7237 0.0172841 14.6847 0.0190272L14.6851 0.0193405ZM34.8013 2.51817C36.3876 2.51817 39.0617 3.21546 41.4421 4.2361L27.6562 20.4409C27.3719 20.7756 27.2834 21.235 27.423 21.6516C27.8529 22.9259 28.8524 24.0172 30.1413 24.854C31.4303 25.6898 33.033 26.259 34.8014 26.259C38.4047 26.259 41.6936 24.1933 44.587 21.7685C47.34 19.4622 49.7081 16.8422 51.4998 15.0137H60.2764L74.839 33.5221C75.985 34.982 76.0942 36.672 74.9162 37.8566C74.1828 38.594 73.3195 38.8912 72.392 38.872C71.4645 38.852 70.5092 38.4946 69.9069 38.0519C69.8479 37.9935 69.782 37.9412 69.7127 37.8958C69.5991 37.7381 69.4942 37.5733 69.3634 37.4269L63.1109 30.4376C62.8344 30.109 62.4088 29.9469 61.9849 30.0079C61.5333 30.0776 61.1562 30.3896 61.002 30.8219C60.8485 31.2534 60.9421 31.7363 61.2473 32.0779L67.4988 39.1065C68.5607 40.2954 68.6421 41.9008 67.5768 42.972C66.5106 44.0432 64.7926 44.0816 63.8095 43.0113L57.2078 35.7874C56.9816 35.5434 56.6678 35.4004 56.3367 35.39C56.0055 35.3786 55.6831 35.5007 55.4412 35.7281C55.1985 35.9565 55.0572 36.2712 55.046 36.605C55.0347 36.9379 55.1561 37.2622 55.3832 37.5054L60.7417 43.3233C60.7643 43.3773 60.7903 43.4296 60.8198 43.4793C61.1743 44.1339 61.4204 45.0264 61.4023 45.8221C61.3841 46.6188 61.1448 47.33 60.5086 47.9698C59.5169 48.9678 57.2623 48.9991 56.3538 48.009L50.5288 41.6828C50.2852 41.4013 49.929 41.2435 49.558 41.254C49.0699 41.2723 48.6383 41.5765 48.4545 42.0306C48.2698 42.4856 48.3678 43.0059 48.7033 43.3624L53.3633 48.4386C53.5739 49.3581 53.2081 50.9374 52.5476 51.6017C51.3661 52.7897 49.5354 52.7897 48.354 51.6017L45.1313 48.3993C46.4506 46.2796 46.2217 43.4443 44.3927 41.6052C43.428 40.6343 42.1677 40.1592 40.8977 40.0433C41.3164 38.2539 40.8561 36.2921 39.5004 34.9278C38.2097 33.6309 36.5289 33.2169 35.0345 33.3267C34.4867 33.3668 33.9779 33.4871 33.4812 33.6396C33.4067 32.4167 32.968 31.2104 32.044 30.2813C30.0347 28.2609 26.7529 28.2609 24.7437 30.2813L23.5787 31.4527C23.4678 30.215 23.0552 28.8963 22.0254 27.8599C20.9627 26.7921 19.542 26.2587 18.142 26.2587C16.7413 26.2587 15.3596 26.7921 14.2968 27.8599L13.7143 28.4456L2.95789 19.7774L15.3456 2.83001C18.1975 4.40848 21.2252 5.01687 23.6167 5.01687C26.4147 5.01687 28.3928 4.32132 30.0242 3.68942C31.6565 3.05751 32.909 2.51799 34.8012 2.51799L34.8013 2.51817ZM52.1983 2.51817C54.0906 2.51817 55.3432 3.0577 56.9753 3.68961C58.6067 4.32151 60.5848 5.01705 63.3828 5.01705C65.7743 5.01705 68.8022 4.40867 71.6539 2.8302L84.0416 19.7776L73.7117 28.0943L61.8674 12.9824C61.6317 12.6861 61.2745 12.5143 60.8966 12.5143H50.9559C50.623 12.5065 50.3014 12.6329 50.0622 12.8656C48.1491 14.7892 45.7324 17.5549 43.0331 19.8157C40.3347 22.0775 37.41 23.7597 34.8008 23.7597C33.5838 23.7597 32.3849 23.3439 31.4609 22.7443C30.7683 22.2945 30.4649 21.7951 30.1798 21.3393L44.2371 4.74394C47.1729 3.05478 49.8888 2.51786 52.198 2.51786L52.1983 2.51817ZM18.1424 28.7583C18.8948 28.7583 19.6481 29.0616 20.2392 29.656C20.8616 30.2818 21.1251 31.1099 21.132 32.1156V33.912L17.6761 37.387C17.6223 37.4419 17.5721 37.4872 17.5209 37.5439C17.4221 37.5962 17.3302 37.6616 17.2487 37.7391C16.622 38.2002 15.5862 38.6343 14.6085 38.7153C13.6298 38.7955 12.783 38.5584 12.0843 37.8559C10.9028 36.6679 10.9028 34.8271 12.0843 33.6392L16.0449 29.6559C16.6361 29.0614 17.3893 28.7581 18.1426 28.7581L18.1424 28.7583ZM28.3942 31.2571C29.0747 31.2571 29.7248 31.5021 30.2579 32.0381C31.3241 33.1102 31.3241 34.7924 30.2579 35.8643L23.2288 42.9322C22.1626 44.0043 20.4896 44.0043 19.4235 42.9322C18.3575 41.8601 18.3574 40.2162 19.4235 39.1441L26.4917 32.0379C27.0248 31.5018 27.713 31.2569 28.3944 31.2569L28.3942 31.2571ZM35.2292 35.7869C36.1541 35.7189 37.001 35.9673 37.7533 36.7239C38.7545 37.7305 38.7545 39.8555 37.7533 40.8631L30.6852 47.9694C29.6927 48.9674 27.484 48.9674 26.4916 47.9694C25.8519 47.327 25.6517 46.601 25.6369 45.8218C25.6222 45.0434 25.8597 44.2198 26.2194 43.5574C26.2662 43.4834 26.3052 43.4049 26.3356 43.323L32.0446 37.6218C32.3089 37.3559 32.549 37.0674 32.7432 36.7632C33.3413 36.2839 34.3035 35.855 35.2292 35.787L35.2292 35.7869ZM40.1994 42.5417C41.0706 42.5896 42.1212 42.9122 42.6075 43.4011C43.789 44.5891 43.789 46.4299 42.6075 47.6178L38.6461 51.6012C37.4646 52.7891 35.6339 52.7891 34.4525 51.6012C33.8128 50.9579 33.46 49.4422 33.6368 48.5157L39.5009 42.6202C39.513 42.6071 39.5269 42.594 39.539 42.5809C39.7436 42.5443 39.9525 42.5278 40.1996 42.5417L40.1994 42.5417Z" fill="#FF6C4B"/>
</svg>
