<?xml version="1.0" encoding="utf-8"?>
<!-- Generator: Adobe Illustrator 24.0.2, SVG Export Plug-In . SVG Version: 6.00 Build 0)  -->
<svg version="1.1" id="Cambridge_logo" xmlns="http://www.w3.org/2000/svg" xmlns:xlink="http://www.w3.org/1999/xlink" x="0px"
	 y="0px" viewBox="0 0 1415.3 623.6" style="enable-background:new 0 0 1415.3 623.6;" xml:space="preserve">
<g id="Authorised_Exam_Centre">
	<path d="M34,543.6L0,622h10.1l6.7-15.9h37.4l6.7,15.9H71l-34-78.4H34z M20.5,597.6l15-35.2l15,35.2H20.5z"/>
	<path d="M120.5,597.5c0,10.3-7.2,18-16.4,18c-8,0-13.3-4.9-13.3-13.2v-35.6h-9v37.5c0,12,8.1,19.4,19.5,19.4c8,0,15.2-4.1,19.2-9.9
		v8.3h9v-55.3h-9V597.5z"/>
	<path d="M167.3,615.5c-3.4,0-7.2-1.9-7.2-6.8v-33.9H176v-8.1h-15.8v-14.8l-9,4.3v10.5h-10.6v8.1h10.6v33.7
		c0,9.6,5.7,15.1,14.3,15.1c4.3,0,6.6-0.8,10.4-2.8l0.7-8.5h-1C172,615,169.7,615.5,167.3,615.5z"/>
	<path d="M218.3,565.1c-7.7,0-15.7,4.4-19.6,10.1v-33.8h-9V622h9v-30.8c0-10.3,7.6-18,16.8-18c8,0,13.8,4.9,13.8,13.2V622h9v-37.5
		C238.2,572.5,230.2,565.1,218.3,565.1z"/>
	<path d="M280.1,565.1c-16.2,0-29,12.1-29,29.2s12.8,29.2,29,29.2s29-12.1,29-29.2S296.3,565.1,280.1,565.1z M280.1,615.5
		c-11.4,0-20-8.5-20-21.2s8.6-21.2,20-21.2s20,8.5,20,21.2S291.5,615.5,280.1,615.5z"/>
	<path d="M347.4,565.1c-5.7,0-12,3.1-15.8,9.6v-8.1h-9V622h9v-31.6c0-12.7,7.7-17.2,14.4-17.2c3.7,0,6.7,1,9.4,3.6h1l-0.6-9.1
		C353.6,566,350.6,565.1,347.4,565.1z"/>
	<rect x="368.9" y="566.7" width="9" height="55.3"/>
	<path d="M373.4,543.6c-3.5,0-6.3,2.8-6.3,6.3s2.8,6.3,6.3,6.3c3.5,0,6.3-2.8,6.3-6.3S376.9,543.6,373.4,543.6z"/>
	<path d="M414.3,590.3c-8-2.8-13.1-5.3-13.1-10.5c0-4.9,4.6-6.8,10-6.8c5.7,0,10.2,1.6,14.9,5.2h0.8l-0.3-8.7
		c-3.9-2.4-8.6-4.3-15.1-4.3c-11.2,0-18.3,6.8-18.3,14.9c0,9.4,7.5,13.9,15.5,16.6c8,2.7,12.9,4.8,12.9,10.6c0,4.9-4.1,8.3-11.2,8.3
		c-6,0-10.9-2.2-15.8-6h-0.7l-2.1,8.5c4.9,3.2,10.9,5.6,18.5,5.6c11,0,20.3-7.1,20.3-16.8C430.4,597.9,424.3,593.8,414.3,590.3z"/>
	<path d="M467.6,565.1c-14.9,0-27.6,12.5-27.6,29.2c0,16.4,12.4,29.2,28.9,29.2c8.5,0,14.9-2.6,21.2-7.3l0.3-9.7h-0.9
		c-7.4,6.7-12.9,9-20.7,9c-9.1,0-18.8-6.5-19.8-18.8h45.4v-4.5C494.4,575.6,483.1,565.1,467.6,565.1z M449.5,589.3
		c1.9-11.2,10.2-16.8,18.1-16.8c10.3,0,17.5,6.9,18.6,16.8H449.5z"/>
	<path d="M554.2,574c-3.8-4.8-11.1-8.8-19.6-8.8c-16.5,0-29.1,12.5-29.1,29.2s12.7,29.2,28.4,29.2c9.1,0,15.8-3.9,20.3-9.1v7.5h9
		v-80.6h-9V574z M534.6,615.5c-12.3,0-20.2-9.6-20.2-21.2s7.8-21.2,20.2-21.2s20.2,9.6,20.2,21.2S546.9,615.5,534.6,615.5z"/>
	<polygon points="617.1,586 650.6,586 650.6,577.4 617.1,577.4 617.1,552.1 651.8,552.1 651.8,543.6 607,543.6 607,622 652.3,622 
		652.3,613.5 617.1,613.5 	"/>
	<polygon points="707.3,566.7 697.6,566.7 685.4,586.7 673.1,566.7 663.1,566.7 680.5,593.5 662,622 671.9,622 685.2,600.5 
		698.6,622 708.3,622 690.6,593.2 	"/>
	<path d="M761.1,573.6c-3.8-4.4-10.6-8.5-19.4-8.5c-16.5,0-28.9,13.1-28.9,29.2s12.4,29.2,28.9,29.2c8.7,0,15.6-4.1,19.4-8.5v6.9h9
		v-55.3h-9V573.6z M741.8,615.5c-12.3,0-19.9-9.6-19.9-21.2s7.6-21.2,19.9-21.2s19.9,9.6,19.9,21.2S754.1,615.5,741.8,615.5z"/>
	<path d="M842.7,565.1c-6.6,0-13.7,3.7-17,9.1c-2.8-6.3-7.8-9.1-14.2-9.1c-6.6,0-12.5,3.2-15.9,8.4v-6.8h-9V622h9v-32.6
		c0-10.1,5-16.2,12.3-16.2c5.7,0,10.9,3.5,10.9,10.9v38h9v-35.4c0-8.1,5.4-13.4,11.9-13.4s10.8,3.9,10.8,10.8V622h9v-39.3
		C859.3,572.2,853.9,565.1,842.7,565.1z"/>
	<path d="M938.9,550.6c10.1,0,17,3.9,22.8,9.3h1.1l-0.7-11.1c-5.9-4-13.3-6.7-22.8-6.7c-22.3,0-40.2,17-40.2,40.8
		s17.6,40.8,39.9,40.8c9.5,0,17.2-2.7,23.2-6.7l0.7-11.1h-1.1c-5.8,5.4-12.8,9.3-22.8,9.3c-15.8,0-29.7-12.1-29.7-32.3
		S923.1,550.6,938.9,550.6z"/>
	<path d="M1000.6,565.1c-14.9,0-27.6,12.5-27.6,29.2c0,16.4,12.4,29.2,28.9,29.2c8.5,0,14.9-2.6,21.2-7.3l0.3-9.7h-0.9
		c-7.4,6.7-12.9,9-20.7,9c-9.1,0-18.8-6.5-19.8-18.8h45.4v-4.5C1027.4,575.6,1016.1,565.1,1000.6,565.1z M982.5,589.3
		c1.9-11.2,10.2-16.8,18.1-16.8c10.3,0,17.5,6.9,18.6,16.8H982.5z"/>
	<path d="M1069.5,565.1c-8,0-15.2,4.1-19.2,9.9v-8.3h-9V622h9v-30.8c0-10.3,7.2-18,16.4-18c8,0,13.3,4.9,13.3,13.2V622h9v-37.5
		C1089,572.5,1080.9,565.1,1069.5,565.1z"/>
	<path d="M1126.1,615.5c-3.4,0-7.2-1.9-7.2-6.8v-33.9h15.8v-8.1H1119v-14.8l-9,4.3v10.5h-10.6v8.1h10.6v33.7
		c0,9.6,5.7,15.1,14.3,15.1c4.3,0,6.6-0.8,10.4-2.8l0.7-8.5h-1C1130.9,615,1128.5,615.5,1126.1,615.5z"/>
	<path d="M1173.3,565.1c-5.7,0-12,3.1-15.8,9.6v-8.1h-9V622h9v-31.6c0-12.7,7.7-17.2,14.4-17.2c3.7,0,6.7,1,9.4,3.6h1l-0.6-9.1
		C1179.5,566,1176.4,565.1,1173.3,565.1z"/>
	<path d="M1242.3,592.2c0-16.6-11.3-27.1-26.8-27.1c-14.9,0-27.6,12.5-27.6,29.2c0,16.4,12.4,29.2,28.9,29.2
		c8.5,0,14.9-2.6,21.2-7.3l0.3-9.7h-0.9c-7.4,6.7-12.9,9-20.7,9c-9.1,0-18.8-6.5-19.8-18.8h45.4V592.2z M1197.4,589.3
		c1.9-11.2,10.2-16.8,18.1-16.8c10.3,0,17.5,6.9,18.6,16.8H1197.4z"/>
</g>
<rect x="2.3" y="434.1" width="1390.2" height="6.7"/>
<path id="English_00000044889900429706587450000017048412025984543409_" d="M1001.6,238h53.2v10.1h-41.2v30.1h39.8v10.1h-39.8V321
	h41.8v10.1h-53.7V238z M1069.7,265.4h10.6v9.8c4.7-6.8,13.3-11.7,22.7-11.7c13.6,0,23.1,8.8,23.1,23v44.6h-10.6v-42.3
	c0-9.8-6.4-15.7-15.8-15.7c-10.9,0-19.4,9.2-19.4,21.4v36.6h-10.6V265.4z M1150.4,357.3l-0.4-10.6h1.7c5.3,3.9,11.2,6.8,20.9,6.8
	c12.8,0,22.7-7.4,22.7-22.6v-10.1c-5.6,7-14.4,10.4-23.4,10.4c-17.7,0-33-12.9-33-33.8c0-20.9,16.1-33.8,33.6-33.8
	c9.8,0,18.2,4.1,22.7,10v-8.1h10.6v59.7c0,27.3-13.8,37.9-34.8,37.9C1162.3,363,1155.5,360.4,1150.4,357.3z M1196.5,297.3
	c0-12.5-8-24.2-23.4-24.2s-23.4,11.7-23.4,24.2c0,12.5,8,24.2,23.4,24.2S1196.5,309.8,1196.5,297.3z M1223.1,235.3h10.6v95.8h-10.6
	V235.3z M1248.6,245.4c0-4.1,3.3-7.4,7.4-7.4c4.1,0,7.4,3.3,7.4,7.4s-3.3,7.4-7.4,7.4C1251.9,252.9,1248.6,249.6,1248.6,245.4z
	 M1250.7,265.4h10.6v65.7h-10.6V265.4z M1275.2,326.3l2.5-10.1h0.8c5.9,4.5,11.6,7.2,18.8,7.2c8.4,0,13.3-4,13.3-9.8
	c0-6.9-5.9-9.4-15.3-12.6c-9.4-3.2-18.4-8.5-18.4-19.7c0-9.6,8.4-17.7,21.7-17.7c7.7,0,13.3,2.3,18,5.1l0.4,10.4h-0.9
	c-5.6-4.3-10.9-6.1-17.7-6.1c-6.4,0-11.8,2.3-11.8,8.1c0,6.3,6.1,9.2,15.6,12.5c11.8,4.1,19.2,9,19.2,19.5c0,11.6-11,20-24.1,20
	C1288.1,333,1281,330.2,1275.2,326.3z M1334.5,235.3h10.6v40.2c4.7-6.8,14.1-12,23.3-12c14.1,0,23.7,8.8,23.7,23v44.6h-10.6v-42.3
	c0-9.8-6.9-15.7-16.4-15.7c-10.9,0-19.9,9.2-19.9,21.4v36.6h-10.6V235.3z"/>
<path id="Cambridge_00000021798885434083089250000016708542971247628984_" d="M1403.7,41.3L1404,69c0,0-3.4,0.8-4.4,1.1
	c-1-12.1-3.7-22-23.1-22h-26.1v51.3h22.4c11,0,14-6.1,15.2-16.7c0.8,0,3.5,0,4.5,0c0,1.4,0,42.9,0,42.9l-4.4,0.1
	c-0.7-10.3-3.1-18.2-15.1-18.2h-22.5v45c0,13.1,11.3,13.1,23.2,13.1c21.4,0,31.4-1.3,37.3-23c0.9,0.2,4.4,1,4.4,1l-6,28.9
	c0,0-95.9,0-97.3,0c0-0.9,0-3.8,0-4.8c0.8,0,1.9,0,1.9,0c7.5,0,14.4-1.4,14.4-11.6V57.7c0-10.2-6.9-11.6-14.4-11.6c0,0-1.1,0-1.9,0
	c0-0.9,0-3.8,0-4.8C1313.4,41.3,1403.7,41.3,1403.7,41.3 M873.3,41.3c0,0-57.3,0-58.7,0c0,1,0,3.8,0,4.8c0.9,0,2.6,0,2.6,0
	c4.8,0,13.8,0,13.8,15.2v95.3c0,8.1-7.4,11-13.8,11c0,0-1.7,0-2.6,0c0,1,0,3.9,0,4.8c1.4,0,55.6,0,57,0c0-0.9,0-3.8,0-4.8
	c-0.9,0-2.6,0-2.6,0c-9.3,0-15.8-1.1-15.8-15.9v-40.8h14.5l39,61.6c0,0,32.2,0,33.6,0c0-1,0-4,0-4.9c-8.9-0.5-13.1-3.5-18.2-11.5
	l-32.2-49l0.8-0.3c11.5-4.6,26-14.1,26-32.7C916.7,52,902.3,41.3,873.3,41.3 M865.8,46.6c16.8,0,27.9,11.2,27.9,28.5
	c0,21.3-9,30.4-29.4,30.4h-11.2l0-58C856.9,46.8,861.9,46.6,865.8,46.6z M1003,41.3c-1.4,0-53.4,0-54.8,0c0,1,0,3.8,0,4.8
	c0.7,0,1.8,0,1.8,0c7.5,0,14.4,1.4,14.4,11.6V156c0,10.2-6.9,11.6-14.4,11.6c0,0-1.1,0-1.8,0c0,1,0,3.8,0,4.8c1.4,0,53.4,0,54.8,0
	c0-1,0-3.8,0-4.8c-0.8,0-1.9,0-1.9,0c-7.5,0-14.4-1.4-14.4-11.6V57.6c0-10.2,6.9-11.6,14.4-11.6c0,0,1.1,0,1.9,0
	C1003,45.1,1003,42.2,1003,41.3 M252.8,106.7c0,44.2,27,69.1,69.3,69.1c20.8,0,39.1-8.2,50.9-23.4l-3.4-6.4
	c-10.5,13.5-24.4,20.8-43.9,20.8c-34.7,0-49.1-30.6-49.1-63c0-36.4,17.7-59,46.3-59c27.8,0,36,16.1,40.9,33.7l4.3-0.6l-1.4-30.4
	c-13.7-6.4-27.6-9.4-44.4-9.4c-18.7,0-35.3,6.4-47.9,17.7C260.8,68.1,252.8,87.2,252.8,106.7 M535.6,66.6c0,0,47,105.6,47.4,106.7
	c0.7,0,3.2,0,4,0c0.4-1,45.3-108.8,45.3-108.8s4,83.8,4,83.8l0.2,9.4c0,8.9-6.4,9.3-15.3,9.8c0,0-0.2,0-0.4,0c0,1,0,3.7,0,4.7
	c1.6,0,52.8,0,54.4,0c0-1,0-3.7,0-4.7c-10-0.4-15.4-1.3-16.1-11.5l-5.1-87c-1.1-18.5,1.5-23.1,16.2-23.1h0.7l0-4.8
	c0,0-35.3,0-36.4,0c-0.4,1-42.1,99.4-42.1,99.4s-44.1-98.3-44.5-99.4c-1.1,0-35.5,0-37.1,0c0,1,0,3.7,0,4.8c0.7,0,1.5,0,1.5,0
	c10.4,0,16.6,6.4,15.9,17.7l-5.1,82.9c-0.7,12.1-1.6,20.4-16.5,21H505v4.8h44.2v-4.8h-1.1c-12-0.5-17.6-2-16.8-20
	C531.2,147.6,535.6,66.6,535.6,66.6 M1085.2,172.3c18.2,0,36.1-4.3,49-17.1c12.7-12.7,20.1-30.4,20.1-48.8
	c0-19.7-6.7-36.2-19.2-47.9c-12.7-11.9-31-17.3-52.8-17.3l-58.6,0.1V46h1.9c7.5,0,14.4,1.4,14.4,11.6V156c0,10.2-6.9,11.6-14.4,11.6
	h-1.9v4.8L1085.2,172.3z M1075.4,46.9c36.9,0,54.8,19.8,54.8,63.2c0,28-15.1,56.5-48.2,56.5c-14.1,0-19.9-2.2-19.9-16.1l0-103
	C1065.2,47.2,1072.2,46.9,1075.4,46.9z M1265.8,165.6c-4.9,2.2-13.2,3.5-21.2,3.3c-34.8,0-50.4-32.9-50.4-66.1
	c0-36.1,18.5-58.6,48.9-58.6c22.6,0,32.6,8.8,38.1,31.4l4.4-0.3l-2.1-31.3c-10.1-3.4-26.1-6.5-41.7-6.5c-34.7,0-71.6,21-71.6,67.2
	c0,43.4,28,71.5,71.3,71.5c17.9,0,34.1-3.1,46.1-6.9l0-35.8c0-7,3.7-10.8,10.8-10.8h1.5V118h-50.4v4.7h1.5c9.7,0,14.8,3.7,14.8,10.8
	L1265.8,165.6 M745,104.5c20.5,0,32.8,11.4,32.8,31.6c0,17.9-12.1,31.1-28,31.1c-13.3,0-17.4-3.7-17.4-16.5v-46.1H745z M744.3,46.1
	c17.3,0,26,8.6,26,27.1c0,16.8-10,25.5-28,25.5h-9.9V46.1H744.3z M759.3,101c16.1-2.6,34.4-10.3,34.4-31.1c0-18.8-15-28.7-42.4-28.7
	l-58.2,0v4.8h2.6c4.8,0,13.8,0,13.8,15.2v95.1c0,8.1-7.4,11.2-13.8,11.2h-2.6v4.7l64.2,0c24.5,0,43.4-16.5,43.4-37.1
	c0-8.6-3-16-8.7-21.9C784.6,105.8,775.8,102.2,759.3,101 M441,41.3L483.7,155c3.2,9,7.8,12.5,14.6,12.5h0.4l0,4.8h-50.8l0-4.8h1.1
	c9.9,0,13.7-4.1,10.8-13.2l-10.3-28.8h-41.3l-9.5,26.4c-4.2,12.4,2.4,15.5,12,15.5h1.7l0,4.9h-39.9l0-4.9h0.4c8.1,0,13.5-5,16.6-13
	c0,0,41.6-113.2,41.6-113.2L441,41.3z M410.5,119.1h36.7L428.9,68L410.5,119.1z"/>
<g id="Shield">
	<path d="M34,25.1c-0.3-0.2-0.6-0.3-0.9-0.3c-0.6,0-1,0.3-1,0.8c0,0.5,0.3,1.4,0.9,2.9l0.9,2.1c0.8,1.9,1.5,2.6,2.4,2.6
		c0.9,0,1-0.8,1.6-2.3c1.3-3.3,2-3.8,2-5c0-0.8-0.2-1-0.9-1l-0.6-0.1l-1.1,0.7l-1.4,0.1l-0.4,0l-0.8-0.1
		C34.8,25.6,34.5,25.4,34,25.1z M35.8,27.5l1.1-0.2l0.1,0c0.1,0,0.2,0.1,0.3,0.1c0.1,0.1,0.2,0.3,0.2,0.4c0,0,0,0.5-0.1,1.5
		l-0.1,1.4c-0.1,0.8-0.5,1.2-1.1,1.2c-0.6,0-0.8-0.3-1-1.1l-0.3-1.4L34.5,28l0.1-0.3c0.1-0.1,0.2-0.2,0.3-0.2H35.8z"/>
	<path d="M156.6,25.1c-0.3-0.2-0.6-0.3-0.9-0.3c-0.6,0-1,0.4-1,1c0,0.5,0.3,1.4,0.8,2.7c0.2,0.6,0.5,1.3,0.9,2.1
		c0.7,1.8,1.5,2.6,2.5,2.6c0.9,0,1.5-0.7,2.1-2.1l0.7-3c0.3-0.9,1.2-1.3,1.2-2c0-0.8-0.8-1.5-1.6-1.5l-0.4,0.1l-1,0.7l-1.4,0.1
		l-0.3,0l-0.8-0.1C157.4,25.6,157.1,25.4,156.6,25.1z M158.5,27.5l1-0.2l0.1,0c0.1,0,0.2,0.1,0.3,0.1c0.1,0.1,0.2,0.3,0.2,0.4
		c0,0,0,0.5-0.1,1.5l-0.1,1.4c-0.1,0.8-0.6,1.2-1.3,1.2c-0.6,0-0.7-0.3-0.8-1.1l-0.3-1.4l-0.3-1.6c0,0,0.1-0.1,0.2-0.3
		c0.1-0.1,0.2-0.2,0.3-0.2H158.5z"/>
	<path d="M37.2,21.4l0.1,0.8c0.1,0.6,0.4,1.1,0.7,1.1c0.3,0,0.6-0.7,1.3-1.9c0.9-1.6,1.8-3.1,1.8-4c0-0.3-0.1-0.5-0.3-0.5l-0.1,0
		L40,17.6c-0.5,0.5-0.9,0.7-2.2,1.2c-0.7,0.3-1,0.6-1,1.1l0.1,0.5L37.2,21.4z"/>
	<path d="M160.1,21.6l-0.1,0.6c0.1,0.6,0.4,1.1,0.7,1.1c0.3,0,0.7-0.9,1.4-2.1c0.9-1.6,1.7-2.9,1.7-3.7c0-0.3-0.1-0.5-0.3-0.5
		l-0.1,0l-0.7,0.7c-0.4,0.4-1.3,0.9-2.2,1.2c-0.8,0.3-1.1,0.6-1.1,1.1l0.1,0.5L160.1,21.6z"/>
	<path d="M38.4,145.2L38.4,145.2c0.1,0,0.2-0.1,0.4-0.4l0.9-1.5l1.4-1.6l0.5-1.1l0-0.1c0-0.2-0.1-0.3-0.3-0.3l-0.1,0
		c-0.1,0-0.4,0.3-1.1,0.7c-0.2,0.1-0.7,0.3-1.3,0.4c-0.8,0.1-1.1,0.4-1.2,0.9l0.1,1.3C37.7,144.4,38,145.2,38.4,145.2z"/>
	<path d="M153.4,18.8c0.3,1,0.7,1.7,0.9,1.8l1,1.7c0.5,0.5,1.2,0.8,1.4,0.9l0,0c0.2,0,0.3-0.1,0.3-0.3l0.2-1.3l0.3-1.2l0-0.3
		c0-0.3-0.2-0.6-0.5-0.8l-1.1-0.6l-1.8-1.4c-0.2-0.2-0.6-0.3-0.7-0.3c-0.3,0-0.4,0.1-0.4,0.5l0,0.2C153.2,18,153.2,18.4,153.4,18.8z
		"/>
	<path d="M31.4,20.6l1.4,1.6c0.5,0.6,0.4,0.7,0.6,0.7c0.4,0,1.3,0,1.3-1.2c0-0.2-0.1-0.8,0-1.4l0.1-0.4c0-0.3-0.2-0.5-0.5-0.6
		l-1.1-0.6l-1.8-1.4C31.3,17.1,31,17,30.8,17c-0.3,0-0.4,0.1-0.4,0.5l0,0.2C30.6,19,31,20.1,31.4,20.6z"/>
	<path d="M92.1,28.3c0,0,0.4,2.2,1.4,4.7c1-2.5,1.4-4.7,1.4-4.7c2.2,0.4,3.9,0.1,3.9,0.1c-4.9-3-4.9-11.4-4.9-12.4l1.6-1.9l-2-2.4
		l-2,2.4l1.6,1.9c0,1,0.1,9.4-4.9,12.4C88.2,28.4,89.9,28.8,92.1,28.3z"/>
	<path d="M117.5,158.6l1.6-1.9l-2-2.4l-2,2.4l1.6,1.9c0,1,0.1,9.4-4.9,12.4c0,0,1.7,0.3,3.9-0.1c0,0,0.4,2.2,1.4,4.7
		c1-2.5,1.4-4.7,1.4-4.7c2.2,0.4,3.9,0.1,3.9,0.1C117.4,167.9,117.4,159.5,117.5,158.6z"/>
	<path d="M117.5,201.5l1.6-1.9l-2-2.4l-2,2.4l1.6,1.9c0,1,0.1,9.4-4.9,12.4c0,0,1.7,0.3,3.9-0.1c0,0,0.4,2.2,1.4,4.7
		c1-2.5,1.4-4.7,1.4-4.7c2.2,0.4,3.9,0.1,3.9,0.1C117.4,210.8,117.4,202.4,117.5,201.5z"/>
	<path d="M190.1,103.2c0,0,0.4,2.2,1.4,4.7c1-2.5,1.4-4.7,1.4-4.7c2.2,0.4,3.9,0.1,3.9,0.1c-4.9-3-4.9-11.4-4.9-12.4l1.6-1.9l-2-2.4
		l-2,2.4l1.6,1.9c0,1,0.1,9.4-4.9,12.4C186.3,103.3,187.9,103.6,190.1,103.2z"/>
	<path d="M177.5,117.4c0,0,0.4,2.2,1.4,4.7c1-2.5,1.4-4.7,1.4-4.7c2.2,0.4,3.9,0.1,3.9,0.1c-4.9-3-4.9-11.4-4.9-12.4l1.6-1.9l-2-2.4
		l-2,2.4l1.6,1.9c0,1,0.1,9.4-4.9,12.4C173.6,117.5,175.3,117.9,177.5,117.4z"/>
	<path d="M34.7,145.2c0.2,0,0.3-0.1,0.4-0.6l0.3-1l0.1-1.1c0-0.9-0.4-1.2-2.2-1.7c-0.4-0.1-0.6-0.1-0.9-0.3
		c-0.3-0.2-0.6-0.4-0.8-0.4c-0.1,0-0.3,0.1-0.3,0.2l0.1,0.3l0.3,1l0.9,1.6l0.7,0.9C33.4,144.4,34.5,145.2,34.7,145.2z"/>
	<path d="M105.7,137.1l1.6-1.9l-2-2.4l-2,2.4l1.6,1.9c0,1,0.1,9.4-4.9,12.4c0,0,1.7,0.3,3.9-0.1c0,0,0.4,2.2,1.4,4.7
		c1-2.5,1.4-4.7,1.4-4.7c2.2,0.4,3.9,0.1,3.9,0.1C105.6,146.5,105.7,138.1,105.7,137.1z"/>
	<path d="M105.7,180l1.6-1.9l-2-2.4l-2,2.4l1.6,1.9c0,1,0.1,9.4-4.9,12.4c0,0,1.7,0.3,3.9-0.1c0,0,0.4,2.2,1.4,4.7
		c1-2.5,1.4-4.7,1.4-4.7c2.2,0.4,3.9,0.1,3.9,0.1C105.6,189.4,105.7,181,105.7,180z"/>
	<path d="M93.9,201.5l1.6-1.9l-2-2.4l-2,2.4l1.6,1.9c0,1,0.1,9.4-4.9,12.4c0,0,1.7,0.3,3.9-0.1c0,0,0.4,2.2,1.4,4.7
		c1-2.5,1.4-4.7,1.4-4.7c2.2,0.4,3.9,0.1,3.9,0.1C93.8,210.8,93.9,202.4,93.9,201.5z"/>
	<path d="M2.3-0.2V124c0,61.1,32.1,78.5,47.5,86.9c2.8,1.5,50.4,25.2,53.4,26.7l2,1.1l2-1.1c2.8-1.4,50.6-25.1,53.4-26.7
		c15.4-8.4,47.5-25.8,47.5-86.9V-0.2H2.3z M149.8,16.2c0.3,0,0.7,0.1,1,0.3c0.4,0.2,0.6,0.3,0.8,0.3c0.3,0,0.5-0.4,0.5-1l0-0.6
		c0-1.8,0-1.9,0.7-3.3l0.6,0.5l1.2,0.7l0.7,0.8l0.5,0.7l0.1,0.1c0.2,0,0.3-0.2,0.3-0.7l0-0.2l0-0.2c0-0.7,0.3-1.4,0.7-1.9l0.8-0.9
		l0.5-0.7l0.5-0.5c1.4,1,2.3,2.4,2.3,3.9l0,0.2l-0.3,1.1c0,0.2,0.1,0.3,0.3,0.3c0.2,0,0.5-0.2,1.1-0.9c0.4-0.5,0.8-0.8,2.1-1.6
		l0.5-0.3l0.3,0.7l0.3,0.7l0.1,0.8v1.1l0.1,0.6c0,0.1,0.2,0.1,0.4,0.2c2.1,0.6,2.7,1.2,2.7,2.7c0,0.4-0.1,1-0.3,1.7
		c-0.2,0.5-0.4,0.9-0.7,1.3c-0.4,0.6-0.8,0.9-1.1,0.9c-0.1,0-0.2-0.8-0.2-1.7v-0.8l-0.2-1c0-0.1-0.1-0.1-0.3-0.1
		c-0.4,0-0.6,0.7-0.8,2.6l-0.3,3.1c-0.3,2.7-0.7,4.5-1.1,5.2c-0.7,1.1-1.1,2.1-1.1,2.7c0,0.2,0.1,0.3,0.2,0.3c0.1,0,0.3-0.1,0.5-0.2
		l0.9-0.3l0.7-0.1c0.5,0,0.8,0.3,1.4,1.4c0.2,0.5,0.4,0.8,0.5,0.9c0.6,1,0.7,1.1,0.7,1.5c0,0.4-0.3,0.6-0.9,0.6
		c-0.4,0-0.9-0.2-1.3-0.7l-0.7-0.7c-0.2-0.2-0.3-0.3-0.5-0.3c-0.2,0-0.4,0.3-0.4,0.7l0.1,0.6l0.1,0.9l-0.1,0.7
		c-0.1,1.2-0.3,1.6-0.9,1.6l-0.1,0c-0.2,0-0.5-0.2-0.8-0.5c-0.3-0.3-0.6-0.6-0.8-1c-0.6-1.1-0.7-1.3-1-1.3c-0.3,0-0.4,0.4-0.6,1.8
		c-0.2,1.7-1.1,3.3-1.8,3.3c-0.3,0-0.5-0.1-0.6-0.3l-0.7-1.6c-0.3-0.8-0.5-1.4-0.5-1.8c0-1.6-0.1-1.9-0.5-1.9
		c-0.2,0-0.4,0.1-0.5,0.3l-0.1,0.6c0,0.2-0.1,0.4-0.3,0.8c-0.2,0.3-0.4,0.6-0.6,0.9c-0.2,0.3-0.3,0.5-0.3,0.6c0,0.1,0.1,0.3,0.3,0.5
		l1.4,1.2c0.5,0.5,1,1.1,1.3,2c0.6,1.6,1,2,1.7,2c0.3,0,0.6-0.1,0.8-0.4l1.1-1.8c0.5-0.8,1.1-1.2,1.9-1.2l1,0.1l0.4,0
		c0.9,0,1.2-0.1,2-0.9c3.4-3.2,6.5-4.1,13.1-4.1c3.1,0,5.4,0.3,8.2,0.9c2.6,0.6,4.1,1,4.5,1c0.4,0.1,1,0.1,1.5,0.1
		c1.6,0,2.9-1.1,2.9-2.4c0-2.4-1.2-3.1-10.1-6.2c-9.2-3.2-12.8-6.5-12.8-11.7c0-4.6,3.9-8.1,9.1-8.1c1.8,0,3.3,0.3,7,1.5l4.3,1.4
		c0.4,0.1,0.8,0.2,1.1,0.2c0.8,0,1.2-0.6,1.2-1.5l-0.1-0.8l0-0.3c0-0.4,0.1-0.7,0.4-0.7c0.2,0,0.7,0.7,1.1,1.4
		c0.3,0.5,0.4,1.2,0.4,1.8c0,1.2-0.9,2.1-2.1,2.1c-1,0-3.1-0.4-4.4-0.9l-2.8-1l-2.9-1l-0.4-0.1c-0.2,0-0.3,0.1-0.3,0.2
		c0,0.2,0.4,0.5,0.9,0.7c0.3,0.1,1,0.5,2.2,1.2c2,1.3,5,2.5,6.5,2.6c0.4,0,0.6,0.1,0.6,0.4c0,0.1-0.1,0.3-0.2,0.4
		c-0.2,0.1-0.5,0.2-0.9,0.3c-1.2,0.3-1.3,0.3-1.9,0.3c-1,0-2.5-0.5-3.6-1.2l-3.2-1.9c-1.7-1.1-3.5-1.6-4.9-1.6
		c-2.7,0-4.9,2.2-4.9,4.9c0,1.3,0.4,2.5,1.3,3.7c1.2,1.6,2,2.4,2.4,2.4c0.2,0,0.3-0.2,0.3-0.4c0-0.2-0.3-0.8-0.6-1.3
		c-0.2-0.3-0.3-0.5-0.3-0.8c0-0.2,0.1-0.3,0.3-0.3c0.2,0,0.5,0.1,0.8,0.3l1.6,0.9c1.2,0.6,2,1.3,2.6,2.3l0.9,1.3c0,0,0.3,0.4,1,1.1
		c0.3,0.3,0.8,0.6,1.1,0.6c0.2,0,0.3-0.1,0.3-0.2c0-0.1-0.1-0.3-0.2-0.6c-0.2-0.5-0.4-0.9-0.6-1.2c-0.2-0.4-0.3-0.7-0.3-0.9
		c0-0.3,0.3-0.4,0.7-0.4c2,0,4,1.6,5.2,4.1c0.4,0.9,0.8,1.3,1.2,1.3c0.2,0,0.4-0.3,0.4-0.6l0-0.1l-0.1-0.9c0-0.2,0.2-0.3,0.3-0.3
		c0.1,0,0.3,0.1,0.5,0.2c1.4,0.9,2.5,1.9,3.1,2.9c0.7,1.1,1.3,2.9,1.3,4.4c0,2.8-2,4.6-5.3,4.6c-1.1,0-2.2-0.3-4.4-1
		c-2.4-0.8-4.2-1.1-5.8-1.1c-0.5,0-0.7,0.1-0.7,0.4c0,0.2,0.1,0.3,0.4,0.3l1.2,0.1c0.4,0,0.8,0.3,1.4,0.7c1.7,1.3,2.8,2.7,3.2,4
		l1.2,4.3c0.6,2.2,3.1,4.1,5.1,4.1l0.3,0l1.7-0.3l0.1,0c0.4,0,0.7,0.5,0.9,2l0.2,1.4l0,0.2c0,0.4-0.1,0.6-0.3,0.6l-0.3-0.1l-0.7-0.2
		c-0.3-0.1-0.6-0.1-0.8-0.1c-0.3,0-0.5,0.2-0.5,0.5c0,0.2,0.1,0.4,0.3,0.5l0.9,0.7c1,0.8,1.3,1.6,1.3,3.3c0,1.2-0.2,1.8-0.6,1.8
		c-0.2,0-0.4-0.1-0.7-0.2c-0.4-0.2-0.6-0.3-0.6-0.3l-0.3-0.1c-0.3,0-0.3,0.1-0.3,0.5c0,0.6,0.2,1.1,0.7,1.8l0.8,1.1
		c0.3,0.4,0.5,0.8,0.5,1.3c0,0.7,0,1.3-0.2,2.6l-0.1,0.9c0,0.3,0.1,0.6,0.2,1.2c-1.4-0.6-1.9-1.1-2.3-2l-1.1-2.2
		c-0.1-0.2-0.3-0.4-0.5-0.4c-0.5,0-0.9,0.7-0.9,1.5l0,0.2l0.1,1.4l0,0.1c0,0.7-0.4,1.3-0.9,1.4l-1.6,0.3c-0.2,0-0.5,0.2-1.1,0.5
		c-0.2,0.1-0.4,0.2-0.7,0.3l0-0.5c0-2.4,0.9-4.6,3.6-8.2c1.4-1.9,2.1-3.4,2.1-4.7c0-2.4-0.9-3.2-4.9-4.4c-3.8-1.1-6.3-3.8-11.4-12.2
		c-0.9-1.5-1.9-2.6-2.5-2.6c-0.1,0-0.3,0.1-0.4,0.3l-0.1,0.3c0,0.1,0.1,0.3,0.4,0.6c0.1,0.1,0.3,0.4,0.6,0.9
		c0.2,0.4,0.4,0.9,0.4,1.1c0,0.6-0.5,1-1.1,1c-0.3,0-0.8-0.1-1.5-0.3c-0.4-0.1-0.8-0.1-1.1-0.1c-0.5,0-0.9,0.1-1.4,0.2
		c-0.3,0.1-1,0.3-2.2,0.8c-0.9,0.3-1.5,0.6-1.8,0.7c-0.5,0.3-0.9,0.4-1.2,0.4c-0.3,0-0.5-0.2-0.5-0.5c0-0.1,0.1-0.4,0.3-0.8
		c0.1-0.2,0.1-0.4,0.1-0.6c0-0.3-0.2-0.6-0.4-0.6c-0.3,0-0.4,0.2-1.5,2.1c-1.2,2-1.6,3.1-1.6,4c0,0.6,0.2,1,0.7,1.4
		c0.5,0.4,0.6,0.5,0.6,0.8c0,0.2-0.1,0.5-0.2,0.7c-0.2,0.3-0.4,0.6-0.6,0.9c-0.4,0.5-0.7,0.8-0.9,0.8c-0.2,0-0.4-0.2-0.5-0.5
		l-0.3-0.9c0-0.1-0.2-0.2-0.3-0.2c-0.4,0-0.6,0.5-0.7,1.9c-0.1,2.2-1.2,4.3-2.2,4.3c-0.4,0-0.7-0.4-0.9-0.9l-0.5-1.5
		c0-0.1-0.2-0.1-0.3-0.1c-0.3,0-0.5,0.2-0.5,0.5l0,0.4c0.1,0.7,0.2,1.6,0.2,2c0,0.5-0.1,1-0.5,1.6c-0.9,1.5-1.7,2.3-2.3,2.3
		c-0.3,0-0.6-0.2-0.6-0.5l-0.2-1.2c0-0.1-0.2-0.2-0.4-0.2c-0.3,0-0.5,0.2-0.5,0.5l0,0.5l0.1,2.1c0,1.7-0.1,2.1-0.5,2.8l-1.3,1.8
		c-0.2,0.3-0.4,1-0.7,2c0,0.2-0.1,0.4-0.2,0.8c-1.4-0.7-2.2-1.9-2.2-3.2l0.1-0.5l0.7-1.9l0-0.1c0-0.2-0.1-0.3-0.3-0.3
		c-0.2,0-0.4,0.3-0.8,0.8c-0.2,0.3-0.5,0.6-1.1,0.9c-1.3,0.7-1.6,0.9-1.7,1.2l-0.3,0.9c-0.3,0.9-0.7,1.2-2.6,1.7
		c-0.7,0.2-1.2,0.4-2.3,0.9c0.2-3.6,1-5,3.7-6.2c6.8-3.3,13.3-11,13.3-15.8c0-0.5-0.1-1.1-0.3-1.6l-1.4-3.5
		c-0.7-1.8-1.3-5.4-1.3-8.1c0-4.4,0.2-5.2,1.3-5.2l0.5,0.1c0.3,0.1,0.6,0.1,0.8,0.3c0.3,0.1,0.5,0.2,0.6,0.2c0.2,0,0.3-0.1,0.3-0.3
		c0-0.2-0.1-0.3-0.8-1.3c-0.2-0.3-0.6-1.1-1.1-2.3c-0.4-0.9-0.6-1.8-0.8-2.6l-0.5-3.1l-0.5-2.4c-0.2-1.1-0.5-1.5-0.8-1.5
		c-0.2,0-0.4,0.3-0.4,0.7l0,0.5l0.2,1.1c-0.1,0.8-0.2,1.4-0.2,1.4c-0.3,0-1-0.7-1.5-1.5c-0.8-1.3-1.1-2.1-1.1-3.3
		C148.1,17,148.8,16.2,149.8,16.2z M187.7,67.3c-0.3,0.2-0.6,0.3-1.3,0.3l-0.4,0l-0.5-0.1l-0.7,0.1l-0.4,0.1
		c0.7-2.3,1.8-3.3,3.6-3.3c0.7,0,1.1,0.3,1.1,0.7c0,0.2-0.1,0.5-0.3,0.7C188.6,66.5,188.1,67,187.7,67.3z M178.9,62.8
		c0.3,0.6,0.4,0.9,0.5,1c0.1,0.3,0.2,0.5,0.2,0.7c0,0.4-0.1,0.7-0.5,1.3c-0.8,1.3-1.1,1.7-1.6,1.7c-0.3,0-0.5-0.1-0.6-0.3l-0.3-0.8
		c-0.1-0.1-0.2-0.2-0.4-0.2c-0.4,0-0.6,0.3-0.6,1.1v0.8v0.7c0,0.9-0.9,2.1-2.7,3.7c-0.8,0.7-0.9,0.9-1.3,1.7
		c-0.5-0.8-0.7-1.2-0.7-2.1c0-0.6,0.4-1.4,1-2.2c0.4-0.5,0.6-0.9,0.6-1.1c0-0.2-0.1-0.3-0.4-0.3l-0.3,0.1l-0.9,0.5l-1.1,0.5
		c-0.9,0.4-1.5,0.9-2.2,1.8c-0.6,0.8-0.7,0.9-1.6,0.9l-0.2,0l-1,0c-1.6,0-2,0.1-2.9,0.5c0.6-3.4,1.8-4.3,7.1-5.4
		c4.5-0.9,7.2-3.1,7.2-5.8c0-0.9-0.4-2.1-1.3-3.7c-2.1-3.8-2.5-4.6-2.5-6c0-1,0.5-2.2,1.1-2.5l0.9-0.5l0.9-1.1l0.7-0.4
		c0.4-0.2,0.6-0.3,0.8-0.3c0.3,0,0.6,0.3,0.9,1.3c0.1,0.2,0.3,0.6,0.8,1.4c0.5,0.7,0.7,1.4,0.7,2c0,0.4-0.1,0.7-0.2,1.1l-0.4,1.1
		c-0.1,0.4-0.2,0.7-0.2,0.9c0,1.8,0.9,3.6,2,4.1l0.9,0.4c0.3,0.1,0.5,0.4,0.5,0.6c0,0.1-0.1,0.3-0.2,0.6l-0.5,1.1
		c-0.2,0.3-0.6,0.6-0.8,0.6c-0.2,0-0.2-0.1-0.3-0.2l-0.5-0.7c-0.1-0.1-0.3-0.2-0.5-0.2c-0.4,0-0.6,0.3-0.6,0.7
		C178.6,62,178.7,62.5,178.9,62.8z M163.2,64.1c1-0.6,1.6-0.8,2.5-0.8c0.7,0,1.6,0.3,2.1,0.7l0.7,0.7l0.8,0.7
		c0.2,0.1,0.3,0.3,0.3,0.5c0,0.3-0.3,0.5-1.5,0.7l-0.6,0.1c-0.4,0.1-0.7,0.1-1,0.1c-0.6,0-0.7-0.1-1.3-0.9
		C164.7,65.2,164,64.5,163.2,64.1z M137.8,61.8c1-0.8,1.8-1.1,2.8-1.1c0.7,0,1.4,0.2,2.5,0.7c1.6,0.7,1.8,0.7,3.2,1
		c-1.8,1.6-2.9,2.2-4.2,2.2c-0.4,0-0.8-0.1-1.1-0.4l-1.3-1l-1.3-0.9L137.8,61.8z M142.8,28.1l0.1-1.1c0.1-1.8,0.4-2.6,0.9-2.6
		c0.4,0,0.7,0.3,1,1.1c0.3,0.6,0.3,0.9,0.3,1.2c0,0.4-0.1,1.2-0.3,1.8c-0.3,0.9-1,1.7-1.4,1.7c-0.4,0-0.6-0.5-0.6-1.5L142.8,28.1z
		 M135.8,24.1c0.9,0,1.5,0.6,2.1,2.2c0.4,1,0.8,1.7,1.1,1.7c0.1,0,0.2-0.2,0.2-0.8c0-0.7-0.1-1.3-0.3-2c-0.2-0.6-0.2-1.1-0.2-1.5
		l-0.1-0.9l-0.7-0.4c-0.7-0.4-1.1-1.2-1.1-2.2c0-0.4,0-0.8,0.1-1.2c0-0.1,0.2-0.6,0.4-1.5c0.3-1.1,0.5-2.2,0.5-2.8l0-0.6l0.6,0.7
		l0.9,0.9c1.3,1.3,2.3,4.1,2.3,6.7l0,1.1l-0.2,3.1l-0.1,2.6c0,8.6,2.5,14.4,6.2,14.4c0.9,0,2.1-0.8,2.8-2.1c0.2-0.3,0.4-0.5,0.5-0.5
		c0.2,0,0.3,0.2,0.3,0.5l0.1,1.4l0.1,1.2c0.1,0.6,0.1,1,0.2,1.4c0.1,0.6,0.2,1.1,0.2,1.3c0,0.7-0.1,0.7-1.7,0.9
		c-0.6,0.1-1.2,0.3-1.8,0.7c-1,0.7-1.6,1.1-1.7,1.3l-0.7,1.5c-0.1,0.2-0.3,0.3-0.4,0.3c-0.4,0-0.9-0.6-1.6-1.8c-0.7-1.2-1-1.8-1-2.1
		c0-0.2,0.2-0.3,0.6-0.3l0.1,0l0.8,0.1l0.6-0.1l0.5-0.1c0.2-0.1,0.4-0.2,0.4-0.5c0-0.2-0.1-0.3-0.3-0.4l-3-1.3
		c-0.7-0.3-1.5-1.1-2.2-2.2c-0.8-1.2-1.2-2.3-1.2-2.9c0-0.5,0.2-0.8,0.5-0.8c0.1,0,0.3,0,0.5,0.1c0.3,0.2,0.6,0.3,0.8,0.3
		c0.1,0,0.2-0.1,0.4-0.1c0.1-0.1,0.2-0.2,0.2-0.3c0-0.2-0.2-0.4-0.5-0.7c-2.5-1.7-4-3.9-4-5.6c0-0.5,0.1-0.7,0.4-0.7l0.5,0
		c0.4,0.1,0.8,0.1,0.9,0.1c0.4,0,0.6-0.2,0.6-0.5c0-0.2-0.2-0.4-0.6-0.6c-1.6-0.8-2-1.3-3.1-3.6c-0.8-1.8-1.2-2.5-1.9-3.4
		C134.6,24.2,135.1,24.1,135.8,24.1z M27.1,16.2c0.3,0,0.7,0.1,1,0.3c0.3,0.2,0.7,0.3,0.8,0.3c0.3,0,0.5-0.2,0.5-0.8l0-0.2l0.1-1.1
		l0.1-1.1c0-0.2,0.1-0.6,0.3-1.1c0.1-0.1,0.1-0.3,0.3-0.6l0.6,0.5l1.1,0.7l0.7,0.8l0.5,0.7l0.2,0.1c0.2,0,0.3-0.1,0.3-0.7l0-0.2
		l0-0.1c0-0.2,0-0.5,0.1-0.8c0.2-0.6,0.4-1,0.7-1.3l0.8-0.9l0.5-0.7l0.4-0.5c1.4,0.9,2.3,2.3,2.3,3.7l0,0.4
		c-0.1,0.6-0.2,0.9-0.2,1.1c0,0.2,0.1,0.3,0.3,0.3c0.3,0,0.5-0.3,1.1-1c0.5-0.7,1.2-1.2,2.6-2l0.3,0.7l0.3,0.7l0.1,0.8V15v0.9
		c0.1,0.1,0.2,0.2,0.5,0.3l1.3,0.4l1.3,2.4l0.1,0.3c0,0.3-0.1,0.8-0.3,1.3c-0.5,1.4-1.2,2.2-1.8,2.2c-0.2,0-0.3-0.5-0.3-1.1l0-0.6
		l0-0.9c0-0.7-0.1-1-0.4-1c-0.5,0-0.9,2.2-1.2,5.7c-0.2,2.6-0.5,4.3-1.1,5.2c-0.7,1.2-1.1,2.1-1.1,2.7c0,0.1,0.1,0.3,0.2,0.3
		c0.1,0,0.3-0.1,0.5-0.2l0.8-0.3l0.7-0.1c0.5,0,0.9,0.4,1.4,1.4l0.5,0.9c0.5,0.9,0.6,1.2,0.6,1.5c0,0.4-0.3,0.6-0.9,0.6
		c-0.4,0-0.9-0.2-1.3-0.7l-0.7-0.7c-0.2-0.2-0.3-0.3-0.5-0.3c-0.2,0-0.4,0.3-0.4,0.7l0.1,0.6l0.1,0.9L40.8,38
		c-0.1,1.2-0.3,1.6-0.8,1.6l-0.1,0c-0.1,0-0.4-0.2-0.8-0.5c-0.4-0.3-0.7-0.6-0.9-1c-0.3-0.7-0.5-1.1-0.6-1.2
		c-0.1-0.1-0.2-0.1-0.3-0.1c-0.3,0-0.4,0.4-0.6,1.8c-0.2,1.7-1.1,3.3-1.8,3.3c-0.3,0-0.5-0.1-0.6-0.3l-0.7-1.6
		c-0.3-0.7-0.5-1.3-0.5-1.8c0-1.5-0.1-1.9-0.6-1.9c-0.4,0-0.4,0-0.6,0.9c-0.1,0.4-0.3,0.8-0.9,1.7c-0.2,0.3-0.3,0.5-0.3,0.6
		c0,0.1,0.1,0.3,0.3,0.5l1.3,1.2c0.6,0.5,1.1,1.2,1.4,2c0.7,1.6,1,2,1.6,2c0.3,0,0.6-0.1,0.8-0.4c0-0.1,0.4-0.7,1.1-1.8
		c0.5-0.8,1.1-1.2,1.9-1.2l0.1,0l0.9,0.1l0.4,0c0.9,0,1.1-0.1,1.9-0.9c3.1-3,6.7-4.1,13.1-4.1c3,0,5.5,0.3,8.2,0.9
		c2.7,0.6,4.2,1,4.5,1c0.4,0.1,1,0.1,1.6,0.1c1.5,0,2.8-1.2,2.8-2.5c0-2.3-1.3-3-10.2-6.1c-9.1-3.1-12.8-6.5-12.8-11.7
		c0-4.6,3.9-8.1,9-8.1c1.8,0,3.4,0.4,7,1.5l4.3,1.4c0.4,0.1,0.8,0.2,1,0.2c0.7,0,1.3-0.7,1.3-1.5l-0.1-0.8l-0.1-0.5
		c0-0.3,0.1-0.5,0.4-0.5c0.1,0,0.3,0.1,0.4,0.3c0.7,1,1.1,2.1,1.1,2.9c0,1.2-1,2.2-2.2,2.2c-0.9,0-3-0.4-4.4-0.9l-2.8-1
		c-0.6,0-1.5-0.3-2.4-0.9c-0.3-0.2-0.5-0.3-0.7-0.3c-0.2,0-0.3,0.1-0.3,0.3c0,0.2,0.3,0.4,0.9,0.6c0.4,0.1,1.1,0.5,2.2,1.2
		c0.5,0.3,1.6,0.9,3.3,1.6c0.8,0.4,1.4,0.6,1.8,0.7l1.4,0.3l0.4,0.1c0.1,0,0.2,0.2,0.2,0.3c0,0.1-0.1,0.3-0.3,0.4
		c-0.2,0.1-0.5,0.2-0.8,0.3c-0.6,0.2-1.5,0.3-1.9,0.3c-0.9,0-2.5-0.5-3.6-1.2l-3.1-1.9c-1.7-1-3.5-1.6-4.9-1.6
		c-2.8,0-4.9,2.1-4.9,4.9c0,1.2,0.4,2.5,1.2,3.7c0.9,1.4,2,2.4,2.5,2.4c0.2,0,0.3-0.2,0.3-0.4c0-0.2-0.2-0.6-0.7-1.3
		c-0.2-0.3-0.3-0.5-0.3-0.7c0-0.2,0.1-0.3,0.4-0.3c0.2,0,0.5,0.1,0.8,0.3c0.2,0.1,0.8,0.4,1.6,0.9c1.5,0.8,2,1.2,2.7,2.3l0.9,1.3
		l1,1.1c0.3,0.3,0.8,0.6,1.1,0.6c0.2,0,0.3-0.1,0.3-0.1c0-0.1-0.1-0.3-0.2-0.6l-0.5-1.2c-0.2-0.5-0.3-0.8-0.3-1
		c0-0.2,0.2-0.3,0.6-0.3c2,0,4,1.5,5.3,4.1c0.4,0.9,0.8,1.3,1.1,1.3c0.3,0,0.4-0.3,0.4-0.6l0-0.1l-0.1-0.8c0-0.2,0.1-0.3,0.3-0.3
		c0.3,0,1.2,0.6,2.2,1.5c1.6,1.5,2.7,3.8,2.7,5.8c0,3-2,4.8-5.3,4.8c-1.1,0-2.4-0.3-4.4-1c-1.6-0.5-2.8-0.8-3.5-0.9l-2.2-0.2
		c-0.6,0-0.8,0.1-0.8,0.4c0,0.2,0.1,0.3,0.4,0.3l1.2,0.1c0.3,0,0.8,0.3,1.3,0.7c1.8,1.4,2.8,2.7,3.2,4l1.3,4.3
		c0.7,2.3,3,4.1,5.1,4.1l0.3,0l1.6-0.3l0.2,0c0.3,0,0.4,0.1,0.5,0.5l0.4,1.4l0.2,1.4l0,0.2c0,0.4-0.1,0.5-0.4,0.5l-0.3-0.1
		c-0.5-0.2-1.2-0.3-1.5-0.3c-0.3,0-0.5,0.2-0.5,0.5c0,0.2,0.1,0.4,0.3,0.6l0.9,0.7l1,1.1c0.3,0.3,0.4,1,0.4,2.3
		c0,1.1-0.2,1.8-0.6,1.8c-0.2,0-0.4-0.1-0.6-0.2c-0.6-0.4-0.7-0.4-0.8-0.4c-0.3,0-0.5,0.2-0.5,0.5c0,0.1,0,0.3,0.1,0.6
		c0.2,0.5,0.4,0.9,0.7,1.3l0.8,1.1c0.3,0.4,0.5,1.1,0.5,2L74.1,69L73.9,70l0,0.5c0,0.4,0.1,0.8,0.2,1.6c-1.4-0.6-1.9-1.1-2.3-2
		l-1.1-2.2c-0.1-0.2-0.3-0.4-0.5-0.4c-0.1,0-0.2,0.1-0.3,0.1c-0.4,0.3-0.6,0.9-0.6,1.4l0,0.2l0.2,1.4l0,0.2c0,0.6-0.4,1.2-0.9,1.3
		l-1.6,0.3c-0.2,0-0.5,0.2-1,0.5c-0.2,0.1-0.4,0.2-0.7,0.3l0-0.5c0-2.6,0.7-4.3,3.6-8.3c1.4-2,2-3.4,2-4.7c0-2.3-1-3.2-4.9-4.4
		C62,54.4,60,52.2,54.4,43.3c-0.9-1.5-2-2.6-2.4-2.6c-0.1,0-0.3,0.1-0.3,0.3l-0.1,0.3c0,0.1,0.1,0.3,0.3,0.6c0.6,0.7,1.1,1.6,1.1,2
		c0,0.6-0.5,1.1-1.1,1.1c-0.2,0-0.7-0.1-1.5-0.3c-0.4-0.1-0.8-0.1-1.2-0.1c-0.5,0-1,0.1-1.3,0.2l-2.2,0.8c-1,0.4-1.7,0.6-1.8,0.7
		c-0.5,0.3-0.9,0.4-1.2,0.4c-0.3,0-0.5-0.2-0.5-0.5c0-0.1,0.1-0.4,0.3-0.8c0.1-0.2,0.1-0.4,0.1-0.5c0-0.3-0.2-0.6-0.5-0.6
		c-0.3,0-0.6,0.4-1.4,2c-0.3,0.5-0.5,1-0.9,1.6c-0.6,1-0.7,1.5-0.7,2.3c0,0.9,0,0.9,0.7,1.5c0.4,0.3,0.6,0.6,0.6,0.9
		c0,0.2-0.1,0.4-0.2,0.6c-0.5,0.8-1.2,1.6-1.5,1.6c-0.2,0-0.4-0.2-0.5-0.5l-0.3-0.9c0-0.1-0.2-0.2-0.3-0.2c-0.5,0-0.7,0.4-0.7,1.8
		c0,1-0.2,1.9-0.6,2.7c-0.4,0.9-1.2,1.6-1.6,1.6c-0.4,0-0.7-0.4-0.9-0.9l-0.4-1.5c0-0.1-0.1-0.1-0.3-0.1c-0.3,0-0.6,0.3-0.6,0.7
		l0,0.2l0.2,1l0.1,0.9c0,0.6-0.2,1.2-0.5,1.7c-0.9,1.5-1.7,2.3-2.3,2.3c-0.3,0-0.6-0.2-0.6-0.5l-0.3-1.2c0-0.1-0.2-0.2-0.4-0.2
		c-0.3,0-0.5,0.2-0.5,0.5l0,0.5c0.1,0.6,0.2,1.3,0.2,2.1c0,1.3-0.2,2.1-0.6,2.8l-1.2,1.8c-0.5,0.7-0.6,1.2-0.9,2.8
		c-1.4-0.7-2.2-1.9-2.2-3.3l0.1-0.5l0.7-1.9l0.1-0.2c0-0.1-0.1-0.2-0.3-0.2c-0.2,0-0.5,0.3-0.8,0.8c-0.2,0.3-0.5,0.6-1.1,0.9
		c-1.5,0.8-1.7,0.9-1.8,1.2l-0.3,0.9c-0.3,1-0.7,1.2-2.6,1.7c-0.7,0.2-1.2,0.4-2.2,0.9l0.1-0.9c0.2-2.9,1-4.1,3.6-5.4
		c7-3.5,13.3-11,13.3-15.8c0-0.5-0.1-1.1-0.3-1.6l-1.4-3.5c-0.7-1.7-1.3-5.4-1.3-8.1c0-4.4,0.2-5.3,1.3-5.3l0.5,0.1
		c0.3,0.1,0.6,0.1,0.8,0.3c0.2,0.1,0.5,0.2,0.6,0.2c0.2,0,0.3-0.1,0.3-0.3c0-0.2-0.1-0.3-0.8-1.3C31.9,31,31.5,30.2,31,29
		c-0.4-0.9-0.6-1.8-0.8-2.6l-0.5-3.1l-0.5-2.4c-0.2-1.1-0.5-1.5-0.8-1.5c-0.2,0-0.4,0.3-0.4,0.7l0,0.5l0.2,1.1L28,23
		c0,0.2-0.5-0.1-0.7-0.4l-0.9-1.1c-0.7-0.9-1.1-2.1-1.1-3.4C25.4,16.9,26.1,16.2,27.1,16.2z M63.7,67.6l-0.3,0l-0.6-0.1l-0.6,0.1
		l-0.4,0.1c0.7-2.3,1.8-3.3,3.6-3.3c0.7,0,1.2,0.3,1.2,0.7C66.6,66.3,65.2,67.6,63.7,67.6z M56.2,62.8c0.3,0.6,0.4,0.9,0.5,1
		c0.1,0.2,0.1,0.5,0.1,0.8c0,0.4-0.1,0.8-0.5,1.3l-0.7,0.9c-0.3,0.5-0.7,0.8-1,0.8c-0.3,0-0.5-0.1-0.6-0.3l-0.3-0.8
		c-0.1-0.1-0.2-0.2-0.4-0.2c-0.4,0-0.6,0.3-0.6,1.1v0.8v0.7c0,0.9-0.9,2.1-2.7,3.7c-0.8,0.7-1,0.9-1.3,1.7c-0.6-0.7-0.7-1.1-0.7-1.7
		c0-1,0.3-1.7,1.1-2.5c0.4-0.4,0.6-0.9,0.6-1.1c0-0.2-0.1-0.3-0.4-0.3l-0.3,0.1l-0.9,0.5l-1.1,0.5c-0.9,0.4-1.5,0.9-2.2,1.8
		c-0.6,0.8-0.7,0.9-1.6,0.9l-0.2,0l-1,0c-1.6,0-2,0.1-2.9,0.5c0.5-2.6,1.8-4.1,4-4.7l3-0.7c4.8-1.2,7.3-3.1,7.3-5.8
		c0-1-0.5-2.3-1.3-3.8C50.2,54,50,53.5,50,51.8c0-1,0.5-2.1,1.1-2.4l0.9-0.5l0.9-1.1l0.7-0.4l0.5-0.3l0.3-0.1c0.3,0,0.5,0.3,0.9,1.3
		c0,0.1,0.3,0.6,0.9,1.4c0.4,0.7,0.7,1.4,0.7,2c0,0.4-0.1,0.7-0.2,1l-0.5,1.1C56,54.3,56,54.5,56,54.8c0,1.9,0.9,3.7,2,4.2l0.9,0.4
		c0.4,0.2,0.6,0.4,0.6,0.6c0,0.1-0.1,0.3-0.2,0.6l-0.5,1.1c-0.2,0.3-0.4,0.6-0.7,0.6c-0.2,0-0.4-0.1-0.5-0.2L57,61.3
		c-0.1-0.1-0.3-0.2-0.5-0.2c-0.4,0-0.6,0.3-0.6,0.7C55.9,62,56.1,62.5,56.2,62.8z M40.6,64.1c1.1-0.6,1.6-0.8,2.4-0.8
		c0.8,0,1.7,0.3,2.2,0.7l0.7,0.7l0.7,0.7c0.2,0.2,0.3,0.4,0.3,0.5c0,0.3-0.4,0.4-1.5,0.6l-0.6,0.1c-0.4,0.1-0.7,0.1-1,0.1
		c-0.6,0-0.7-0.1-1.3-0.9C42.1,65.2,41.3,64.5,40.6,64.1z M15.1,61.8c0.9-0.8,1.7-1.1,2.7-1.1c0.7,0,1.5,0.2,2.5,0.7
		c0.7,0.3,1.1,0.5,1.2,0.5c0.6,0.2,1,0.3,1.9,0.5c-1.8,1.6-2.9,2.2-4.2,2.2c-0.4,0-0.8-0.1-1.1-0.4l-1.3-1l-1.3-0.9L15.1,61.8z
		 M20.2,27.1l0.1-1.2c0-0.9,0.3-1.3,0.8-1.3c0.4,0,0.8,0.4,1,1c0.2,0.5,0.3,1.1,0.3,1.5c0,0.5-0.1,1-0.3,1.5c-0.3,0.9-1,1.7-1.4,1.7
		c-0.4,0-0.7-0.7-0.7-1.6C20,28.3,20,28.2,20.2,27.1z M13.1,24.1c0.9,0,1.5,0.6,2.1,2.2c0.4,1,0.8,1.7,1.1,1.7
		c0.1,0,0.2-0.2,0.2-0.8c0-0.6-0.1-1.3-0.3-2c-0.2-0.6-0.2-1.1-0.2-1.5l-0.1-0.9l-0.8-0.4c-0.2-0.1-0.4-0.3-0.6-0.7
		c-0.4-0.6-0.5-1.1-0.5-1.5c0-0.3,0.1-0.7,0.2-1.2c0.7-2.5,0.9-3.5,0.9-4.3l0-0.6l0.6,0.7l0.9,0.9c1.5,1.5,2.2,4,2.2,7.5
		c0,0.8,0,1.3-0.2,3.4c-0.1,1.1-0.1,2-0.1,2.7c0,8.2,2.6,14.3,6.2,14.3c1.1,0,1.8-0.5,2.9-2.1c0.2-0.3,0.4-0.5,0.6-0.5
		c0.2,0,0.3,0.2,0.3,0.5l0.1,1.4l0.1,1.2l0.1,1.4L29,47l0,0.2c0,0.4-0.2,0.6-0.5,0.6L27.3,48c-0.6,0.1-1.2,0.3-1.8,0.7
		c-1,0.6-1.6,1.1-1.7,1.3l-0.7,1.5c-0.1,0.2-0.3,0.3-0.4,0.3c-0.4,0-1-0.7-1.7-1.8c-0.6-1-1-1.8-1-2.1c0-0.2,0.2-0.3,0.6-0.3h0.1
		l0.9,0.1l0.5-0.1l0.6-0.1c0.2,0,0.4-0.2,0.4-0.5c0-0.2-0.1-0.3-0.3-0.4l-3-1.3c-0.9-0.4-1.7-1.1-2.2-2.2c-0.8-1.6-1.2-2.5-1.2-3
		c0-0.4,0.2-0.7,0.5-0.7c0.1,0,0.3,0,0.5,0.1c0.3,0.1,0.7,0.3,0.8,0.3c0.3,0,0.5-0.2,0.5-0.4c0-0.2-0.2-0.5-0.5-0.7
		c-2.5-1.8-3.9-3.8-3.9-5.6c0-0.5,0.1-0.7,0.4-0.7l0.5,0.1l0.9,0.1h0c0.3,0,0.6-0.2,0.6-0.5c0-0.2-0.2-0.4-0.5-0.6
		c-0.6-0.3-0.9-0.5-1.1-0.6c-0.4-0.2-0.7-0.5-0.9-0.9C14,30,13.6,29.3,13,28l-0.9-1.8c-0.3-0.7-0.5-1-0.6-1.1
		c-0.1-0.1-0.2-0.3-0.4-0.5C12,24.2,12.4,24.1,13.1,24.1z M26.3,168.1c-0.4,0.4-0.8,0.6-1,0.6c-0.3,0-0.8-0.4-1.2-1l-0.5-0.7
		c-0.2-0.3-0.3-0.5-0.3-0.7c0-0.4,0.3-0.6,1.2-0.8c0.4-0.1,0.6-0.3,0.6-0.6c0-0.4-0.3-0.6-0.8-0.6h-1c-1.2,0-1.9-0.5-2.9-1.8
		c-0.9-1.2-1.3-2.1-1.3-2.6c0-0.3,0.1-0.5,0.3-0.5l0.7-0.1c0.1,0,0.2-0.2,0.2-0.4c0-0.2-0.2-0.5-0.6-0.7l-1.2-0.9l-1.1-1l-0.7-1.9
		c-0.4-1.1-0.6-1.7-0.6-2c0-0.1,0.2-0.3,0.4-0.3l1.3-0.1c0.1,0,0.3-0.1,0.3-0.2c0-0.1-0.1-0.3-0.2-0.4c-0.1-0.2-0.3-0.3-0.4-0.4
		l-1.4-1l-1.4-2.1l-1-2.4l-0.3-0.7c0.5-0.1,0.8-0.1,1.1-0.1c0.9,0,1.7,0.3,2.4,1c0.3,0.3,0.5,0.4,0.7,0.4c0.1,0,0.2-0.2,0.3-0.5
		l0-0.3c0-0.3-0.1-0.6-0.4-1.5c-0.4-1-0.6-2.3-0.6-3.5l0.1-1.3c0.2-0.9,0.3-1.5,0.3-1.7c0-0.1,0-0.4-0.1-0.7
		c2.3,1.6,3.8,3.7,3.8,5.4l-0.1,0.9c0,0.2-0.3,1.3-0.7,3.2c-0.3,1.4-0.5,2.8-0.5,4c0,1.2,0.2,2.5,0.5,3.5c1.4,4.7,4.1,8.3,6.4,8.3
		c0.8,0,1.8-0.6,2.3-1.4c0.2-0.3,0.4-0.5,0.5-0.5c0.3,0,0.5,0.6,0.5,1.4c0,1.1,0.3,1.9,1,3.2c0.2,0.3,0.3,0.6,0.3,0.8
		c0,0.5-0.5,0.8-2.8,1.3C27.5,166.8,26.8,167.4,26.3,168.1z M21.9,145.6c0.9,0.5,1.6,1.5,1.6,2.2c0,0.2-0.2,0.6-0.5,1
		c-0.2,0.4-0.3,0.6-0.5,0.8l-0.7,1.3c-0.1,0.2-0.2,0.3-0.4,0.3c-0.3,0-0.6-0.6-0.6-1.4C21,148.6,21.4,146.6,21.9,145.6z M31.8,174.1
		c0.4,0,1.2,0.5,1.7,1l0.7,0.7c0.4,0.4,0.7,0.6,0.7,0.7c0,0.1-0.2,0.3-0.5,0.5c-0.7,0.3-1.9,0.7-2.4,0.7c-0.6,0-0.8-0.1-2.1-1.5
		c-0.1-0.1-0.2-0.2-0.5-0.5c-0.1-0.1-0.2-0.2-0.3-0.3C30.3,174.5,31.1,174.1,31.8,174.1z M59.9,186.5c-0.2,0-0.4-0.2-0.5-0.5
		c-0.2-0.5-0.3-0.6-0.6-0.6c-0.4,0-0.5,0.2-0.5,0.6l0.1,0.7l0.1,0.7c0,0.7-0.3,1.6-0.8,2.3c-0.2,0.3-0.5,0.6-0.7,0.6
		c-0.2,0-0.4-0.1-0.5-0.3l-0.3-0.5c-0.1-0.1-0.2-0.2-0.3-0.2c-0.4,0-0.6,0.5-0.6,1.4v1.1c0,0.8-0.4,1.6-1.4,3.2
		c-0.7,1.1-0.9,1.3-1.2,2.2c-0.8-1-1.1-1.9-1.1-3.3c0-0.7,0-1.2,0.1-1.5l0.3-0.9l-0.1-0.3l-0.6,0.3l-0.6,0.3
		c-0.2,0.1-0.3,0.2-0.4,0.5l-0.3,0.9c-0.1,0.5-0.9,1-1.8,1.2l-1.1,0.3c-0.2,0.1-0.5,0.2-0.9,0.3c-0.1,0.1-0.4,0.1-0.7,0.3
		c0.6-3.5,2.4-5.4,6.2-6.8c3.3-1.2,4.3-2.2,4.3-4.7c0-1.1-0.3-2.3-1.6-5.5c-0.9-2.3-1.4-4.1-1.4-5.3c0-2,1.3-3.5,3.1-3.5
		c0.5,0,0.7,0.2,0.8,0.8c0.2,0.9,0.5,1.7,0.8,2.4c0.8,1.8,1.1,2.7,1.2,2.8c0.2,0.6,0.3,1.8,0.3,3.6c0.1,2.4,0.6,3.8,1.8,4.7
		c0.4,0.3,0.5,0.4,0.5,0.6l-0.1,0.3l-0.4,0.6l-0.5,0.8C60.2,186.4,60,186.5,59.9,186.5z M44.4,187.2c0.8-1,2.1-1.6,3.4-1.6
		c0.6,0,0.8,0.1,2.4,0.7c0.4,0.1,0.7,0.3,1,0.3c0.4,0.1,0.7,0.3,0.7,0.3c0,0.2-0.2,0.4-0.6,0.5L50,188l-1.4,0.5
		c-0.2,0.1-0.5,0.1-0.8,0.1c-0.5,0-0.8,0-1-0.1c-0.1,0-0.5-0.3-1-0.7C45.3,187.6,45.1,187.5,44.4,187.2z M63.2,199.1
		c-1.5,0.1-1.8,0.3-2.2,1.3c-0.3-0.8-0.4-1.1-0.4-1.6c0-1.3,1.1-3,2.4-3.6l1.9-0.9c0.2-0.1,0.5-0.3,1-0.6c0.2-0.1,0.4-0.2,0.4-0.2
		c0.1,0,0.2,0.2,0.2,0.4C66.5,196,64.9,199,63.2,199.1z M70.3,165.1c-1.9,0-4.1-0.5-6.8-1.6c-0.4-0.2-1-0.3-1.2-0.3
		c-0.3,0-0.6,0.2-0.6,0.4c0,0.3,0.4,0.5,1.5,0.9c1.8,0.6,3.3,3.4,3.9,7.4c0.8,5.5,2.3,7.5,5.5,7.5H73c0.6,0,0.7,0.2,0.8,1.6l0.1,1.2
		l0,0.8c0,2-0.2,2.7-0.7,2.7c-0.1,0-0.3-0.1-0.5-0.2c-0.4-0.3-0.6-0.3-0.8-0.3c-0.3,0-0.6,0.2-0.6,0.5c0,0.1,0,0.3,0.1,0.4
		c0.1,0.1,0.4,0.5,0.8,1c0.8,1,1.3,2.4,1.3,3.7c0,0.9-0.3,1.7-0.6,1.7c-0.2,0-0.5-0.2-1.1-0.7c-0.1-0.1-0.2-0.1-0.3-0.1
		c-0.2,0-0.4,0.2-0.4,0.5c0,0.2,0.2,0.6,0.8,1.3c0.9,1.1,1.4,2.9,1.4,4.4l-0.1,1.1l-0.1,0.9c-0.8-0.2-1-0.3-1.6-1l-1-1.1
		c-0.2-0.2-0.4-0.3-0.5-0.3c-0.3,0-0.6,0.4-0.6,0.8c0,0.2,0.1,0.6,0.3,1.2c0.2,0.7,0.3,1.4,0.3,2.1c0,1.4-0.4,2.6-1.2,3.4l-0.9,1
		l-0.4,0.8c-0.3-0.5-0.4-0.8-0.5-1c-0.1-0.2-0.2-0.7-0.5-1.5c-0.5-1.8-0.6-2.4-0.6-3.1c0-0.9,0.2-1.9,0.8-3.5
		c1.7-5,2.5-8.7,2.5-11.7c0-3-1.3-4.8-4.6-6.7c-3.9-2.2-4.2-2.6-5.5-6.7c-1.5-5.2-3.2-8.4-4.2-8.4c-0.2,0-0.4,0.1-0.4,0.3
		c0,0.3,0.1,0.5,0.5,0.9c0.3,0.3,0.4,0.6,0.4,0.9c0,0.1-0.1,0.2-0.1,0.3c-0.1,0.2-0.3,0.3-0.4,0.3c-0.1,0-0.4-0.1-0.6-0.3
		c-0.9-0.7-1.5-0.9-2.4-0.9c-1,0-2.5,0.5-4.5,1.3c-0.4,0.2-0.8,0.3-1.1,0.3c-0.4,0-0.7-0.3-0.7-0.7c0-0.3,0.1-0.8,0.3-1.2
		c0.1-0.3,0.2-0.5,0.2-0.7c0-0.3-0.1-0.5-0.4-0.5l-0.2,0.1c0,0-0.2,0.5-0.5,1.4l-0.7,1.8c-0.1,0.4-0.2,0.7-0.2,1
		c0,1.2,0.9,2.6,2.2,3.5c0.4,0.3,0.5,0.4,0.5,0.6c0,0.3-0.4,1-0.9,1.9c-0.3,0.4-0.7,0.7-0.9,0.7c-0.1,0-0.3-0.1-0.5-0.2L44,174
		c-0.1-0.1-0.3-0.1-0.4-0.1c-0.1,0-0.2,0.1-0.3,0.1c-0.2,0.2-0.3,0.3-0.3,0.4c0,0.2,0.1,0.4,0.2,0.7c0.1,0.3,0.2,0.6,0.2,0.8
		c0,0.4-0.1,0.9-0.3,1.4c-0.3,0.7-0.7,1.3-1,1.3c-0.1,0-0.3-0.2-0.5-0.6c-0.2-0.5-0.4-0.7-0.7-0.7c-0.1,0-0.3,0.1-0.4,0.2
		c-0.2,0.2-0.3,0.4-0.3,0.7l0.2,1.5l0,0.3c0,0.9-0.7,2.6-1.7,4c-0.6,0.8-1,1.4-1.1,1.8c-0.1,0.1-0.1,0.4-0.2,0.9
		c-0.8-1.2-1.1-2-1.1-3.7c0-0.9,0.1-1.7,0.3-2.3c0.1-0.2,0.1-0.4,0.1-0.6c0-0.2-0.2-0.4-0.4-0.4c-0.1,0-0.3,0.1-0.4,0.1l-0.7,0.6
		c0,0-0.3,0.2-0.9,0.5c-0.3,0.2-0.6,0.4-0.6,0.6v0.6c0,0.7-0.6,1.3-1.5,1.3l-1,0l-0.3,0c-0.6,0-1,0.1-1.8,0.3c0.7-3.2,1.3-4.3,3-4.9
		l2.2-0.8c3.6-1.3,5.7-3.2,5.7-5.1c0-1.5-1.2-3.5-2.7-4.7l-3-2.4c-2-1.6-3.9-5.6-3.9-8.3c0-2.3,0.4-3,1.8-3l0.6,0.1
		c0.9,0.3,1.3,0.5,1.3,0.5c0.2,0,0.3-0.2,0.3-0.4c0-0.2-0.4-0.7-1-1.1c-0.5-0.4-1.1-1.2-1.7-2.4c-0.4-0.9-0.7-1.8-0.8-2.6l-0.3-2.4
		c-0.3-2.4-0.9-4.1-1.5-4.1c-0.2,0-0.3,0.2-0.3,0.6c0,0.3,0.1,0.6,0.2,1l0.1,0.8c0,0.5-0.1,0.9-0.3,0.9c-0.2,0-0.9-0.6-1.4-1.5
		c-1.2-1.8-1.5-2.4-1.5-3.2c0-1.1,0.8-1.7,2-1.7c0.4,0,0.6,0.1,0.8,0.2c0.2,0.2,0.4,0.3,0.4,0.3l0,0c0.2,0,0.4-0.2,0.4-0.6l0-0.4
		V138l0.1-1.2c0-0.1,0.2-0.6,0.4-1.4l0.1-0.5c1.5,0.5,1.8,0.8,2.8,1.9c0.3,0.3,0.5,0.5,0.6,0.5c0.1,0,0.3-0.3,0.3-0.6l0.1-1.2
		l0.7-1.8l0.7-1.2l0.3-0.5c0.1,0.2,0.3,0.3,0.3,0.4c1.3,1.6,1.7,2.2,1.7,3.1v0.3c0,1,0.1,1.2,0.6,1.2c0.2,0,0.3-0.1,0.5-0.2l0.9-0.7
		l1-0.9l0.7-0.6l0.6-0.3l0.1,0.7l0.3,1.4l0.1,1.3l-0.1,0.9c0,0.4,0.3,0.8,0.6,0.8c0.1,0,0.2,0,0.5-0.1l0.5-0.1
		c1.1,0,1.8,0.9,1.8,2.2c0,0.4-0.1,0.8-0.3,1.2l-0.6,1.5c-0.3,0.7-0.6,1.1-0.9,1.1c-0.3,0-0.4-0.4-0.4-1.3l0-0.7l0-0.3
		c0-0.5-0.2-1-0.3-1c-0.1,0-0.2,0.2-0.3,0.4c-0.4,1.2-0.9,3.4-1,4.5l-0.2,2.3c-0.2,0-0.4,0.9-0.5,2c0,0.7-0.3,1.3-0.9,1.8
		c-0.7,0.6-1.3,1.3-1.3,1.6c0,0.3,0.2,0.5,0.5,0.5l0.2,0l0.6-0.3l0.9-0.3c0.2-0.1,0.4-0.1,0.4-0.1c0.2,0,0.4,0.4,0.6,0.9
		c0.5,1.3,0.9,2.2,1.3,2.6c0.7,0.7,0.9,1,0.9,1.2c0,0.2-0.1,0.3-0.3,0.5c-0.2,0.2-0.4,0.3-0.6,0.3c-0.2,0-0.5-0.1-0.9-0.3
		c-0.5-0.2-0.8-0.6-1.1-0.9c-0.2-0.2-0.3-0.3-0.5-0.3c-0.3,0-0.3,0.1-0.3,0.6l0.1,1.2l0,0.3c0,1.1-0.5,2-1.1,2
		c-0.2,0-0.5-0.1-0.7-0.3c-0.3-0.3-0.5-0.7-0.8-1.2c-0.3-0.6-0.4-0.9-0.4-1.1c-0.3-1.2-0.5-1.4-0.8-1.4c-0.3,0-0.4,0.2-0.8,1.4
		c-0.1,0.3-0.3,0.6-0.5,0.9c-0.4,0.5-0.8,0.8-1,0.8c-0.5,0-1-0.8-1.3-1.9l-0.5-1.9c-0.1-0.3-0.3-0.5-0.5-0.5c-0.3,0-0.5,0.5-0.5,1.1
		c0,1.4,0.4,2.9,1.1,4.5c0.5,1.1,1.2,1.9,1.6,1.9c0.1,0,0.3-0.2,0.7-0.5c0.4-0.4,0.9-0.6,1.4-0.6c0.7,0,1.7,0.4,2.4,0.9l0.9,0.7
		c0.2,0.2,0.4,0.3,0.6,0.3c0.2,0,0.4-0.2,0.7-0.6c2.3-3.2,5.6-4.6,10.6-4.6c2.8,0,6,0.4,8.8,1.2c4.1,1.1,6.3,1.8,6.8,1.8
		c0.4,0.1,1,0.1,1.8,0.1c2.5,0,4.1-1.2,4.1-3.2c0-2.1-2.1-3.5-6.9-4.6c-12.6-2.8-16.6-5.7-16.6-12.3c0-4.7,3.8-8.5,8.5-8.5
		c2.2,0,5,1,8.2,3c3.1,2,4.2,2.5,5.2,2.5c0.6,0,0.8-0.1,1.2-0.5c0.2-0.2,0.3-0.4,0.5-0.7c0.1-0.2,0.2-0.4,0.2-0.5l0.2-1.4l0.2-0.3
		c0.1-0.1,0.3,0.1,0.4,0.3l0.3,0.7c0.2,0.4,0.3,0.8,0.3,1.1c0,1.9-1.5,3.3-3.4,3.3c-2.1,0-3.9-0.8-7.4-3.1c-1.3-0.9-2.2-1.4-2.8-1.6
		l-1.7-0.7c-0.2-0.1-0.4-0.1-0.6-0.1c-0.2,0-0.4,0.1-0.4,0.2c0,0.2,0.3,0.4,2.1,1.3c0.5,0.3,1.3,0.8,2.6,1.8l3.3,2.5
		c0.7,0.5,1.6,0.9,2.8,1.2c0.3,0.1,0.6,0.2,0.6,0.3c0,0.1-0.2,0.3-0.5,0.4c-0.3,0.2-0.7,0.3-1.1,0.3c-1.9,0-3.7-0.6-5.2-1.7
		l-3.2-2.4c-1.2-0.9-3-1.6-4.4-1.6c-2.3,0-4.1,2-4.1,4.5c0,2.1,1.1,3.9,3.5,5.9c1.6,1.2,2.4,1.8,2.8,1.8c0.2,0,0.4-0.1,0.4-0.2
		c0-0.2-0.3-0.6-0.7-1c-0.3-0.3-0.5-0.5-0.5-0.7c0-0.1,0.1-0.2,0.1-0.3c0.1-0.1,0.3-0.2,0.5-0.2c1.3,0,3.7,1.3,4.8,2.6
		c1.4,1.6,1.6,1.8,1.9,1.8l0.1,0c0.1,0,0.2-0.1,0.3-0.3l0.1-0.3c0-0.2-0.3-0.7-0.6-1c-0.2-0.2-0.4-0.6-0.4-0.8
		c0-0.4,0.3-0.6,0.9-0.6c1.5,0,3.6,1.2,4.5,2.6l1.2,1.8c0.1,0.2,0.3,0.3,0.5,0.3c0.2,0,0.3-0.1,0.3-0.3l-0.1-0.3l-0.3-0.7l-0.1-0.9
		l0.3-0.1l0.1,0c0.6,0.1,1.1,0.5,1.6,1c1.9,1.8,3,4.1,3,6.4C75.9,162.8,73.4,165.1,70.3,165.1z M138.2,143c-0.7-1.3-0.9-1.9-0.9-3.2
		c0-0.3,0.1-0.6,0.3-1.5c0.1-0.5,0.1-0.7,0.1-1.1l0-1v-0.7c2.4,1.5,3.8,3.6,3.8,5.8c0,0.4-0.1,1-0.2,1.8c-0.7,4-1,7.4-1,9.9
		c0,5.9,1.7,9.3,4.8,9.3c1.2,0,1.9-0.3,3-1.4c0.1-0.1,0.3-0.3,0.5-0.5v0.9l-0.2,1.5l-0.3,2l-0.1,1.2c0,0.6-0.1,0.7-0.2,0.7
		c-0.1,0-0.3-0.1-0.6-0.2c-0.5-0.2-1.9-0.3-3.2-0.3c-1.2,0-3.1,0.7-4.1,1.4c-0.2,0.2-0.4,0.3-0.5,0.3c-0.4,0-0.8-0.6-1-1.7l-0.3-1.1
		c-0.1-0.3-0.1-0.7-0.1-1c0-0.5,0-0.6,0.7-0.6l0.7,0.1c0.4,0.1,0.6,0.1,0.7,0.1c0.2,0,0.4-0.2,0.4-0.5c0-0.2-0.1-0.4-0.2-0.5
		c0,0-0.5-0.2-1.3-0.6c-0.3-0.1-0.6-0.4-1-0.8c-0.4-0.4-0.6-0.9-0.7-1.3l-0.4-1.7l-0.1-1c0-0.4,0.1-0.5,0.4-0.5c0.1,0,0.3,0,0.5,0.1
		c0.3,0.1,0.5,0.2,0.6,0.2c0.2,0,0.4-0.3,0.4-0.6c0-0.3-0.1-0.5-0.3-0.7l-0.7-0.7c-0.1-0.1-0.3-0.4-0.5-0.8
		c-0.3-0.6-0.4-1.2-0.4-1.7c0-0.7,0.3-1.4,0.7-1.4l0.3,0l0.4,0.1c0.2,0,0.5-0.2,0.5-0.5c0-0.4-0.1-0.5-1.3-1.6
		c-1.2-1.1-1.2-1.2-1.8-3.4c-0.2-0.8-0.3-1.2-0.8-2.3l1.1-0.1c1.1,0,1.5,0.2,1.9,0.7l0.5,0.7c0.1,0.1,0.2,0.2,0.3,0.2
		c0.2,0,0.3-0.2,0.3-0.4C138.8,144.6,138.6,143.7,138.2,143z M142.1,150.4v-0.7l0.1-1l0.2-1l0.1-1c0.1-0.8,0.3-1.4,0.5-1.4
		c0.3,0,0.7,0.4,0.9,0.9c0.2,0.3,0.2,0.6,0.2,0.9c0,0.7-0.4,1.6-0.9,2l-0.6,0.5L142.1,150.4z M143.4,178.8c0,0.1-0.2,0.2-0.5,0.3
		l-0.7,0.2l-0.8,0.3c-0.3,0.1-0.6,0.1-0.9,0.1c-1.2,0-1.7-0.3-2.6-1.3c-0.7-0.8-0.8-0.9-1.5-1.2c0.9-0.6,1.8-0.9,2.7-0.9
		c0.5,0,0.9,0.1,1.5,0.4c0.5,0.3,1,0.6,1.6,0.9C142.9,178.3,143.4,178.7,143.4,178.8z M168.3,175.4c-2.5,3.4-3.3,5.3-3.3,7.4
		c0,1.7,0.5,3.2,1.4,4.5c0.2,0.2,0.3,0.4,0.3,0.5c0,0.2-0.2,0.5-0.5,0.8c-0.1,0.1-0.2,0.3-0.4,0.5c-0.5,0.8-0.9,1.1-1.2,1.1
		c-0.3,0-0.5-0.2-0.6-0.5l-0.3-0.7c-0.1-0.2-0.2-0.3-0.4-0.3c-0.1,0-0.2,0.1-0.3,0.3c-0.2,0.2-0.3,0.5-0.3,0.7v1.1
		c0,0.4-0.2,0.9-0.5,1.3c-0.3,0.4-0.6,0.7-0.9,1c-0.2,0.2-0.4,0.3-0.5,0.3c-0.2,0-0.4-0.2-0.5-0.5l-0.4-1.3
		c-0.1-0.2-0.2-0.3-0.3-0.3c-0.2,0-0.4,0.4-0.5,0.9c-0.1,1.5-0.4,2.4-0.8,2.8l-0.9,0.8c-0.3,0.3-0.6,0.5-0.8,0.5
		c-0.2,0-0.4-0.1-0.4-0.2l-0.5-1c-0.1-0.1-0.2-0.2-0.3-0.2c-0.3,0-0.5,0.5-0.6,1.5c-0.2,2.4-0.7,3.4-2,4.3c-1,0.7-1.2,1-1.6,1.8
		c-0.6-0.8-0.8-1.6-0.8-2.6c0-0.5,0.1-0.9,0.3-1.2c0.3-0.5,0.4-0.9,0.4-1.1c0-0.2-0.1-0.3-0.2-0.3c-0.1,0-0.2,0.1-0.3,0.3
		c-0.2,0.2-0.5,0.4-0.9,0.7c-1.2,0.7-1.4,0.9-1.6,2.2c-0.4,1.8-1.2,2.6-3,3c-2.2,0.5-2.4,0.5-3.2,1.3l-0.1-1.2
		c0-3.1,1.1-4.5,5.7-6.8c8.9-4.5,13.8-8.7,13.8-11.8c0-0.6-0.2-1.6-0.8-3.5c-0.4-1.2-0.6-2.2-0.6-2.9c0-1.5,1.2-3.7,2.7-5l1.2-1.1
		c0.7-0.6,1.2-1.5,1.2-2.1l0-0.3l0-0.4c0-0.6,0.3-0.9,0.9-0.9l0.6-0.1c0.3-0.1,0.5-0.1,0.5-0.1c0.2,0,0.4,0.1,0.6,0.3l0.3,0.5
		l0.5,0.5c0.1,0.2,0.3,0.3,0.4,0.3c0.1,0,0.3-0.1,0.5-0.2c0.3-0.2,0.6-0.3,0.8-0.3c0.3,0,0.5,0.2,0.5,0.6
		C170.7,171.5,169.9,173.4,168.3,175.4z M145.2,195.8c0-2.1,2.1-3.9,4.6-3.9c1.3,0,2,0.3,2,0.7c0,0.3-0.6,0.8-1.8,1.4
		c-0.1,0.1-0.8,0.4-1.9,1.1c-1.3,0.7-1.7,0.9-2.9,1.4L145.2,195.8z M172,179.8c1-2.4,2.3-3.4,4.3-3.4c1.1,0,1.6,0.2,1.6,0.5
		c0,0.3-0.1,0.3-1.4,1.2c-0.4,0.3-0.7,0.5-0.9,0.7c-0.4,0.3-0.6,0.5-0.8,0.5l-1.2-0.1C173.2,179.4,172.9,179.6,172,179.8z
		 M193.3,141.5c-1.3,0-3.1-0.6-5.8-2.1c-1.4-0.7-2.4-1.2-3-1.4l-2.5-0.7c-0.5-0.1-0.7-0.1-0.7-0.1c-0.2,0-0.3,0.1-0.3,0.3
		c0,0.1,0.1,0.3,0.3,0.3l2.7,1.1l3,2c1.4,0.9,3.3,1.8,4.1,1.9l1.4,0.1l0.2,0.1l0,0.1c0,0.2-0.4,0.5-1,0.7c-1.2,0.3-1.6,0.4-2.1,0.4
		c-1.3,0-3.4-0.8-5-1.8l-2.7-1.8l-2.3-1.2c-0.4-0.2-1-0.3-1.7-0.3c-2.7,0-5.1,2.2-5.1,4.7c0,1.2,0.7,2.7,1.7,3.9
		c1,1.1,2.2,2.1,2.6,2.1c0.2,0,0.3-0.2,0.3-0.4l-0.1-0.4c-0.2-0.3-0.3-0.6-0.3-0.6c0-0.1,0.2-0.3,0.4-0.3l0,0c0.4,0,0.8,0.1,1.1,0.3
		c1.1,0.5,2.5,1.5,3,2.2c1,1.5,1.1,1.6,1.5,1.6c0.2,0,0.4-0.1,0.4-0.4l0-0.1c-0.1-0.4-0.2-0.8-0.5-1.3c-0.2-0.3-0.3-0.5-0.3-0.8
		c0-0.2,0.1-0.3,0.2-0.3c0.3,0,1.3,0.3,2.1,0.7c2,1,2.9,1.9,3.3,3.4c0.4,1.2,0.8,1.9,1.2,1.9c0.2,0,0.3-0.2,0.3-0.5
		c0-0.2,0-0.4-0.1-0.6c-0.1-0.3-0.2-0.6-0.2-0.7c0-0.2,0.1-0.4,0.4-0.4c0.3,0,0.9,0.4,1.2,0.8c1.8,2.2,2.6,3.7,2.6,5.4
		c0,3.1-2.6,5.6-5.7,5.6c-1.8,0-4.8-0.7-6.7-1.5c-2-0.8-3-1.2-3.4-1.2c-0.4,0-0.6,0.2-0.6,0.4c0,0.2,0.1,0.4,0.4,0.5l1.5,1
		c-0.1,0,0.9,1.3,1.6,2.2l1.8,2.2c0.8,1,2.5,1.8,3.7,1.8l0.8-0.1l0.2,0c0.2,0,0.2,0.1,0.2,0.3c0,0.1-0.1,0.4-0.3,1
		c-0.3,1-0.6,1.4-1,1.4c-0.1,0-0.3-0.1-0.5-0.3c-0.4-0.4-0.7-0.6-0.9-0.6c-0.2,0-0.4,0.2-0.4,0.4c0,0.2,0.1,0.4,0.2,0.7
		c0.3,0.7,0.6,1.5,0.6,1.8c0,0,0,0.3-0.1,0.7c-0.2,0.7-0.5,1.2-0.8,1.2c-0.1,0-0.4-0.2-0.7-0.5c-0.2-0.3-0.5-0.5-0.7-0.5l0,0
		c-0.1,0-0.2,0.1-0.3,0.2c-0.1,0.1-0.1,0.2-0.1,0.3c0,0.1,0.1,0.4,0.2,0.6c0.2,0.5,0.3,0.9,0.3,1.3c0,1.3-0.3,2.4-1,3.3
		c-0.4,0.6-0.7,0.9-0.7,1.1l-0.3,0.9l-0.3,0.7c-0.7-1.4-0.9-1.8-0.9-2.8l0-0.2l0-0.2c0-0.6-0.1-1-0.4-1c-0.2,0-0.5,0.4-0.8,1.1
		l-0.5,1.3l-0.5,1.4l-1,1l-1.1,0.7l-0.5,0.5c-0.3-1.1-0.5-2.6-0.5-3.4c0-1.3,0.7-2.8,1.6-3.3l2.4-1.5c1.7-1.1,2.6-2.9,2.6-4.9
		c0-1.1-0.2-1.5-1.1-1.7l-2.9-0.7c-1.4-0.3-3-1.8-4.2-4c-0.8-1.4-1.3-2.3-1.5-2.6c-0.1-0.2-0.3-0.3-0.5-0.3c-0.2,0-0.3,0.1-0.3,0.3
		c0,0.2,0.2,0.6,0.4,1c0.2,0.3,0.3,0.6,0.3,0.8c0,0.2-0.1,0.3-0.2,0.5c-0.2,0.2-0.4,0.3-0.6,0.3c-0.2,0-0.4-0.1-0.7-0.2
		c-1.4-0.6-2.4-0.9-3.1-0.9c-1.3,0-2.1,0.3-4.6,1.7c-0.6,0.3-1.1,0.6-1.5,0.7l-1.6,0.6c-0.3,0.1-0.5,0.1-0.7,0.1
		c-0.3,0-0.5-0.1-0.6-0.3v-0.5v-0.5l0.1-0.7c0-0.2-0.1-0.3-0.2-0.3c-0.1,0-0.3,0.1-0.4,0.4c-0.1,0.2-0.4,0.8-0.9,1.6
		c-0.7,1.2-1,2.2-1,3.1c0,0.3,0,0.5,0.1,0.7l0.5,0.8c0.1,0.2,0.2,0.4,0.2,0.6c0,0.3-0.1,0.5-0.2,0.7l-0.6,0.9
		c-0.6,0.9-0.9,1.1-1.2,1.1c-0.2,0-0.4-0.2-0.6-0.7c-0.4-1-0.8-1.4-1.1-1.4c-0.2,0-0.3,0.2-0.3,0.4l0,0.1l0.3,1l0.1,1.2
		c0,0.7-0.5,1.7-1.3,2.5c-0.1,0.1-0.4,0.2-0.6,0.3h0c-0.2,0-0.3-0.1-0.4-0.3c-0.2-0.4-0.6-0.7-0.7-0.7c-0.1,0-0.2,0.2-0.2,0.4l0,0.8
		c0,0.2-0.1,0.7-0.3,1.2c-0.2,0.4-0.4,0.8-0.7,1.2c-0.2,0.3-0.6,0.6-1,0.9c-0.3,0.2-0.4,0.3-0.5,0.3c-0.1,0-0.2-0.1-0.4-0.3
		c-0.1-0.1-0.2-0.3-0.2-0.4c-0.1-0.6-0.1-0.6-0.4-0.6c-0.3,0-0.3,0.3-0.4,1.3c0,0.6-0.7,1.8-1.6,3c-0.5,0.7-0.9,1.2-1,1.4
		c-0.1,0.1-0.2,0.4-0.3,0.8c-0.9-1.2-1.1-1.7-1.1-2.6c0-0.6,0.2-1.2,0.5-1.7c0.3-0.5,0.5-0.8,0.5-1.1c0-0.2-0.1-0.4-0.3-0.4
		c-0.2,0-0.6,0.3-1,0.7l-1.1,1.2c-0.4,0.4-0.6,0.7-0.7,0.7c-0.2,0.1-0.6,0.2-1.1,0.3l-1.2,0.2c-1,0.2-1.2,0.2-1.9,0.8
		c0.4-3.2,1.6-4.9,4.3-5.7l4.2-1.2c4.1-1.2,6.5-4.3,6.5-8.3c0-0.6-0.2-1.7-0.5-3.1c-0.3-1.6-0.5-2.9-0.4-3.9l0.5-5.3l0.6-3.7
		c0.1-0.8,0.9-1.6,1.5-1.6c0.2,0,0.5,0.1,0.7,0.2c0.4,0.2,0.7,0.3,0.9,0.3c0.1,0,0.3-0.1,0.3-0.2c0-0.1-0.2-0.4-0.5-0.7
		c-1.3-1.2-2.2-3.3-2.6-6.4c-0.4-3.5-1-5.2-1.6-5.2c-0.2,0-0.3,0.1-0.3,0.4l0,0.1l0.1,0.9l0.1,1.1l0,0.1c0,0.3,0,0.4-0.1,0.4
		c-0.4,0-1.3-1-1.9-2.1c-0.5-1-0.8-1.7-0.8-2.2c0-1.2,0.8-2.1,2-2.1c0.4,0,0.5,0,1.5,0.6c0.2,0.1,0.3,0.1,0.4,0.1
		c0.2,0,0.3-0.3,0.3-1.1c0-1.1,0.3-1.9,0.9-3.2l0.3-0.5c0.2,0.2,0.4,0.4,0.5,0.5c0.6,0.5,1,0.8,1.1,0.9l0.8,1
		c0.1,0.2,0.3,0.3,0.5,0.3h0c0.2,0,0.3-0.2,0.3-0.5v-0.8c0-1.4,0.7-2.8,2.1-4.1c1,1,1.8,2.7,1.8,3.8c0,0.3-0.1,0.8-0.2,1.4l0,0.3
		c0,0.2,0.1,0.3,0.4,0.3c0.4,0,0.4-0.1,1.4-1.2c0.3-0.3,0.5-0.6,0.8-0.7l1-0.6l0.5-0.3l0.2,0.7l0.3,0.8l0.4,1.6l-0.1,0.7l-0.1,0.5
		c0,0.3,0.2,0.4,0.6,0.4l0.5,0l0.4,0c0.3,0,0.6,0.2,1,0.7c0.4,0.4,0.5,0.9,0.5,1.5c0,0.9-0.4,2.1-0.9,2.7l-0.8,0.9l-0.7,0.3
		l-0.1-0.4l0-0.3c0-0.3,0.1-0.5,0.1-0.8c0.1-0.4,0.2-0.7,0.2-0.9c0-0.4-0.1-0.6-0.4-0.6c-0.1,0-0.2,0.1-0.4,0.4
		c-0.8,1.2-1.1,1.9-1.3,3.9c-0.4,3.2-1.4,5.4-3,6.8c-0.3,0.2-0.5,0.6-0.5,0.7c0,0.2,0.1,0.3,0.3,0.3l0.4-0.1
		c0.8-0.2,1.3-0.4,1.4-0.4l0.4-0.1l0.2,0.1c0.1,0.1,0.2,0.2,0.3,0.5c0.1,0.3,0.3,0.8,0.6,1.5c0.4,1.1,0.8,1.7,1.2,2.2
		c0.3,0.3,0.4,0.5,0.4,0.6c0,0.1-0.2,0.3-0.5,0.5c-0.2,0.2-0.4,0.3-0.6,0.3c-0.2,0-0.4-0.1-0.8-0.3c-0.3-0.2-0.6-0.4-0.7-0.7
		c-0.3-0.4-0.4-0.7-0.5-0.7c-0.1-0.1-0.2-0.1-0.3-0.1c-0.3,0-0.5,0.5-0.6,1.2c-0.3,1.9-0.6,2.7-1.2,2.7c-0.2,0-0.5-0.2-0.8-0.5
		c-0.4-0.6-0.9-1.5-1-2.1c-0.2-1-0.4-1.3-0.6-1.3c-0.2,0-0.4,0.3-0.5,0.7c-0.5,2.3-1,3.4-1.7,3.4c-0.8,0-1.6-1.7-1.6-3.6l0-0.3
		l0-0.4c0-0.7-0.1-1-0.5-1c-0.1,0-0.3,0.1-0.3,0.3c0,0.1-0.1,0.5-0.2,1.1l-0.2,1.3l-0.1,1.2c0,0.7,0.1,1.4,0.1,1.8
		c0.1,0.5,0.3,1.1,0.7,1.7c0.5,1,1.4,1.8,1.8,1.8c0.2,0,0.4-0.2,0.6-0.4l0.7-0.9c0.4-0.5,1.1-0.9,1.6-0.9c0.4,0,0.9,0.2,1.4,0.5
		c0.5,0.3,0.7,0.4,0.9,0.4c0.3,0,0.5-0.1,0.9-0.5c2.8-2.9,6.2-4.3,11.1-4.3c3,0,6.4,0.7,11.6,2.4c2.2,0.7,3.3,0.9,4.3,0.9
		c2.2,0,3.6-1,3.6-2.5c0-1.8-1.7-3.2-6.3-5.1l-5.6-2.3c-5.4-2.2-8-5.3-8-9.2c0-4.6,4.3-8.6,9.3-8.6c1.9,0,3.9,0.5,7,1.7
		c3.3,1.3,4.8,1.8,5.9,1.8c1.3,0,1.8-0.4,1.8-1.6l0-0.4l0-0.5c0-0.3,0.1-0.5,0.3-0.5c0.1,0,0.2,0.1,0.3,0.3c0.2,0.3,0.3,0.5,0.4,0.9
		c0.2,0.6,0.3,1.4,0.3,1.9C195.9,140.5,194.8,141.5,193.3,141.5z M105.3,233.6c0,0-9.8-4.9-21-10.4v-97.9H6.8c0-0.4,0-0.9,0-1.3
		V83.4h77.6V4.3h41.9v79.1h77.6V124c0,0.4,0,0.9,0,1.3h-77.5v97.9C115,228.8,105.3,233.6,105.3,233.6z"/>
	<path d="M139.6,103.2c0,0,0.4,2.2,1.4,4.7c1-2.5,1.4-4.7,1.4-4.7c2.2,0.4,3.9,0.1,3.9,0.1c-4.9-3-4.9-11.4-4.9-12.4l1.6-1.9l-2-2.4
		l-2,2.4l1.6,1.9c0,1,0.1,9.4-4.9,12.4C135.7,103.3,137.4,103.6,139.6,103.2z"/>
	<path d="M152.2,117.4c0,0,0.4,2.2,1.4,4.7c1-2.5,1.4-4.7,1.4-4.7c2.2,0.4,3.9,0.1,3.9,0.1c-4.9-3-4.9-11.4-4.9-12.4l1.6-1.9l-2-2.4
		l-2,2.4l1.6,1.9c0,1,0.1,9.4-4.9,12.4C148.4,117.5,150,117.9,152.2,117.4z"/>
	<path d="M164.9,103.2c0,0,0.4,2.2,1.4,4.7c1-2.5,1.4-4.7,1.4-4.7c2.2,0.4,3.9,0.1,3.9,0.1c-4.9-3-4.9-11.4-4.9-12.4l1.6-1.9l-2-2.4
		l-2,2.4l1.6,1.9c0,1,0.1,9.4-4.9,12.4C161,103.3,162.7,103.6,164.9,103.2z"/>
	<path d="M93.9,158.6l1.6-1.9l-2-2.4l-2,2.4l1.6,1.9c0,1,0.1,9.4-4.9,12.4c0,0,1.7,0.3,3.9-0.1c0,0,0.4,2.2,1.4,4.7
		c1-2.5,1.4-4.7,1.4-4.7c2.2,0.4,3.9,0.1,3.9,0.1C93.8,167.9,93.9,159.5,93.9,158.6z"/>
	<path d="M156.2,153.9c0.5,0,0.8-0.3,1.4-1.1l0.7-1.5c1-1.4,1.7-2.4,1.7-3.4c0-0.7-0.4-1.3-0.9-1.3c-0.1,0-0.3,0.1-0.5,0.1l-0.9,0.4
		c-0.6,0.3-1.2,0.4-1.6,0.4c-0.3,0-0.6-0.1-0.9-0.2l-1-0.7c-0.3-0.2-0.5-0.1-0.8-0.1c-0.5,0-0.9,0.5-0.9,1.2c0,0.8,0.3,1.8,1.2,3.5
		C155.1,153.4,155.4,153.9,156.2,153.9z M155.8,148.7l0.3,0h0.5l0.3,0c0.6,0,0.8,0.1,0.8,0.6c0,0.2,0,0.3-0.2,0.9
		c-0.2,1.4-0.7,2.3-1.3,2.3c-0.5,0-0.9-0.6-1-1.1l-0.1-1.3l0-0.3C155.2,149,155.4,148.7,155.8,148.7z"/>
	<path d="M154.4,144.9c0.4,0,0.9-0.2,1-1.1c0-0.3,0.1-0.6,0.2-0.9c0.1-0.3,0.1-0.6,0.1-0.7c0-0.4-0.4-0.5-1.4-1
		c-0.3-0.1-0.8-0.4-1.3-0.7l-0.9-0.6l-0.1,0c-0.2,0-0.3,0.1-0.3,0.3l0,0.3c0.3,0.9,0.7,2,1,2.6C153.5,144.2,154,144.9,154.4,144.9z"
		/>
	<path d="M115.6,71.2c0,0,0.4,2.2,1.4,4.7c1-2.5,1.4-4.7,1.4-4.7c2.2,0.4,3.9,0.1,3.9,0.1c-4.9-3-4.9-11.4-4.9-12.4l1.6-1.9l-2-2.4
		l-2,2.4l1.6,1.9c0,1,0.1,9.4-4.9,12.4C111.8,71.3,113.4,71.6,115.6,71.2z"/>
	<path d="M115.6,28.3c0,0,0.4,2.2,1.4,4.7c1-2.5,1.4-4.7,1.4-4.7c2.2,0.4,3.9,0.1,3.9,0.1c-4.9-3-4.9-11.4-4.9-12.4l1.6-1.9l-2-2.4
		l-2,2.4l1.6,1.9c0,1,0.1,9.4-4.9,12.4C111.8,28.4,113.4,28.8,115.6,28.3z"/>
	<path d="M36.8,154c0.7,0,1.3-1.1,2.2-2.6c0.8-1.4,1.4-2.5,1.4-3.2c0-0.7-0.4-1.1-0.9-1.1c-0.1,0-0.3,0.1-0.5,0.1l-1.1,0.5
		c-0.3,0.2-0.7,0.3-1.2,0.3c-0.6,0-1.2-0.2-1.7-0.5l-0.6-0.4c-0.2-0.1-0.5-0.2-0.8-0.2c-0.7,0-1.1,0.4-1.1,1.3
		c0,0.5,0.2,1.2,0.5,1.8C34.5,152.5,35.8,154,36.8,154z M35.6,149.2l0.1,0l0.7,0.1l0.8-0.1l0.2,0c0.3,0,0.5,0.1,0.5,0.5l0,0.2
		l-0.2,1c-0.2,1.3-0.5,2.1-0.9,2.1c-0.2,0-0.4-0.1-0.5-0.3c-0.7-1-1.2-2.2-1.2-2.8C35,149.4,35.2,149.2,35.6,149.2z"/>
	<path d="M157.6,144.6c0,0.4,0.3,0.7,0.7,0.7l0.1,0c0.2,0,0.4-0.1,0.5-0.2c0.1-0.1,0.1-0.7,0.7-1.4l1.5-1.5l0.7-1.1
		c0.1-0.2,0.1-0.3,0.1-0.4c0-0.2-0.1-0.4-0.3-0.4c-0.1,0-0.2,0.1-0.6,0.3l-1.4,0.7l-1.4,0.4c-0.3,0.1-0.6,0.3-0.6,0.7v0.1l0.1,1.1
		L157.6,144.6z"/>
	<path d="M32,105.2l1.6-1.9l-2-2.4l-2,2.4l1.6,1.9c0,1,0.1,9.4-4.9,12.4c0,0,1.7,0.3,3.9-0.1c0,0,0.4,2.2,1.4,4.7
		c1-2.5,1.4-4.7,1.4-4.7c2.2,0.4,3.9,0.1,3.9,0.1C31.9,114.5,32,106.1,32,105.2z"/>
	<path d="M69.9,90.9l1.6-1.9l-2-2.4l-2,2.4l1.6,1.9c0,1,0.1,9.4-4.9,12.4c0,0,1.6,0.3,3.9-0.1c0,0,0.4,2.2,1.4,4.7
		c1-2.5,1.4-4.7,1.4-4.7c2.2,0.4,3.9,0.1,3.9,0.1C69.8,100.3,69.9,91.9,69.9,90.9z"/>
	<path d="M103.8,49.8c0,0,0.4,2.2,1.4,4.7c1-2.5,1.4-4.7,1.4-4.7c2.2,0.4,3.9,0.1,3.9,0.1c-5-3-4.9-11.4-4.9-12.4l1.6-1.9l-2-2.4
		l-2,2.4l1.6,1.9c0,1,0.1,9.4-4.9,12.4C100,49.9,101.6,50.2,103.8,49.8z"/>
	<path d="M57.3,105.2l1.6-1.9l-2-2.4l-2,2.4l1.6,1.9c0,1,0.1,9.4-4.9,12.4c0,0,1.6,0.3,3.9-0.1c0,0,0.4,2.2,1.4,4.7
		c1-2.5,1.4-4.7,1.4-4.7c2.2,0.4,3.9,0.1,3.9,0.1C57.2,114.5,57.3,106.1,57.3,105.2z"/>
	<path d="M44.7,90.9l1.6-1.9l-2-2.4l-2,2.4l1.6,1.9c0,1,0.1,9.4-4.9,12.4c0,0,1.7,0.3,3.9-0.1c0,0,0.4,2.2,1.4,4.7
		c1-2.5,1.4-4.7,1.4-4.7c2.2,0.4,3.9,0.1,3.9,0.1C44.6,100.3,44.6,91.9,44.7,90.9z"/>
	<path d="M19.4,90.9L21,89l-2-2.4L17,89l1.6,1.9c0,1,0.1,9.4-4.9,12.4c0,0,1.6,0.3,3.9-0.1c0,0,0.4,2.2,1.4,4.7
		c1-2.5,1.4-4.7,1.4-4.7c2.2,0.4,3.9,0.1,3.9,0.1C19.3,100.3,19.4,91.9,19.4,90.9z"/>
	<path d="M92.1,71.2c0,0,0.4,2.2,1.4,4.7c1-2.5,1.4-4.7,1.4-4.7c2.2,0.4,3.9,0.1,3.9,0.1c-4.9-3-4.9-11.4-4.9-12.4l1.6-1.9l-2-2.4
		l-2,2.4l1.6,1.9c0,1,0.1,9.4-4.9,12.4C88.2,71.3,89.9,71.6,92.1,71.2z"/>
	<path d="M118,84.1c-1.6,0-3,1-3.6,2.4h-5.6c-0.6-1.4-1.9-2.4-3.6-2.4c-1.6,0-3,1-3.6,2.4h-5.6c-0.6-1.4-1.9-2.4-3.6-2.4
		c-1.6,0-3,1-3.6,2.4l-7.3,0l0,34.1h6.4v13.1h7.6v-13.1h19.1v13.1h7.6v-13.1h6.4V86.5l-7.2,0C121,85.1,119.6,84.1,118,84.1z
		 M88.9,96.1c1,0,1.7,0.8,1.7,1.7c0,1-0.8,1.7-1.7,1.7c-0.9,0-1.7-0.8-1.7-1.7C87.1,96.9,87.9,96.1,88.9,96.1z M87.1,113.4
		c0-0.9,0.8-1.7,1.7-1.7c1,0,1.7,0.8,1.7,1.7c0,0.9-0.7,1.7-1.7,1.7C87.9,115.1,87.1,114.4,87.1,113.4z M93.5,131.3h-3.9v-1.6h3.9
		V131.3z M93.5,128.6h-3.9v-5h3.9V128.6z M94.3,92.9c0,1-0.8,1.8-1.8,1.8c-1,0-1.8-0.8-1.8-1.8v-4.7c0-1,0.8-1.8,1.8-1.8
		c1,0,1.8,0.8,1.8,1.8V92.9z M103.5,88.2c0-1,0.8-1.8,1.8-1.8c1,0,1.8,0.8,1.8,1.8v4.7c0,1-0.8,1.8-1.8,1.8c-1,0-1.8-0.8-1.8-1.8
		V88.2z M105.6,110.4c-4.2,0-7.6-1.7-10.3-5c2.4-2.9,6.1-4.6,10.1-4.6c3.8,0,6.8,1.4,9.9,4.6C112.1,109,109.4,110.4,105.6,110.4z
		 M116.2,88.2c0-1,0.8-1.8,1.8-1.8c1,0,1.8,0.8,1.8,1.8v4.7c0,1-0.8,1.8-1.8,1.8s-1.8-0.8-1.8-1.8V88.2z M120.1,131.3h-3.9v-1.6h3.9
		V131.3z M120.1,128.6h-3.9v-5h3.9V128.6z M121.7,115.1c-1,0-1.7-0.8-1.7-1.7c0-0.9,0.8-1.7,1.7-1.7c0.9,0,1.7,0.8,1.7,1.7
		C123.4,114.4,122.6,115.1,121.7,115.1z M123.4,97.8c0,1-0.8,1.7-1.7,1.7c-1,0-1.7-0.8-1.7-1.7c0-0.9,0.8-1.7,1.7-1.7
		C122.6,96.1,123.4,96.9,123.4,97.8z"/>
	<path d="M97.2,105.4c2.3,2.3,5,3.5,8,3.5c3.3,0,5.5-0.9,8-3.4c-2.9-2.3-5-3.1-8-3.1C102.4,102.3,100,103.2,97.2,105.4z
		 M105.2,106.2c-1.6,0-2.9-0.4-4.5-1.5c1.4-0.8,2.9-1.1,4.6-1.1c1.6,0,3.2,0.4,4.8,1.1C108.5,105.7,107,106.2,105.2,106.2z"/>
</g>
</svg>
