<svg width="31" height="34" viewBox="0 0 31 34" fill="none" xmlns="http://www.w3.org/2000/svg">
<path d="M15.4999 0C19.6111 0 23.5537 1.52964 26.4603 4.25326C29.3673 6.97689 31 10.6708 31 14.522C30.9988 18.2186 29.4936 21.7752 26.7906 24.4671L19.3164 32.3315C17.2024 34.5562 13.7982 34.5562 11.6842 32.3315L4.21241 24.4694C1.50823 21.7773 0.00178528 18.2197 -1.90735e-06 14.522C-1.90735e-06 10.6708 1.63326 6.97703 4.53971 4.25326C7.44677 1.52964 11.3895 0 15.5001 0H15.4999ZM15.4999 9.7779C14.1569 9.7779 12.869 10.2774 11.9195 11.1675C10.9695 12.0571 10.4363 13.2636 10.4363 14.522C10.4363 15.7804 10.9695 16.9875 11.9195 17.8771C12.869 18.7666 14.1568 19.2667 15.4999 19.2667C16.843 19.2667 18.1315 18.7666 19.0809 17.8771C20.0304 16.9875 20.5641 15.7804 20.5641 14.522C20.5641 13.2636 20.0304 12.0571 19.0809 11.1675C18.1315 10.2774 16.8431 9.7779 15.4999 9.7779Z" fill="#9CB0C7"/>
</svg>
