<svg width="41" height="34" viewBox="0 0 41 34" fill="none" xmlns="http://www.w3.org/2000/svg">
<path fill-rule="evenodd" clip-rule="evenodd" d="M21.5293 0.243481L40.3695 9.68705C40.7553 9.88021 41 10.2757 41 10.708C41 11.1407 40.7562 11.5359 40.3705 11.7291L37.8711 12.982L37.8748 24.5092C37.851 25.1423 37.5083 25.7201 36.9652 26.0436C36.4218 26.3674 35.7516 26.3928 35.1856 26.1109C34.6196 25.8291 34.2347 25.2786 34.1635 24.6491V14.8527L37.7505 13.0408C37.7376 12.6367 37.5843 12.25 37.3172 11.9472C37.0497 11.6447 36.6853 11.4451 36.2866 11.3834L20.7624 8.99374C20.3086 8.92236 19.8452 9.03528 19.4751 9.30788C19.1046 9.58011 18.8581 9.98941 18.7901 10.4447C18.6449 11.3916 19.0045 12.4211 19.949 12.5663L34.2941 14.7745L21.5297 21.1727C20.8817 21.4977 20.1178 21.4977 19.4697 21.1727L0.629548 11.7295C0.243774 11.536 0 11.1408 0 10.7081C0 10.2758 0.243774 9.88021 0.629548 9.68705L19.4697 0.243481C20.1178 -0.0811398 20.8813 -0.0811398 21.5293 0.243481ZM9.58887 19.729L19.5425 24.7181H19.5427C20.1454 25.0202 20.8541 25.0202 21.4567 24.7181L31.4103 19.729V26.8543C31.4103 29.8747 26.5256 34 20.4996 34C14.474 34 9.58887 29.8747 9.58887 26.8543V19.729Z" fill="#9CB0C7"/>
</svg>
