<svg width="34" height="38" viewBox="0 0 34 38" fill="none" xmlns="http://www.w3.org/2000/svg">
<path fill-rule="evenodd" clip-rule="evenodd" d="M23.6807 2.00124C21.0124 -0.667081 16.6564 -0.667081 13.988 2.00124L13.6066 2.3826L13.2253 2.00124C10.5569 -0.667081 6.20095 -0.667081 3.53253 2.00124C0.864109 4.66957 0.864206 9.02556 3.53253 11.694C3.53253 11.694 11.1016 18.664 13.6609 18.664C16.2202 18.664 23.7893 11.694 23.7893 11.694C26.3486 9.08031 26.3486 4.66927 23.6806 2.00124H23.6807ZM21.5026 30.9706L23.3539 32.822L29.5073 26.669L23.4629 20.6789C22.9729 20.1889 22.3192 19.9166 21.6659 19.9166L9.52279 20.9513H9.19613H9.0328C8.48811 20.9513 7.99808 21.1689 7.56245 21.5503C7.12678 21.9313 6.96344 22.4216 6.96344 22.966C6.96344 24.1097 7.88911 25.0353 9.03278 25.0353H17.7455C17.8546 25.0353 17.9632 25.0896 18.0722 25.1443C18.2355 25.3077 18.2355 25.58 18.0722 25.7434C17.9632 25.8524 17.8546 25.8524 17.7455 25.8524H9.03278C7.45382 25.8524 6.14674 24.5454 6.14674 22.9663C6.14674 22.204 6.4734 21.4416 7.01808 20.897C7.29043 20.6246 7.56277 20.4613 7.88943 20.298C7.83511 20.2437 7.78041 20.189 7.72609 20.189L4.40404 16.8673C3.42407 15.8873 1.79036 15.8873 0.755646 16.8673C-0.279069 17.8473 -0.224324 19.481 0.755646 20.5157L8.10708 28.6294C8.59707 29.1194 9.2508 29.3917 9.90405 29.3917L19.6512 30.2631C20.3592 30.2084 21.0126 30.4807 21.5026 30.9707L21.5026 30.9706ZM27.2212 36.7427L33.5923 30.3716C34.137 29.8273 34.137 28.9016 33.5923 28.3569L32.4486 27.2132C31.9042 26.6685 30.9786 26.6685 30.4339 27.2132L24.0628 33.5843C23.5181 34.1286 23.5181 35.0543 24.0628 35.599L25.2065 36.7427C25.7509 37.2874 26.6765 37.2874 27.2212 36.7427Z" fill="#9CB0C7"/>
</svg>
