<svg width="27" height="42" viewBox="0 0 27 42" fill="none" xmlns="http://www.w3.org/2000/svg">
<path d="M22.8461 0.000108643H4.15396C1.81733 0.0516721 0 1.91189 0 4.23641V29.5521C0 31.7735 1.81733 33.5818 4.04992 33.5818H4.15391H8.93076L8.77494 39.4198C8.77494 40.0915 9.19023 40.7113 9.81354 41.0214C10.4365 41.2796 11.1116 41.1765 11.6309 40.7633L13.5 39.1616L15.3691 40.7633C15.6808 41.0733 16.096 41.1765 16.5113 41.1765C16.719 41.1765 16.9788 41.1765 17.1864 41.073C17.8093 40.7629 18.225 40.0916 18.225 39.3683L18.0692 33.5818H22.846C25.0786 33.6334 26.9482 31.8771 27 29.6552V29.5517V4.23603C27 1.91142 25.1827 0.0516259 22.846 0L22.8461 0.000108643ZM10.1248 7.23316H16.8748C17.7575 7.23316 18.4327 7.9049 18.4327 8.78329C18.4327 9.66163 17.7576 10.3334 16.8748 10.3334H10.1248C9.24204 10.3334 8.56688 9.66168 8.56688 8.78329C8.56724 7.90458 9.24235 7.23316 10.1248 7.23316ZM14.6422 36.0623C13.9671 35.494 13.0325 35.494 12.3574 36.0623L11.9421 36.4239L12.0979 31.4123C12.5654 31.5158 13.0843 31.6189 13.6036 31.6189C14.0188 31.6189 14.4863 31.5674 14.9016 31.4639L15.0574 36.4235L14.6422 36.0623ZM13.604 28.5191C11.8384 28.5191 10.3846 27.0725 10.3846 25.3158C10.3846 23.559 11.8384 22.1124 13.604 22.1124C15.3695 22.1124 16.8234 23.559 16.8234 25.3158C16.823 27.0725 15.3691 28.5191 13.604 28.5191ZM19.9905 16.0159H7.00934C6.12659 16.0159 5.45144 15.3441 5.45144 14.4658C5.45144 13.5874 6.12655 12.9156 7.00934 12.9156H19.9905C20.8733 12.9156 21.5484 13.5874 21.5484 14.4658C21.5481 15.3445 20.8733 16.0159 19.9905 16.0159Z" fill="#9CB0C7"/>
</svg>
