<svg width="24" height="42" viewBox="0 0 24 42" fill="none" xmlns="http://www.w3.org/2000/svg">
<path d="M22.4711 26.144V41.28H1.59571V26.144C1.59571 23.8049 3.45721 21.8785 5.71748 21.8785H18.4155C20.6763 21.8781 22.4714 23.8049 22.4714 26.144H22.4711ZM22.2712 13.5536V6.05455C22.2712 5.98593 22.2712 5.98593 22.2049 5.91682L24 5.15999L14.3866 1.01477C12.8834 0.366586 11.1806 0.36076 9.67295 0.998648L0 5.09132L9.69289 9.19212C11.1888 9.82501 12.8774 9.82435 14.3728 9.19031L21.6068 6.12319V13.485V13.5537L21.0085 17.2001H22.87L22.2712 13.5536ZM12.0332 20.2959C16.4211 20.2959 20.0109 16.5809 20.0109 12.04C20.0109 10.8019 19.7452 9.70095 19.2796 8.6687L12.0332 11.7651L4.78675 8.6692C4.32115 9.701 4.05543 10.871 4.05543 12.0405C4.05543 16.5809 7.64526 20.2959 12.0332 20.2959Z" fill="#9CB0C7"/>
</svg>
