<svg width="44" height="39" viewBox="0 0 44 39" fill="none" xmlns="http://www.w3.org/2000/svg">
<path fill-rule="evenodd" clip-rule="evenodd" d="M8.95993 5.51082C8.95993 6.28122 8.3287 6.90643 7.54905 6.90643C6.77087 6.90643 6.14145 6.28268 6.13965 5.51082V1.39561C6.13965 0.628413 6.77083 0 7.54869 0C8.32835 0 8.95957 0.628385 8.95957 1.39561L8.95993 5.51082ZM18.5963 5.51082C18.5963 6.28122 17.9651 6.90643 17.1854 6.90643C16.4076 6.90643 15.7764 6.28268 15.7764 5.51082V1.39561C15.7764 0.628413 16.4075 0 17.1854 0C17.9651 0 18.5963 0.628385 18.5963 1.39561V5.51082ZM26.8182 6.90643C27.5961 6.90643 28.2273 6.28122 28.2273 5.51082V1.39561C28.2273 0.628385 27.596 0 26.8182 0C26.04 0 25.4092 0.628413 25.4092 1.39561V5.51082C25.4092 6.28268 26.04 6.90643 26.8182 6.90643ZM37.8619 5.51082C37.8619 6.28122 37.2307 6.90643 36.4529 6.90643C35.6732 6.90643 35.0438 6.28268 35.042 5.51082V1.39561C35.042 0.628413 35.6732 0 36.4529 0C37.2307 0 37.8619 0.628385 37.8619 1.39561V5.51082ZM40.9213 3.45361H39.3785V5.51117C39.3785 7.10986 38.0663 8.40955 36.4522 8.40955C34.8382 8.40955 33.526 7.10986 33.526 5.51117V3.45361H29.7459V5.51117C29.7459 7.10986 28.4337 8.40955 26.8197 8.40955C25.2056 8.40955 23.8934 7.10986 23.8934 5.51117L23.893 3.45361H20.1144V5.51117C20.1144 7.10986 18.8004 8.40955 17.1863 8.40955C15.5723 8.40955 14.2601 7.10986 14.2601 5.51117V3.45361H10.4767V5.51117C10.4767 7.10986 9.16451 8.40955 7.54868 8.40955C5.93609 8.40955 4.62242 7.10986 4.62242 5.51117V3.45361H3.08112C1.38164 3.45361 0 4.82036 0 6.504V10.2945H43.9995L43.9992 6.504C43.9992 4.82218 42.6208 3.45361 40.9213 3.45361ZM3.08237 38.7617C1.38115 38.7617 0.00125381 37.3979 0.00125381 35.7146L0.000976562 11.7964H44.0005V35.7146C44.0005 37.3964 42.6239 38.7617 40.9226 38.7617H3.08237ZM37.5635 14.2666H31.3382V18.391H37.5635V14.2666ZM37.5635 21.9292H31.3382V26.0537H37.5635V21.9292ZM25.114 14.2666H18.8886V18.391H25.114V14.2666ZM25.114 21.9292H18.8886V26.0537H25.114V21.9292ZM25.114 29.5887H18.8886V33.7131H25.114V29.5887ZM12.6663 14.2669H6.43909V18.3917L12.6663 18.3913V14.2669ZM12.6663 21.9295H6.43909V26.0543L12.6663 26.054V21.9295ZM12.6663 29.589H6.43909V33.7134H12.6663V29.589Z" fill="#9CB0C7"/>
</svg>
