<svg width="61" height="42" viewBox="0 0 61 42" fill="none" xmlns="http://www.w3.org/2000/svg">
<path d="M60.4572 18.6489C60.6289 18.0617 61.1713 16.0785 60.9461 15.183C60.8135 14.6519 60.503 14.4347 60.2669 14.3456C59.7541 14.1518 59.2866 14.4332 58.9855 14.6374L58.1721 14.0067C58.1268 13.972 58.0779 13.943 58.0264 13.9181L56.7923 13.3512L54.2835 12.1007C54.0433 11.982 53.7588 11.9996 53.5367 12.1473L53.2033 12.3686L51.8002 10.8243C51.651 10.6595 51.4356 10.5719 51.2099 10.5807L47.6725 10.7611L47.3849 10.5885C47.2866 10.5299 47.1769 10.4947 47.063 10.4854L46.1773 10.4118L45.7202 9.95628V8.53281C45.7202 8.31361 45.6235 8.10579 45.4555 7.96432L43.6213 6.42569C43.4684 6.29769 43.2718 6.24017 43.0731 6.25416L42.2972 6.32463L41.5972 5.80072L41.4474 5.05501L41.9961 4.5684C42.2483 4.34453 42.319 3.98074 42.1677 3.6807L41.4921 2.3339C41.4718 2.29399 41.4479 2.25565 41.4214 2.22041L39.9735 0.29679C39.7858 0.0480464 39.4623 -0.0576738 39.1633 0.0309453L37.3384 0.577147H35.1307C34.9092 0.577147 34.6996 0.675091 34.5576 0.844544L33.8165 1.73173H30.498C30.278 1.73173 30.0684 1.82812 29.9269 1.99706L27.8997 4.40105C27.7873 4.53474 27.7254 4.70421 27.7254 4.87885V5.75929L26.2053 5.23486C26.1267 5.2074 26.0441 5.19392 25.9614 5.19392L25.2541 5.19496C25.2354 4.99597 25.136 4.81148 24.9785 4.68451C24.8027 4.54407 24.5712 4.48914 24.3507 4.53889L22.9705 4.84412L22.0937 4.11706C21.9065 3.96159 21.6553 3.90667 21.4202 3.97092L20.3322 4.26682L19.6406 4.4824C19.5875 4.4 19.5183 4.32693 19.4356 4.26941L18.1807 3.40399C18.0564 3.31797 17.9077 3.27185 17.7563 3.27185H15.5227C14.8071 3.10912 14.0593 2.88318 13.9396 2.81634C13.3566 2.23438 12.3752 2.53909 12.0637 2.65569L11.0428 3.07907H8.00664C7.59528 3.07907 7.26086 3.41177 7.26086 3.8222V3.90408L6.69919 4.13728L5.69027 4.13624C5.47132 4.13624 5.2633 4.23211 5.12132 4.39898C4.97986 4.56636 4.91902 4.78609 4.9549 5.00167L5.13848 6.09511V6.89886C5.13848 7.11133 5.22949 7.31343 5.38811 7.45439L6.14169 8.12132L6.67996 9.26968C6.64356 10.3693 6.23115 10.6113 6.24623 10.6113H6.24675C6.09177 10.6579 5.95603 10.7533 5.86035 10.8839L2.19284 15.8846C2.05346 16.0733 2.01237 16.3179 2.08259 16.5412L2.45859 17.7606L2.31193 17.7212C1.92188 17.617 1.52143 17.8414 1.40546 18.2254C1.19743 18.9172 0.727819 20.0781 0.380413 20.3755C0.201504 20.5278 -0.183339 20.9668 0.102185 21.7374C0.401742 22.5443 2.07793 24.3757 2.79513 24.3757C2.89499 24.3757 3.07753 24.3757 4.60552 23.9331L6.78976 24.7161C6.82252 24.7286 6.85633 24.7379 6.89065 24.7441L9.20696 25.225C9.30109 25.2452 9.39782 25.2468 9.49247 25.2287L11.5249 24.8607C13.9438 25.0058 15.4088 23.546 15.8238 23.0657C19.5672 21.1447 21.0406 23.1066 21.0962 23.1838C21.1737 23.2968 21.2803 23.3859 21.4052 23.4429L23.1458 24.2316L23.2898 25.451C23.2971 25.5122 23.3122 25.5728 23.3346 25.6308L24.2993 28.1313C24.3424 28.2411 24.4111 28.3406 24.5 28.4194C25.0893 28.9418 25.7882 29.6165 26.0014 29.8912C26.0154 30.013 26.0378 30.1622 26.0654 30.3244C25.616 30.1534 24.954 29.973 24.4042 29.8373C24.0443 29.7481 23.6699 29.9368 23.531 30.2824L22.9824 31.6485L21.7477 33.4498L20.4928 35.5656C20.355 35.7983 20.354 36.0849 20.4907 36.3181L21.1663 37.4726C21.3332 37.7582 21.6682 37.9012 21.9911 37.8188C23.0027 37.567 24.2294 37.283 24.4157 37.2648C24.4672 37.2654 24.54 37.2752 24.6253 37.284C25.1406 37.3389 25.9186 37.4229 26.3898 36.9513C26.7118 36.6311 26.952 35.917 27.1101 35.2961C27.3031 35.1261 27.5933 34.852 27.8112 34.5628C27.8684 34.4861 27.949 34.398 28.0395 34.297C28.4056 33.8855 28.9486 33.274 29.1654 32.4842L29.9861 31.1462C31.3601 30.9488 32.1298 30.9301 32.5516 30.9524C32.419 31.0674 32.263 31.1871 32.1163 31.283C31.8735 31.4411 31.7445 31.7256 31.7861 32.0111C31.8277 32.2977 32.0316 32.5335 32.3093 32.6164L34.2403 33.1927C34.3006 33.2103 34.3625 33.2206 34.4259 33.2232L36.8879 33.3186L37.5 33.4202C36.9997 33.8669 36.3424 33.9508 36.3065 33.9549C36.1276 33.9726 35.9622 34.056 35.8389 34.1866L34.4873 35.6293C34.3168 35.8112 34.2497 36.0662 34.3079 36.3082C34.3651 36.5502 34.5414 36.7471 34.7754 36.8336L36.6097 37.5068C36.6918 37.5374 36.7797 37.5529 36.8676 37.5529H37.5411L37.6498 38.6971L36.9649 40.1482C36.7927 40.513 36.9441 40.9483 37.3055 41.1287C37.9936 41.4717 38.9114 41.8806 39.3759 41.8806C40.0863 41.8806 41.1774 41.1064 41.6632 40.2576C41.7719 40.0933 42.4319 39.8964 42.9946 39.8596C43.1251 39.8508 43.252 39.8083 43.3597 39.7363L45.2012 38.5133C46.3271 38.4977 48.0606 38.3568 48.6347 37.6701C49.2213 36.969 49.3586 36.3513 49.3721 36.2839C49.4096 36.0974 49.3742 35.9041 49.2728 35.7429C49.201 35.6284 48.5385 34.6241 47.386 34.6241C46.6402 34.6241 46.0104 35.0625 45.6615 35.3683L44.8413 35.2999C43.9868 35.2278 43.8755 34.9542 43.7653 34.5132C43.6483 34.0442 43.4096 33.0964 42.4402 32.9969L42.4901 32.9554C42.7585 32.9953 43.0856 32.9533 43.4715 32.7605C43.6088 32.6921 43.7845 32.6134 43.977 32.5274C44.8793 32.1211 45.5023 31.8215 45.8242 31.4308C46.0135 31.3095 46.7099 31.1085 47.322 31.0002C47.3719 30.9914 47.4219 30.9779 47.4687 30.9587L48.7839 30.4348H49.6056C49.8038 30.4348 49.9931 30.3566 50.133 30.2172C50.2006 30.1498 50.731 29.602 50.9484 28.8055C51.0805 28.8521 51.2339 28.919 51.3598 28.9905C51.4721 29.0542 51.6001 29.0884 51.7296 29.0884H54.0455C54.408 29.0884 54.7179 28.8278 54.7798 28.4718L55.1548 26.304C55.8646 26.0708 56.6338 25.2909 57.0961 24.7602H58.389C58.4525 24.7602 58.5159 24.7519 58.5768 24.7364C59.5462 24.4845 59.9695 23.9109 60.1542 23.4735C60.6321 22.3428 60.0216 20.9741 59.7865 20.5182L59.6185 19.1822H59.7392C60.073 19.1838 60.3653 18.9662 60.4574 18.649L60.4572 18.6489Z" fill="#9CB0C7"/>
</svg>
