<?xml version="1.0" encoding="utf-8"?>
<!-- Generator: Adobe Illustrator 24.0.2, SVG Export Plug-In . SVG Version: 6.00 Build 0)  -->
<svg version="1.1" id="Layer_1" xmlns="http://www.w3.org/2000/svg" xmlns:xlink="http://www.w3.org/1999/xlink" x="0px" y="0px"
	 viewBox="0 0 22.1 60" style="enable-background:new 0 0 22.1 60;" xml:space="preserve">
<style type="text/css">
	.st0{fill:#FF6C4B;}
</style>
<path class="st0" d="M6.2,42h0.6c0.4,0,0.7,0,0.9-0.1c0.2,0,0.3-0.1,0.5-0.2c0.2-0.1,0.3-0.2,0.4-0.4c0.1-0.2,0.1-0.4,0.1-0.7
	c0-0.4-0.1-0.6-0.3-0.9c-0.2-0.2-0.4-0.3-0.6-0.4c-0.2,0-0.5-0.1-1.1-0.1H5.3v4.4h0.9L6.2,42z M6.2,40h0.4c0.3,0,0.5,0,0.6,0
	s0.3,0.1,0.4,0.2s0.1,0.2,0.1,0.4c0,0.1,0,0.2-0.1,0.3c0,0.1-0.1,0.2-0.2,0.3c-0.1,0-0.4,0-0.7,0H6.2V40z"/>
<path class="st0" d="M11.9,43.6c0.3-0.1,0.5-0.2,0.6-0.4c0.2-0.2,0.4-0.5,0.5-0.8s0.1-0.6,0.1-0.9c0-0.4,0-0.8-0.1-1
	c-0.1-0.3-0.2-0.5-0.4-0.7c-0.2-0.2-0.4-0.3-0.7-0.4c-0.2-0.1-0.5-0.1-0.8-0.1H9.4v4.4h1.7C11.4,43.6,11.7,43.6,11.9,43.6L11.9,43.6
	z M10.3,42.9V40h0.4c0.4,0,0.6,0,0.7,0c0.2,0,0.3,0.1,0.4,0.2c0.1,0.1,0.2,0.2,0.3,0.4c0.1,0.2,0.1,0.4,0.1,0.8c0,0.3,0,0.6-0.1,0.8
	s-0.1,0.3-0.2,0.4c-0.1,0.1-0.2,0.1-0.4,0.2c-0.1,0-0.3,0-0.5,0L10.3,42.9L10.3,42.9z"/>
<path class="st0" d="M14.7,41.8h1.8V41h-1.8v-1h2.1v-0.8h-3v4.4h0.9C14.7,43.6,14.7,41.8,14.7,41.8z"/>
<path class="st0" d="M4.4,53h13.2v1.8H4.4V53z"/>
<path class="st0" d="M4.4,49.8h13.2v1.8H4.4V49.8z"/>
<path class="st0" d="M1.8,60h18.5c1,0,1.8-0.8,1.8-1.8V33.6c0-1-0.8-1.8-1.8-1.8H6.2l-2.5,2.8H0v23.6C0,59.2,0.8,60,1.8,60L1.8,60z
	 M1.8,36.3h2.7L5,35.7l2-2.2h13.3v24.6H1.8V36.3z"/>
<path class="st0" d="M6.2,10.2h0.6c0.4,0,0.7,0,0.9-0.1c0.2,0,0.3-0.1,0.5-0.2c0.2-0.1,0.3-0.2,0.4-0.4c0.1-0.2,0.1-0.4,0.1-0.7
	c0-0.4-0.1-0.6-0.3-0.9C8.2,7.7,8,7.6,7.8,7.5c-0.2,0-0.5-0.1-1.1-0.1H5.3v4.4h0.9V10.2z M6.2,8.2h0.4c0.3,0,0.5,0,0.6,0
	c0.1,0,0.3,0.1,0.4,0.2c0.1,0.1,0.1,0.2,0.1,0.4c0,0.1,0,0.2-0.1,0.3c0,0.1-0.1,0.2-0.2,0.3c-0.1,0-0.4,0-0.7,0H6.2V8.2z"/>
<path class="st0" d="M11.9,11.8c0.3-0.1,0.5-0.2,0.6-0.4c0.2-0.2,0.4-0.5,0.5-0.8s0.1-0.6,0.1-0.9c0-0.4,0-0.8-0.1-1
	c-0.1-0.3-0.2-0.5-0.4-0.7s-0.4-0.3-0.7-0.4c-0.2-0.1-0.5-0.1-0.8-0.1H9.4v4.4h1.7C11.4,11.8,11.7,11.8,11.9,11.8L11.9,11.8z
	 M10.3,11.1V8.2h0.4c0.4,0,0.6,0,0.7,0c0.2,0,0.3,0.1,0.4,0.2c0.1,0.1,0.2,0.2,0.3,0.4s0.1,0.4,0.1,0.8c0,0.3,0,0.6-0.1,0.8
	s-0.1,0.3-0.2,0.4c-0.1,0.1-0.2,0.1-0.4,0.2c-0.1,0-0.3,0-0.5,0L10.3,11.1L10.3,11.1z"/>
<path class="st0" d="M14.7,10h1.8V9.2h-1.8v-1h2.1V7.4h-3v4.4h0.9C14.7,11.8,14.7,10,14.7,10z"/>
<path class="st0" d="M4.4,21.2h13.2V23H4.4V21.2z"/>
<path class="st0" d="M4.4,18h13.2v1.8H4.4V18z"/>
<path class="st0" d="M1.8,28.2h18.5c1,0,1.8-0.8,1.8-1.8V1.8c0-1-0.8-1.8-1.8-1.8H6.2L3.7,2.8H0v23.6C0,27.4,0.8,28.2,1.8,28.2
	L1.8,28.2z M1.8,4.5h2.7L5,3.9l2-2.2h13.3v24.6H1.8V4.5z"/>
</svg>
