<svg width="32" height="33" viewBox="0 0 32 33" fill="none" xmlns="http://www.w3.org/2000/svg">
<circle cx="15.9328" cy="16.5733" r="15.6593" fill="#8DA8C8"/>
<path d="M15.9332 24.403C14.8631 24.403 13.8518 24.1973 12.8992 23.786C11.9466 23.3752 11.1148 22.8141 10.4039 22.1026C9.69242 21.3917 9.13129 20.5599 8.72049 19.6073C8.30918 18.6547 8.10352 17.6434 8.10352 16.5733C8.10352 15.4902 8.30918 14.4758 8.72049 13.5299C9.13129 12.5836 9.69242 11.7549 10.4039 11.044C11.1148 10.3326 11.9466 9.77117 12.8992 9.35985C13.8518 8.94905 14.8631 8.74365 15.9332 8.74365C17.0163 8.74365 18.0308 8.94905 18.9766 9.35985C19.9229 9.77117 20.7516 10.3326 21.4625 11.044C22.174 11.7549 22.7351 12.5836 23.1459 13.5299C23.5572 14.4758 23.7629 15.4902 23.7629 16.5733V17.7086C23.7629 18.4785 23.4987 19.1341 22.9705 19.6754C22.4417 20.2173 21.7924 20.4882 21.0225 20.4882C20.5527 20.4882 20.1155 20.3838 19.711 20.175C19.3065 19.9662 18.9737 19.6921 18.7127 19.3529C18.3604 19.7052 17.9462 19.9826 17.4701 20.1852C16.9936 20.3872 16.4813 20.4882 15.9332 20.4882C14.8501 20.4882 13.927 20.1063 13.1638 19.3427C12.4002 18.5795 12.0184 17.6564 12.0184 16.5733C12.0184 15.4902 12.4002 14.5668 13.1638 13.8032C13.927 13.0401 14.8501 12.6585 15.9332 12.6585C17.0163 12.6585 17.9397 13.0401 18.7033 13.8032C19.4665 14.5668 19.848 15.4902 19.848 16.5733V17.7086C19.848 18.0871 19.9655 18.3838 20.2004 18.5989C20.4352 18.8144 20.7093 18.9222 21.0225 18.9222C21.3357 18.9222 21.6097 18.8144 21.8446 18.5989C22.0795 18.3838 22.1969 18.0871 22.1969 17.7086V16.5733C22.1969 14.8638 21.5802 13.3924 20.3468 12.159C19.1139 10.926 17.6427 10.3096 15.9332 10.3096C14.2237 10.3096 12.7523 10.926 11.5188 12.159C10.2859 13.3924 9.66945 14.8638 9.66945 16.5733C9.66945 18.2828 10.2859 19.754 11.5188 20.9869C12.7523 22.2203 14.2237 22.8371 15.9332 22.8371H19.0651C19.2869 22.8371 19.4727 22.9122 19.6225 23.0626C19.7729 23.2124 19.848 23.3982 19.848 23.62C19.848 23.8419 19.7729 24.0277 19.6225 24.1775C19.4727 24.3278 19.2869 24.403 19.0651 24.403H15.9332ZM15.9332 18.9222C16.5857 18.9222 17.1403 18.6939 17.597 18.2371C18.0537 17.7804 18.2821 17.2258 18.2821 16.5733C18.2821 15.9209 18.0537 15.3662 17.597 14.9095C17.1403 14.4528 16.5857 14.2244 15.9332 14.2244C15.2807 14.2244 14.7261 14.4528 14.2694 14.9095C13.8127 15.3662 13.5843 15.9209 13.5843 16.5733C13.5843 17.2258 13.8127 17.7804 14.2694 18.2371C14.7261 18.6939 15.2807 18.9222 15.9332 18.9222Z" fill="white"/>
</svg>
