<?xml version="1.0" encoding="utf-8"?>
<!-- Generator: Adobe Illustrator 24.0.2, SVG Export Plug-In . SVG Version: 6.00 Build 0)  -->
<svg version="1.1" id="Layer_1" xmlns="http://www.w3.org/2000/svg" xmlns:xlink="http://www.w3.org/1999/xlink" x="0px" y="0px"
	 viewBox="0 0 30.4 29.1" style="enable-background:new 0 0 30.4 29.1;" xml:space="preserve">
<style type="text/css">
	.st0{fill:#FFAC33;}
</style>
<path class="st0" d="M23.5,29.1c-0.4,0-0.7-0.1-1-0.3l-7.3-5.2l-7.3,5.2c-0.6,0.4-1.5,0.4-2.1,0c-0.6-0.4-0.9-1.2-0.6-2L7.9,18
	L0.7,13c-0.6-0.5-0.9-1.2-0.6-2C0.3,10.3,1,9.8,1.8,9.8l8.9,0l2.8-8.5C13.8,0.5,14.5,0,15.2,0c0.8,0,1.4,0.5,1.7,1.2l2.8,8.5l9,0
	c0.8,0,1.4,0.5,1.7,1.2c0.2,0.7,0,1.5-0.6,2L22.5,18l2.7,8.8c0.2,0.7,0,1.5-0.6,2C24.3,29,23.9,29.1,23.5,29.1z"/>
</svg>
