<svg width="46" height="44" viewBox="0 0 46 44" fill="none" xmlns="http://www.w3.org/2000/svg">
<path d="M45.1283 19.5405C46.8353 17.8775 45.8934 14.9803 43.5341 14.6377L32.624 13.0533C31.687 12.9173 30.8771 12.3294 30.4583 11.4809L25.5794 1.60215C24.5243 -0.534049 21.4761 -0.534049 20.4209 1.60215L15.5417 11.4817C15.1229 12.3302 14.313 12.9182 13.376 13.0542L2.46588 14.6382C0.106689 14.9808 -0.835347 17.878 0.871643 19.541L8.76597 27.2307C9.44384 27.8909 9.75323 28.8424 9.59313 29.7749L7.72938 40.6335C7.32644 42.9816 9.79269 44.7721 11.9027 43.6634L21.6611 38.5368C22.4991 38.0966 23.5002 38.0966 24.3382 38.5368L34.0966 43.6634C36.2068 44.7718 38.6728 42.9812 38.2699 40.6335L36.4061 29.7749C36.246 28.8424 36.5554 27.8912 37.2333 27.2307L45.1283 19.5405Z" fill="#9CB0C7"/>
</svg>
