<svg width="28" height="42" viewBox="0 0 28 42" fill="none" xmlns="http://www.w3.org/2000/svg">
<path fill-rule="evenodd" clip-rule="evenodd" d="M0.228441 12.757C-0.238113 11.7682 0.0265083 10.5986 0.871288 9.91241C1.7816 9.17267 2.30728 8.07205 2.31266 6.89202C2.31729 5.79746 3.05843 4.85934 4.11516 4.61099C5.25302 4.34392 6.19967 3.58186 6.7118 2.52154C7.1869 1.53741 8.25783 1.01687 9.31663 1.25482C10.4556 1.51362 11.6369 1.24081 12.5548 0.508973C13.4063 -0.170017 14.5944 -0.169299 15.4456 0.508973C16.3634 1.24008 17.5437 1.51289 18.6837 1.25482C19.7447 1.01579 20.8135 1.53699 21.2882 2.52154C21.8004 3.58186 22.747 4.34358 23.8852 4.61099C24.9412 4.85972 25.6823 5.79756 25.6874 6.89202C25.6927 8.07205 26.218 9.17268 27.1284 9.91241C27.9735 10.5989 28.2381 11.7682 27.7716 12.757C27.2694 13.8217 27.2694 15.0439 27.7716 16.1085C28.2381 17.0973 27.9735 18.267 27.1284 18.9532C26.218 19.6929 25.6927 20.7935 25.6874 21.9728C25.6824 23.0676 24.9412 24.0058 23.8849 24.2546C22.7466 24.5216 21.8003 25.2837 21.2882 26.344C20.8131 27.3289 19.7418 27.849 18.6834 27.61C18.4017 27.5467 18.1175 27.5155 17.8354 27.5155C16.9756 27.5155 16.1362 27.8052 15.4453 28.3562C14.5948 29.0341 13.406 29.0345 12.5544 28.3562C11.637 27.6244 10.4567 27.3534 9.31629 27.61C8.25849 27.8487 7.18692 27.3282 6.71181 26.344C6.19967 25.2837 5.25303 24.522 4.11482 24.2546C3.05848 24.0058 2.31733 23.068 2.31268 21.9728C2.30733 20.7931 1.78202 19.6929 0.871672 18.9532C0.0265369 18.2666 -0.238098 17.0973 0.228466 16.1085C0.730989 15.0435 0.730989 13.8217 0.228466 12.757H0.228441ZM14.0003 23.0428C18.7043 23.0428 22.5314 19.1802 22.5314 14.4327C22.5314 9.68521 18.7042 5.82258 14.0003 5.82258C9.29632 5.82258 5.46911 9.68521 5.46911 14.4327C5.46911 19.1799 9.29596 23.0428 14.0003 23.0428ZM7.00089 14.4329C7.00089 18.3342 10.1346 21.4971 14.0006 21.4971C17.8662 21.4971 21 18.3343 21 14.4329C21 10.5315 17.8663 7.36865 14.0006 7.36865C10.1346 7.36865 7.00089 10.5314 7.00089 14.4329ZM11.6045 29.5693C11.051 29.1275 10.3384 28.9651 9.65027 29.1189L9.65037 29.1186C8.63852 29.3479 7.62103 29.1552 6.78942 28.6401L6.78978 42.0002L13.532 37.7746C13.8077 37.5603 14.1927 37.5603 14.4684 37.7746L21.2109 42.0002V28.6401C20.3786 29.1556 19.3611 29.3482 18.3493 29.1189C17.6601 28.9644 16.9485 29.1286 16.395 29.5693C15.6895 30.1318 14.8448 30.4129 13.9996 30.4126C13.1548 30.4126 12.3097 30.1318 11.6045 29.5693Z" fill="#9CB0C7"/>
</svg>
