<svg width="63" height="35" viewBox="0 0 63 35" fill="none" xmlns="http://www.w3.org/2000/svg">
<path fill-rule="evenodd" clip-rule="evenodd" d="M42.0299 16.5055L60.5467 0.499672H60.5472C59.9143 0.169773 59.2117 -0.00150779 58.4995 1.00325e-05H22.4998C21.7876 -0.00151025 21.085 0.169773 20.4521 0.499672L38.9689 16.5055H38.9694C39.3933 16.8785 39.9367 17.0842 40.4991 17.0842C41.0616 17.0842 41.605 16.8785 42.0289 16.5055H42.0299ZM40.4996 21.6351C38.8633 21.6301 37.2833 21.0341 36.0449 19.9553L18 4.35938V29.5137C18.0035 30.7167 18.4786 31.8695 19.3218 32.7204C20.165 33.5713 21.3076 34.0506 22.5 34.0541H58.4997C59.692 34.0506 60.8346 33.5712 61.6779 32.7204C62.5212 31.8696 62.9963 30.7168 62.9997 29.5137V4.35938L44.9548 19.9566V19.9561C43.7163 21.035 42.1363 21.6309 40.5001 21.6359L40.4996 21.6351ZM0.658924 10.6867C0.237059 10.261 0 9.68329 0 9.08128C0 8.47926 0.237059 7.90156 0.658924 7.47589C1.08079 7.05023 1.65334 6.81104 2.24999 6.81104H11.2499C12.054 6.81104 12.7968 7.24381 13.1985 7.94616C13.6003 8.6485 13.6003 9.51404 13.1985 10.2164C12.7968 10.9188 12.054 11.3515 11.2499 11.3515H2.24999C1.65334 11.3515 1.08079 11.1123 0.658924 10.6867ZM2.24995 29.5136H11.2499C12.054 29.5136 12.7967 29.0809 13.1985 28.3785C13.6003 27.6761 13.6003 26.8106 13.1985 26.1083C12.7967 25.4059 12.0539 24.9731 11.2499 24.9731H2.24995C1.44589 24.9731 0.703121 25.4059 0.301337 26.1083C-0.100446 26.8106 -0.100446 27.6762 0.301337 28.3785C0.703121 29.0809 1.44591 29.5136 2.24995 29.5136ZM6.74995 15.8921H13.4999C14.304 15.8921 15.0467 16.3249 15.4485 17.0272C15.8503 17.7296 15.8503 18.5951 15.4485 19.2975C15.0467 19.9998 14.304 20.4326 13.4999 20.4326H6.74995C5.94591 20.4326 5.20312 19.9998 4.80134 19.2975C4.39955 18.5951 4.39955 17.7296 4.80134 17.0272C5.20312 16.3249 5.94589 15.8921 6.74995 15.8921Z" fill="#9CB0C7"/>
</svg>
