<?xml version="1.0" encoding="utf-8"?>
<!-- Generator: Adobe Illustrator 24.0.2, SVG Export Plug-In . SVG Version: 6.00 Build 0)  -->
<svg version="1.1" id="Layer_1" xmlns="http://www.w3.org/2000/svg" xmlns:xlink="http://www.w3.org/1999/xlink" x="0px" y="0px"
	 viewBox="0 0 536.5 548.2" style="enable-background:new 0 0 536.5 548.2;" xml:space="preserve">
<style type="text/css">
	.st0{fill:#D9EEFF;}
</style>
<g id="Слой_1">
	<g>
		<g>
			<polygon class="st0" points="292.5,99.9 289.5,99.9 289.5,90.9 286.5,89.4 283.5,90.9 283.5,95.4 280.5,95.4 280.5,89.1 
				286.5,86 292.5,89.1 			"/>
		</g>
		<g>
			<polygon class="st0" points="310.3,108.5 307.3,108.5 307.3,99.5 304.3,98 301.3,99.5 301.3,104 298.3,104 298.3,97.7 
				304.3,94.6 310.3,97.7 			"/>
		</g>
		<g>
			<rect x="276.7" y="139.1" class="st0" width="3" height="93.9"/>
		</g>
		<g>
			<rect x="286.8" y="144.8" class="st0" width="3" height="88.2"/>
		</g>
		<g>
			<rect x="296.8" y="152.8" class="st0" width="3" height="80.3"/>
		</g>
		<g>
			<rect x="277.2" y="257.5" class="st0" width="16" height="3"/>
		</g>
		<g>
			<path class="st0" d="M268.2,316.4"/>
		</g>
		<g>
			<rect x="276.4" y="249.4" class="st0" width="3" height="38.7"/>
		</g>
		<g>
			<rect x="266.9" y="273.2" class="st0" width="3" height="43.1"/>
		</g>
		<g>
			<rect x="293.2" y="312.9" class="st0" width="24.4" height="3"/>
		</g>
		<g>
			<polygon class="st0" points="220.3,317.9 188.3,317.9 188.3,40.2 191.3,40.2 191.3,314.9 217.3,314.9 217.3,40.2 220.3,40.2 			
				"/>
		</g>
		<g>
			<rect x="189.8" y="265.3" class="st0" width="29.1" height="3"/>
		</g>
		<g>
			<rect x="218.8" y="302.2" class="st0" width="49.5" height="3"/>
		</g>
		<g>
			<rect x="268.4" y="302.2" class="st0" width="49.2" height="3"/>
		</g>
		<g>
			<rect x="189.7" y="302.2" class="st0" width="29.2" height="3"/>
		</g>
		<g>
			<rect x="189.8" y="223.7" class="st0" width="29.1" height="3"/>
		</g>
		<g>
			<rect x="189.8" y="182.8" class="st0" width="29.1" height="3"/>
		</g>
		<g>
			<rect x="189.8" y="143.8" class="st0" width="29.1" height="3"/>
		</g>
		<g>
			<rect x="189.8" y="107.5" class="st0" width="29.1" height="3"/>
		</g>
		<g>
			<rect x="189.8" y="82" class="st0" width="28.9" height="3"/>
		</g>
		<g>
			<rect x="199" y="68.9" class="st0" width="10.3" height="3"/>
		</g>
		<g>
			<rect x="199" y="94.2" class="st0" width="10.3" height="3"/>
		</g>
		<g>
			<rect x="199" y="119.1" class="st0" width="10.3" height="3"/>
		</g>
		<g>
			<rect x="199" y="163.4" class="st0" width="10.3" height="3"/>
		</g>
		<g>
			<rect x="199" y="195.9" class="st0" width="10.3" height="3"/>
		</g>
		<g>
			<rect x="199" y="210.5" class="st0" width="10.3" height="3"/>
		</g>
		<g>
			<rect x="199" y="252.3" class="st0" width="10.3" height="3"/>
		</g>
		<g>
			<rect x="199" y="278.2" class="st0" width="10.3" height="3"/>
		</g>
		<g>
			<rect x="327.2" y="68.9" class="st0" width="10.3" height="3"/>
		</g>
		<g>
			<rect x="327.2" y="94.2" class="st0" width="10.3" height="3"/>
		</g>
		<g>
			<rect x="327.2" y="119.1" class="st0" width="10.3" height="3"/>
		</g>
		<g>
			<rect x="327.2" y="163.4" class="st0" width="10.3" height="3"/>
		</g>
		<g>
			<rect x="327.2" y="195.9" class="st0" width="10.3" height="3"/>
		</g>
		<g>
			<rect x="327.2" y="210.5" class="st0" width="10.3" height="3"/>
		</g>
		<g>
			<rect x="327.2" y="252.3" class="st0" width="10.3" height="3"/>
		</g>
		<g>
			<rect x="327.2" y="278.2" class="st0" width="10.3" height="3"/>
		</g>
		<g>
			<rect x="189.8" y="56.4" class="st0" width="28.9" height="3"/>
		</g>
		<g>
			<rect x="207.9" y="42.8" class="st0" width="3" height="273.6"/>
		</g>
		<g>
			<rect x="197.7" y="42.8" class="st0" width="3" height="273.6"/>
		</g>
		<g>
			<path class="st0" d="M215.2,36.8h-21.9l-0.4-0.7c-0.1-0.1-2.3-3.6-2.3-7.5c0-4.6,2.5-7.7,4.9-10.6c2.2-2.8,4.3-5.4,4.3-9.1
				c0-2.7,2.8-6.6,3.3-7.3l1.2-1.6l1.2,1.6c0.6,0.8,3.3,4.7,3.3,7.3c0,4.1,2.2,6.7,4.4,9.5c2.3,2.8,4.8,5.7,4.8,10.2
				c0,4-2.2,7.4-2.3,7.5L215.2,36.8z M195,33.8h18.6c0.5-1,1.4-3.1,1.4-5.2c0-3.4-1.9-5.7-4.1-8.3c-2.4-2.9-5.1-6.2-5.1-11.4
				c0-0.8-0.7-2.3-1.5-3.7c-0.8,1.3-1.5,2.8-1.5,3.7c0,4.8-2.6,8.1-5,11c-2.2,2.7-4.2,5.2-4.2,8.8C193.5,30.8,194.4,32.8,195,33.8z"
				/>
		</g>
		<g>
			<path class="st0" d="M343.4,36.8h-21.9l-0.4-0.7c-0.1-0.1-2.3-3.6-2.3-7.5c0-4.6,2.5-7.7,4.9-10.6c2.2-2.8,4.3-5.4,4.3-9.1
				c0-2.7,2.8-6.6,3.3-7.3l1.2-1.6l1.2,1.6c0.6,0.8,3.3,4.7,3.3,7.3c0,4.1,2.2,6.7,4.4,9.5c2.3,2.8,4.8,5.7,4.8,10.2
				c0,4-2.2,7.4-2.3,7.5L343.4,36.8z M323.1,33.8h18.6c0.5-1,1.4-3.1,1.4-5.2c0-3.4-1.9-5.7-4.1-8.3c-2.4-2.9-5.1-6.2-5.1-11.4
				c0-0.8-0.7-2.3-1.5-3.7c-0.8,1.3-1.5,2.8-1.5,3.7c0,4.8-2.6,8.1-5,11c-2.2,2.7-4.2,5.2-4.2,8.8C321.7,30.8,322.6,32.8,323.1,33.8
				z"/>
		</g>
		<g>
			<polygon class="st0" points="219.5,128.5 218.2,125.9 268.2,100.6 318.3,125.9 316.9,128.5 268.2,103.9 			"/>
		</g>
		<g>
			<polygon class="st0" points="316.9,114.9 268.2,90.3 219.5,114.9 218.2,112.2 268.2,86.9 318.3,112.2 			"/>
		</g>
		<g>
			<polygon class="st0" points="275.3,91.3 272.3,91.3 272.3,80.4 268.2,78.4 264.1,80.4 264.1,91.3 261.1,91.3 261.1,78.6 
				268.2,75 275.3,78.6 			"/>
		</g>
		<g>
			<polygon class="st0" points="247,99.9 244,99.9 244,89.1 250,86 256,89.1 256,95.4 253,95.4 253,90.9 250,89.4 247,90.9 			"/>
		</g>
		<g>
			<polygon class="st0" points="229.2,108.5 226.2,108.5 226.2,97.7 232.2,94.6 238.2,97.7 238.2,104 235.2,104 235.2,99.5 
				232.2,98 229.2,99.5 			"/>
		</g>
		<g>
			<rect x="218.6" y="239.4" class="st0" width="99" height="3"/>
		</g>
		<g>
			<path class="st0" d="M310.3,234.6h-42.1v-3h39.1V175c0-25.5-35-36.2-39.1-37.3c-4,1.1-39.1,11.8-39.1,37.3v56.6h39.1v3h-42.1V175
				c0-12.2,7.3-23,21-31.4c10.2-6.2,20.3-8.8,20.7-8.9h0.4c0.4,0,42.1,10.6,42.1,40.4V234.6z"/>
		</g>
		<g>
			<rect x="256.7" y="139.1" class="st0" width="3" height="93.9"/>
		</g>
		<g>
			<rect x="246.7" y="144.8" class="st0" width="3" height="88.2"/>
		</g>
		<g>
			<rect x="236.7" y="152.8" class="st0" width="3" height="80.3"/>
		</g>
		<g>
			<rect x="243.2" y="257.5" class="st0" width="15.4" height="3"/>
		</g>
		<g>
			<rect x="277.2" y="283.7" class="st0" width="16" height="3"/>
		</g>
		<g>
			<rect x="243.2" y="283.7" class="st0" width="15.4" height="3"/>
		</g>
		<g>
			<path class="st0" d="M279.4,316.4h-3v-28.5c0-8.5-6.3-12.1-8.1-13c-1.9,0.9-8.1,4.4-8.1,13v28.5h-3v-28.5c0-12,10.5-16,10.6-16
				l0.5-0.2l0.5,0.2c0.1,0,10.6,4,10.6,16V316.4z"/>
		</g>
		<g>
			<path class="st0" d="M268.3,316.4"/>
		</g>
		<g>
			<path class="st0" d="M294.7,317.9h-53V248h53V317.9z M244.7,314.9h47V251h-47L244.7,314.9L244.7,314.9z"/>
		</g>
		<g>
			<rect x="257.1" y="249.4" class="st0" width="3" height="38.7"/>
		</g>
		<g>
			<rect x="218.8" y="312.9" class="st0" width="24.4" height="3"/>
		</g>
		<g>
			<rect x="266.7" y="136.1" class="st0" width="3" height="96.9"/>
		</g>
		<g>
			<path class="st0" d="M275.3,128.3h-14.2v-15.5h14.2V128.3z M264.1,125.3h8.2v-9.5h-8.2V125.3z"/>
		</g>
		<g>
			<rect x="228" y="199.5" class="st0" width="80.8" height="3"/>
		</g>
		<g>
			<rect x="259.2" y="149.9" class="st0" width="18" height="3"/>
		</g>
		<g>
			<rect x="226.2" y="108.5" class="st0" width="3" height="13.7"/>
		</g>
		<g>
			<rect x="235.2" y="103.8" class="st0" width="3" height="13.8"/>
		</g>
		<g>
			<rect x="244" y="100.2" class="st0" width="3" height="13.5"/>
		</g>
		<g>
			<rect x="253.2" y="95.7" class="st0" width="3" height="13.4"/>
		</g>
		<g>
			<rect x="261.3" y="91.4" class="st0" width="3" height="13.6"/>
		</g>
		<g>
			<rect x="307.5" y="108.5" class="st0" width="3" height="13.8"/>
		</g>
		<g>
			<rect x="298.5" y="103.8" class="st0" width="3" height="13.8"/>
		</g>
		<g>
			<rect x="289.7" y="100.2" class="st0" width="3" height="13.3"/>
		</g>
		<g>
			<rect x="280.4" y="95.7" class="st0" width="3" height="13.3"/>
		</g>
		<g>
			<rect x="272.3" y="91.4" class="st0" width="3" height="13.6"/>
		</g>
		<g>
			<polygon class="st0" points="348.2,317.9 316.1,317.9 316.1,40.2 319.1,40.2 319.1,314.9 345.2,314.9 345.2,40.2 348.2,40.2 			
				"/>
		</g>
		<g>
			<rect x="317.6" y="265.3" class="st0" width="29.1" height="3"/>
		</g>
		<g>
			<rect x="317.6" y="302.2" class="st0" width="29.2" height="3"/>
		</g>
		<g>
			<rect x="317.6" y="223.7" class="st0" width="29.1" height="3"/>
		</g>
		<g>
			<rect x="317.6" y="182.8" class="st0" width="29.1" height="3"/>
		</g>
		<g>
			<rect x="317.6" y="143.8" class="st0" width="29.1" height="3"/>
		</g>
		<g>
			<rect x="317.6" y="107.5" class="st0" width="29.1" height="3"/>
		</g>
		<g>
			<rect x="317.8" y="82" class="st0" width="28.9" height="3"/>
		</g>
		<g>
			<rect x="317.8" y="56.4" class="st0" width="28.9" height="3"/>
		</g>
		<g>
			<rect x="202.8" y="21.9" class="st0" width="3" height="7"/>
		</g>
		<g>
			<rect x="330.7" y="21.9" class="st0" width="3" height="7"/>
		</g>
		<g>
			<rect x="325.6" y="42.8" class="st0" width="3" height="273.6"/>
		</g>
		<g>
			<rect x="335.7" y="42.8" class="st0" width="3" height="273.6"/>
		</g>
		<g>
			<rect x="229" y="167.8" class="st0" width="78.4" height="3"/>
		</g>
		<g>
			<rect x="259.2" y="260.2" class="st0" width="18" height="3"/>
		</g>
	</g>
</g>
<g id="Layer_11">
	<path class="st0" d="M352.9,489.9c-5,0-10,0-10,0v5.8c0,0,3.9,0,9,0c6.3,0,10.9,2.2,10.9,7.2c0,6.3-5.4,8.6-10.5,8.6h-9.5v3.1h10.8
		c8.3,0,16.8-2.7,16.8-12.2C370.5,494.3,362.4,489.9,352.9,489.9z"/>
	<path class="st0" d="M353.7,511.5c-5,0-13.1,0-13.1,0v5.8c0,0,5.7,0,10.8,0c14.6,0,17.7,7.1,17.7,12.2c0,6.3-4.8,12-12.3,12h-16.2
		v5.8h18.9c10.7,0,17.2-7.9,17.2-17.4C376.8,521.6,371.6,511.5,353.7,511.5z"/>
	<rect x="336.9" y="489.9" class="st0" width="7.6" height="57.4"/>
</g>
<g id="Layer_12">
	<path class="st0" d="M293.1,547.4c-8.3,0-22.7-3.5-22.7-22.6c0-5,0-13.1,0-13.1h7.6c0,0,0,5.7,0,10.8c0,15.8,10,17.2,15.1,17.2
		s15.1-1.4,15.1-17.2c0-5.1,0-10.8,0-10.8h7.6c0,0,0,8,0,13.1C315.8,543.9,301.4,547.4,293.1,547.4z"/>
	<rect x="270.4" y="489.9" class="st0" width="7.6" height="32"/>
	<rect x="308.2" y="489.9" class="st0" width="7.6" height="32"/>
</g>
<g id="Layer_13">
	<path class="st0" d="M260.8,547.3c-5,0-25.3,0-25.3,0v-5.8c0,0,18.1,0,23.3,0L260.8,547.3z"/>
	<rect x="227.9" y="489.9" class="st0" width="7.6" height="57.4"/>
</g>
<g id="Layer_14">
	<path class="st0" d="M208,543.4c-4.6,1.9-9.2,4.8-19.2,4.8c-17.8,0-29.1-12.2-29.1-30c0-14.2,10.9-29.1,28.7-29.1
		c7.6,0,15.1,2.7,20.6,7.1l-3.4,8.5c-4.7-6-9-9.3-17.2-9.3c-14.1,0-21.1,13.5-21.1,22.9c0,12.9,7.4,23.8,21.5,23.8
		c9.6,0,15-4,19.2-6.2V543.4z"/>
</g>
<g id="Layer_2_1_">
	<path class="st0" d="M536.5,392.2c-5,0-25.3,0-25.3,0v5.8c0,0,18.1,0,23.3,0L536.5,392.2z"/>
	<rect x="508.9" y="443.8" class="st0" width="27.6" height="5.8"/>
	<path class="st0" d="M534.3,419.6c-5.1,0-25.4,0-25.4,0v-5.8c0,0,20.4,0,25.4,0V419.6z"/>
	<rect x="505.1" y="392.2" class="st0" width="7.6" height="57.4"/>
</g>
<g id="Layer_3">
	<path class="st0" d="M484.1,445.6c-4.6,1.9-11,4.8-21.1,4.8c-17.8,0-29.1-12.2-29.1-30c0-14.2,10.9-29.1,28.7-29.1
		c7.6,0,15.1,2.7,20.6,7.1l-3.4,8.5c-4.7-6-9-9.3-17.2-9.3c-14.1,0-21.1,13.5-21.1,22.9c0,12.9,7.4,23.8,21.5,23.8
		c9.6,0,16.9-4,21.1-6.2V445.6z"/>
	<rect x="476.5" y="422.5" class="st0" width="7.6" height="23.1"/>
	<rect x="467.9" y="422.5" class="st0" width="16.2" height="5.8"/>
</g>
<g id="Layer_4">
	<path class="st0" d="M390.9,392.2c-5,0-16.2,0-16.2,0v5.8c0,0,8.8,0,14,0c14.6,0,23.5,11.1,23.5,23.4s-9,22.3-21.2,22.3h-16.2v5.8
		h18.9c15.5,0,26.2-11.9,26.2-27.7C419.8,406.1,408.8,392.2,390.9,392.2z"/>
	<rect x="370.9" y="392.2" class="st0" width="7.6" height="57.4"/>
</g>
<g id="Layer_5">
	<rect x="337.7" y="392.2" class="st0" width="7.6" height="57.4"/>
</g>
<g id="Layer_6">
	<path class="st0" d="M293.1,392.2c-5,0-10,0-10,0v5.8c0,0,3.9,0,9,0c6.3,0,10.9,2.2,10.9,7.2c0,6.3-5.4,8.6-10.5,8.6H283v5.7h11
		c8.3,0,16.8-5.3,16.8-14.8C310.8,396.5,302.6,392.2,293.1,392.2z"/>
	<path class="st0" d="M289.5,413.7c-5,0-8.6,0-8.6,0v5.8c0,0,1.2,0,6.4,0c14.6,0,23,30,23,30h9.6
		C319.9,449.6,307.4,413.7,289.5,413.7z"/>
	<rect x="277.2" y="392.2" class="st0" width="7.6" height="57.4"/>
</g>
<g id="Layer_7">
	<path class="st0" d="M232.6,392.2c-5,0-10,0-10,0v5.8c0,0,3.9,0,9,0c6.3,0,10.9,2.2,10.9,7.2c0,6.3-5.4,8.6-10.5,8.6h-9.5v3.1h10.8
		c8.3,0,16.8-2.7,16.8-12.2C250.2,396.5,242.1,392.2,232.6,392.2z"/>
	<path class="st0" d="M233.4,413.7c-5,0-13.1,0-13.1,0v5.8c0,0,5.7,0,10.8,0c14.6,0,17.7,7.1,17.7,12.2c0,6.3-4.8,12-12.3,12h-16.2
		v5.8h18.9c10.7,0,17.2-7.9,17.2-17.4C256.5,423.9,251.3,413.7,233.4,413.7z"/>
	<rect x="216.6" y="392.2" class="st0" width="7.6" height="57.4"/>
</g>
<g id="Layer_8">
	<rect x="136.6" y="392.2" class="st0" width="7.6" height="57.4"/>
	<rect x="184.1" y="392.2" class="st0" width="7.6" height="57.4"/>
	<polygon class="st0" points="164.5,427.2 166.4,421.1 144.3,392.2 138.7,396.8 162.6,427.2 	"/>
	<polygon class="st0" points="165.8,427.2 189.6,396.8 184.1,392.2 162.2,420.8 163.9,427.2 	"/>
</g>
<g id="Layer_9">
	<polygon class="st0" points="72.6,449.6 64.5,449.6 87.2,392.2 95.4,392.2 	"/>
	<polygon class="st0" points="109.9,449.6 118.1,449.6 95.4,392.2 87.2,392.2 	"/>
	<rect x="75.3" y="427.5" class="st0" width="31.6" height="6.6"/>
</g>
<g id="Layer_10">
	<path class="st0" d="M48.3,445.6c-4.6,1.9-9.2,4.8-19.2,4.8c-17.8,0-29.1-12.2-29.1-30c0-14.2,10.9-29.1,28.7-29.1
		c7.6,0,15.1,2.7,20.6,7.1l-3.4,8.5c-4.7-6-9-9.3-17.2-9.3c-14.1,0-21.1,13.5-21.1,22.9c0,12.9,7.4,23.8,21.5,23.8
		c9.6,0,15-4,19.2-6.2C48.3,438.1,48.3,445.6,48.3,445.6z"/>
</g>
</svg>
