<?xml version="1.0" encoding="utf-8"?>
<!-- Generator: Adobe Illustrator 24.0.2, SVG Export Plug-In . SVG Version: 6.00 Build 0)  -->
<svg version="1.1" id="Layer_1" xmlns="http://www.w3.org/2000/svg" xmlns:xlink="http://www.w3.org/1999/xlink" x="0px" y="0px"
	 viewBox="0 0 55 41" style="enable-background:new 0 0 55 41;" xml:space="preserve">
<style type="text/css">
	.st0{fill-rule:evenodd;clip-rule:evenodd;fill:#FFFFFF;}
</style>
<path class="st0" d="M42.2,14.1c3.7,3.5,8.4,5.8,12.4,6.3l-0.1,0.8l0.1,0.9c-4,0.3-8.8,2.4-12.7,5.7c-3.9,3.3-6.8,7.8-7.2,12.8
	l-1.5-0.1c0.5-5.5,3.7-10.3,7.8-13.8c2.4-2,5.1-3.6,7.8-4.7H0v-1.5h49.3c-2.8-1.2-5.7-3-8.1-5.3c-3.9-3.7-6.9-8.7-7-14.2l1.5,0
	C35.8,6,38.5,10.6,42.2,14.1z"/>
</svg>
