<svg width="32" height="33" viewBox="0 0 32 33" fill="none" xmlns="http://www.w3.org/2000/svg">
<circle cx="15.9777" cy="16.5733" r="15.6593" fill="#8DA8C8"/>
<path d="M21.878 10.407C19.832 8.4514 12.9196 8.16133 10.4693 10.4944C9.37162 11.6359 8.98293 13.3108 8.9394 15.385C8.89587 17.4591 8.84612 21.3454 12.4562 22.3997H12.4594L12.4562 24.0091C12.4562 24.0091 12.4314 24.6609 12.848 24.7919C13.3238 24.9448 13.5384 24.6422 15.0154 22.8737C17.4843 23.089 19.3842 22.5962 19.5988 22.5244C20.0963 22.356 22.9197 21.9817 23.3768 18.0954C23.8495 14.0843 23.1467 11.5517 21.878 10.407Z" fill="white"/>
<path d="M18.4956 17.2497C18.1731 17.0685 17.8413 17.1814 17.7062 17.3596L17.4205 17.7162C17.2762 17.8974 17.0059 17.8736 17.0059 17.8736C15.0308 17.3685 14.5025 15.3691 14.5025 15.3691C14.5025 15.3691 14.4779 15.0987 14.6591 14.9531L15.0154 14.6679C15.1936 14.5313 15.3072 14.2015 15.126 13.8776C14.6407 13.0309 14.3151 12.7368 14.1492 12.514C13.9741 12.303 13.713 12.2555 13.4397 12.3981H13.4335C12.8653 12.719 12.2448 13.3191 12.4445 13.9371C12.7823 14.5877 13.4059 16.6644 15.3902 18.2361C16.3239 18.9788 17.7983 19.7394 18.425 19.9147L18.4311 19.9236C19.0485 20.1226 19.6475 19.4987 19.97 18.9343V18.9283C20.1113 18.655 20.0652 18.3965 19.8563 18.2272C19.4878 17.8796 18.9318 17.4963 18.4956 17.2497Z" fill="#8DA8C8"/>
<path d="M16.5742 14.4016C16.9217 14.4016 17.2692 14.7491 17.2692 15.0966" stroke="#8DA8C8" stroke-width="0.8" stroke-linecap="round"/>
<path d="M16.5742 13.0117C17.6167 13.0117 18.6592 14.0542 18.6592 15.0967" stroke="#8DA8C8" stroke-width="0.8" stroke-linecap="round"/>
<path d="M16.5742 11.6215C18.3117 11.6215 20.0492 13.359 20.0492 15.0965" stroke="#8DA8C8" stroke-width="0.8" stroke-linecap="round"/>
</svg>
