<svg width="25" height="25" viewBox="0 0 25 25" fill="none" xmlns="http://www.w3.org/2000/svg">
<rect width="25" height="25" rx="5" fill="#9CB0C7"/>
<path d="M19.9746 7.03555L17.2427 18.1731C17.1142 18.6976 16.5196 18.9679 16.0321 18.7188L12.577 16.9544L10.9432 19.5984C10.4987 20.319 9.3738 20.0064 9.3738 19.1639V16.2178C9.3738 15.99 9.47016 15.7728 9.63624 15.6138L16.3696 9.25555C16.3642 9.17608 16.2785 9.10724 16.1929 9.16543L8.15803 14.6971L5.45835 13.3195C4.82634 12.9963 4.85312 12.0902 5.50654 11.8094L18.8178 6.07122C19.4552 5.79565 20.1409 6.36265 19.9748 7.0355L19.9746 7.03555Z" fill="#E4ECFE"/>
</svg>
