<svg xmlns="http://www.w3.org/2000/svg" width="360" height="86" viewBox="0 0 360 86">
    <g fill="none" fill-rule="evenodd">
        <g fill="#FFF">
            <path d="M8.237 39.51v32.31c0 10.416 8.994 12.5 12.064 12.5 6.688 0 11.184-2.742 14.584-8.44 1.512-2.466-1.546-3.7-2.408-2.236-1.312 1.974-2.46 3.416-4.83 3.416-2.854 0-4.28-2.084-4.28-5.698V39.514s.346-1.008 1.038-1.008h9.054c3.014 0 3.014-3.748 0-3.748h-8.976c-.684 0-1.116-1.238-1.116-1.238V11.184c0-3.268-3.74-3.426-3.74 0 0 11.624-6.124 23.574-17.202 23.574-3.156 0-3.31 3.748 0 3.748h4.838c.586 0 .974 1.004.974 1.004M52.936 45.951c0-7.348 3.178-7.878 6.904-7.878 5.266 0 6.91 3.614 6.91 9.65v3.628c0 .766-.264 1.378-1.028 1.378H54.038c-.774 0-1.102-.658-1.102-1.346v-5.432zM82.398 63.23c-1.076 0-1.648 1.06-1.806 1.522-3.258 9.556-8.964 14.422-16.45 14.548-10.198.17-11.206-6.162-11.206-13.62v-8.024c0-.696.486-1.186 1.256-1.186h27.746c.802 0 1.238-.85 1.208-1.272C82.3 43.825 71.708 33.233 60.61 33.441c-12.94 0-24.124 11.186-24.124 25.99 0 14.25 10.416 24.89 24.452 24.89 13.488 0 20.208-8.388 22.852-19.186.23-.932-.316-1.906-1.392-1.906z" transform="translate(1.139 1.137)"/>
            <path d="M86.25 83.006h25.629c2.822 0 2.746-3.92 0-3.92h-3.344c-.77 0-1.358-.556-1.358-1.644V53.64c0-5.59 5.482-13.592 11.624-13.592 3.182 0 6.47 1.316 6.47 8.99v28.48c0 1.17-.726 1.568-1.508 1.568h-2.972c-2.964 0-3.118 3.92 0 3.92h25.404c3.25 0 3.25-3.92 0-3.92h-4.398c.778 0-1.396-.004-1.396-1.802V50.44c0-11.842-5.044-16.996-15.464-16.996-6.956 0-13.814 3.438-17.034 9.21-1.09 1.912-.73-.088-.73-.892 0-3.472-.01-6.96.004-8.9.034-3.75-2.73-.67-6.318.582-3.506 1.216-6.024 1.314-8.596 1.314H86.25c-3.246 0-3.168 3.75 0 3.75h4.484c.764 0 1.312.362 1.312 1.142v37.868c0 1.09-.53 1.568-1.546 1.568h-4.25c-2.7 0-2.776 3.92 0 3.92M183.712 68.072c0 8.218-3.398 11.62-8.99 11.62-5.594 0-8.994-3.402-8.994-11.62V49.696c0-8.228 3.4-11.624 8.994-11.624 5.592 0 8.99 3.396 8.99 11.624v18.376zm-8.99-34.63c-14.476 0-26.1 10.416-26.1 25.438 0 15.026 11.624 25.442 26.1 25.442 14.474 0 26.098-10.416 26.098-25.442 0-15.022-11.624-25.438-26.098-25.438zM227.317 84.32c1.892 0 2.938-1.114 3.336-2.1.4-.992 14.464-34.506 14.464-34.506 2.736-6.142 5.042-9.1 7.562-9.208h.99c2.744 0 2.782-3.75 0-3.75h-17.106c-2.776 0-2.874 3.75-.044 3.75 3.182 0 5.578 1.2 5.578 4.054 0 1.754-.372 2.396-1.686 5.466 0 0-6.248 14.306-6.624 15.404-.466 1.338-.564.516-.906-.214-.508-1.102-11.342-24.71-11.342-24.71h6.58c2.9 0 3.024-3.75 0-3.75h-27.522c-2.716 0-2.904 3.75 0 3.75h4.714s18.474 42.872 18.752 43.538c.268.662 1.362 2.276 3.254 2.276M285.03 66.414c-.219 5.812-3.51 10.196-8.665 10.196-5.944 0-7.786-4.948-7.786-9.85 0-3.142 2.16-7.232 7.786-7.76l8.664-.878v8.292zm19.063 7.162c0 1.782-.636 3.484-2.068 3.484-1.972 0-2.524-2.084-2.524-5.484v-22.56c0-12.5-11.73-15.572-23.026-15.572-10.966 0-18.97 5.37-18.97 11.512 0 3.838 2.268 7.798 6.244 8.014 3.438.188 6.962-1.022 7.576-4.808.854-5.312-3.672-4.27-3.826-6.798-.108-2.412 4.484-3.294 8.208-3.294 8.224 0 9.322 4.946 9.322 11.522v3.9l-10.75.88c-9.974.764-20.83 3.394-20.83 14.8 0 9.542 8.554 15.148 16.996 15.148 4.28 0 11.842-1.644 14.69-6.904 1.974 4.602 6.036 6.904 10.968 6.904 7.126 0 11.734-4.274 11.734-10.744 0-3.168-3.744-3.092-3.744 0zM339.195 5.59l-.208.256c.102-.124.172-.21.208-.256m-7.658 8.712c-3.128 3.132-8.236 7.332-11.456 8.964-3.286 1.596-5.88 2.066-8.152 1.468-2.242-.584-4.222-3.286-4.222-6.286 0-2.864 1.774-7.222 4.216-10.36 2.494-3.2 6.558-5.814 10.61-6.814 4.044-.996 6.342-.57 8.22.046 3.378 1.096 6.876 3.77 8.058 4.742-1.192 1.452-4.678 5.644-7.274 8.24M345.195.16c-.664-.38-1.522.422-2.628 1.526-1.108 1.106-3.34 3.864-3.34 3.864l-.02.028c.012-.02.02-.028.02-.028s-3.708-3.404-8.264-4.88c-2.21-.718-4.666-1.028-8.596-.06-4.118 1.018-8.322 3.638-10.984 7.06-2.392 3.076-4.356 7.626-4.356 10.778 0-.53.046-1.08.134-1.644-.288 1.516-.436 3.082-.436 4.674 0 13.888 11.254 25.146 25.14 25.146 13.886 0 25.142-11.258 25.142-25.146 0-8.986-4.568-17.152-11.812-21.318" transform="translate(1.139 1.137)"/>
        </g>
    </g>
</svg>
