<svg width="55" height="41" viewBox="0 0 55 41" fill="none" xmlns="http://www.w3.org/2000/svg">
<path fill-rule="evenodd" clip-rule="evenodd" d="M42.2301 14.1335C45.9537 17.648 50.6225 19.9681 54.5833 20.4582L54.4789 21.302L54.5398 22.154C50.559 22.4387 45.7765 24.5143 41.8761 27.8316C37.9799 31.1454 35.0552 35.6187 34.6357 40.6318L33.1409 40.5067C33.6031 34.9838 36.8071 30.1737 40.9043 26.6889C43.2707 24.6763 45.9655 23.0791 48.6605 22.0295L0 22.0295V20.5295L49.2827 20.5295C46.4506 19.3418 43.6244 17.5121 41.2005 15.2243C37.2889 11.5324 34.3379 6.56304 34.1619 1.02366L35.6611 0.976014C35.8209 6.0041 38.5104 10.6227 42.2301 14.1335Z" fill="#074684"/>
</svg>
