<svg width="81" height="78" viewBox="0 0 81 78" fill="none" xmlns="http://www.w3.org/2000/svg">
<path d="M25.3299 31.9978H19.433C18.8744 31.9978 18.4229 32.4292 18.4229 32.9614V39.1076C18.4229 39.6391 18.8744 40.0712 19.433 40.0712H25.3299C25.8885 40.0712 26.3401 39.6398 26.3401 39.1076V32.9614C26.3394 32.4292 25.8878 31.9978 25.3299 31.9978ZM24.3197 38.1439H20.4425V33.9245H24.3197V38.1439Z" fill="#F47458"/>
<path d="M31.4106 40.0712H37.3074C37.8661 40.0712 38.3176 39.6398 38.3176 39.1076V32.9614C38.3176 32.4299 37.8661 31.9978 37.3074 31.9978H31.4106C30.8519 31.9978 30.4004 32.4292 30.4004 32.9614V39.1076C30.4011 39.6398 30.8533 40.0712 31.4106 40.0712ZM32.4207 33.9251H36.298V38.1445H32.4207V33.9251Z" fill="#F47458"/>
<path d="M42.8027 32.9612V39.1073C42.8027 39.6389 43.2543 40.071 43.8129 40.071H49.7098C50.2684 40.071 50.72 39.6396 50.72 39.1073V32.9612C50.72 32.4297 50.2684 31.9976 49.7098 31.9976H43.8129C43.2543 31.9982 42.8027 32.4296 42.8027 32.9612ZM44.8223 33.9249H48.6996V38.1442H44.8223V33.9249Z" fill="#F47458"/>
<path d="M55.7924 40.0712H61.6893C62.2479 40.0712 62.6995 39.6398 62.6995 39.1076V32.9614C62.6995 32.4299 62.2479 31.9978 61.6893 31.9978H55.7924C55.2338 31.9978 54.7822 32.4292 54.7822 32.9614V39.1076C54.7829 39.6398 55.2338 40.0712 55.7924 40.0712ZM56.8026 33.9251H60.6799V38.1445H56.8026V33.9251Z" fill="#F47458"/>
<path d="M25.3299 43.1472H19.433C18.8744 43.1472 18.4229 43.5786 18.4229 44.1109V50.257C18.4229 50.7885 18.8744 51.2206 19.433 51.2206H25.3299C25.8885 51.2206 26.3401 50.7892 26.3401 50.257V44.1109C26.3394 43.5786 25.8878 43.1472 25.3299 43.1472ZM24.3197 49.2933H20.4425V45.074H24.3197V49.2933Z" fill="#F47458"/>
<path d="M31.4106 51.2206H37.3074C37.8661 51.2206 38.3176 50.7892 38.3176 50.257V44.1109C38.3176 43.5793 37.8661 43.1472 37.3074 43.1472H31.4106C30.8519 43.1472 30.4004 43.5786 30.4004 44.1109V50.257C30.4011 50.7885 30.8533 51.2206 31.4106 51.2206ZM32.4207 45.074H36.298V49.2934H32.4207V45.074Z" fill="#F47458"/>
<path d="M49.7098 43.1472H43.8129C43.2543 43.1472 42.8027 43.5786 42.8027 44.1109V50.257C42.8027 50.7885 43.2543 51.2206 43.8129 51.2206H49.7098C50.2684 51.2206 50.72 50.7892 50.72 50.257V44.1109C50.7193 43.5786 50.267 43.1472 49.7098 43.1472ZM48.6996 49.2933H44.8223V45.074H48.6996V49.2933Z" fill="#F47458"/>
<path d="M55.7924 51.2206H61.6893C62.2479 51.2206 62.6995 50.7892 62.6995 50.257V44.1109C62.6995 43.5793 62.2479 43.1472 61.6893 43.1472H55.7924C55.2338 43.1472 54.7822 43.5786 54.7822 44.1109V50.257C54.7829 50.7885 55.2338 51.2206 55.7924 51.2206ZM56.8026 45.074H60.6799V49.2934H56.8026V45.074Z" fill="#F47458"/>
<path d="M25.3299 54.2981H19.433C18.8744 54.2981 18.4229 54.7295 18.4229 55.2617V61.4079C18.4229 61.9394 18.8744 62.3715 19.433 62.3715H25.3299C25.8885 62.3715 26.3401 61.9401 26.3401 61.4079V55.2617C26.3394 54.7295 25.8878 54.2981 25.3299 54.2981ZM24.3197 60.4442H20.4425V56.2248H24.3197V60.4442Z" fill="#F47458"/>
<path d="M55.7924 62.3698H61.6893C62.2479 62.3698 62.6995 61.9384 62.6995 61.4062V55.26C62.6995 54.7285 62.2479 54.2964 61.6893 54.2964H55.7924C55.2338 54.2964 54.7822 54.7278 54.7822 55.26V61.4062C54.7829 61.9384 55.2338 62.3698 55.7924 62.3698ZM56.8026 56.2237H60.6799V60.4431H56.8026V56.2237Z" fill="#F47458"/>
<path d="M40.5984 25.6982C43.5472 25.6982 45.9457 23.41 45.9457 20.5971C45.9457 17.7848 43.5471 15.4961 40.5984 15.4961C37.6495 15.4961 35.251 17.7843 35.251 20.5971C35.251 23.4095 37.6489 25.6982 40.5984 25.6982ZM40.5984 17.422C42.432 17.422 43.9261 18.8459 43.9261 20.5965C43.9261 22.347 42.4327 23.7709 40.5984 23.7709C38.7647 23.7709 37.2706 22.3463 37.2706 20.5965C37.2706 18.8466 38.764 17.422 40.5984 17.422Z" fill="#F47458"/>
<path d="M3.99728 66.9029V71.1553H1.21827C0.65964 71.1553 0.208092 71.5867 0.208092 72.1189V76.1059C0.208092 76.6375 0.65964 77.0696 1.21827 77.0696H79.9898C80.5484 77.0696 81 76.6381 81 76.1059V72.1183C81 71.5867 80.5484 71.1546 79.9898 71.1546H76.855V66.9022C79.1332 66.4553 80.8513 64.5273 80.8513 62.225C80.8513 59.5921 78.6055 57.4484 75.8455 57.4484C73.0854 57.4484 70.8382 59.5907 70.8382 62.225C70.8382 64.5287 72.5571 66.4559 74.8352 66.9022V71.1546H69.1686V26.406C69.1686 25.8745 68.7171 25.4424 68.1585 25.4424H58.0103V19.2687C58.0103 18.9247 57.8173 18.6061 57.5045 18.4334L41.7095 9.7533V7.08683H48.3545C48.9132 7.08683 49.3647 6.65541 49.3647 6.12318V0.963646C49.3647 0.432106 48.9132 0 48.3545 0H40.6994C40.1408 0 39.6892 0.431418 39.6892 0.963646V9.75131L23.6949 18.4321C23.38 18.6035 23.1842 18.9234 23.1842 19.2694V25.4431L13.038 25.4424C12.4794 25.4424 12.0278 25.8738 12.0278 26.4061V71.1546H6.01679V66.9022C8.295 66.4553 10.0131 64.5273 10.0131 62.2251C10.0131 59.5921 7.76733 57.4485 5.00726 57.4485C2.24719 57.4485 0 59.5908 0 62.2251C0 64.5273 1.71883 66.4553 3.99701 66.9022L3.99728 66.9029ZM72.8575 62.2252C72.8575 60.6541 74.1973 59.3753 75.8449 59.3753C77.4919 59.3753 78.8311 60.6535 78.8311 62.2252C78.8311 63.7956 77.492 65.0738 75.8449 65.0738C74.1973 65.0738 72.8575 63.7964 72.8575 62.2252ZM78.9805 75.143H2.2287V73.0826H78.9805V75.143ZM48.7757 71.1553H41.7108V56.2243H48.7757V71.1553ZM39.6912 71.1553H32.4227V56.2243H39.6912V71.1553ZM47.3471 5.16097H41.7122L41.7115 1.92662H47.3464L47.3471 5.16097ZM14.0495 27.3701H24.1971C24.7557 27.3701 25.2073 26.9387 25.2073 26.4065V19.8302L40.7001 11.4223L55.9936 19.8275V26.407C55.9936 26.9385 56.4452 27.3706 57.0038 27.3706H67.1514V71.1575H50.797V55.2616C50.797 54.73 50.3454 54.2979 49.7868 54.2979L31.4122 54.2986C30.8535 54.2986 30.402 54.73 30.402 55.2622V71.157L14.0489 71.1563L14.0495 27.3701ZM5.00933 59.3764C6.65632 59.3764 7.99555 60.6545 7.99555 62.2262C7.99555 63.7967 6.65639 65.0749 5.00933 65.0749C3.36227 65.0749 2.02186 63.7967 2.02186 62.2262C2.02186 60.6531 3.36171 59.3764 5.00933 59.3764Z" fill="#F47458"/>
</svg>
