<svg width="35" height="35" viewBox="0 0 35 35" fill="none" xmlns="http://www.w3.org/2000/svg">
<path d="M18.0151 0.000291668H17.9322C17.5859 0.00407916 17.3492 0.333582 17.3378 0.677163C17.3111 1.46333 17.0782 3.00265 15.9548 5.34061C14.6417 8.0725 12.4211 10.0717 11.4422 10.8666C11.2802 10.9807 11.1243 11.103 10.9732 11.2307C10.971 11.2323 10.9509 11.2469 10.9509 11.2469L10.9525 11.2475C9.39561 12.5704 8.42492 14.58 8.39491 16.7902L8.26675 26.2491C8.22367 30.1361 11.433 32.9638 15.3392 33.2662L25.8314 34.0789C29.7376 34.3813 32.4481 30.9228 32.9039 27.0618L34.1325 16.6517C34.5884 12.7907 30.9783 9.63467 27.0601 9.63467H20.6087C21.4398 7.17385 22.115 4.55846 21.7987 3.22901C21.1295 0.41817 19.1026 0.00803374 18.0156 0L18.0151 0.000291668ZM1.40757 15.7146C0.669177 15.7146 0.0742188 16.1961 0.0742188 16.7945V26.2913C0.0742188 26.8897 0.668633 27.3707 1.40757 27.3707H4.58961C5.328 27.3707 5.92296 26.8891 5.92296 26.2913V16.7945C5.92296 16.1961 5.32854 15.7146 4.58961 15.7146H1.40757Z" fill="#8DA8C8"/>
</svg>
