<svg width="41" height="34" viewBox="0 0 41 34" fill="none" xmlns="http://www.w3.org/2000/svg">
<path d="M19.543 24.7181L9.58936 19.729V26.8542C9.58936 29.8747 14.4745 34 20.5001 34C26.5261 34 31.4108 29.8747 31.4108 26.8542V19.729L21.4572 24.7181C20.8546 25.0202 20.1458 25.0202 19.5432 24.7181H19.543Z" fill="#9CB0C7"/>
<path d="M40.3695 9.68703L21.5293 0.243465C20.8813 -0.0811551 20.1178 -0.0811551 19.4697 0.243465L0.629548 9.68703C0.243774 9.88019 0 10.2758 0 10.7081C0 11.1408 0.243774 11.536 0.629548 11.7295L19.4697 21.1727H19.4701C20.1182 21.4977 20.8817 21.4977 21.5297 21.1727L34.2941 14.7745L19.949 12.5662C19.0045 12.4211 18.6449 11.3915 18.7901 10.4447C18.858 9.9894 19.1046 9.58009 19.4751 9.30786C19.8452 9.03526 20.3086 8.92235 20.7624 8.99372L36.2866 11.3834C36.6853 11.4451 37.0497 11.6447 37.3172 11.9471C37.5843 12.25 37.7376 12.6367 37.7505 13.0408L34.1635 14.8527V24.6491C34.2347 25.2786 34.6196 25.8291 35.1856 26.1109C35.7516 26.3928 36.4218 26.3674 36.9652 26.0435C37.5083 25.7201 37.851 25.1423 37.8748 24.5092L37.8711 12.982L40.3705 11.7291C40.7562 11.5359 41 11.1407 41 10.708C41 10.2757 40.7562 9.88014 40.3705 9.68698L40.3695 9.68703Z" fill="#9CB0C7"/>
</svg>
