<svg width="38" height="34" viewBox="0 0 38 34" fill="none" xmlns="http://www.w3.org/2000/svg">
<path d="M28.6606 0C23.7694 0 21.5173 2.32975 19.2803 6.35417C19.2232 6.45687 19.1154 6.52059 18.9987 6.52059C18.882 6.52059 18.7744 6.45687 18.7171 6.35417C16.4794 2.32975 14.2273 0 9.33677 0C4.18838 0 0 3.75414 0 8.36836C0 12.1866 1.95 16.3815 5.9618 21.1927C9.51734 25.4566 14.3253 29.7972 18.9992 34C23.6737 29.7958 28.4835 25.4536 32.0373 21.1927C36.0497 16.3813 38 12.1861 38 8.36836C38 3.75362 33.8107 0 28.661 0H28.6606Z" fill="#9CB0C7"/>
</svg>
