<svg width="33" height="44" viewBox="0 0 33 44" fill="none" xmlns="http://www.w3.org/2000/svg">
<path d="M31.9509 15.9948L30.6282 15.2195L31.2213 14.7179C31.7231 14.3075 31.9967 13.7145 31.9967 13.0761V9.29082C31.9967 8.56107 31.5862 7.87714 30.9932 7.51222L18.9962 0.306831C18.2208 -0.149352 17.2628 -0.103543 16.5786 0.489114L0.886808 13.1218C0.38502 13.5321 0.111383 14.1251 0.111383 14.7636V18.5488C0.111383 19.2786 0.521851 19.9625 1.11493 20.3728L2.43762 21.1481L1.84452 21.6043C1.34273 22.0147 1.06909 22.6076 1.06909 23.2461V27.0313C1.06909 27.7611 1.47956 28.445 2.11817 28.8554L0.612855 30.4517C0.156567 30.9079 -0.0712506 31.5463 0.0197527 32.1848L0.476039 35.9246C0.56736 36.6543 1.02333 37.2928 1.70774 37.5664L13.9784 43.0389C14.3433 43.2212 14.7538 43.3125 15.1643 43.3125C15.9397 43.3125 16.7151 42.9931 17.2628 42.4459L30.9019 28.3539C31.3581 27.8977 31.5405 27.2593 31.495 26.6208L31.1755 24.067L32.2246 23.2463C32.7264 22.8359 33 22.243 33 21.6045V17.8192C32.9545 17.0437 32.5895 16.4052 31.9509 15.9945L31.9509 15.9948ZM15.2099 6.50888L17.3994 4.77612C17.673 4.54803 18.0835 4.50254 18.4029 4.73063L24.698 8.51563C25.2453 8.83502 25.2911 9.56447 24.7893 9.97516L22.5998 11.7082C22.3262 11.9363 21.9157 11.9818 21.5963 11.7995L15.3012 7.96845C14.7994 7.64906 14.7536 6.91961 15.2099 6.50892V6.50888ZM2.02698 18.9135C1.89016 18.868 1.84466 18.7312 1.84466 18.5486V15.6754L13.1573 22.4707C13.4768 22.653 13.8873 22.7901 14.2522 22.7901C14.7085 22.7901 15.1644 22.6078 15.5749 22.3339L30.3088 10.4309V13.1215C30.3088 13.2583 30.2633 13.3496 30.1719 13.4409L14.9363 25.7544C14.5258 26.0738 13.9782 26.1192 13.5677 25.8457L2.02698 18.9135ZM29.6701 27.1681L16.031 41.2601C15.666 41.625 15.1188 41.7163 14.6624 41.5337L2.43744 36.0611C2.30062 36.0156 2.2093 35.8788 2.1638 35.7417L1.84433 32.9143L13.8869 38.2955C14.1605 38.4323 14.48 38.4778 14.7536 38.4778C15.3009 38.4778 15.8485 38.2497 16.259 37.8394L23.6944 30.1779L29.6245 25.3892L29.8068 26.8942C29.8068 26.94 29.7613 27.0768 29.67 27.1681L29.6701 27.1681ZM31.2668 21.6042C31.2668 21.741 31.2213 21.8323 31.13 21.9236L15.8943 34.237C15.4839 34.5564 14.9362 34.6019 14.5258 34.3283L2.98502 27.3959C2.84819 27.3504 2.80269 27.2136 2.80269 27.031V24.1578L14.1154 30.9531C14.4348 31.1354 14.8453 31.2725 15.2102 31.2725C15.6665 31.2725 16.1683 31.1357 16.5329 30.8163L31.3124 18.9133V21.6043L31.2668 21.6042Z" fill="#9CB0C7"/>
</svg>
