<svg width="44" height="34" viewBox="0 0 44 34" fill="none" xmlns="http://www.w3.org/2000/svg">
<path d="M15.4733 10.3252C15.4733 6.71121 18.4064 3.76124 22 3.76124C25.5936 3.76124 28.5267 6.71107 28.5267 10.3252C28.5267 13.9392 25.5936 16.8892 22 16.8892C18.4064 16.8892 15.4733 13.9393 15.4733 10.3252ZM35.9334 13.1279C39.5268 13.1279 42.46 10.1781 42.46 6.56397C42.46 2.94996 39.527 0 35.9334 0C32.3399 0 29.4067 2.94983 29.4067 6.56397C29.4067 10.2516 32.3403 13.1279 35.9334 13.1279ZM8.06665 13.1279C11.6601 13.1279 14.5933 10.1781 14.5933 6.56397C14.5933 2.94996 11.6603 0 8.06665 0C4.47318 0 1.53998 2.94983 1.53998 6.56397C1.61312 10.2516 4.47305 13.1279 8.06665 13.1279ZM43.6334 19.8395C43.3403 17.2579 41.2134 13.8657 38.647 13.8657H33.2202C30.9469 13.8657 29.0399 16.4473 28.38 18.8071C29.5535 20.1344 30.2866 21.9782 30.4333 23.4537L30.6533 30.1653L44 30.1648L43.6334 19.8395ZM10.78 13.8657H5.35318C2.78625 13.8657 0.659843 17.2586 0.366771 19.8395L0 30.2382H13.3467L13.5666 23.5266C13.7135 22.0517 14.5201 20.2079 15.62 18.8801C14.9596 16.4467 13.0531 13.8657 10.7798 13.8657H10.78ZM24.7133 17.627H19.2865C16.7196 17.627 14.5932 21.0198 14.3001 23.6008L13.9334 34H30.0667L29.6999 23.6008C29.4805 21.0192 27.2803 17.627 24.7135 17.627H24.7133Z" fill="#9CB0C7"/>
</svg>
