<svg width="40" height="33" viewBox="0 0 40 33" fill="none" xmlns="http://www.w3.org/2000/svg">
<path d="M2.90476 0H38.0476C39.2191 0 40 0.790179 40 1.97562V29.6344C40 30.8198 39.2191 31.61 38.0476 31.61H2.90476C1.73326 31.61 0.952377 30.8198 0.952377 29.6344V1.97562C0.952377 0.790179 1.73326 0 2.90476 0ZM32.1905 5.92687C30.0428 5.92687 28.2857 7.70486 28.2857 9.87812C28.2857 11.2612 29.0666 12.6439 30.2381 13.2368V17.7806L32.1905 15.805L34.1429 17.7806V13.2368C35.3144 12.644 36.0952 11.4585 36.0952 9.87812C36.0952 7.70486 34.3382 5.92687 32.1905 5.92687ZM6.80952 25.6831H34.1429C35.3144 25.6831 36.0952 24.8929 36.0952 23.7075C36.0952 22.522 35.3144 21.7319 34.1429 21.7319H6.80952C5.63802 21.7319 4.85714 22.522 4.85714 23.7075C4.85714 24.8929 5.63802 25.6831 6.80952 25.6831ZM6.80952 17.7806H22.4286C23.6001 17.7806 24.381 16.9904 24.381 15.805C24.381 14.6195 23.6001 13.8294 22.4286 13.8294H6.80952C5.63802 13.8294 4.85714 14.6195 4.85714 15.805C4.85714 16.9904 5.63802 17.7806 6.80952 17.7806ZM6.80952 9.87812H22.4286C23.6001 9.87812 24.381 9.08794 24.381 7.90249C24.381 6.71705 23.6001 5.92687 22.4286 5.92687H6.80952C5.63802 5.92687 4.85714 6.71705 4.85714 7.90249C4.85714 9.08794 5.63802 9.87812 6.80952 9.87812Z" fill="#9CB0C7"/>
</svg>
