<svg width="43" height="43" viewBox="0 0 43 43" fill="none" xmlns="http://www.w3.org/2000/svg">
<path d="M11.3157 27.2094H36.2103V33.9767H11.3157V27.2094ZM6.78932 42.9999H31.6839V36.2327H6.78932V42.9999ZM9.05226 27.2094H5.65775C5.033 27.2094 4.52628 27.7145 4.52628 28.3372V32.8489C4.52628 33.1479 4.64547 33.435 4.85779 33.6463C5.06973 33.8579 5.35782 33.9767 5.65777 33.9767H9.05268L9.05226 27.2094ZM1.13147 36.2327C0.506722 36.2327 0 36.7374 0 37.3605V41.8722C0 42.1712 0.119189 42.4579 0.33151 42.6696C0.543841 42.8812 0.831543 43 1.13149 43H4.5264V36.2328L1.13147 36.2327ZM37.3417 36.2327H33.9472V43H37.3421C37.6421 43 37.9302 42.8812 38.1421 42.6695C38.3544 42.4579 38.4736 42.1711 38.4736 41.8722V37.3605C38.4736 37.0612 38.3544 36.7744 38.1421 36.5627C37.9302 36.3515 37.6421 36.2327 37.3421 36.2327L37.3417 36.2327ZM41.8681 27.2094H38.4736V33.9767H41.8685C42.1685 33.9767 42.4562 33.8579 42.6685 33.6462C42.8808 33.435 43 33.1478 43 32.8489V28.3372C43 28.0382 42.8808 27.7511 42.6685 27.5398C42.4562 27.3282 42.1685 27.2094 41.8685 27.2094L41.8681 27.2094ZM14.4396 24.9539H30.123C30.5398 24.3945 30.9037 23.7981 31.2095 23.1715C34.3778 16.6525 34.2421 12.0729 30.8022 9.52404H30.8018C29.6857 8.64013 28.3119 8.14137 26.8868 8.1032C25.1684 8.16693 23.5401 8.88562 22.338 10.1106L22.3155 10.1331L21.4555 11.0355H21.4551C21.2397 11.2518 20.9464 11.3738 20.6406 11.3742C20.3509 11.382 20.0711 11.2672 19.871 11.0583C19.6531 10.8557 19.5256 10.5748 19.5174 10.2782C19.5087 9.98122 19.62 9.69366 19.826 9.47927L20.12 9.16339C19.369 8.64611 18.4948 8.33494 17.5851 8.26099C17.4268 8.26099 17.2457 8.23857 17.0645 8.23857H17.0649C14.5928 8.36917 12.3539 9.73534 11.1127 11.8702C10.2997 13.186 9.86946 14.7009 9.86946 16.2465C9.86946 17.7917 10.2996 19.3066 11.1127 20.6228C11.9446 22.258 13.0725 23.7265 14.4397 24.9539L14.4396 24.9539ZM20.3465 8.93784L20.3461 8.93745C20.7566 8.56098 21.1872 8.20734 21.6363 7.87733C21.8854 7.67435 22.1569 7.49379 22.4509 7.29081C23.4372 6.65078 24.5233 6.17793 25.6647 5.89233C26.1406 5.22634 26.424 4.44269 26.4836 3.62769C26.5436 2.81222 26.3778 1.99598 26.0041 1.26778C25.0431 1.48768 24.1594 1.96248 23.4463 2.64109C22.7336 3.32006 22.2178 4.17844 21.9534 5.12526C21.4269 3.49909 20.6971 1.94522 19.7808 0.501121C19.4354 -0.0138106 18.7385 -0.154636 18.2191 0.185241C17.7021 0.539277 17.5616 1.23911 17.9022 1.76429C19.2854 3.92389 20.1241 6.3849 20.3463 8.93746L20.3465 8.93784Z" fill="#9CB0C7"/>
</svg>
