<?xml version="1.0" encoding="utf-8"?>
<!-- Generator: Adobe Illustrator 24.0.2, SVG Export Plug-In . SVG Version: 6.00 Build 0)  -->
<svg version="1.1" id="Layer_1" xmlns="http://www.w3.org/2000/svg" xmlns:xlink="http://www.w3.org/1999/xlink" x="0px" y="0px"
	 viewBox="0 0 25.5 25.5" style="enable-background:new 0 0 25.5 25.5;" xml:space="preserve">
<style type="text/css">
	.st0{fill:#9CB0C7;}
	.st1{fill:#0F2943;}
</style>
<circle class="st0" cx="12.8" cy="12.8" r="12.8"/>
<path class="st1" d="M18.5,10.4c0-0.5-0.1-1-0.3-1.4c-0.1-0.4-0.4-0.7-0.7-1c-0.3-0.3-0.6-0.5-1-0.7c-0.4-0.2-0.9-0.3-1.4-0.3
	c-0.6,0-0.8,0-2.4,0S11,7,10.4,7C9.9,7.1,9.4,7.1,9,7.3C8.6,7.5,8.3,7.7,8,8C7.7,8.3,7.5,8.6,7.3,9c-0.2,0.4-0.3,0.9-0.3,1.4
	c0,0.6,0,0.8,0,2.4s0,1.8,0,2.4c0,0.5,0.1,0.9,0.3,1.4c0.1,0.4,0.4,0.7,0.7,1c0.3,0.3,0.6,0.5,1,0.7c0.4,0.2,0.9,0.3,1.4,0.3
	c0.6,0,0.8,0,2.4,0c1.6,0,1.8,0,2.4,0c0.5,0,0.9-0.1,1.4-0.3c0.4-0.1,0.7-0.4,1-0.7c0.3-0.3,0.5-0.6,0.7-1c0.2-0.4,0.3-0.9,0.3-1.4
	c0-0.6,0-0.8,0-2.4C18.5,11.2,18.5,11,18.5,10.4z M12.8,15.7c-1.6,0-3-1.3-3-3s1.3-3,3-3c0.8,0,1.5,0.3,2.1,0.9
	c0.6,0.6,0.9,1.3,0.9,2.1s-0.3,1.5-0.9,2.1C14.3,15.4,13.5,15.7,12.8,15.7z M15.8,10.4c-0.1,0-0.2,0-0.3-0.1c-0.1,0-0.2-0.1-0.2-0.1
	S15.2,10,15.2,10c0-0.1-0.1-0.2-0.1-0.3c0-0.1,0-0.2,0.1-0.3c0-0.1,0.1-0.2,0.1-0.2c0.1-0.1,0.1-0.1,0.2-0.1C15.6,9,15.7,9,15.8,9
	s0.2,0,0.3,0.1c0.1,0,0.2,0.1,0.2,0.1c0.1,0.1,0.1,0.1,0.1,0.2c0,0.1,0.1,0.2,0.1,0.3C16.5,10.1,16.2,10.4,15.8,10.4z"/>
<path class="st1" d="M12.8,14.7c1.1,0,1.9-0.9,1.9-1.9c0-1.1-0.9-1.9-1.9-1.9c-1.1,0-1.9,0.9-1.9,1.9C10.8,13.8,11.7,14.7,12.8,14.7
	z"/>
</svg>
