<svg width="25" height="25" viewBox="0 0 25 25" fill="none" xmlns="http://www.w3.org/2000/svg">
<path d="M20 0H4.99995C2.24986 0 0 2.24987 0 4.99996V20C0 22.7501 2.24986 25 4.99995 25H20C22.7501 25 25 22.7501 25 20V4.99996C25 2.24987 22.7501 0 20 0ZM20.1916 19.3625L19.8748 19.6793C19.1292 20.4291 18.1376 20.8334 17.1125 20.8334C16.8291 20.8334 16.5417 20.8 16.2583 20.7375C13.8081 20.1917 10.675 18.3918 8.64145 16.3584C6.60401 14.321 4.80809 11.1916 4.26233 8.73708C3.97052 7.42859 4.36638 6.07449 5.3206 5.12032L5.6374 4.80352C6.06232 4.38296 6.62476 4.16642 7.18302 4.16642C7.74135 4.16642 8.30371 4.38296 8.73303 4.80817L9.76629 5.84143C10.6164 6.69561 10.6164 8.08728 9.76629 8.94145L9.30388 9.40387C9.12485 9.5829 9.04985 9.83315 9.10798 10.0747C9.27888 10.8414 9.80786 12.083 11.3663 13.6371C12.9204 15.1912 14.158 15.7205 14.9247 15.8914C15.1662 15.9454 15.4165 15.8748 15.5955 15.6955L16.0579 15.2331C16.4703 14.8163 17.0246 14.5913 17.6079 14.5913C18.1913 14.5913 18.7455 14.8163 19.1579 15.2331L20.1912 16.2622C20.6036 16.6747 20.8329 17.2289 20.8329 17.8123C20.8332 18.3956 20.6083 18.9498 20.1915 19.3623L20.1916 19.3625Z" fill="#9CB0C7"/>
</svg>
