<svg width="53" height="44" viewBox="0 0 53 44" fill="none" xmlns="http://www.w3.org/2000/svg">
<path fill-rule="evenodd" clip-rule="evenodd" d="M27.4229 0.310112L51.4204 12.3388L51.4216 12.3387C51.913 12.5848 52.2235 13.0886 52.2235 13.6393C52.2235 14.1904 51.913 14.6938 51.4216 14.9398L48.2381 16.5358L48.2427 31.2184C48.2125 32.0248 47.7759 32.7608 47.0842 33.1728C46.392 33.5852 45.5384 33.6176 44.8175 33.2586C44.0965 32.8996 43.6062 32.1984 43.5155 31.3966V18.9185L48.0844 16.6106C48.068 16.0959 47.8728 15.6033 47.5326 15.2176C47.1918 14.8323 46.7276 14.5781 46.2198 14.4995L26.4459 11.4557C25.868 11.3648 25.2777 11.5086 24.8063 11.8558C24.3344 12.2026 24.0203 12.7239 23.9337 13.3038C23.7488 14.5099 24.2068 15.8213 25.4099 16.0062L43.6819 18.819L27.4234 26.9686C26.5979 27.3826 25.6254 27.3826 24.8 26.9686H24.7995L0.801882 14.9404C0.310505 14.6939 0 14.1905 0 13.6393C0 13.0887 0.310505 12.5848 0.801882 12.3388L24.7995 0.310112C25.6249 -0.103371 26.5974 -0.103371 27.4229 0.310112ZM12.2129 25.1299L24.8913 31.4847H24.8915C25.6591 31.8694 26.5619 31.8694 27.3295 31.4847L40.0078 25.1299V34.2056C40.0078 38.0528 33.7859 43.3075 26.1104 43.3075C18.4353 43.3075 12.2129 38.0528 12.2129 34.2056V25.1299Z" fill="#9CB0C7"/>
</svg>
