<svg width="45" height="67" viewBox="0 0 45 67" fill="none" xmlns="http://www.w3.org/2000/svg">
<path fill-rule="evenodd" clip-rule="evenodd" d="M0.367138 20.3505C-0.382683 18.7731 0.0426025 16.9073 1.40028 15.8126C2.86329 14.6326 3.70813 12.8768 3.71677 10.9944C3.72421 9.24833 4.91534 7.75181 6.61366 7.35562C8.44234 6.92959 9.96376 5.71392 10.7868 4.02246C11.5504 2.45253 13.2715 1.62214 14.9732 2.00174C16.8036 2.41459 18.7022 1.97938 20.1773 0.811934C21.5459 -0.271217 23.4553 -0.270072 24.8233 0.811934C26.2983 1.97823 28.1952 2.41341 30.0275 2.00174C31.7326 1.62042 33.4502 2.45186 34.2132 4.02246C35.0363 5.71392 36.5577 6.92905 38.387 7.35562C40.0841 7.75241 41.2752 9.24848 41.2833 10.9944C41.2918 12.8768 42.1361 14.6326 43.5992 15.8126C44.9574 16.9078 45.3827 18.7731 44.6329 20.3505C43.8258 22.0489 43.8258 23.9986 44.6329 25.6969C45.3827 27.2743 44.9574 29.1402 43.5992 30.2348C42.1361 31.4149 41.2919 33.1706 41.2833 35.0519C41.2752 36.7984 40.0841 38.295 38.3864 38.6918C36.5571 39.1178 35.0363 40.3335 34.2132 42.025C33.4497 43.5961 31.7279 44.4257 30.0269 44.0445C29.5741 43.9436 29.1174 43.8937 28.664 43.8937C27.2823 43.8937 25.9332 44.3559 24.8228 45.2349C23.4559 46.3163 21.5453 46.3169 20.1767 45.2349C18.7024 44.0675 16.8054 43.6352 14.9726 44.0445C13.2726 44.4253 11.5504 43.595 10.7868 42.025C9.96376 40.3335 8.44237 39.1184 6.6131 38.6918C4.91541 38.295 3.72427 36.799 3.7168 35.0519C3.70821 33.17 2.86395 31.4148 1.4009 30.2348C0.0426483 29.1396 -0.382656 27.2743 0.367176 25.6969C1.1748 23.998 1.1748 22.0489 0.367176 20.3505H0.367138ZM22.5004 36.7587C30.0604 36.7587 36.2112 30.5969 36.2112 23.0236C36.2112 15.4502 30.0603 9.28841 22.5004 9.28841C14.9405 9.28841 8.78965 15.4502 8.78965 23.0236C8.78965 30.5965 14.9399 36.7587 22.5004 36.7587ZM11.2514 23.0235C11.2514 29.2471 16.2878 34.2926 22.5009 34.2926C28.7135 34.2926 33.75 29.2472 33.75 23.0235C33.75 16.7999 28.7136 11.7544 22.5009 11.7544C16.2878 11.7544 11.2514 16.7997 11.2514 23.0235ZM18.6509 47.1697C17.7613 46.465 16.616 46.2058 15.5102 46.4513L15.5104 46.4507C13.8842 46.8165 12.2489 46.5092 10.9124 45.6875L10.913 67L21.7487 60.2591C22.1918 59.9173 22.8105 59.9173 23.2535 60.2591L34.0898 67V45.6875C32.7522 46.5098 31.1169 46.8171 29.4907 46.4513C28.3831 46.2047 27.2395 46.4667 26.35 47.1697C25.2162 48.0671 23.8585 48.5155 22.5002 48.5149C21.1425 48.5149 19.7842 48.0671 18.6509 47.1697Z" fill="#9CB0C7"/>
</svg>
