<svg width="49" height="34" viewBox="0 0 49 34" fill="none" xmlns="http://www.w3.org/2000/svg">
<path fill-rule="evenodd" clip-rule="evenodd" d="M11.2706 9.16062e-06C15.1692 -0.00543561 18.7897 2.41689 19.4376 5.57703H19.4375C19.6009 6.38098 19.8948 8.61502 18.5389 13.2218C17.7494 15.8881 15.1633 18.0281 11.2921 18.0281C7.42095 18.0281 4.83457 15.8885 4.05067 13.2218C2.6895 8.61502 2.98345 6.38099 3.14677 5.57703C3.81102 2.40066 7.37195 0.00542304 11.2706 9.16062e-06ZM16.8787 18.144C17.8593 18.364 18.7697 18.8331 19.5247 19.5075L19.5244 19.5071C21.9308 22.0968 22.4807 29.8301 22.5897 33.9991H0C0.108991 29.8462 0.647921 22.1297 3.02162 19.5299C3.7797 18.8501 4.69344 18.3752 5.67864 18.1494C7.20685 19.5597 9.21488 20.3076 11.276 20.2341C13.3398 20.3092 15.3508 19.559 16.8787 18.144ZM43.7255 19.4811C42.9727 18.8066 42.0643 18.3372 41.0848 18.1172C39.555 19.5321 37.5424 20.2819 35.4768 20.2073C33.4095 20.2835 31.3948 19.5333 29.8635 18.1172C28.8828 18.3461 27.9747 18.8229 27.2228 19.5031C24.827 22.1087 24.2828 29.8363 24.1738 34.0001H46.8238C46.6875 29.8198 46.1375 22.075 43.7255 19.4813V19.4811ZM43.7417 8.18256C44.4994 8.1203 45.2613 8.18991 45.9962 8.38751L45.9962 8.38749C47.2863 8.74249 49.5894 10.5666 48.8598 13.5105C48.5442 14.7302 46.6274 16.2047 45.2772 17.0473C46.0231 14.8849 45.9035 13.0059 45.3588 11.8249C44.9639 11.0221 44.3133 10.379 43.5131 10.0008C43.3141 11.096 43.0543 12.1787 42.7345 13.2441H42.7341C42.7015 13.3663 42.6582 13.4827 42.6145 13.5991C41.7052 16.1103 39.1789 18.0675 35.4767 18.0675C31.7745 18.0675 29.2534 16.1328 28.3389 13.6324L28.3366 13.6261C28.2937 13.506 28.2508 13.3862 28.2135 13.2608C27.893 12.1962 27.6347 11.1133 27.4403 10.0175C26.6415 10.3915 25.9895 11.0279 25.5892 11.8249C25.0449 12.9948 24.9306 14.8741 25.6871 17.0358C24.337 16.1931 22.4095 14.7186 22.1045 13.4989C21.3749 10.5662 23.678 8.74248 24.9739 8.38749C25.7065 8.1895 26.4672 8.12028 27.2227 8.18254C27.1338 7.32326 27.1634 6.45554 27.3096 5.60479C27.5997 4.34685 28.2747 3.21501 29.237 2.37278C30.2124 1.49152 31.3643 0.836801 32.6131 0.454737C33.5413 0.165482 34.5063 0.0177617 35.4767 0.0166016C36.3191 0.018928 37.1572 0.132615 37.9704 0.354969C39.0873 0.649976 40.1401 1.15577 41.074 1.84604C42.3509 2.73087 43.2635 4.06266 43.6384 5.58818C43.7949 6.4436 43.8298 7.31712 43.7417 8.18256Z" fill="#9CB0C7"/>
</svg>
