<svg width="67" height="76" viewBox="0 0 67 76" fill="none" xmlns="http://www.w3.org/2000/svg">
<path d="M17.1895 0.00491983C17.1435 0.0132463 17.0983 0.0246002 17.0538 0.0389824C16.551 0.151767 16.1975 0.606694 16.2096 1.12445V4.37934H14.0485C11.074 4.37934 8.6453 6.81823 8.6453 9.80512V14.3831C3.72762 15.3974 0 19.7649 0 24.9977C0 29.7914 3.12517 33.8758 7.42939 35.3065C3.11918 36.7326 0 40.8094 0 45.6153V74.9145C0 75.514 0.483931 76 1.08095 76H20.5324C21.1294 76 21.6126 75.514 21.6126 74.9145V50.7698C22.6958 50.4708 35.0664 47.0599 40.3217 45.581C41.5979 45.2305 42.8086 44.6916 43.7659 43.8181C43.8918 43.703 43.989 43.5728 44.1036 43.4449H61.5968C64.5713 43.4449 67 41.006 67 38.0191V9.80503C67 6.81813 64.5713 4.37924 61.5968 4.37924H59.435V1.12435C59.4432 0.789776 59.2978 0.471107 59.0407 0.259172C58.7829 0.0472178 58.4429 -0.034517 58.1181 0.0389055C57.6153 0.15169 57.2618 0.606617 57.2738 1.12437V4.37926H18.3709V1.12437C18.3814 0.81175 18.2585 0.509727 18.0317 0.295525C17.8055 0.0813032 17.498 -0.0246547 17.1889 0.00485774L17.1895 0.00491983ZM14.0485 6.55016H61.5966C63.4109 6.55016 64.8379 7.98305 64.8379 9.80505V38.0191C64.8379 39.8411 63.411 41.2748 61.5966 41.2748H45.2514C45.329 40.9327 45.387 40.5633 45.387 40.1893C45.387 37.2055 42.9546 34.7635 39.9838 34.7635H15.4669C19.0874 33.0082 21.6126 29.2953 21.6126 24.9975C21.6126 19.0169 16.7619 14.1459 10.8062 14.1459V9.80493C10.8062 7.98297 12.2339 6.55004 14.0483 6.55004L14.0485 6.55016ZM10.8064 16.3162C15.5938 16.3162 19.4517 20.1902 19.4517 24.9976C19.4517 29.8051 15.5938 33.6791 10.8064 33.6791C6.01898 33.6791 2.16188 29.8051 2.16188 24.9976C2.16188 20.1902 6.01898 16.3162 10.8064 16.3162ZM52.6483 34.7637C52.3611 34.8045 52.1026 34.9574 51.9284 35.1898C51.7543 35.4214 51.6789 35.7136 51.7196 36.0013C51.8033 36.6008 52.3551 37.0186 52.9521 36.9338H59.4355C59.725 36.9384 60.0039 36.8256 60.2097 36.6219C60.4162 36.4176 60.5316 36.1398 60.5316 35.8491C60.5316 35.5584 60.4162 35.2799 60.2097 35.0763C60.0039 34.8719 59.725 34.7599 59.4355 34.7636H52.9521C52.8843 34.7576 52.8164 34.7576 52.7493 34.7636C52.7154 34.7621 52.6815 34.7621 52.6483 34.7636L52.6483 34.7637ZM10.8064 36.9338H39.9836C41.7867 36.9338 43.225 38.3788 43.225 40.1894C43.225 41.1038 42.9046 41.6844 42.3136 42.2241C41.7226 42.7638 40.8105 43.187 39.7469 43.4791V43.5132C34.2804 45.0505 20.2607 48.9049 20.2607 48.9049C19.7835 49.0283 19.4504 49.4612 19.4504 49.9563V73.8297H2.16055V45.6156C2.16055 40.7879 5.99739 36.9342 10.8051 36.9342L10.8064 36.9338Z" fill="#FF6C4B"/>
</svg>
