<svg width="51" height="30" viewBox="0 0 51 30" fill="none" xmlns="http://www.w3.org/2000/svg">
<path d="M3.23399 30H47.0601C48.8446 30 50.2941 28.5767 50.2941 26.8248V3.17518C50.2941 1.42316 48.8445 0 47.0601 0H3.23399C1.44952 0 0 1.42326 0 3.17518V26.8248C0 28.5764 1.44962 29.9997 3.23399 29.9997V30ZM17.3966 12.5365C17.7871 12.1531 18.3445 12.1531 18.7349 12.5365C18.9022 12.7007 19.0138 12.9745 19.0138 13.1933C19.0138 13.4121 18.9578 13.6313 18.7349 13.8501C18.066 14.5069 18.066 15.5471 18.7349 16.2039C19.1254 16.5873 19.1254 17.1346 18.7349 17.5179C18.3444 17.9013 17.7871 17.9013 17.3966 17.5179C16.0027 16.1493 16.0027 13.9051 17.3966 12.5365V12.5365ZM15.947 9.79927C16.1143 9.96347 16.2259 10.2373 16.2259 10.4561C16.2259 10.6749 16.1699 10.8941 15.947 11.1129C13.7724 13.2479 13.7724 16.8061 15.947 18.9412C16.3375 19.3246 16.3375 19.8718 15.947 20.2551C15.5565 20.6385 14.9992 20.6385 14.6087 20.2551C11.6535 17.3537 11.6535 12.6457 14.6087 9.79894C14.9992 9.41592 15.6126 9.41592 15.947 9.79932V9.79927ZM11.8208 7.0071C12.2113 6.62371 12.7686 6.62371 13.1591 7.0071C13.3263 7.17131 13.438 7.44511 13.438 7.66392C13.438 7.88273 13.3263 8.15653 13.1591 8.32074C9.42327 11.9886 9.42327 17.9557 13.1591 21.6237C13.5496 22.0071 13.5496 22.5543 13.1591 22.9376C12.7686 23.321 12.2112 23.321 11.8208 22.9376C7.36041 18.6134 7.36041 11.4413 11.8208 7.00697V7.0071Z" fill="#9CB0C7"/>
</svg>
