<svg width="32" height="33" viewBox="0 0 32 33" fill="none" xmlns="http://www.w3.org/2000/svg">
<circle cx="16.2961" cy="16.5733" r="15.6593" fill="#8DA8C8"/>
<path d="M25.6916 10.5083C25.0006 10.8065 24.2582 11.0079 23.4778 11.099C24.283 10.6298 24.8855 9.89129 25.1727 9.02131C24.4162 9.45893 23.5882 9.76696 22.7247 9.93202C22.144 9.32826 21.375 8.92809 20.5368 8.79361C19.6987 8.65914 18.8384 8.7979 18.0896 9.18834C17.3407 9.57879 16.7452 10.1991 16.3954 10.9529C16.0457 11.7067 15.9613 12.5519 16.1553 13.3572C14.6224 13.2823 13.1227 12.8943 11.7537 12.2184C10.3847 11.5425 9.17695 10.5938 8.20881 9.43395C7.87777 9.99005 7.68743 10.6348 7.68743 11.3215C7.68706 11.9396 7.84337 12.5483 8.1425 13.0935C8.44163 13.6387 8.87432 14.1036 9.40219 14.4469C8.79 14.4279 8.19132 14.2668 7.65598 13.977V14.0254C7.65592 14.8923 7.96387 15.7326 8.52758 16.4037C9.09129 17.0747 9.87604 17.5352 10.7487 17.7069C10.1808 17.8565 9.58536 17.8786 9.00743 17.7713C9.25363 18.5173 9.73322 19.1697 10.379 19.637C11.0249 20.1044 11.8046 20.3634 12.6091 20.3777C11.2434 21.4218 9.55685 21.9881 7.82067 21.9856C7.51312 21.9857 7.20583 21.9682 6.90039 21.9332C8.66272 23.0367 10.7142 23.6223 12.8094 23.62C19.9018 23.62 23.779 17.8995 23.779 12.9382C23.779 12.777 23.7749 12.6142 23.7675 12.453C24.5216 11.9219 25.1726 11.2641 25.6899 10.5107L25.6916 10.5083Z" fill="white"/>
</svg>
