<svg width="47" height="37" viewBox="0 0 47 37" fill="none" xmlns="http://www.w3.org/2000/svg">
<path d="M41.9265 5.57198C38.4902 2.02757 33.8164 0.0237285 28.9331 0.000666044L17.6241 0.000102996C7.92274 -0.033117 0.0324517 7.97395 0 17.885V18.005C0.0490529 27.8375 8.14652 35.8294 18.046 35.8294L29.3749 35.8299C31.805 35.8384 34.2096 35.3271 36.4346 34.3294C36.7994 34.1729 37.2205 34.2557 37.5021 34.5395L39.0492 36.12C39.5949 36.6779 40.3334 36.9944 41.1055 37C41.5024 36.9977 41.8948 36.9161 42.2607 36.7601C43.3465 36.2951 44.0559 35.2124 44.0625 34.0091V28.0976C44.068 27.9084 44.1254 27.7243 44.229 27.5672C46.0014 24.7446 46.9616 21.4688 46.9997 18.1153C47.0289 13.4071 45.2007 8.88587 41.9274 5.5718L41.9265 5.57198ZM13.7076 21.9161C11.5444 21.9161 9.79111 20.125 9.79111 17.915C9.79111 15.7051 11.5444 13.914 13.7076 13.914C15.8709 13.914 17.6241 15.7051 17.6241 17.915C17.6241 20.125 15.8709 21.9161 13.7076 21.9161ZM23.4989 21.9161C21.3356 21.9161 19.5824 20.125 19.5824 17.915C19.5824 15.7051 21.3356 13.914 23.4989 13.914C25.6621 13.914 27.4154 15.7051 27.4154 17.915C27.4159 20.125 25.6621 21.9161 23.4989 21.9161ZM33.2905 21.9161C31.1273 21.9161 29.374 20.125 29.374 17.915C29.374 15.7051 31.1273 13.914 33.2905 13.914C35.4538 13.914 37.207 15.7051 37.207 17.915C37.207 20.125 35.4538 21.9161 33.2905 21.9161Z" fill="#8DA8C8"/>
</svg>
