<?xml version="1.0" encoding="utf-8"?>
<!-- Generator: Adobe Illustrator 24.0.2, SVG Export Plug-In . SVG Version: 6.00 Build 0)  -->
<svg version="1.1" id="Layer_1" xmlns="http://www.w3.org/2000/svg" xmlns:xlink="http://www.w3.org/1999/xlink" x="0px" y="0px"
	 viewBox="0 0 25.5 25.5" style="enable-background:new 0 0 25.5 25.5;" xml:space="preserve">
<style type="text/css">
	.st0{fill:#9CB0C7;}
	.st1{fill:#0F2943;}
</style>
<circle class="st0" cx="12.8" cy="12.8" r="12.8"/>
<path class="st1" d="M18.8,10.1c0,0-0.1-0.9-0.5-1.2c-0.4-0.5-1-0.5-1.2-0.5c-1.7-0.1-4.3-0.1-4.3-0.1s-2.6,0-4.3,0.1
	c-0.2,0-0.8,0-1.2,0.5c-0.4,0.4-0.5,1.2-0.5,1.2s-0.1,1-0.1,2V13c0,1,0.1,2,0.1,2s0.1,0.9,0.5,1.2c0.4,0.5,1.1,0.5,1.3,0.5
	c1,0,4.2,0.1,4.2,0.1s2.6,0,4.3-0.1c0.2,0,0.8,0,1.2-0.5c0.4-0.4,0.5-1.2,0.5-1.2s0.1-1,0.1-2v-0.9C18.9,11.1,18.8,10.1,18.8,10.1z
	 M11.5,14.1v-3.4l3.3,1.7L11.5,14.1z"/>
</svg>
