<?xml version="1.0" encoding="utf-8"?>
<!-- Generator: Adobe Illustrator 24.0.2, SVG Export Plug-In . SVG Version: 6.00 Build 0)  -->
<svg version="1.1" id="Layer_1" xmlns="http://www.w3.org/2000/svg" xmlns:xlink="http://www.w3.org/1999/xlink" x="0px" y="0px"
	 viewBox="0 0 12 6" style="enable-background:new 0 0 12 6;" xml:space="preserve">
<style type="text/css">
	.st0{fill:#1C4B83;}
</style>
<path class="st0" d="M11.3,1.3c0-0.2-0.1-0.3-0.2-0.5c-0.1-0.1-0.1-0.1-0.2-0.2c-0.1,0-0.2-0.1-0.3-0.1c-0.1,0-0.2,0-0.3,0
	S10.1,0.6,10,0.7L6,4.1L2,0.8C1.9,0.8,1.8,0.7,1.7,0.7c-0.1,0-0.2,0-0.3,0c-0.1,0-0.2,0-0.3,0.1C1.1,0.8,1,0.9,0.9,0.9
	C0.8,1,0.8,1.1,0.8,1.2c0,0.1,0,0.2,0,0.3c0,0.1,0,0.2,0.1,0.3C0.9,1.9,0.9,2,1,2l4.5,3.6C5.7,5.8,5.8,5.8,6,5.8
	c0.2,0,0.3-0.1,0.5-0.2L11,1.9c0.1-0.1,0.2-0.2,0.2-0.3C11.2,1.5,11.3,1.4,11.3,1.3z"/>
</svg>
