<?xml version="1.0" encoding="utf-8"?>
<!-- Generator: Adobe Illustrator 24.0.2, SVG Export Plug-In . SVG Version: 6.00 Build 0)  -->
<svg version="1.1" id="Cambridge_logo" xmlns="http://www.w3.org/2000/svg" xmlns:xlink="http://www.w3.org/1999/xlink" x="0px"
	 y="0px" viewBox="0 0 1415.3 623.6" style="enable-background:new 0 0 1415.3 623.6;" xml:space="preserve">
<style type="text/css">
	.st0{fill:#FFFFFF;}
	.st1{fill:#E73337;}
	.st2{fill:#FFE500;}
</style>
<g id="Authorised_Exam_Centre">
	<path d="M34,543.6L0,622h10.1l6.7-15.9h37.4l6.7,15.9H71l-34-78.4H34z M20.5,597.6l15-35.2l15,35.2H20.5z"/>
	<path d="M120.5,597.5c0,10.3-7.2,18-16.4,18c-8,0-13.3-4.9-13.3-13.2v-35.6h-9v37.5c0,12,8.1,19.4,19.5,19.4c8,0,15.2-4.1,19.2-9.9
		v8.3h9v-55.3h-9V597.5z"/>
	<path d="M167.3,615.5c-3.4,0-7.2-1.9-7.2-6.8v-33.9H176v-8.1h-15.8v-14.8l-9,4.3v10.5h-10.6v8.1h10.6v33.7
		c0,9.6,5.7,15.1,14.3,15.1c4.3,0,6.6-0.8,10.4-2.8l0.7-8.5h-1C172,615,169.7,615.5,167.3,615.5z"/>
	<path d="M218.3,565.1c-7.7,0-15.7,4.4-19.6,10.1v-33.8h-9V622h9v-30.8c0-10.3,7.6-18,16.8-18c8,0,13.8,4.9,13.8,13.2V622h9v-37.5
		C238.2,572.5,230.2,565.1,218.3,565.1z"/>
	<path d="M280.1,565.1c-16.2,0-29,12.1-29,29.2s12.8,29.2,29,29.2s29-12.1,29-29.2S296.3,565.1,280.1,565.1z M280.1,615.5
		c-11.4,0-20-8.5-20-21.2s8.6-21.2,20-21.2s20,8.5,20,21.2S291.5,615.5,280.1,615.5z"/>
	<path d="M347.4,565.1c-5.7,0-12,3.1-15.8,9.6v-8.1h-9V622h9v-31.6c0-12.7,7.7-17.2,14.4-17.2c3.7,0,6.7,1,9.4,3.6h1l-0.6-9.1
		C353.6,566,350.6,565.1,347.4,565.1z"/>
	<rect x="368.9" y="566.7" width="9" height="55.3"/>
	<path d="M373.4,543.6c-3.5,0-6.3,2.8-6.3,6.3s2.8,6.3,6.3,6.3c3.5,0,6.3-2.8,6.3-6.3S376.9,543.6,373.4,543.6z"/>
	<path d="M414.3,590.3c-8-2.8-13.1-5.3-13.1-10.5c0-4.9,4.6-6.8,10-6.8c5.7,0,10.2,1.6,14.9,5.2h0.8l-0.3-8.7
		c-3.9-2.4-8.6-4.3-15.1-4.3c-11.2,0-18.3,6.8-18.3,14.9c0,9.4,7.5,13.9,15.5,16.6c8,2.7,12.9,4.8,12.9,10.6c0,4.9-4.1,8.3-11.2,8.3
		c-6,0-10.9-2.2-15.8-6h-0.7l-2.1,8.5c4.9,3.2,10.9,5.6,18.5,5.6c11,0,20.3-7.1,20.3-16.8C430.4,597.9,424.3,593.8,414.3,590.3z"/>
	<path d="M467.6,565.1c-14.9,0-27.6,12.5-27.6,29.2c0,16.4,12.4,29.2,28.9,29.2c8.5,0,14.9-2.6,21.2-7.3l0.3-9.7h-0.9
		c-7.4,6.7-12.9,9-20.7,9c-9.1,0-18.8-6.5-19.8-18.8h45.4v-4.5C494.4,575.6,483.1,565.1,467.6,565.1z M449.5,589.3
		c1.9-11.2,10.2-16.8,18.1-16.8c10.3,0,17.5,6.9,18.6,16.8H449.5z"/>
	<path d="M554.2,574c-3.8-4.8-11.1-8.8-19.6-8.8c-16.5,0-29.1,12.5-29.1,29.2s12.7,29.2,28.4,29.2c9.1,0,15.8-3.9,20.3-9.1v7.5h9
		v-80.6h-9V574z M534.6,615.5c-12.3,0-20.2-9.6-20.2-21.2s7.8-21.2,20.2-21.2s20.2,9.6,20.2,21.2S546.9,615.5,534.6,615.5z"/>
	<polygon points="617.1,586 650.6,586 650.6,577.4 617.1,577.4 617.1,552.1 651.8,552.1 651.8,543.6 607,543.6 607,622 652.3,622 
		652.3,613.5 617.1,613.5 	"/>
	<polygon points="707.3,566.7 697.6,566.7 685.4,586.7 673.1,566.7 663.1,566.7 680.5,593.5 662,622 671.9,622 685.2,600.5 
		698.6,622 708.3,622 690.6,593.2 	"/>
	<path d="M761.1,573.6c-3.8-4.4-10.6-8.5-19.4-8.5c-16.5,0-28.9,13.1-28.9,29.2s12.4,29.2,28.9,29.2c8.7,0,15.6-4.1,19.4-8.5v6.9h9
		v-55.3h-9V573.6z M741.8,615.5c-12.3,0-19.9-9.6-19.9-21.2s7.6-21.2,19.9-21.2s19.9,9.6,19.9,21.2S754.1,615.5,741.8,615.5z"/>
	<path d="M842.7,565.1c-6.6,0-13.7,3.7-17,9.1c-2.8-6.3-7.8-9.1-14.2-9.1c-6.6,0-12.5,3.2-15.9,8.4v-6.8h-9V622h9v-32.6
		c0-10.1,5-16.2,12.3-16.2c5.7,0,10.9,3.5,10.9,10.9v38h9v-35.4c0-8.1,5.4-13.4,11.9-13.4s10.8,3.9,10.8,10.8V622h9v-39.3
		C859.3,572.2,853.9,565.1,842.7,565.1z"/>
	<path d="M938.9,550.6c10.1,0,17,3.9,22.8,9.3h1.1l-0.7-11.1c-5.9-4-13.3-6.7-22.8-6.7c-22.3,0-40.2,17-40.2,40.8
		s17.6,40.8,39.9,40.8c9.5,0,17.2-2.7,23.2-6.7l0.7-11.1h-1.1c-5.8,5.4-12.8,9.3-22.8,9.3c-15.8,0-29.7-12.1-29.7-32.3
		S923.1,550.6,938.9,550.6z"/>
	<path d="M1000.6,565.1c-14.9,0-27.6,12.5-27.6,29.2c0,16.4,12.4,29.2,28.9,29.2c8.5,0,14.9-2.6,21.2-7.3l0.3-9.7h-0.9
		c-7.4,6.7-12.9,9-20.7,9c-9.1,0-18.8-6.5-19.8-18.8h45.4v-4.5C1027.4,575.6,1016.1,565.1,1000.6,565.1z M982.5,589.3
		c1.9-11.2,10.2-16.8,18.1-16.8c10.3,0,17.5,6.9,18.6,16.8H982.5z"/>
	<path d="M1069.5,565.1c-8,0-15.2,4.1-19.2,9.9v-8.3h-9V622h9v-30.8c0-10.3,7.2-18,16.4-18c8,0,13.3,4.9,13.3,13.2V622h9v-37.5
		C1089,572.5,1080.9,565.1,1069.5,565.1z"/>
	<path d="M1126.1,615.5c-3.4,0-7.2-1.9-7.2-6.8v-33.9h15.8v-8.1H1119v-14.8l-9,4.3v10.5h-10.6v8.1h10.6v33.7
		c0,9.6,5.7,15.1,14.3,15.1c4.3,0,6.6-0.8,10.4-2.8l0.7-8.5h-1C1130.9,615,1128.5,615.5,1126.1,615.5z"/>
	<path d="M1173.3,565.1c-5.7,0-12,3.1-15.8,9.6v-8.1h-9V622h9v-31.6c0-12.7,7.7-17.2,14.4-17.2c3.7,0,6.7,1,9.4,3.6h1l-0.6-9.1
		C1179.5,566,1176.4,565.1,1173.3,565.1z"/>
	<path d="M1242.3,592.2c0-16.6-11.3-27.1-26.8-27.1c-14.9,0-27.6,12.5-27.6,29.2c0,16.4,12.4,29.2,28.9,29.2
		c8.5,0,14.9-2.6,21.2-7.3l0.3-9.7h-0.9c-7.4,6.7-12.9,9-20.7,9c-9.1,0-18.8-6.5-19.8-18.8h45.4V592.2z M1197.4,589.3
		c1.9-11.2,10.2-16.8,18.1-16.8c10.3,0,17.5,6.9,18.6,16.8H1197.4z"/>
</g>
<rect x="2.3" y="434.1" width="1390.2" height="6.7"/>
<path id="English_00000044889900429706587450000017048412025984543409_" d="M1001.6,238h53.2v10.1h-41.2v30.1h39.8v10.1h-39.8V321
	h41.8v10.1h-53.7V238z M1069.7,265.4h10.6v9.8c4.7-6.8,13.3-11.7,22.7-11.7c13.6,0,23.1,8.8,23.1,23v44.6h-10.6v-42.3
	c0-9.8-6.4-15.7-15.8-15.7c-10.9,0-19.4,9.2-19.4,21.4v36.6h-10.6V265.4z M1150.4,357.3l-0.4-10.6h1.7c5.3,3.9,11.2,6.8,20.9,6.8
	c12.8,0,22.7-7.4,22.7-22.6v-10.1c-5.6,7-14.4,10.4-23.4,10.4c-17.7,0-33-12.9-33-33.8c0-20.9,16.1-33.8,33.6-33.8
	c9.8,0,18.2,4.1,22.7,10v-8.1h10.6v59.7c0,27.3-13.8,37.9-34.8,37.9C1162.3,363,1155.5,360.4,1150.4,357.3z M1196.5,297.3
	c0-12.5-8-24.2-23.4-24.2s-23.4,11.7-23.4,24.2c0,12.5,8,24.2,23.4,24.2S1196.5,309.8,1196.5,297.3z M1223.1,235.3h10.6v95.8h-10.6
	V235.3z M1248.6,245.4c0-4.1,3.3-7.4,7.4-7.4c4.1,0,7.4,3.3,7.4,7.4s-3.3,7.4-7.4,7.4C1251.9,252.9,1248.6,249.6,1248.6,245.4z
	 M1250.7,265.4h10.6v65.7h-10.6V265.4z M1275.2,326.3l2.5-10.1h0.8c5.9,4.5,11.6,7.2,18.8,7.2c8.4,0,13.3-4,13.3-9.8
	c0-6.9-5.9-9.4-15.3-12.6c-9.4-3.2-18.4-8.5-18.4-19.7c0-9.6,8.4-17.7,21.7-17.7c7.7,0,13.3,2.3,18,5.1l0.4,10.4h-0.9
	c-5.6-4.3-10.9-6.1-17.7-6.1c-6.4,0-11.8,2.3-11.8,8.1c0,6.3,6.1,9.2,15.6,12.5c11.8,4.1,19.2,9,19.2,19.5c0,11.6-11,20-24.1,20
	C1288.1,333,1281,330.2,1275.2,326.3z M1334.5,235.3h10.6v40.2c4.7-6.8,14.1-12,23.3-12c14.1,0,23.7,8.8,23.7,23v44.6h-10.6v-42.3
	c0-9.8-6.9-15.7-16.4-15.7c-10.9,0-19.9,9.2-19.9,21.4v36.6h-10.6V235.3z"/>
<path id="Cambridge_00000021798885434083089250000016708542971247628984_" d="M1403.7,41.3L1404,69c0,0-3.4,0.8-4.4,1.1
	c-1-12.1-3.7-22-23.1-22h-26.1v51.3h22.4c11,0,14-6.1,15.2-16.7c0.8,0,3.5,0,4.5,0c0,1.4,0,42.9,0,42.9l-4.4,0.1
	c-0.7-10.3-3.1-18.2-15.1-18.2h-22.5v45c0,13.1,11.3,13.1,23.2,13.1c21.4,0,31.4-1.3,37.3-23c0.9,0.2,4.4,1,4.4,1l-6,28.9
	c0,0-95.9,0-97.3,0c0-0.9,0-3.8,0-4.8c0.8,0,1.9,0,1.9,0c7.5,0,14.4-1.4,14.4-11.6V57.7c0-10.2-6.9-11.6-14.4-11.6c0,0-1.1,0-1.9,0
	c0-0.9,0-3.8,0-4.8C1313.4,41.3,1403.7,41.3,1403.7,41.3 M873.3,41.3c0,0-57.3,0-58.7,0c0,1,0,3.8,0,4.8c0.9,0,2.6,0,2.6,0
	c4.8,0,13.8,0,13.8,15.2v95.3c0,8.1-7.4,11-13.8,11c0,0-1.7,0-2.6,0c0,1,0,3.9,0,4.8c1.4,0,55.6,0,57,0c0-0.9,0-3.8,0-4.8
	c-0.9,0-2.6,0-2.6,0c-9.3,0-15.8-1.1-15.8-15.9v-40.8h14.5l39,61.6c0,0,32.2,0,33.6,0c0-1,0-4,0-4.9c-8.9-0.5-13.1-3.5-18.2-11.5
	l-32.2-49l0.8-0.3c11.5-4.6,26-14.1,26-32.7C916.7,52,902.3,41.3,873.3,41.3 M865.8,46.6c16.8,0,27.9,11.2,27.9,28.5
	c0,21.3-9,30.4-29.4,30.4h-11.2l0-58C856.9,46.8,861.9,46.6,865.8,46.6z M1003,41.3c-1.4,0-53.4,0-54.8,0c0,1,0,3.8,0,4.8
	c0.7,0,1.8,0,1.8,0c7.5,0,14.4,1.4,14.4,11.6V156c0,10.2-6.9,11.6-14.4,11.6c0,0-1.1,0-1.8,0c0,1,0,3.8,0,4.8c1.4,0,53.4,0,54.8,0
	c0-1,0-3.8,0-4.8c-0.8,0-1.9,0-1.9,0c-7.5,0-14.4-1.4-14.4-11.6V57.6c0-10.2,6.9-11.6,14.4-11.6c0,0,1.1,0,1.9,0
	C1003,45.1,1003,42.2,1003,41.3 M252.8,106.7c0,44.2,27,69.1,69.3,69.1c20.8,0,39.1-8.2,50.9-23.4l-3.4-6.4
	c-10.5,13.5-24.4,20.8-43.9,20.8c-34.7,0-49.1-30.6-49.1-63c0-36.4,17.7-59,46.3-59c27.8,0,36,16.1,40.9,33.7l4.3-0.6l-1.4-30.4
	c-13.7-6.4-27.6-9.4-44.4-9.4c-18.7,0-35.3,6.4-47.9,17.7C260.8,68.1,252.8,87.2,252.8,106.7 M535.6,66.6c0,0,47,105.6,47.4,106.7
	c0.7,0,3.2,0,4,0c0.4-1,45.3-108.8,45.3-108.8s4,83.8,4,83.8l0.2,9.4c0,8.9-6.4,9.3-15.3,9.8c0,0-0.2,0-0.4,0c0,1,0,3.7,0,4.7
	c1.6,0,52.8,0,54.4,0c0-1,0-3.7,0-4.7c-10-0.4-15.4-1.3-16.1-11.5l-5.1-87c-1.1-18.5,1.5-23.1,16.2-23.1h0.7l0-4.8
	c0,0-35.3,0-36.4,0c-0.4,1-42.1,99.4-42.1,99.4s-44.1-98.3-44.5-99.4c-1.1,0-35.5,0-37.1,0c0,1,0,3.7,0,4.8c0.7,0,1.5,0,1.5,0
	c10.4,0,16.6,6.4,15.9,17.7l-5.1,82.9c-0.7,12.1-1.6,20.4-16.5,21H505v4.8h44.2v-4.8h-1.1c-12-0.5-17.6-2-16.8-20
	C531.2,147.6,535.6,66.6,535.6,66.6 M1085.2,172.3c18.2,0,36.1-4.3,49-17.1c12.7-12.7,20.1-30.4,20.1-48.8
	c0-19.7-6.7-36.2-19.2-47.9c-12.7-11.9-31-17.3-52.8-17.3l-58.6,0.1V46h1.9c7.5,0,14.4,1.4,14.4,11.6V156c0,10.2-6.9,11.6-14.4,11.6
	h-1.9v4.8L1085.2,172.3z M1075.4,46.9c36.9,0,54.8,19.8,54.8,63.2c0,28-15.1,56.5-48.2,56.5c-14.1,0-19.9-2.2-19.9-16.1l0-103
	C1065.2,47.2,1072.2,46.9,1075.4,46.9z M1265.8,165.6c-4.9,2.2-13.2,3.5-21.2,3.3c-34.8,0-50.4-32.9-50.4-66.1
	c0-36.1,18.5-58.6,48.9-58.6c22.6,0,32.6,8.8,38.1,31.4l4.4-0.3l-2.1-31.3c-10.1-3.4-26.1-6.5-41.7-6.5c-34.7,0-71.6,21-71.6,67.2
	c0,43.4,28,71.5,71.3,71.5c17.9,0,34.1-3.1,46.1-6.9l0-35.8c0-7,3.7-10.8,10.8-10.8h1.5V118h-50.4v4.7h1.5c9.7,0,14.8,3.7,14.8,10.8
	L1265.8,165.6 M745,104.5c20.5,0,32.8,11.4,32.8,31.6c0,17.9-12.1,31.1-28,31.1c-13.3,0-17.4-3.7-17.4-16.5v-46.1H745z M744.3,46.1
	c17.3,0,26,8.6,26,27.1c0,16.8-10,25.5-28,25.5h-9.9V46.1H744.3z M759.3,101c16.1-2.6,34.4-10.3,34.4-31.1c0-18.8-15-28.7-42.4-28.7
	l-58.2,0v4.8h2.6c4.8,0,13.8,0,13.8,15.2v95.1c0,8.1-7.4,11.2-13.8,11.2h-2.6v4.7l64.2,0c24.5,0,43.4-16.5,43.4-37.1
	c0-8.6-3-16-8.7-21.9C784.6,105.8,775.8,102.2,759.3,101 M441,41.3L483.7,155c3.2,9,7.8,12.5,14.6,12.5h0.4l0,4.8h-50.8l0-4.8h1.1
	c9.9,0,13.7-4.1,10.8-13.2l-10.3-28.8h-41.3l-9.5,26.4c-4.2,12.4,2.4,15.5,12,15.5h1.7l0,4.9h-39.9l0-4.9h0.4c8.1,0,13.5-5,16.6-13
	c0,0,41.6-113.2,41.6-113.2L441,41.3z M410.5,119.1h36.7L428.9,68L410.5,119.1z"/>
<g id="Shield_00000179626800043042946400000015270001232565481095_">
	<path id="Shield_Border_00000125585305405712117460000007569727674727828411_" d="M2.3-0.2V124c0,61.1,32.1,78.5,47.5,86.9
		c2.8,1.5,50.4,25.2,53.4,26.7l2,1.1l2-1.1c2.8-1.4,50.6-25.1,53.4-26.7c15.4-8.4,47.5-25.8,47.5-86.9V-0.2H2.3z"/>
	<path id="White_cross_00000020399100473482312370000016296711592968779910_" class="st0" d="M105.3,233.6c0,0,9.8-4.9,20.9-10.4
		v-97.9h77.5c0-0.4,0-0.9,0-1.3V83.4h-77.6V4.3H84.3v79.1H6.8V124l0,0c0,0.4,0,0.9,0,1.3h77.5v97.9
		C95.5,228.8,105.3,233.6,105.3,233.6z"/>
	<g id="Red_quadrants_00000062173256359325936010000001007363024778645939_">
		<rect x="6.8" y="4.3" class="st1" width="77.6" height="79.1"/>
		<rect x="126.2" y="4.3" class="st1" width="77.6" height="79.1"/>
		<path class="st1" d="M84.3,125.3H6.8c0.4,56.7,29.5,73.2,45.1,81.7c1.6,0.9,18.1,9.1,32.4,16.2V125.3z"/>
		<path class="st1" d="M126.2,125.3v97.9c14.3-7.1,30.8-15.4,32.4-16.2c15.6-8.5,44.7-24.9,45.1-81.7H126.2z"/>
	</g>
	<g id="Ermine_tales_00000021842424898688086400000010422390736653812358_">
		<g>
			<path d="M154.1,105.2l1.6-1.9l-2-2.4l-2,2.4l1.6,1.9c0,1,0.1,9.4-4.9,12.4c0,0,1.6,0.3,3.9-0.1c0,0,0.4,2.2,1.4,4.7
				c1-2.5,1.4-4.7,1.4-4.7c2.2,0.4,3.9,0.1,3.9,0.1C154,114.5,154.1,106.1,154.1,105.2z"/>
			<path d="M166.7,90.9l1.6-1.9l-2-2.4l-2,2.4l1.6,1.9c0,1,0.1,9.4-4.9,12.4c0,0,1.6,0.3,3.9-0.1c0,0,0.4,2.2,1.4,4.7
				c1-2.5,1.4-4.7,1.4-4.7c2.2,0.4,3.9,0.1,3.9,0.1C166.6,100.3,166.7,91.9,166.7,90.9z"/>
			<path d="M179.3,105.2l1.6-1.9l-2-2.4l-2,2.4l1.6,1.9c0,1,0.1,9.4-4.9,12.4c0,0,1.7,0.3,3.9-0.1c0,0,0.4,2.2,1.4,4.7
				c1-2.5,1.4-4.7,1.4-4.7c2.2,0.4,3.9,0.1,3.9,0.1C179.3,114.5,179.3,106.1,179.3,105.2z"/>
			<path d="M192,90.9l1.6-1.9l-2-2.4l-2,2.4l1.6,1.9c0,1,0.1,9.4-4.9,12.4c0,0,1.7,0.3,3.9-0.1c0,0,0.4,2.2,1.4,4.7
				c1-2.5,1.4-4.7,1.4-4.7c2.2,0.4,3.9,0.1,3.9,0.1C191.9,100.3,192,91.9,192,90.9z"/>
			<path d="M141.5,90.9l1.6-1.9l-2-2.4l-2,2.4l1.6,1.9c0,1,0.1,9.4-4.9,12.4c0,0,1.7,0.3,3.9-0.1c0,0,0.4,2.2,1.4,4.7
				c1-2.5,1.4-4.7,1.4-4.7c2.2,0.4,3.9,0.1,3.9,0.1C141.4,100.3,141.4,91.9,141.5,90.9z"/>
		</g>
		<g>
			<path d="M32,105.2l1.6-1.9l-2-2.4l-2,2.4l1.6,1.9c0,1,0.1,9.4-4.9,12.4c0,0,1.7,0.3,3.9-0.1c0,0,0.4,2.2,1.4,4.7
				c1-2.5,1.4-4.7,1.4-4.7c2.2,0.4,3.9,0.1,3.9,0.1C31.9,114.5,32,106.1,32,105.2z"/>
			<path d="M44.7,90.9l1.6-1.9l-2-2.4l-2,2.4l1.6,1.9c0,1,0.1,9.4-4.9,12.4c0,0,1.7,0.3,3.9-0.1c0,0,0.4,2.2,1.4,4.7
				c1-2.5,1.4-4.7,1.4-4.7c2.2,0.4,3.9,0.1,3.9,0.1C44.6,100.3,44.6,91.9,44.7,90.9z"/>
			<path d="M57.3,105.2l1.6-1.9l-2-2.4l-2,2.4l1.6,1.9c0,1,0.1,9.4-4.9,12.4c0,0,1.6,0.3,3.9-0.1c0,0,0.4,2.2,1.4,4.7
				c1-2.5,1.4-4.7,1.4-4.7c2.2,0.4,3.9,0.1,3.9,0.1C57.2,114.5,57.3,106.1,57.3,105.2z"/>
			<path d="M69.9,90.9l1.6-1.9l-2-2.4l-2,2.4l1.6,1.9c0,1,0.1,9.4-4.9,12.4c0,0,1.6,0.3,3.9-0.1c0,0,0.4,2.2,1.4,4.7
				c1-2.5,1.4-4.7,1.4-4.7c2.2,0.4,3.9,0.1,3.9,0.1C69.8,100.3,69.9,91.9,69.9,90.9z"/>
			<path d="M19.4,90.9L21,89l-2-2.4L17,89l1.6,1.9c0,1,0.1,9.4-4.9,12.4c0,0,1.6,0.3,3.9-0.1c0,0,0.4,2.2,1.4,4.7
				c1-2.5,1.4-4.7,1.4-4.7c2.2,0.4,3.9,0.1,3.9,0.1C19.3,100.3,19.4,91.9,19.4,90.9z"/>
		</g>
		<g>
			<path d="M105.7,137.1l1.6-1.9l-2-2.4l-2,2.4l1.6,1.9c0,1,0.1,9.4-4.9,12.4c0,0,1.7,0.3,3.9-0.1c0,0,0.4,2.2,1.4,4.7
				c1-2.5,1.4-4.7,1.4-4.7c2.2,0.4,3.9,0.1,3.9,0.1C105.6,146.5,105.7,138.1,105.7,137.1z"/>
			<path d="M105.7,180l1.6-1.9l-2-2.4l-2,2.4l1.6,1.9c0,1,0.1,9.4-4.9,12.4c0,0,1.7,0.3,3.9-0.1c0,0,0.4,2.2,1.4,4.7
				c1-2.5,1.4-4.7,1.4-4.7c2.2,0.4,3.9,0.1,3.9,0.1C105.6,189.4,105.7,181,105.7,180z"/>
			<g>
				<path d="M117.5,158.6l1.6-1.9l-2-2.4l-2,2.4l1.6,1.9c0,1,0.1,9.4-4.9,12.4c0,0,1.7,0.3,3.9-0.1c0,0,0.4,2.2,1.4,4.7
					c1-2.5,1.4-4.7,1.4-4.7c2.2,0.4,3.9,0.1,3.9,0.1C117.4,167.9,117.4,159.5,117.5,158.6z"/>
				<path d="M93.9,158.6l1.6-1.9l-2-2.4l-2,2.4l1.6,1.9c0,1,0.1,9.4-4.9,12.4c0,0,1.7,0.3,3.9-0.1c0,0,0.4,2.2,1.4,4.7
					c1-2.5,1.4-4.7,1.4-4.7c2.2,0.4,3.9,0.1,3.9,0.1C93.8,167.9,93.9,159.5,93.9,158.6z"/>
			</g>
			<g>
				<path d="M117.5,201.5l1.6-1.9l-2-2.4l-2,2.4l1.6,1.9c0,1,0.1,9.4-4.9,12.4c0,0,1.7,0.3,3.9-0.1c0,0,0.4,2.2,1.4,4.7
					c1-2.5,1.4-4.7,1.4-4.7c2.2,0.4,3.9,0.1,3.9,0.1C117.4,210.8,117.4,202.4,117.5,201.5z"/>
				<path d="M93.9,201.5l1.6-1.9l-2-2.4l-2,2.4l1.6,1.9c0,1,0.1,9.4-4.9,12.4c0,0,1.7,0.3,3.9-0.1c0,0,0.4,2.2,1.4,4.7
					c1-2.5,1.4-4.7,1.4-4.7c2.2,0.4,3.9,0.1,3.9,0.1C93.8,210.8,93.9,202.4,93.9,201.5z"/>
			</g>
		</g>
		<g>
			<path d="M105.7,37.5l1.6-1.9l-2-2.4l-2,2.4l1.6,1.9c0,1,0.1,9.4-4.9,12.4c0,0,1.7,0.3,3.9-0.1c0,0,0.4,2.2,1.4,4.7
				c1-2.5,1.4-4.7,1.4-4.7c2.2,0.4,3.9,0.1,3.9,0.1C105.6,46.9,105.7,38.5,105.7,37.5z"/>
			<g>
				<path d="M117.5,16.1l1.6-1.9l-2-2.4l-2,2.4l1.6,1.9c0,1,0.1,9.4-4.9,12.4c0,0,1.7,0.3,3.9-0.1c0,0,0.4,2.2,1.4,4.7
					c1-2.5,1.4-4.7,1.4-4.7c2.2,0.4,3.9,0.1,3.9,0.1C117.4,25.4,117.4,17.1,117.5,16.1z"/>
				<path d="M93.9,16.1l1.6-1.9l-2-2.4l-2,2.4l1.6,1.9c0,1,0.1,9.4-4.9,12.4c0,0,1.7,0.3,3.9-0.1c0,0,0.4,2.2,1.4,4.7
					c1-2.5,1.4-4.7,1.4-4.7c2.2,0.4,3.9,0.1,3.9,0.1C93.8,25.4,93.9,17.1,93.9,16.1z"/>
			</g>
			<g>
				<path d="M117.5,59l1.6-1.9l-2-2.4l-2,2.4l1.6,1.9c0,1,0.1,9.4-4.9,12.4c0,0,1.7,0.3,3.9-0.1c0,0,0.4,2.2,1.4,4.7
					c1-2.5,1.4-4.7,1.4-4.7c2.2,0.4,3.9,0.1,3.9,0.1C117.4,68.3,117.4,59.9,117.5,59z"/>
				<path d="M93.9,59l1.6-1.9l-2-2.4l-2,2.4l1.6,1.9c0,1,0.1,9.4-4.9,12.4c0,0,1.7,0.3,3.9-0.1c0,0,0.4,2.2,1.4,4.7
					c1-2.5,1.4-4.7,1.4-4.7c2.2,0.4,3.9,0.1,3.9,0.1C93.8,68.3,93.9,59.9,93.9,59z"/>
			</g>
		</g>
	</g>
	<g id="Lions_guardant_00000165923267811122066840000004497469093698327206_">
		<g id="Lion_bottom_right_00000098205679187402300690000005513702246440642704_">
			<path d="M183.2,166.5c1.1,1.5,2.8,2.5,4.1,2.5c0.4,0,1.1-0.1,1.8-0.3c0.4-0.1,0.6-0.1,0.9-0.1c0.3,0,0.5,0.1,0.5,0.4
				c0,0.2-0.2,0.8-0.3,1.2c-0.2,0.5-0.3,0.9-0.4,1.2l-0.3,1.4l-0.7,1.2l-0.9,0.9l-0.3,0.3v0.6v0.3c0,1.6-0.5,2.5-1.8,3.4
				c-0.1,0.1-0.3,0.2-0.5,0.3l-0.1,0.5c-0.3,1.2-0.5,2-0.7,2.3c-0.2,0.4-0.6,1-1.2,1.8c-0.8,1-1.3,1.9-1.6,2.7
				c-0.3,0.7-0.5,0.8-0.9,0.8c-0.6,0-1.3-0.8-1.4-1.8c-0.1,0.2-0.3,0.3-0.3,0.4l-0.8,0.5l-1.3,0.9c-0.5,0.4-0.9,0.6-1,0.8l-0.7,0.7
				c-0.1,0.1-0.3,0.2-0.4,0.2c-0.3,0-0.7-0.6-1-1.6l-0.7-2.2c-0.2-0.6-0.3-1.3-0.3-2.1c0-1.1,0.1-1.5,0.5-2.3
				c-1.3,0.1-1.7,0.2-2.4,0.5c-0.2,0.1-0.5,0.1-0.6,0.1c-0.2,0-0.4-0.2-0.4-0.4c0-0.1,0.1-0.6,0.3-1l0.9-2.2
				c0.7-1.7,2.8-3.3,4.5-3.3c0.4,0,1,0.1,1.7,0.4c0.4,0.1,0.8,0.2,1,0.2c0.8,0,1.4-0.6,1.4-1.3c0-0.4-0.2-0.7-0.5-0.9
				c-0.1-0.1-0.9-0.3-2.4-0.7c-1.1-0.3-1.7-0.7-2.9-2.2c-0.9-1-1.3-1.3-1.6-1.3c-0.3,0-0.4,0.2-0.4,0.5l0.1,0.9l0,0.4
				c0,1.8-0.5,3.6-1.9,6l-1.8,3.3c-0.9,1.6-1.2,2.8-1.2,4c0,1.3,0.6,2.5,1.3,2.7l1,0.3c0.1,0,0.2,0.1,0.3,0.2
				c0.1,0.1,0.2,0.3,0.2,0.4c0,0.1-0.1,0.4-0.3,0.6c-0.1,0.1-0.5,0.6-1.2,1.5c-1.1,1.5-1.8,2-3.2,2.4c-0.8,1.9-2.1,3.1-4.4,3.8
				l-0.3,0.5c-0.8,1.4-2.5,2.6-3.6,2.6h-0.3c-0.1,1.2-1,2.5-2.3,3.4c-0.9,0.6-1.4,1-1.5,1.1c-0.1,0.1-0.2,0.3-0.3,0.6
				c-0.3,0.7-0.6,0.9-0.9,0.9c-0.7,0-1.3-0.7-1.7-1.9c-0.3,0.2-0.5,0.3-0.6,0.4c-0.7,0.5-1.2,0.8-1.3,0.9c-0.3,0.1-1.1,0.4-2.3,0.7
				c-1.6,0.4-3,1.1-3.4,1.6l-0.6,1l-0.3,0.1c-0.3,0-0.7-0.5-0.8-1c-0.4-1.4-0.6-2.8-0.6-3.7c0-2.3,0.8-3.9,3.2-6.2l0-0.6
				c0-3.6,2.8-6.1,6.8-6.1l0.7,0l2.2,0.1l0.2,0c1.2,0,2.3-0.5,3.5-1.5c1.6-1.3,2.1-2.1,2.1-3.6c0-0.5-0.1-1-0.6-2.6
				c-0.3-1.1-0.5-2.1-0.5-3.1c0-2.7,2-6.1,4.7-8c0.7-0.5,1.2-1.1,1.2-1.5c0-0.2-0.1-0.3-0.2-0.3c-0.2,0-0.5,0.2-0.8,0.5
				c-0.3,0.3-0.8,0.6-1.6,1l-1,0.5l-1.2,0.5c-0.4,0.1-0.5,0.3-0.5,0.6c0,0.1,0.1,0.4,0.2,0.6c0.1,0.2,0.1,0.4,0.1,0.5
				c0,0.1-0.1,0.4-0.3,0.8l-0.9,1.5c-0.9,1.5-1.6,2.1-2.7,2.6c-0.7,2.2-1.8,3.3-3.3,3.5c-1.2,2.5-2.3,3.4-4.5,3.6
				c-0.3,1-0.8,1.8-2,3c-0.5,0.5-0.8,0.9-0.9,1.1c-0.5,0.9-0.6,1-0.8,1c-0.3,0-1-0.5-1.5-1c-0.2-0.3-0.4-0.5-0.6-0.8l-0.6-1
				c-0.2-0.3-0.4-0.5-0.6-0.5l-0.4,0l-1.4,0.2c-0.9,0.1-2.2,0.9-2.6,1.5l-0.8,1.2c-0.1,0.1-0.2,0.2-0.3,0.2c-0.6,0-0.9-1.3-0.9-3.4
				c0-1.9,0.3-3.1,0.9-4l1.8-2.6c0.3-0.4,0.4-0.7,0.4-1c0-0.3-0.1-0.6-0.3-0.8c-0.4-0.5-0.8-0.7-1.1-0.8l-1.4-0.2
				c-0.2,0-0.3-0.1-0.3-0.2c0-0.1,0.1-0.3,0.2-0.5c0.5-0.6,1-1.1,1.6-1.5c1.6-1,2.7-1.4,3.8-1.4c1.1,0,2.3,0.4,3.4,1.1l1.9,1.2
				c0.3,0.2,0.6,0.3,0.9,0.3c0.9,0,1.5-0.5,2.2-1.7c0.6-1.1,0.9-2.1,0.9-3c0-2.5-1.8-4.3-4.2-4.3c-1.1,0-2.3,0.4-3.4,1.3
				c-0.3,0.3-0.6,0.5-0.7,0.7l-0.5,1.2c-0.1,0.3-0.3,0.5-0.5,0.5c-0.3,0-1.1-0.9-1.7-2.2c-0.3-0.6-0.6-1.4-0.9-2.4
				c-0.4-1.3-0.6-2.2-0.6-3.3l0.1-1.8c-0.9-1.4-1.2-2.4-1.2-4.1c0-0.6,0.1-1.1,0.5-2.3c-0.6-0.9-0.7-1.6-0.7-2.9l0.1-0.8l0.2-0.9
				l0.1-0.8c-0.6-0.8-0.8-1.4-1.4-4.3c-0.3-1.6-0.6-2.3-0.8-2.8c-0.1-0.2-0.2-0.3-0.2-0.4c0-0.4,0.9-0.7,2-0.7l0.9,0.1
				c-0.2-0.6-0.3-0.8-0.3-1.3c0-0.8,0.2-1.7,0.5-2.6c0.3-1,0.4-1.3,0.4-1.6c0-0.8-0.1-1.6-0.3-2l-0.5-1.3c-0.1-0.3-0.2-0.5-0.2-0.7
				c0-0.1,0.1-0.2,0.3-0.2c1.3,0,3.8,1.4,5.7,3.2c1.9,1.8,2.5,3.3,2.5,6l-0.1,1.4c1.8,1.6,2.6,2.9,2.6,4.3c0,1-0.3,1.7-1.3,2.7
				c-1.8,1.8-2.2,2.7-2.2,5c0,3.5,1,5.4,3,5.4c1.7,0,3-1.8,3.2-4.5l0.2-2.5c0.1-0.6,0.2-1.4,0.3-2.4c0.1-0.6,0.2-1.4,0.2-1.7
				c0-0.9-0.6-2-2.3-4c-1.8-2.2-2.5-3.3-2.5-5c0-2,1.4-3.5,3.3-3.5c0.5,0,0.7,0.1,1.3,0.4c0-1.1,0.1-1.4,0.7-3
				c0.5-1.3,1.1-2.2,1.3-2.2c0.1,0,0.2,0.1,0.4,0.3c0.3,0.3,0.6,0.5,0.9,0.7c0.4,0.3,0.6,0.4,0.7,0.5c0.1,0.1,0.3,0.3,0.6,0.6
				c0.4-1.5,0.8-2.2,2-3.4c0.9-0.9,1.3-1.2,1.4-1.2c0.1,0,0.3,0.1,0.5,0.3l0.8,1l1.1,1.3c0.4,0.5,0.6,0.9,0.8,2l0.7-0.4l1-0.6
				c0.2-0.1,0.5-0.3,0.8-0.5c0.2-0.1,0.3-0.2,0.4-0.2c0.1,0,0.2,0.2,0.3,0.5l0.4,1.5l0.9,1.7c0.3,0.5,0.3,0.9,0.3,1.7l0,0.4l0.4,0
				c1.3,0,2.4,1.5,2.4,3.3c0,2.3-1.9,5.4-4.3,7c-0.2,0.8-0.3,1.1-0.3,1.7c0,5.2,1.4,6.3,9.4,7.5c2,0.3,3.8,0.7,5.4,1.1
				c0.3,0.1,2,0.6,5.2,1.7c1.8,0.6,3,0.9,3.9,0.9c1,0,1.5-0.3,1.5-0.8c0-0.9-1.3-1.7-5.3-3.3l-5.7-2.2c-5.8-2.3-8.6-5.8-8.6-11
				c0-6.1,4.6-10.7,10.7-10.7c2.3,0,4.5,0.5,7.8,1.7c4.2,1.5,4.4,1.6,4.8,1.6c0.8,0,1.2-0.5,1.4-1.7c0.1-1,0.4-1.4,0.9-1.4
				c0.8,0,1.7,0.7,2.3,2c0.5,1.1,0.9,2.3,0.9,3.4c0,2.2-1.1,3.6-3.2,4c-1.4,1.8-3.2,2.7-5.3,2.7c-2.6,0-3.9-0.5-8.4-3.3
				c-1.6-1-2.3-1.2-3.5-1.2c-1.6,0-2.7,1-2.7,2.3c0,1.2,1,2,3.2,2.6c1.3,0.3,1.5,0.4,2.2,1.1c0.5-0.1,0.8-0.2,1.1-0.2
				c2.1,0,4.8,1.2,7,3.1c4.1,1.3,7.7,5.6,7.7,9.3c0,4.1-3.5,7.7-7.4,7.7C187.2,167.3,185.1,167,183.2,166.5"/>
			<path class="st2" d="M180.8,184.7l0.3-0.7l0.3-0.9c0.1-0.2,0.3-0.5,0.7-1.1c0.7-0.9,1-2,1-3.3c0-0.4-0.1-0.8-0.3-1.3
				c-0.1-0.3-0.2-0.5-0.2-0.6c0-0.1,0-0.2,0.1-0.3c0.1-0.1,0.2-0.2,0.3-0.2l0,0c0.2,0,0.5,0.2,0.7,0.5c0.3,0.3,0.5,0.5,0.7,0.5
				c0.3,0,0.6-0.5,0.8-1.2c0.1-0.4,0.1-0.6,0.1-0.7c0-0.3-0.3-1.1-0.6-1.8c-0.1-0.3-0.2-0.5-0.2-0.7c0-0.2,0.2-0.4,0.4-0.4
				c0.2,0,0.5,0.2,0.9,0.6c0.2,0.2,0.4,0.3,0.5,0.3c0.4,0,0.7-0.4,1-1.4c0.2-0.6,0.3-0.9,0.3-1c0-0.2-0.1-0.3-0.2-0.3l-0.2,0
				l-0.8,0.1c-1.2,0-2.9-0.8-3.7-1.8l-1.8-2.2c-0.7-0.9-1.7-2.2-1.6-2.2l-1.5-1c-0.2-0.2-0.4-0.4-0.4-0.5c0-0.2,0.2-0.4,0.6-0.4
				c0.3,0,1.4,0.4,3.4,1.2c1.9,0.8,4.9,1.5,6.7,1.5c3.1,0,5.7-2.5,5.7-5.6c0-1.7-0.8-3.2-2.6-5.4c-0.3-0.4-0.9-0.8-1.2-0.8
				c-0.2,0-0.4,0.2-0.4,0.4c0,0.2,0.1,0.4,0.2,0.7c0.1,0.2,0.1,0.4,0.1,0.6c0,0.3-0.1,0.5-0.3,0.5c-0.4,0-0.8-0.7-1.2-1.9
				c-0.4-1.5-1.3-2.3-3.3-3.4c-0.8-0.4-1.8-0.7-2.1-0.7c-0.1,0-0.2,0.1-0.2,0.3c0,0.2,0.1,0.5,0.3,0.8c0.3,0.4,0.5,0.9,0.5,1.3
				l0,0.1c0,0.3-0.1,0.4-0.4,0.4c-0.4,0-0.5-0.1-1.5-1.6c-0.5-0.8-1.8-1.8-3-2.2c-0.4-0.2-0.7-0.2-1.1-0.3l0,0
				c-0.2,0-0.4,0.1-0.4,0.3c0,0.1,0.1,0.3,0.3,0.6l0.1,0.4c0,0.2-0.1,0.4-0.3,0.4c-0.4,0-1.6-1-2.6-2.1c-1-1.2-1.7-2.7-1.7-3.9
				c0-2.5,2.4-4.7,5.1-4.7c0.7,0,1.3,0.1,1.7,0.3l2.3,1.2l2.7,1.8c1.6,1,3.7,1.8,5,1.8c0.5,0,0.8-0.1,2.1-0.4c0.6-0.2,1-0.4,1-0.7
				l0-0.1l-0.2-0.1l-1.4-0.1c-0.8-0.1-2.6-0.9-4.1-1.9l-3-2l-2.7-1.1c-0.2-0.1-0.3-0.2-0.3-0.3c0-0.1,0.1-0.3,0.3-0.3
				c0,0,0.3,0.1,0.7,0.1l2.5,0.7c0.6,0.2,1.6,0.6,3,1.4c2.7,1.5,4.5,2.1,5.8,2.1c1.5,0,2.6-1,2.6-2.5c0-0.5-0.1-1.3-0.3-1.9
				c-0.1-0.3-0.2-0.6-0.4-0.9c-0.1-0.2-0.2-0.3-0.3-0.3c-0.2,0-0.3,0.2-0.3,0.5l0,0.5l0,0.4c0,1.2-0.5,1.6-1.8,1.6
				c-1.1,0-2.6-0.4-5.9-1.8c-3.1-1.2-5.1-1.7-7-1.7c-5,0-9.3,4-9.3,8.6c0,4,2.6,7,8,9.2l5.6,2.3c4.6,1.9,6.3,3.3,6.3,5.1
				c0,1.5-1.4,2.5-3.6,2.5c-0.9,0-2.1-0.3-4.3-0.9c-5.2-1.7-8.6-2.4-11.6-2.4c-4.9,0-8.4,1.3-11.1,4.3c-0.4,0.4-0.6,0.5-0.9,0.5
				c-0.2,0-0.4-0.1-0.9-0.4c-0.5-0.3-1-0.5-1.4-0.5c-0.5,0-1.2,0.4-1.6,0.9l-0.7,0.9c-0.2,0.3-0.4,0.4-0.6,0.4
				c-0.5,0-1.3-0.8-1.8-1.8c-0.3-0.6-0.5-1.2-0.7-1.7c-0.1-0.4-0.1-1.1-0.1-1.8l0.1-1.2l0.2-1.3c0.1-0.6,0.2-1,0.2-1.1
				c0-0.2,0.2-0.3,0.3-0.3c0.3,0,0.5,0.3,0.5,1l0,0.4l0,0.3c0,1.9,0.7,3.6,1.6,3.6c0.6,0,1.2-1.1,1.7-3.4c0.1-0.5,0.3-0.7,0.5-0.7
				c0.3,0,0.4,0.3,0.6,1.3c0.1,0.6,0.5,1.5,1,2.1c0.3,0.3,0.5,0.5,0.8,0.5c0.5,0,0.9-0.8,1.2-2.7c0.1-0.7,0.3-1.2,0.6-1.2
				c0.1,0,0.2,0.1,0.3,0.1c0,0.1,0.2,0.3,0.5,0.7c0.2,0.3,0.4,0.5,0.7,0.7c0.3,0.2,0.6,0.3,0.8,0.3c0.2,0,0.4-0.1,0.6-0.3
				c0.3-0.3,0.5-0.5,0.5-0.5c0-0.1-0.1-0.3-0.4-0.6c-0.4-0.5-0.8-1.1-1.2-2.2c-0.3-0.7-0.5-1.2-0.6-1.5c-0.1-0.2-0.2-0.4-0.3-0.5
				l-0.2-0.1l-0.4,0.1c-0.1,0-0.5,0.2-1.4,0.4l-0.4,0.1c-0.2,0-0.3-0.1-0.3-0.3c0-0.2,0.2-0.5,0.5-0.7c1.7-1.3,2.7-3.5,3-6.8
				c0.2-2,0.5-2.7,1.3-3.9c0.2-0.2,0.3-0.4,0.4-0.4c0.3,0,0.4,0.2,0.4,0.6c0,0.3-0.1,0.6-0.2,0.9c-0.1,0.3-0.1,0.5-0.1,0.8l0,0.3
				l0.1,0.4l0.7-0.3l0.8-0.9c0.5-0.5,0.9-1.8,0.9-2.7c0-0.6-0.2-1.1-0.5-1.5c-0.4-0.5-0.7-0.7-1-0.7l-0.4,0l-0.5,0
				c-0.4,0-0.6-0.1-0.6-0.4l0.1-0.5l0.1-0.7l-0.4-1.6l-0.3-0.8l-0.2-0.7l-0.5,0.3l-1,0.6c-0.3,0.2-0.5,0.4-0.8,0.7
				c-0.9,1.1-1,1.2-1.4,1.2c-0.2,0-0.4-0.1-0.4-0.3l0-0.3c0.1-0.6,0.2-1.1,0.2-1.4c0-1.1-0.8-2.9-1.8-3.8c-1.4,1.3-2.1,2.8-2.1,4.1
				v0.8c0,0.3-0.1,0.5-0.3,0.5h0c-0.2,0-0.3-0.2-0.5-0.3l-0.8-1c-0.1-0.1-0.4-0.4-1.1-0.9c-0.1-0.1-0.3-0.2-0.5-0.5l-0.3,0.5
				c-0.6,1.3-0.9,2.1-0.9,3.2c0,0.9-0.1,1.1-0.3,1.1c-0.1,0-0.2,0-0.4-0.1c-1-0.6-1.1-0.6-1.5-0.6c-1.2,0-2,0.8-2,2.1
				c0,0.5,0.3,1.2,0.8,2.2c0.6,1.1,1.5,2.1,1.9,2.1c0.1,0,0.1-0.1,0.1-0.4l0-0.1l-0.1-1.1l-0.1-0.9l0-0.1c0-0.3,0.1-0.4,0.3-0.4
				c0.6,0,1.1,1.7,1.6,5.2c0.4,3.1,1.2,5.2,2.6,6.4c0.3,0.3,0.5,0.6,0.5,0.7c0,0.1-0.1,0.2-0.3,0.2c-0.2,0-0.5-0.1-0.9-0.3
				c-0.2-0.1-0.5-0.2-0.7-0.2c-0.7,0-1.4,0.8-1.5,1.6l-0.6,3.7l-0.5,5.3c-0.1,1,0,2.3,0.4,3.9c0.3,1.4,0.5,2.5,0.5,3.1
				c0,3.9-2.5,7.1-6.5,8.3l-4.2,1.2c-2.6,0.8-3.9,2.5-4.3,5.7c0.7-0.5,0.9-0.6,1.9-0.8l1.2-0.2c0.5-0.1,0.9-0.2,1.1-0.3
				c0.1-0.1,0.4-0.3,0.7-0.7l1.1-1.2c0.4-0.5,0.8-0.7,1-0.7c0.2,0,0.3,0.2,0.3,0.4c0,0.2-0.2,0.6-0.5,1.1c-0.3,0.5-0.5,1.1-0.5,1.7
				c0,0.8,0.2,1.4,1.1,2.6c0.1-0.4,0.2-0.7,0.3-0.8c0.1-0.2,0.4-0.7,1-1.4c0.9-1.2,1.6-2.4,1.6-3c0-1,0.1-1.3,0.4-1.3
				c0.2,0,0.3,0.1,0.4,0.6c0,0.1,0.1,0.3,0.2,0.4c0.2,0.2,0.3,0.3,0.4,0.3c0.1,0,0.3-0.1,0.5-0.3c0.5-0.3,0.8-0.6,1-0.9
				c0.3-0.3,0.5-0.7,0.7-1.2c0.2-0.6,0.3-1,0.3-1.2l0-0.8c0-0.2,0.1-0.4,0.2-0.4c0.2,0,0.5,0.3,0.7,0.7c0.1,0.3,0.2,0.3,0.4,0.3h0
				c0.2,0,0.4-0.1,0.6-0.3c0.8-0.8,1.3-1.7,1.3-2.5l-0.1-1.2l-0.3-1l0-0.1c0-0.2,0.1-0.4,0.3-0.4c0.3,0,0.6,0.4,1.1,1.4
				c0.2,0.5,0.4,0.7,0.6,0.7c0.3,0,0.6-0.2,1.2-1.1l0.6-0.9c0.1-0.2,0.2-0.4,0.2-0.7c0-0.2-0.1-0.5-0.2-0.6l-0.5-0.8
				c-0.1-0.1-0.1-0.4-0.1-0.7c0-0.9,0.3-1.9,1-3.1c0.5-0.9,0.8-1.4,0.9-1.6c0.1-0.3,0.2-0.4,0.4-0.4c0.1,0,0.2,0.2,0.2,0.3l-0.1,0.7
				v0.5v0.5c0.1,0.2,0.2,0.3,0.6,0.3c0.2,0,0.4-0.1,0.7-0.1l1.6-0.6c0.4-0.1,0.9-0.4,1.5-0.7c2.6-1.4,3.4-1.7,4.6-1.7
				c0.8,0,1.7,0.3,3.1,0.9c0.3,0.1,0.5,0.2,0.7,0.2c0.2,0,0.4-0.1,0.6-0.3c0.1-0.2,0.2-0.3,0.2-0.5c0-0.2-0.1-0.5-0.3-0.8
				c-0.2-0.4-0.4-0.8-0.4-1c0-0.2,0.1-0.3,0.3-0.3c0.2,0,0.4,0.2,0.5,0.3c0.2,0.3,0.7,1.2,1.5,2.6c1.2,2.2,2.8,3.7,4.2,4l2.9,0.7
				c0.9,0.2,1.1,0.5,1.1,1.7c0,2-1,3.8-2.6,4.9l-2.4,1.5c-0.9,0.5-1.6,2.1-1.6,3.3c0,0.8,0.2,2.2,0.5,3.4l0.5-0.5l1.1-0.7l1-1
				l0.5-1.4l0.5-1.3c0.3-0.6,0.6-1.1,0.8-1.1c0.2,0,0.4,0.4,0.4,1l0,0.2l0,0.2C180,182.9,180.1,183.3,180.8,184.7"/>
			<path class="st2" d="M141.9,203.4c0-3.1,1.1-4.5,5.7-6.8c8.9-4.5,13.8-8.7,13.8-11.8c0-0.6-0.2-1.6-0.8-3.5
				c-0.4-1.2-0.6-2.2-0.6-2.9c0-1.5,1.2-3.7,2.7-5l1.2-1.1c0.7-0.6,1.2-1.5,1.2-2.1l0-0.3l0-0.4c0-0.6,0.3-0.9,0.9-0.9l0.6-0.1
				c0.3-0.1,0.5-0.1,0.5-0.1c0.2,0,0.4,0.1,0.6,0.3l0.3,0.5l0.5,0.5c0.1,0.2,0.3,0.3,0.4,0.3c0.1,0,0.3-0.1,0.5-0.2
				c0.3-0.2,0.6-0.3,0.8-0.3c0.3,0,0.5,0.2,0.5,0.6c0,1.3-0.9,3.2-2.4,5.3c-2.5,3.4-3.3,5.3-3.3,7.4c0,1.7,0.5,3.2,1.4,4.5
				c0.2,0.2,0.3,0.4,0.3,0.5c0,0.2-0.2,0.5-0.5,0.8c-0.1,0.1-0.2,0.3-0.4,0.5c-0.5,0.8-0.9,1.1-1.2,1.1c-0.3,0-0.5-0.2-0.6-0.5
				l-0.3-0.7c-0.1-0.2-0.2-0.3-0.4-0.3c-0.1,0-0.2,0.1-0.3,0.3c-0.2,0.2-0.3,0.5-0.3,0.7v1.1c0,0.4-0.2,0.9-0.5,1.3
				c-0.3,0.4-0.6,0.7-0.9,1c-0.2,0.2-0.4,0.3-0.5,0.3c-0.2,0-0.4-0.2-0.5-0.5l-0.4-1.3c-0.1-0.2-0.2-0.3-0.3-0.3
				c-0.2,0-0.4,0.4-0.5,0.9c-0.1,1.5-0.4,2.4-0.8,2.8l-0.9,0.8c-0.3,0.3-0.6,0.5-0.8,0.5c-0.2,0-0.4-0.1-0.4-0.2l-0.5-1
				c-0.1-0.1-0.2-0.2-0.3-0.2c-0.3,0-0.5,0.5-0.6,1.5c-0.2,2.4-0.7,3.4-2,4.3c-1,0.7-1.2,1-1.6,1.8c-0.6-0.8-0.8-1.6-0.8-2.6
				c0-0.5,0.1-0.9,0.3-1.2c0.3-0.5,0.4-0.9,0.4-1.1c0-0.2-0.1-0.3-0.2-0.3c-0.1,0-0.2,0.1-0.3,0.3c-0.2,0.2-0.5,0.4-0.9,0.7
				c-1.2,0.7-1.4,0.9-1.6,2.2c-0.4,1.8-1.2,2.6-3,3c-2.2,0.5-2.4,0.5-3.2,1.3L141.9,203.4z"/>
			<path class="st2" d="M137.6,135.6v0.7l0,1c0,0.3,0,0.6-0.1,1.1c-0.2,0.9-0.3,1.2-0.3,1.5c0,1.3,0.2,1.9,0.9,3.2
				c0.4,0.7,0.7,1.6,0.7,2.2c0,0.3-0.1,0.4-0.3,0.4c-0.1,0-0.2-0.1-0.3-0.2l-0.5-0.7c-0.4-0.6-0.8-0.7-1.9-0.7l-1.1,0.1
				c0.5,1.1,0.6,1.5,0.8,2.3c0.5,2.1,0.6,2.3,1.8,3.4c1.2,1.1,1.3,1.2,1.3,1.6c0,0.3-0.2,0.5-0.5,0.5l-0.4-0.1l-0.3,0
				c-0.4,0-0.7,0.7-0.7,1.4c0,0.4,0.2,1.1,0.4,1.7c0.2,0.4,0.3,0.7,0.5,0.8l0.7,0.7c0.2,0.2,0.3,0.4,0.3,0.7c0,0.3-0.2,0.6-0.4,0.6
				c-0.1,0-0.3-0.1-0.6-0.2c-0.2-0.1-0.3-0.1-0.5-0.1c-0.3,0-0.4,0.2-0.4,0.5l0.1,1l0.4,1.7c0.1,0.4,0.3,0.8,0.7,1.3
				c0.3,0.4,0.7,0.6,1,0.8c0.8,0.4,1.3,0.6,1.3,0.6c0.1,0.1,0.2,0.3,0.2,0.5c0,0.2-0.2,0.5-0.4,0.5c-0.1,0-0.3,0-0.7-0.1l-0.7-0.1
				c-0.7,0-0.7,0-0.7,0.6c0,0.3,0,0.7,0.1,1l0.3,1.1c0.3,1.1,0.6,1.7,1,1.7c0.1,0,0.3-0.1,0.5-0.3c1-0.7,2.9-1.4,4.1-1.4
				c1.2,0,2.6,0.2,3.2,0.3c0.3,0.1,0.5,0.2,0.6,0.2c0.2,0,0.2-0.2,0.2-0.7l0.1-1.2l0.3-2l0.2-1.5v-0.9c-0.2,0.2-0.4,0.4-0.5,0.5
				c-1.1,1-1.8,1.4-3,1.4c-3,0-4.8-3.4-4.8-9.3c0-2.4,0.4-5.9,1-9.9c0.1-0.8,0.2-1.4,0.2-1.8C141.4,139.3,140,137.2,137.6,135.6"/>
			<path class="st2" d="M142.1,150.4l0.6-0.6l0.6-0.5c0.5-0.4,0.9-1.3,0.9-2c0-0.3-0.1-0.6-0.2-0.9c-0.2-0.5-0.7-0.9-0.9-0.9
				c-0.2,0-0.4,0.5-0.5,1.4l-0.1,1l-0.2,1l-0.1,1V150.4z"/>
			<path class="st2" d="M136.3,177.3c0.7,0.2,0.8,0.4,1.5,1.2c0.9,1.1,1.4,1.3,2.6,1.3c0.3,0,0.6,0,0.9-0.1l0.8-0.3l0.7-0.2
				c0.3-0.1,0.5-0.2,0.5-0.3c0-0.1-0.5-0.6-1.3-1.1c-0.5-0.4-1.1-0.7-1.6-0.9c-0.6-0.3-1-0.4-1.5-0.4
				C138.1,176.4,137.2,176.7,136.3,177.3"/>
			<path class="st2" d="M145.2,195.8c0-2.1,2.1-3.9,4.6-3.9c1.3,0,2,0.3,2,0.7c0,0.3-0.6,0.8-1.8,1.4c-0.1,0.1-0.8,0.4-1.9,1.1
				c-1.3,0.7-1.7,0.9-2.9,1.4L145.2,195.8z"/>
			<path class="st2" d="M172,179.8c0.9-0.2,1.2-0.4,1.7-0.5l1.2,0.1c0.1-0.1,0.4-0.2,0.8-0.5c0.2-0.2,0.5-0.4,0.9-0.7
				c1.3-0.9,1.4-1,1.4-1.2c0-0.4-0.5-0.5-1.6-0.5C174.2,176.5,173,177.4,172,179.8"/>
			<path d="M152.1,139.8l0.9,0.6c0.5,0.3,1,0.6,1.3,0.7c1,0.4,1.4,0.6,1.4,1c0,0.1,0,0.5-0.1,0.7c-0.1,0.3-0.2,0.6-0.2,0.9
				c-0.1,0.9-0.6,1.1-1,1.1c-0.4,0-0.9-0.7-1.6-2c-0.3-0.6-0.8-1.8-1-2.6l0-0.3c0-0.2,0.1-0.3,0.3-0.3L152.1,139.8z"/>
			<path d="M161,142.1l-1.5,1.5c-0.5,0.7-0.5,1.3-0.7,1.4c-0.1,0.1-0.3,0.2-0.5,0.2l-0.1,0c-0.4,0-0.7-0.3-0.7-0.7l-0.1-1.1
				l-0.1-1.1v-0.1c0-0.4,0.2-0.7,0.6-0.7l1.4-0.4l1.4-0.7c0.4-0.2,0.5-0.3,0.6-0.3c0.2,0,0.3,0.2,0.3,0.4c0,0.1-0.1,0.2-0.1,0.4
				L161,142.1z"/>
			<path d="M154.3,146.6l1,0.7c0.2,0.1,0.6,0.2,0.9,0.2c0.4,0,1-0.2,1.6-0.4l0.9-0.4c0.2-0.1,0.4-0.1,0.5-0.1c0.5,0,0.9,0.6,0.9,1.3
				c0,1-0.7,2-1.7,3.4l-0.7,1.5c-0.6,0.8-1,1.1-1.4,1.1c-0.8,0-1.2-0.4-2.3-2.8c-0.8-1.7-1.2-2.7-1.2-3.5c0-0.7,0.4-1.2,0.9-1.2
				C153.8,146.4,154.1,146.4,154.3,146.6"/>
			<path class="st2" d="M155.2,150.2l0.1,1.3c0,0.6,0.5,1.1,1,1.1c0.6,0,1-0.9,1.3-2.3c0.1-0.6,0.2-0.7,0.2-0.9
				c0-0.5-0.2-0.6-0.8-0.6l-0.3,0h-0.5l-0.3,0c-0.4,0-0.6,0.3-0.6,1.2L155.2,150.2z"/>
		</g>
		<g id="Lion_bottom_left_00000087399069226259487390000001812785394209624254_">
			<path d="M68.8,167.5c0.6,1.4,0.8,2.2,0.9,3.1l0.1,2.8c0.1,2.8,1,4.1,2.8,4.1c0.6,0,1.2-0.2,1.4-0.5l0.7-0.7l0.3-0.1
				c0.5,0,0.7,0.3,0.7,0.9l-0.1,1.1c-0.1,0.5,0,1.5,0.3,3c0.1,0.9,0.2,1.8,0.2,2.7c0,1.4-0.1,1.9-0.6,3.2c0.5,1.3,0.7,2.8,0.7,4
				c0,1.4-0.2,2.4-0.8,3.2c0.3,1.1,0.3,1.6,0.3,2.2c0,0.6-0.1,1.5-0.3,2.5c-0.2,1.4-0.3,2.4-0.3,3.1l0,0.2c0,0.4-0.1,0.6-0.4,0.6
				c-0.2,0-0.5-0.2-0.8-0.5c-0.4-0.5-0.7-0.7-1-0.7c-0.5,0-0.6,0.2-1.3,2.2c-0.2,0.6-0.7,1.4-1.6,2.4c-0.7,0.8-1.1,1.4-1.2,1.9
				c-0.2,0.8-0.3,1.2-0.4,1.4c-0.1,0.2-0.2,0.3-0.4,0.3l-0.1,0c-1.1,0-2.3-2.3-3.6-6.7c-0.4-1.2-0.8-1.8-1.5-1.8
				c-0.5,0-1,0.3-1.1,0.7l-0.4,0.9c-0.1,0.2-0.2,0.3-0.3,0.3c-0.5,0-1.3-1-1.8-2.2c-0.4-1-0.6-2.1-0.6-3c0-2.1,1.5-3.6,6.1-6.2
				c2-1.1,2.8-2.5,2.8-5.1c0-2-0.6-3.2-2.4-4.5c-1.4-1-2.2-1.5-2.9-1.5c-0.6,0-1.1,0.4-1.1,0.9c0,0.6,0.4,1,1.2,1.3
				c1,0.4,1.5,0.7,1.5,1.2c0,0.4-0.4,1.3-1.1,2.4c-0.7,1.1-1.1,1.5-2.1,2.2c-0.3,1.8-1.2,3-3.2,4.3c-0.4,1.1-0.6,1.5-1.3,2.4
				l-1.4,1.8c-0.4,0.5-0.9,1.6-1,2c-0.1,1-0.2,1.2-0.6,1.2c-0.5,0-1.6-0.9-2.7-2.3c-0.6-0.8-0.8-1.2-0.9-2.2
				c-0.7,0.5-0.9,0.6-2.2,0.8c-0.8,0.1-1.4,0.3-1.8,0.5c-1,0.5-1.3,0.7-1.5,0.7c-0.3,0-0.4-0.1-0.4-0.6l-0.1-1.5c0-2,0.8-4.3,2-5.8
				c-1.2-1-2.3-1.6-3.2-1.7c-0.4,0-0.5-0.1-0.5-0.2c0-0.2,0.3-0.8,0.6-1.2c0.5-0.6,0.9-1.1,1.2-1.3c0.9-0.8,2.5-1.4,3.8-1.4
				c0.9,0,2.1,0.3,3.7,0.9c0.6,0.2,1.1,0.3,1.6,0.3c0.7,0,1.1-0.5,1.1-1.3c0-1.2-0.6-3.1-1.9-6.1c-0.9-2-1.3-3.4-1.3-4.3
				c0-2.3,1.1-4.6,2.4-5.3c-0.6-0.3-0.9-0.4-1.5-0.4c-0.7,0-1.2,0.2-2,0.7c-1,0.6-1.5,1.1-1.5,1.4c0,0.1,0.2,0.3,0.5,0.6
				c0.5,0.4,0.6,0.5,0.6,1c0,1.6-1.3,3.8-3.2,5.2c-0.4,2.3-1.5,3.7-3.6,4.7c-0.3,1.3-0.4,1.6-1.4,3c-1.7,2.4-2.1,3.2-2.4,4.5
				c-0.2,0.7-0.3,1-0.5,1c-0.3,0-0.9-0.4-1.5-1.1c-0.6-0.6-0.9-1-1.1-1.3c-0.3-0.4-0.4-0.9-0.7-2.1c-0.5,0.1-0.6,0.2-0.9,0.2l-1,0
				l-0.7,0c-1.4,0-3,0.3-3.7,0.8c-0.3,0.2-0.5,0.3-0.6,0.3c-0.4,0-0.8-0.9-0.8-2c0-2.4,0.7-4.3,2.2-6.5c-0.6-0.5-0.8-0.6-1.3-1.2
				c-0.2-0.2-0.4-0.4-0.5-0.5l-0.7-0.4c-0.3-0.1-0.4-0.3-0.4-0.4c0-0.3,1-1.3,2.1-2c1.3-0.8,2.3-1.2,3.2-1.2c1.1,0,1.7,0.3,3,1.4
				c0.9,0.8,1.6,1.2,2,1.2c0.3,0,0.7-0.2,0.9-0.6c0.2-0.3,0.3-0.6,0.3-1c0-1.3-1.5-3.4-3.2-4.5c-1.2-0.8-2.6-1.2-3.9-1.2
				c-1.8,0-3.4,0.9-4.1,2.4l-0.7,1.5c-0.2,0.4-0.4,0.5-0.6,0.5c-0.4,0-0.6-0.2-2.1-1.9l-1.7-2c-0.5-0.6-0.9-1.2-1.1-1.7
				c-0.2-0.5-0.3-0.8-0.3-0.9c-0.1-0.1-0.3-0.3-0.7-0.5c-1.3-0.9-2.3-2.8-2.8-5.5c0-0.2-0.1-0.5-0.2-0.9c-1.6-2-2.6-4.4-2.6-6.5
				c0-0.3,0-0.4,0.1-0.9c-0.9-0.9-1-1.2-1.8-3.7c-0.5-1.8-0.9-2.5-1.5-3.4c-0.2-0.2-0.3-0.4-0.3-0.5c0-0.4,0.6-0.6,1.5-0.8
				c0.9-0.1,1-0.2,1.3-0.2l1.3,0.1l-0.1-1.8c0-1.1,0.1-1.7,0.3-3c0.1-0.6,0.2-1.1,0.2-1.4c0-0.1,0-0.5-0.1-1.1
				c-0.1-0.5-0.1-0.8-0.2-1c-0.1-0.2-0.1-0.4-0.1-0.6c0-0.2,0.1-0.3,0.4-0.3c0.2,0,0.5,0.1,0.9,0.3c1.1,0.6,2.1,1.1,2.8,1.7
				c2.3,1.8,4,4.5,4,6.2l0,0.5c-0.1,0.6-0.1,0.9-0.1,1c0,0.3,0.2,0.7,0.5,1.1l0.7,1c0.6,0.9,1.1,1.9,1.1,2.6c0,0.6-0.1,0.9-1.2,2.4
				c-0.8,1.1-1.1,2-1.1,2.9c0,1.2,0.5,2.7,1.3,4.2c0.8,1.4,1.7,2.1,2.5,2.1c1.5,0,2.1-1.3,2.3-4.8c0.1-1.8,0.3-3.5,0.5-5l0.1-0.9
				c0-0.4-0.1-0.6-0.7-1.3l-2-2.3c-1.9-2.2-2.4-3.3-2.4-4.9c0-1.8,1.2-3.1,2.9-3.1l0.8,0.1l0-0.5c0-0.4,0.1-1,0.3-1.8
				c0.4-1.4,0.9-2.5,1.2-2.5c0.1,0,0.3,0.1,0.6,0.3c0.1,0.1,0.5,0.2,1.2,0.5c0.4,0.1,0.6,0.3,1.3,0.7c0.3-1.1,0.6-1.7,1.1-2.3
				c0.8-1.1,1.8-2,2.2-2c0.2,0,0.6,0.3,1.1,0.8l1.3,1.3c0.2,0.2,0.5,0.6,0.7,1.2l0.3,0.6c0.3-0.2,0.6-0.4,0.8-0.5
				c0.5-0.3,0.9-0.5,1.1-0.6c0.8-0.4,1.2-0.6,1.3-0.6c0.3-0.2,0.6-0.3,0.7-0.3c0.2,0,0.3,0.4,0.8,2.6c0.3,1.5,0.4,1.8,0.5,2.9
				c2.1,0.3,3.1,1.5,3.1,3.8c0,2.1-1,4.2-3.3,6.6c-0.6,0.7-0.8,1-0.8,1.6c0,5.8,2,7.6,9.3,8.4c4.5,0.5,5.8,0.8,11.2,2.4
				c2.8,0.8,4.5,1.2,5.5,1.2c1.2,0,1.9-0.5,1.9-1.3c0-1.2-0.9-1.6-6.1-2.7c-12.2-2.6-17-6.7-17-14.8c0-5.7,4.3-10,10-10
				c2.5,0,4.8,0.8,8.3,2.8c3.3,1.9,4,2.2,4.7,2.2c0.9,0,1.2-0.6,1.2-2c0-0.9,0.3-1.4,0.9-1.4c0.5,0,1.3,0.5,2,1.4
				c1.1,1.3,1.5,2,1.5,3.7c0,2.4-1.3,3.9-3.7,4.6c-0.3,0.3-0.5,0.5-0.6,0.7c-1.4,1.5-2.5,2-4.7,2c-1.9,0-4.2-0.8-5.8-1.9l-3.2-2.2
				c-1.4-1-2.4-1.4-3.3-1.4c-1.3,0-2.1,0.8-2.1,2.2c0,1.3,0.9,2.4,2.3,2.8l3,0.9c1,0.3,1.5,0.5,2.8,1.2c0.7-0.1,1.1-0.1,1.5-0.1
				c1.8,0,3.8,0.5,5.6,1.4c0.6,0.3,1,0.5,1.2,0.5l1.6,0.5c3.7,1,6.8,5.2,6.8,9.3c0,4.7-3,7.5-7.9,7.5L68.8,167.5z"/>
			<path class="st2" d="M67.7,206.5l0.4-0.8l0.9-1c0.8-0.8,1.2-2,1.2-3.4c0-0.7-0.1-1.4-0.3-2.1c-0.2-0.5-0.3-1-0.3-1.2
				c0-0.4,0.3-0.8,0.6-0.8c0.1,0,0.3,0.1,0.5,0.3l1,1.1c0.6,0.7,0.8,0.8,1.6,1l0.1-0.9l0.1-1.1c0-1.6-0.6-3.3-1.4-4.4
				c-0.5-0.7-0.8-1.1-0.8-1.3c0-0.2,0.2-0.5,0.4-0.5c0.1,0,0.2,0.1,0.3,0.1c0.6,0.5,1,0.7,1.1,0.7c0.3,0,0.6-0.8,0.6-1.7
				c0-1.2-0.5-2.7-1.3-3.7c-0.4-0.5-0.7-0.8-0.8-1c-0.1-0.1-0.1-0.3-0.1-0.4c0-0.3,0.2-0.5,0.6-0.5c0.2,0,0.4,0.1,0.8,0.3
				c0.2,0.1,0.4,0.2,0.5,0.2c0.5,0,0.7-0.7,0.7-2.7l0-0.8l-0.1-1.2c-0.1-1.4-0.2-1.6-0.8-1.6h-0.5c-3.2,0-4.7-2-5.5-7.5
				c-0.6-4-2.1-6.8-3.9-7.4c-1.1-0.4-1.5-0.6-1.5-0.9c0-0.2,0.3-0.4,0.6-0.4c0.2,0,0.8,0.1,1.2,0.3c2.6,1.1,4.8,1.6,6.8,1.6
				c3.1,0,5.6-2.3,5.6-5.3c0-2.2-1.1-4.5-3-6.4c-0.5-0.5-1.1-0.8-1.6-1l-0.1,0l-0.3,0.1l0.1,0.9l0.3,0.7l0.1,0.3
				c0,0.1-0.1,0.3-0.3,0.3c-0.2,0-0.4-0.1-0.5-0.3l-1.2-1.8c-0.9-1.4-3-2.6-4.5-2.6c-0.5,0-0.9,0.2-0.9,0.6c0,0.2,0.2,0.5,0.4,0.8
				c0.3,0.4,0.6,0.8,0.6,1l-0.1,0.3c-0.1,0.1-0.2,0.3-0.3,0.3l-0.1,0c-0.3,0-0.5-0.1-1.9-1.8c-1.2-1.3-3.6-2.6-4.8-2.6
				c-0.2,0-0.4,0.1-0.5,0.2c-0.1,0.1-0.1,0.2-0.1,0.3c0,0.2,0.2,0.5,0.5,0.7c0.4,0.4,0.7,0.8,0.7,1c0,0.1-0.2,0.2-0.4,0.2
				c-0.4,0-1.2-0.5-2.8-1.8c-2.5-1.9-3.5-3.7-3.5-5.9c0-2.5,1.8-4.5,4.1-4.5c1.4,0,3.2,0.7,4.4,1.6l3.2,2.4c1.5,1.1,3.3,1.7,5.2,1.7
				c0.4,0,0.8-0.1,1.1-0.3c0.3-0.1,0.5-0.3,0.5-0.4c0-0.1-0.2-0.2-0.6-0.3c-1.2-0.3-2.1-0.7-2.8-1.2l-3.3-2.5
				c-1.2-0.9-2.1-1.5-2.6-1.8c-1.7-0.9-2.1-1.1-2.1-1.3c0-0.1,0.2-0.2,0.4-0.2c0.2,0,0.4,0,0.6,0.1l1.7,0.7c0.5,0.2,1.5,0.8,2.8,1.6
				c3.5,2.4,5.3,3.1,7.4,3.1c2,0,3.4-1.4,3.4-3.3c0-0.4-0.1-0.8-0.3-1.1l-0.3-0.7c-0.1-0.2-0.3-0.4-0.4-0.3l-0.2,0.3l-0.2,1.4
				c0,0.1-0.1,0.2-0.2,0.5c-0.1,0.3-0.3,0.5-0.5,0.7c-0.4,0.4-0.7,0.5-1.2,0.5c-1,0-2.2-0.5-5.2-2.5c-3.1-2-5.9-3-8.2-3
				c-4.7,0-8.5,3.8-8.5,8.5c0,6.6,4,9.6,16.6,12.3c4.8,1,6.9,2.4,6.9,4.6c0,1.9-1.6,3.2-4.1,3.2c-0.8,0-1.3,0-1.8-0.1
				c-0.4-0.1-2.7-0.7-6.8-1.8c-2.8-0.8-6-1.2-8.8-1.2c-4.9,0-8.3,1.5-10.6,4.6c-0.3,0.4-0.5,0.6-0.7,0.6c-0.1,0-0.3-0.1-0.6-0.3
				l-0.9-0.7c-0.6-0.5-1.7-0.9-2.4-0.9c-0.5,0-1,0.2-1.4,0.6c-0.3,0.3-0.6,0.5-0.7,0.5c-0.4,0-1-0.8-1.6-1.9
				c-0.7-1.5-1.1-3.1-1.1-4.5c0-0.7,0.2-1.1,0.5-1.1c0.2,0,0.4,0.2,0.5,0.5l0.5,1.9c0.3,1.1,0.9,1.9,1.3,1.9c0.2,0,0.6-0.3,1-0.8
				c0.2-0.3,0.4-0.6,0.5-0.9c0.4-1.2,0.5-1.4,0.8-1.4c0.4,0,0.6,0.2,0.8,1.4c0.1,0.2,0.1,0.6,0.4,1.1c0.3,0.5,0.5,0.9,0.8,1.2
				c0.2,0.2,0.4,0.3,0.7,0.3c0.6,0,1.1-1,1.1-2l0-0.3l-0.1-1.2c0-0.5,0.1-0.6,0.3-0.6c0.2,0,0.3,0.1,0.5,0.3
				c0.3,0.4,0.7,0.7,1.1,0.9c0.4,0.2,0.7,0.3,0.9,0.3c0.2,0,0.4-0.1,0.6-0.3c0.2-0.2,0.3-0.4,0.3-0.5c0-0.2-0.2-0.5-0.9-1.2
				c-0.4-0.4-0.8-1.3-1.3-2.6c-0.2-0.5-0.4-0.9-0.6-0.9c-0.1,0-0.2,0-0.4,0.1l-0.9,0.3l-0.6,0.3l-0.2,0c-0.3,0-0.5-0.2-0.5-0.5
				c0-0.3,0.6-1,1.3-1.6c0.5-0.4,0.8-1.1,0.9-1.8c0-1.1,0.2-2,0.5-2l0.2-2.3c0.1-1.2,0.6-3.3,1-4.5c0.1-0.2,0.2-0.4,0.3-0.4
				c0.2,0,0.3,0.5,0.3,1l0,0.3l0,0.7c0,0.8,0.1,1.3,0.4,1.3c0.3,0,0.6-0.4,0.9-1.1l0.6-1.5c0.2-0.4,0.3-0.9,0.3-1.2
				c0-1.3-0.8-2.2-1.8-2.2l-0.5,0.1c-0.3,0.1-0.4,0.1-0.5,0.1c-0.3,0-0.6-0.4-0.6-0.8l0.1-0.9l-0.1-1.3l-0.3-1.4l-0.1-0.7l-0.6,0.3
				l-0.7,0.6l-1,0.9l-0.9,0.7c-0.2,0.1-0.3,0.2-0.5,0.2c-0.5,0-0.6-0.1-0.6-1.2v-0.3c0-0.8-0.4-1.5-1.7-3.1
				c-0.1-0.1-0.2-0.2-0.3-0.4l-0.3,0.5l-0.7,1.2l-0.7,1.8l-0.1,1.2c0,0.3-0.2,0.6-0.3,0.6c-0.1,0-0.4-0.2-0.6-0.5
				c-1-1.1-1.3-1.4-2.8-1.9l-0.1,0.5c-0.2,0.8-0.4,1.2-0.4,1.4l-0.1,1.2v0.5l0,0.4c0,0.4-0.1,0.6-0.4,0.6l0,0c0,0-0.2-0.1-0.4-0.3
				c-0.2-0.1-0.4-0.2-0.8-0.2c-1.2,0-2,0.7-2,1.7c0,0.8,0.3,1.4,1.5,3.2c0.5,0.8,1.2,1.5,1.4,1.5c0.2,0,0.3-0.4,0.3-0.9l-0.1-0.8
				c-0.1-0.4-0.2-0.7-0.2-1c0-0.4,0.1-0.6,0.3-0.6c0.6,0,1.2,1.7,1.5,4.1l0.3,2.4c0.1,0.9,0.4,1.8,0.8,2.6c0.6,1.2,1.2,2.1,1.7,2.4
				c0.6,0.4,1,0.9,1,1.1c0,0.2-0.2,0.4-0.3,0.4c0,0-0.5-0.2-1.3-0.5l-0.6-0.1c-1.3,0-1.8,0.8-1.8,3c0,2.7,1.8,6.7,3.9,8.3l3,2.4
				c1.5,1.2,2.7,3.3,2.7,4.7c0,1.9-2.1,3.8-5.7,5.1l-2.2,0.8c-1.7,0.6-2.4,1.7-3,4.9c0.9-0.3,1.2-0.3,1.8-0.3l0.3,0l1,0
				c0.9,0,1.5-0.5,1.5-1.3v-0.6c0-0.2,0.2-0.4,0.6-0.6c0.6-0.3,0.9-0.4,0.9-0.5l0.7-0.6c0.1-0.1,0.2-0.1,0.4-0.1
				c0.2,0,0.4,0.2,0.4,0.4c0,0.2,0,0.4-0.1,0.6c-0.2,0.6-0.3,1.4-0.3,2.3c0,1.6,0.3,2.5,1.1,3.7c0.1-0.4,0.1-0.7,0.2-0.9
				c0.1-0.3,0.5-0.9,1.1-1.8c1-1.4,1.7-3.1,1.7-4l0-0.3l-0.2-1.5c0-0.3,0.1-0.5,0.3-0.7c0.1-0.1,0.3-0.2,0.4-0.2
				c0.3,0,0.5,0.2,0.7,0.7c0.2,0.4,0.3,0.6,0.5,0.6c0.2,0,0.7-0.6,1-1.3c0.2-0.5,0.3-1,0.3-1.4c0-0.2-0.1-0.5-0.2-0.8
				c-0.1-0.3-0.2-0.6-0.2-0.7c0-0.2,0.1-0.3,0.3-0.4c0.1-0.1,0.2-0.1,0.3-0.1c0.1,0,0.3,0.1,0.4,0.1l0.6,0.4
				c0.2,0.1,0.4,0.2,0.5,0.2c0.3,0,0.6-0.3,0.9-0.7c0.6-0.9,0.9-1.6,0.9-1.9c0-0.2-0.1-0.3-0.5-0.6c-1.3-0.9-2.2-2.3-2.2-3.5
				c0-0.3,0.1-0.6,0.2-1l0.7-1.8c0.3-0.9,0.5-1.4,0.5-1.4l0.2-0.1c0.2,0,0.4,0.2,0.4,0.5c0,0.2-0.1,0.5-0.2,0.7
				c-0.2,0.4-0.3,1-0.3,1.2c0,0.5,0.2,0.7,0.7,0.7c0.3,0,0.7-0.1,1.1-0.3c2-0.9,3.6-1.3,4.5-1.3c0.9,0,1.5,0.2,2.4,0.9
				c0.2,0.2,0.5,0.3,0.6,0.3c0.1,0,0.3-0.1,0.4-0.3c0.1-0.1,0.1-0.2,0.1-0.3c0-0.2-0.1-0.5-0.4-0.9c-0.3-0.4-0.5-0.7-0.5-0.9
				c0-0.2,0.1-0.3,0.4-0.3c1,0,2.6,3.3,4.2,8.4c1.2,4.1,1.6,4.5,5.5,6.7c3.3,1.9,4.6,3.7,4.6,6.7c0,3-0.8,6.7-2.5,11.7
				c-0.5,1.6-0.8,2.6-0.8,3.5c0,0.7,0.1,1.4,0.6,3.1c0.2,0.8,0.4,1.4,0.5,1.5C67.3,205.7,67.4,206,67.7,206.5"/>
			<path class="st2" d="M52.5,197.3c0.4-0.9,0.5-1.1,1.2-2.2c1.1-1.6,1.4-2.5,1.4-3.2v-1.1c0-1,0.2-1.4,0.6-1.4
				c0.1,0,0.3,0.1,0.3,0.2l0.3,0.5c0.1,0.2,0.3,0.3,0.5,0.3c0.2,0,0.5-0.3,0.7-0.6c0.5-0.7,0.8-1.6,0.8-2.3l-0.1-0.7l-0.1-0.7
				c0-0.4,0.2-0.6,0.5-0.6c0.3,0,0.4,0.1,0.6,0.6c0.1,0.3,0.3,0.5,0.5,0.5c0.2,0,0.4-0.1,0.6-0.4l0.5-0.8l0.4-0.6l0.1-0.3
				c0-0.2-0.1-0.3-0.5-0.6c-1.2-0.9-1.8-2.2-1.8-4.7c-0.1-1.9-0.2-3.1-0.3-3.6c0-0.1-0.4-1.1-1.2-2.8c-0.3-0.7-0.6-1.5-0.8-2.4
				c-0.2-0.6-0.3-0.8-0.8-0.8c-1.8,0-3.1,1.5-3.1,3.5c0,1.2,0.5,3.1,1.4,5.3c1.3,3.2,1.6,4.3,1.6,5.5c0,2.4-1,3.5-4.3,4.7
				c-3.8,1.4-5.5,3.3-6.2,6.8c0.3-0.1,0.5-0.2,0.7-0.3c0.4-0.2,0.7-0.3,0.9-0.3l1.1-0.3c0.9-0.2,1.6-0.7,1.8-1.2l0.3-0.9
				c0.1-0.2,0.2-0.4,0.4-0.5l0.6-0.3l0.6-0.3l0.1,0.3l-0.3,0.9c-0.1,0.3-0.1,0.8-0.1,1.5C51.3,195.4,51.6,196.3,52.5,197.3"/>
			<path class="st2" d="M17.2,136.5c0.1,0.4,0.1,0.6,0.1,0.7c0,0.2-0.1,0.8-0.3,1.7l-0.1,1.3c0,1.2,0.2,2.4,0.6,3.5
				c0.3,0.9,0.4,1.2,0.4,1.5l0,0.3c-0.1,0.3-0.2,0.5-0.3,0.5c-0.1,0-0.4-0.1-0.7-0.4c-0.8-0.7-1.6-1-2.4-1c-0.3,0-0.7,0-1.1,0.1
				l0.3,0.7l1,2.4l1.4,2.1l1.4,1c0.1,0.1,0.3,0.2,0.4,0.4c0.1,0.2,0.2,0.3,0.2,0.4c0,0.1-0.1,0.2-0.3,0.2l-1.3,0.1
				c-0.2,0-0.4,0.1-0.4,0.3c0,0.2,0.2,0.9,0.6,2l0.7,1.9l1.1,1l1.2,0.9c0.3,0.3,0.6,0.5,0.6,0.7c0,0.2-0.1,0.4-0.2,0.4l-0.7,0.1
				c-0.2,0-0.3,0.2-0.3,0.5c0,0.5,0.5,1.4,1.3,2.6c1,1.4,1.7,1.8,2.9,1.8h1c0.5,0,0.8,0.2,0.8,0.6c0,0.3-0.2,0.5-0.6,0.6
				c-0.9,0.2-1.2,0.4-1.2,0.8c0,0.2,0.1,0.4,0.3,0.7l0.5,0.7c0.4,0.6,0.9,1,1.2,1c0.2,0,0.6-0.2,1-0.6c0.6-0.7,1.3-1.2,2.1-1.4
				c2.3-0.6,2.8-0.8,2.8-1.3c0-0.2-0.1-0.4-0.3-0.8c-0.7-1.3-1-2.1-1-3.2c0-0.8-0.2-1.4-0.5-1.4c-0.1,0-0.3,0.2-0.5,0.5
				c-0.5,0.8-1.5,1.4-2.3,1.4c-2.3,0-5-3.6-6.4-8.3c-0.3-1.1-0.5-2.3-0.5-3.5c0-1.2,0.2-2.6,0.5-4c0.4-1.9,0.7-3,0.7-3.2l0.1-0.9
				C21,140.2,19.5,138.1,17.2,136.5"/>
			<path class="st2" d="M21.9,145.6c-0.5,0.9-0.9,3-0.9,4.3c0,0.8,0.3,1.4,0.6,1.4c0.1,0,0.2-0.1,0.4-0.3l0.7-1.3
				c0.1-0.2,0.2-0.4,0.5-0.8c0.3-0.4,0.5-0.8,0.5-1C23.5,147.1,22.8,146.1,21.9,145.6"/>
			<path class="st2" d="M29.1,175.3c0.1,0.1,0.3,0.3,0.3,0.3c0.3,0.3,0.5,0.5,0.5,0.5c1.3,1.3,1.5,1.5,2.1,1.5
				c0.6,0,1.8-0.3,2.4-0.7c0.3-0.1,0.5-0.3,0.5-0.5c0-0.1-0.2-0.4-0.7-0.7l-0.7-0.7c-0.6-0.5-1.4-1-1.7-1
				C31.1,174.1,30.3,174.5,29.1,175.3"/>
			<path class="st2" d="M44.4,187.2c0.7,0.3,1,0.4,1.3,0.7c0.6,0.4,0.9,0.6,1,0.7c0.2,0.1,0.6,0.1,1,0.1c0.3,0,0.6,0,0.8-0.1L50,188
				l1.3-0.5c0.4-0.1,0.6-0.3,0.6-0.5c0-0.1-0.3-0.2-0.7-0.3c-0.3-0.1-0.6-0.2-1-0.3c-1.6-0.7-1.9-0.7-2.4-0.7
				C46.4,185.6,45.1,186.2,44.4,187.2"/>
			<path class="st2" d="M61,200.4c0.4-1.1,0.7-1.2,2.2-1.3c1.7-0.1,3.3-3.1,3.3-5.2c0-0.2-0.1-0.4-0.2-0.4c-0.1,0-0.2,0.1-0.4,0.2
				c-0.5,0.3-0.8,0.5-1,0.6l-1.9,0.9c-1.3,0.6-2.4,2.3-2.4,3.6C60.6,199.3,60.7,199.6,61,200.4"/>
			<path d="M32.6,143.3l0.7,0.9c0.1,0.2,1.3,1,1.4,1c0.2,0,0.3-0.1,0.4-0.6l0.3-1l0.1-1.1c0-0.9-0.4-1.2-2.2-1.7
				c-0.4-0.1-0.6-0.1-0.9-0.3c-0.3-0.2-0.6-0.4-0.8-0.4c-0.1,0-0.3,0.1-0.3,0.2l0.1,0.3l0.3,1L32.6,143.3z"/>
			<path d="M39.6,143.3l-0.9,1.5c-0.2,0.2-0.3,0.4-0.3,0.4l-0.1,0c-0.3,0-0.7-0.8-0.7-1.6l-0.1-1.3c0.1-0.5,0.4-0.8,1.2-0.9
				c0.7-0.1,1.1-0.2,1.3-0.4c0.6-0.4,1-0.7,1.1-0.7l0.1,0c0.2,0,0.3,0.1,0.3,0.3l0,0.1l-0.5,1.1L39.6,143.3z"/>
			<path d="M37.9,147.7l1.1-0.5c0.2-0.1,0.4-0.1,0.5-0.1c0.5,0,0.9,0.4,0.9,1.1c0,0.8-0.6,1.8-1.4,3.2c-0.9,1.6-1.5,2.6-2.2,2.6
				c-0.9,0-2.3-1.5-3.6-4c-0.3-0.6-0.5-1.3-0.5-1.8c0-0.8,0.4-1.3,1.1-1.3c0.3,0,0.6,0.1,0.8,0.2l0.6,0.4c0.5,0.3,1.1,0.5,1.7,0.5
				C37.2,148,37.6,147.9,37.9,147.7"/>
			<path class="st2" d="M37.2,149.2c0,0,0.6,0.1,0.6,0.5l0,0.2l-0.2,1c-0.2,1.3-0.5,2.1-0.9,2.1c-0.2,0-0.4-0.1-0.5-0.3
				c-0.7-1-1.2-2.2-1.2-2.8c0-0.5,0.2-0.7,0.6-0.7l0.1,0l0.7,0.1L37.2,149.2z"/>
		</g>
		<g id="Lion_top_right_00000098921795573226337650000004162056444664604079_">
			<path d="M190.2,43.4l0.3,1c0.2,0.9,0.4,1.6,0.5,2.1c0.8,3.8,1.5,4.7,3.3,4.7c1,0,1.9-0.6,2.2-1.5l0.4-1.3
				c0.1-0.3,0.3-0.5,0.6-0.5c0.7,0,1.1,0.8,1.2,2.4c0,0.6,0.2,1.7,0.4,3.2c0.2,1.1,0.3,2.1,0.3,3c0,0.7-0.1,1.1-0.4,1.9l0.1,0.8
				c0.2,1.3,0.3,1.8,0.3,2.4c0,2.8-0.1,3.7-0.8,4.8c0.3,1.1,0.3,1.6,0.3,2.4c0,0.5-0.1,1.2-0.2,2.3l-0.3,2l0.1,1.2
				c0.2,0.4,0.3,0.7,0.3,0.8c0,0.2-0.1,0.3-0.3,0.3l-1.3-0.5l-1.4-0.8c-0.5-0.3-0.8-0.5-1.5-1.2c-1.3,1.1-1.5,1.2-3,1.6
				c-2.2,0.6-3,0.9-3.4,1.2c-0.4,0.3-0.7,0.5-0.9,0.5c-0.5,0-0.9-1-0.9-2.4c0-2.1,0.1-3.2,0.5-4c-1.3-0.4-1.9-0.6-2.4-0.6
				c-0.2,0-0.3,0-1,0.1l-0.3,0c-0.2,0-0.3-0.2-0.3-0.6c0-0.6,0.5-1.9,1.1-3c0.8-1.5,2.2-2.7,3.2-2.9l2.4-0.5c1.4-0.3,2.2-1,2.2-2
				c0-0.9-0.6-1.6-2-2.1l-2.8-1c-0.9-0.3-1.8-0.7-2.6-1.2c-0.7-0.4-1.2-0.7-1.4-0.9c-0.2-0.1-0.5-0.2-0.7-0.2
				c-0.6,0-0.9,0.4-0.9,1.1c0,1.1,0.9,2,1.9,2c0.2,0,0.5-0.1,0.7-0.1c0.3-0.1,0.5-0.2,0.6-0.2c0.3,0,0.5,0.3,0.5,0.7
				c0,1.2-0.7,3.2-1.5,4.2l-0.8,1l-0.6,0.8c-0.2,1.7-1.9,4.1-3.5,5.2c-0.4,0.3-0.7,0.4-0.7,0.5c-0.1,0.1-0.2,0.4-0.5,0.9
				c-0.1,0.3-0.6,0.8-1.3,1.6c-0.6,0.6-1.1,1.1-1.6,1.5c-0.7,0.6-1.2,1-1.3,1.2l-0.7,1.1c-0.1,0.2-0.3,0.3-0.5,0.3
				c-0.6,0-1.1-0.6-1.5-1.7c-0.2-0.8-0.5-1-1-1c-0.3,0-0.6,0.1-1.1,0.2l-0.9,0.1h-2.3c-1.2,0-2.9,0.3-3.7,0.7
				c-0.3,0.1-0.5,0.2-0.7,0.2c-0.3,0-0.5-0.3-0.5-1c0-2.1,1.6-5.2,3.7-7.3c-0.3-1.2-0.9-2-1.8-2.2c-0.7-0.2-1.1-0.3-1.2-0.3
				c-0.1-0.1-0.2-0.2-0.2-0.3c0-0.4,0.5-0.8,1.5-1.3c1.9-0.9,2.4-1.1,3.5-1.1c1.2,0,2.2,0.4,3.4,1.4c1.8,1.4,2.3,1.6,3.1,1.6
				c1.4,0,2.7-1.3,2.7-2.6c0-0.9-0.5-1.9-1.7-3.5c-1.8-2.2-2.4-3.7-2.4-5.6c0-1.3,0.3-2,1.4-3.8c0.2-0.3,0.3-0.5,0.3-0.7
				c0-0.4-0.6-0.7-1.3-0.7c-0.7,0-1.6,0.3-2.8,0.8c-2,0.9-3.2,1.8-3.2,2.3c0,0.2,0.1,0.4,0.3,0.6l0.7,0.5c0.1,0.1,0.1,0.2,0.1,0.3
				c0,0.1-0.1,0.3-0.3,0.5c-0.1,0.1-0.6,0.7-1.3,1.7c-0.9,1.2-1.8,2.1-2.8,2.9c-0.4,0.3-0.6,0.5-0.7,0.7l-0.5,1
				c-0.4,0.8-1.7,2.2-2.8,3c-0.5,0.4-0.8,0.6-0.9,0.7c-0.1,0.1-0.3,0.5-0.6,0.9c-0.7,1.2-1.7,2.7-2.4,3.4l-1.8,1.8
				c-0.5,0.5-1.2,2-1.9,4.1c-0.5,1.6-0.9,2.3-1.1,2.3c-0.1,0-0.3-0.1-0.5-0.4c-1.3-1.5-2.4-2.4-3-2.4c-0.1,0-0.4,0.1-0.8,0.3
				c-0.5,0.3-1.1,0.5-1.8,0.7l-2.4,0.5c-2,0.4-2.8,0.8-3.7,2c-0.2,0.3-0.4,0.5-0.5,0.5c-0.2,0-0.4-0.3-0.4-0.8l0.1-0.6
				c0-0.1,0.1-0.7,0.3-1.8c0.3-1.9,0.8-3.4,1.3-4.3l1.2-2c0.2-0.4,0.3-0.7,0.3-1.1c0-1.5-1.4-2.7-3.6-3.1c-0.4-0.1-0.7-0.2-0.7-0.5
				c0-0.3,0.5-0.9,1.3-1.5c1.4-1.1,2.9-1.7,4-1.7c0.7,0,1.7,0.3,3,0.8l1.4,0.6c0.5,0.2,1,0.3,1.5,0.3c1.5,0,3-1.4,4.8-4.5
				c0.8-1.4,1.2-2.4,1.2-3.4c0-1.7-0.8-2.7-2.1-2.7c-1,0-2,0.4-2.8,1.2c-0.7,0.7-1.1,1.5-1.1,2.1l0,0.7l0,0.4c0,0.5-0.2,0.8-0.6,0.8
				c-0.5,0-1.1-0.5-2.2-1.8c-0.5-0.6-1.1-1.3-1.8-2.2c-2-2.3-2.4-3.3-2.5-5.7c-2.2-2.8-2.8-4.4-2.8-6.1l0.1-1.4
				c-1.6-1.9-1.9-2.7-1.9-4.6c0-0.9,0-1.1,0.4-1.8c-0.8-1.2-1-1.7-1.2-2.6l-0.3-1.4c-0.2-0.9-0.6-1.7-1.1-2.4
				c-0.6-0.8-0.7-1-0.7-1.2c0-0.7,0.7-1.1,2.3-1.5l0.5-0.1c-0.1-0.6-0.1-1.1-0.1-1.5c0-0.4,0-0.8,0.2-1.6l0.5-2.4
				c0.2-0.9,0.3-1.7,0.3-2.2c0-0.6-0.1-1-0.4-2c-0.2-0.7-0.4-1.2-0.7-1.5c-0.3-0.4-0.4-0.7-0.4-0.9c0-0.2,0.2-0.4,0.5-0.4
				c0.2,0,0.4,0.1,0.7,0.2c2.2,1.2,4.6,3.1,6.4,5.1c1.5,1.7,2,3,2.3,6.7c2,1.5,2.8,2.9,2.8,5c0,1.3-0.4,2.5-1.3,3.9
				c-0.8,1.2-1.2,1.9-1.3,2c-0.4,0.7-0.6,1.4-0.6,2.2c0,1.2,0.4,2.3,1.3,3.9c1,1.7,1.9,2.5,2.9,2.5c1.7,0,3.3-3,3.3-6.3l0-0.6V33
				l0.2-1.6l0.1-1.9l0.1-1.6l0.1-0.9c0-0.6-0.1-0.8-2.2-3c-2.2-2.4-3.3-4.4-3.3-6.3c0-1.8,1.5-3.2,3.3-3.2c0.4,0,0.7,0.1,1.4,0.3V14
				l0.1-1.4l0.4-1.7c0.3-1.4,0.5-1.6,0.9-1.6l0.3,0.1l1.2,1l1.4,0.9l0.4,0.4c0.1-0.8,0.2-1,0.9-1.8c0.3-0.4,0.6-0.8,0.9-1.2l0.7-1
				l0.4-0.6c0.3-0.4,0.4-0.5,0.5-0.5c0.2,0,0.3,0.2,0.5,1c0.1,0.3,0.3,0.6,0.6,0.9l0.9,0.7c0.7,0.6,1.2,1.5,1.4,2.7
				c0.5-0.6,0.8-0.9,1.3-1.2l1.1-0.6c0.4-0.2,0.6-0.3,0.7-0.3c0.1,0,0.2,0.2,0.3,0.4c0.2,0.3,0.3,0.7,0.5,1c0.8,1.4,0.9,1.6,0.9,2.5
				l0,0.5V15c2.1,0.6,3,1.7,3,4.1c0,1.8-0.8,3.6-2.5,5.6c-1.1,1.4-1.3,1.8-1.3,2.8c0,4.6,3.5,7.4,9.4,7.5l4.3,0.1
				c2.8,0,4.6,0.3,7.2,1.2c3,1,4,1.3,5,1.3c0.7,0,1.2-0.4,1.2-0.8c0-1-1.6-1.7-6.9-3.2c-10.8-3.1-15.4-7.4-15.4-14.6
				c0-5.6,4.6-9.8,10.6-9.8c1.9,0,4.8,0.5,6.5,1.1l2.7,1c0.5,0.2,1,0.3,1.4,0.3c0.9,0,1.3-0.6,1.4-2.3c0.1-0.8,0.3-1.1,0.8-1.1
				c0.7,0,2,1.1,3,2.4c1,1.4,1.7,3.2,1.7,4.4c0,1.4-0.7,2.5-2.3,3.4c-1.5,2.2-3.3,3.3-5.7,3.3c-1.9,0-5.1-1.3-9.1-3.6
				c-1.6-0.9-2.3-1.2-3.1-1.2c-1.2,0-1.9,0.7-1.9,1.7c0,1,0.7,1.5,2.7,2.2c3.1,1.1,3.8,1.5,4.7,2.6c3.3,0.6,4.8,1.2,6.9,2.8
				c6,1.9,9.3,5.6,9.3,10.4c0,4.3-2.9,7.4-7,7.4C192.3,43.7,191.8,43.7,190.2,43.4"/>
			<path class="st2" d="M196.7,72.1c-0.2-0.6-0.2-0.9-0.2-1.2l0.1-0.9c0.2-1.2,0.2-1.8,0.2-2.6c0-0.5-0.1-0.9-0.5-1.3l-0.8-1.1
				c-0.5-0.7-0.7-1.2-0.7-1.8c0-0.4,0.1-0.5,0.3-0.5l0.3,0.1c0,0,0.2,0.1,0.6,0.3c0.3,0.2,0.5,0.2,0.7,0.2c0.4,0,0.6-0.6,0.6-1.8
				c0-1.7-0.3-2.5-1.3-3.3l-0.9-0.7c-0.2-0.1-0.3-0.3-0.3-0.5c0-0.3,0.2-0.5,0.5-0.5c0.2,0,0.4,0.1,0.8,0.1l0.7,0.2l0.3,0.1
				c0.2,0,0.3-0.2,0.3-0.6l0-0.2l-0.2-1.4c-0.2-1.4-0.4-2-0.9-2l-0.1,0l-1.7,0.3l-0.3,0c-2.1,0-4.5-1.9-5.1-4.1l-1.2-4.3
				c-0.4-1.3-1.5-2.7-3.2-4c-0.5-0.4-1-0.7-1.4-0.7l-1.2-0.1c-0.2,0-0.4-0.2-0.4-0.3c0-0.3,0.2-0.4,0.7-0.4c1.7,0,3.4,0.3,5.8,1.1
				c2.2,0.7,3.3,1,4.4,1c3.3,0,5.3-1.7,5.3-4.6c0-1.4-0.5-3.2-1.3-4.4c-0.6-1-1.7-2-3.1-2.9c-0.2-0.1-0.4-0.2-0.5-0.2
				c-0.2,0-0.3,0.1-0.3,0.3l0.1,0.9l0,0.1c0,0.3-0.2,0.6-0.4,0.6c-0.4,0-0.7-0.4-1.2-1.3c-1.2-2.6-3.2-4.1-5.2-4.1
				c-0.4,0-0.7,0.2-0.7,0.4c0,0.2,0.1,0.5,0.3,0.9c0.2,0.3,0.4,0.7,0.6,1.2c0.1,0.3,0.2,0.4,0.2,0.6c0,0.1-0.1,0.2-0.3,0.2
				c-0.3,0-0.8-0.3-1.1-0.6c-0.7-0.7-1-1-1-1.1l-0.9-1.3c-0.7-1-1.4-1.7-2.6-2.3l-1.6-0.9c-0.3-0.2-0.6-0.3-0.8-0.3
				c-0.2,0-0.3,0.1-0.3,0.3c0,0.2,0.1,0.5,0.3,0.8c0.3,0.5,0.6,1.1,0.6,1.3c0,0.2-0.1,0.4-0.3,0.4c-0.5,0-1.3-0.8-2.4-2.4
				c-0.8-1.1-1.3-2.4-1.3-3.7c0-2.8,2.1-4.9,4.9-4.9c1.4,0,3.2,0.6,4.9,1.6l3.2,1.9c1.1,0.7,2.7,1.2,3.6,1.2c0.5,0,0.7,0,1.9-0.3
				c0.3-0.1,0.6-0.2,0.9-0.3c0.1-0.1,0.2-0.2,0.2-0.4c0-0.3-0.2-0.4-0.6-0.4c-1.5-0.1-4.5-1.3-6.5-2.6c-1.2-0.7-1.9-1.2-2.2-1.2
				c-0.5-0.2-0.9-0.5-0.9-0.7c0-0.1,0.1-0.2,0.3-0.2l0.4,0.1l2.9,1l2.8,1c1.4,0.5,3.5,0.9,4.4,0.9c1.2,0,2.1-0.9,2.1-2.1
				c0-0.6-0.2-1.3-0.4-1.8c-0.4-0.8-0.9-1.4-1.1-1.4c-0.3,0-0.4,0.3-0.4,0.7l0,0.3l0.1,0.8c0,0.9-0.5,1.5-1.2,1.5
				c-0.3,0-0.7-0.1-1.1-0.2l-4.3-1.4c-3.7-1.2-5.2-1.5-7-1.5c-5.2,0-9.1,3.5-9.1,8.1c0,5.2,3.6,8.5,12.8,11.7
				c9,3.1,10.1,3.8,10.1,6.2c0,1.4-1.3,2.4-2.9,2.4c-0.6,0-1.1-0.1-1.5-0.1c-0.4-0.1-1.9-0.4-4.5-1c-2.7-0.7-5.1-0.9-8.2-0.9
				c-6.5,0-9.7,1-13.1,4.1c-0.8,0.7-1.1,0.9-2,0.9l-0.4,0l-1-0.1c-0.8,0-1.4,0.4-1.9,1.2l-1.1,1.8c-0.1,0.2-0.4,0.4-0.8,0.4
				c-0.7,0-1-0.5-1.7-2c-0.3-0.8-0.8-1.5-1.3-2l-1.4-1.2c-0.2-0.2-0.3-0.3-0.3-0.5c0-0.1,0.1-0.4,0.3-0.6c0.2-0.3,0.4-0.6,0.6-0.9
				c0.2-0.4,0.3-0.6,0.3-0.8l0.1-0.6c0.1-0.2,0.2-0.3,0.5-0.3c0.4,0,0.5,0.3,0.5,1.9c0,0.4,0.2,1,0.5,1.8l0.7,1.6
				c0.1,0.2,0.3,0.3,0.6,0.3c0.7,0,1.5-1.6,1.8-3.3c0.2-1.4,0.3-1.8,0.6-1.8c0.3,0,0.4,0.2,1,1.3c0.2,0.4,0.4,0.7,0.8,1
				c0.3,0.3,0.6,0.4,0.8,0.5l0.1,0c0.5,0,0.7-0.3,0.9-1.6l0.1-0.7l-0.1-0.9l-0.1-0.6c0-0.4,0.1-0.7,0.4-0.7c0.1,0,0.3,0.1,0.5,0.3
				l0.7,0.7c0.4,0.4,0.9,0.7,1.3,0.7c0.6,0,0.9-0.2,0.9-0.6c0-0.3-0.1-0.5-0.7-1.5c-0.1-0.1-0.2-0.4-0.5-0.9
				c-0.6-1.1-0.9-1.4-1.4-1.4l-0.7,0.1l-0.9,0.3c-0.3,0.1-0.4,0.2-0.5,0.2c-0.1,0-0.2-0.1-0.2-0.3c0-0.6,0.4-1.5,1.1-2.7
				c0.4-0.7,0.8-2.5,1.1-5.2l0.3-3.1c0.2-1.9,0.4-2.6,0.8-2.6c0.1,0,0.2,0.1,0.3,0.1l0.2,1v0.8c0,1,0.1,1.7,0.2,1.7
				c0.3,0,0.7-0.3,1.1-0.9c0.3-0.4,0.5-0.8,0.7-1.3c0.2-0.7,0.3-1.3,0.3-1.7c0-1.5-0.6-2.2-2.7-2.7c-0.2-0.1-0.3-0.1-0.4-0.2
				l-0.1-0.6v-1.1l-0.1-0.8l-0.3-0.7l-0.3-0.7l-0.5,0.3c-1.3,0.8-1.7,1.1-2.1,1.6c-0.6,0.8-0.8,0.9-1.1,0.9c-0.2,0-0.3-0.1-0.3-0.3
				l0.3-1.1l0-0.2c0-1.4-0.8-2.8-2.3-3.9l-0.5,0.5l-0.5,0.7l-0.8,0.9c-0.5,0.5-0.7,1.3-0.7,1.9l0,0.2l0,0.2c0,0.5-0.1,0.7-0.3,0.7
				l-0.1-0.1l-0.5-0.7l-0.7-0.8l-1.2-0.7l-0.6-0.5c-0.6,1.4-0.7,1.5-0.7,3.3l0,0.6c0,0.6-0.2,1-0.5,1c-0.2,0-0.4-0.1-0.8-0.3
				c-0.3-0.2-0.6-0.3-1-0.3c-1,0-1.7,0.8-1.7,1.9c0,1.2,0.3,2,1.1,3.3c0.5,0.9,1.2,1.5,1.5,1.5c0,0,0.1-0.6,0.2-1.4l-0.2-1.1l0-0.5
				c0-0.4,0.2-0.7,0.4-0.7c0.4,0,0.6,0.4,0.8,1.5l0.5,2.4l0.5,3.1c0.1,0.8,0.4,1.7,0.8,2.6c0.5,1.2,0.9,2,1.1,2.3
				c0.7,0.9,0.8,1.1,0.8,1.3c0,0.2-0.1,0.3-0.3,0.3c-0.1,0-0.3-0.1-0.6-0.2c-0.2-0.1-0.5-0.2-0.8-0.3l-0.5-0.1
				c-1.1,0-1.3,0.9-1.3,5.2c0,2.7,0.6,6.4,1.3,8.1l1.4,3.5c0.2,0.5,0.3,1.1,0.3,1.6c0,4.8-6.5,12.5-13.3,15.8
				c-2.7,1.3-3.5,2.6-3.7,6.2c1.1-0.5,1.6-0.7,2.3-0.9c1.9-0.5,2.4-0.8,2.6-1.7l0.3-0.9c0.1-0.4,0.4-0.5,1.7-1.2
				c0.5-0.3,0.9-0.6,1.1-0.9c0.3-0.6,0.6-0.8,0.8-0.8c0.2,0,0.3,0.1,0.3,0.3l0,0.1l-0.7,1.9l-0.1,0.5c0,1.4,0.8,2.5,2.2,3.2
				c0.1-0.3,0.2-0.6,0.2-0.8c0.2-1,0.5-1.7,0.7-2l1.3-1.8c0.4-0.7,0.5-1.1,0.5-2.8l-0.1-2.1l0-0.5c0-0.3,0.2-0.5,0.5-0.5
				c0.2,0,0.4,0.1,0.4,0.2l0.2,1.2c0,0.3,0.3,0.5,0.6,0.5c0.6,0,1.5-0.8,2.3-2.3c0.3-0.6,0.5-1,0.5-1.6c0-0.4-0.1-1.3-0.2-2l0-0.4
				c0-0.3,0.2-0.5,0.5-0.5c0.2,0,0.3,0.1,0.3,0.1l0.5,1.5c0.2,0.5,0.5,0.9,0.9,0.9c1,0,2.1-2.1,2.2-4.3c0.1-1.4,0.2-1.9,0.7-1.9
				c0.2,0,0.3,0.1,0.3,0.2l0.3,0.9c0.1,0.3,0.3,0.5,0.5,0.5c0.2,0,0.5-0.3,0.9-0.8c0.2-0.3,0.4-0.6,0.6-0.9c0.1-0.2,0.2-0.5,0.2-0.7
				c0-0.3-0.1-0.4-0.6-0.8c-0.5-0.4-0.7-0.8-0.7-1.4c0-1,0.4-2,1.6-4c1.1-1.8,1.2-2.1,1.5-2.1c0.2,0,0.4,0.2,0.4,0.6
				c0,0.2-0.1,0.4-0.1,0.6c-0.2,0.4-0.3,0.6-0.3,0.8c0,0.3,0.2,0.5,0.5,0.5c0.3,0,0.7-0.1,1.2-0.4c0.3-0.2,0.9-0.4,1.8-0.7
				c1.2-0.4,2-0.7,2.2-0.8c0.4-0.1,0.9-0.2,1.4-0.2c0.4,0,0.8,0,1.1,0.1c0.7,0.2,1.3,0.3,1.5,0.3c0.6,0,1.1-0.5,1.1-1
				c0-0.3-0.2-0.8-0.4-1.1c-0.3-0.5-0.5-0.9-0.6-0.9c-0.3-0.3-0.4-0.5-0.4-0.6l0.1-0.3c0.1-0.2,0.2-0.3,0.4-0.3
				c0.5,0,1.5,1.1,2.5,2.6c5.2,8.4,7.7,11.1,11.4,12.2c3.9,1.2,4.9,2,4.9,4.4c0,1.2-0.7,2.8-2.1,4.7c-2.6,3.6-3.6,5.8-3.6,8.2l0,0.5
				c0.3-0.1,0.6-0.2,0.7-0.3c0.5-0.3,0.9-0.4,1.1-0.5l1.6-0.3c0.5-0.1,0.9-0.7,0.9-1.4l0-0.1l-0.1-1.4l0-0.2c0-0.8,0.4-1.5,0.9-1.5
				c0.2,0,0.4,0.2,0.5,0.4l1.1,2.2C194.9,71.1,195.4,71.5,196.7,72.1"/>
			<path class="st2" d="M142.8,27.1l-0.1,1.1l0,0.6c0,1.1,0.2,1.5,0.6,1.5c0.4,0,1.1-0.8,1.4-1.7c0.2-0.6,0.3-1.3,0.3-1.8
				c0-0.3-0.1-0.6-0.3-1.2c-0.3-0.7-0.6-1.1-1-1.1C143.2,24.5,143,25.2,142.8,27.1"/>
			<path class="st2" d="M138.3,14.9l0.9,0.9c1.3,1.3,2.3,4.1,2.3,6.7l0,1.1l-0.2,3.1l-0.1,2.6c0,8.6,2.5,14.4,6.2,14.4
				c0.9,0,2.1-0.8,2.8-2.1c0.2-0.3,0.4-0.5,0.5-0.5c0.2,0,0.3,0.2,0.3,0.5l0.1,1.4l0.1,1.2c0.1,0.6,0.1,1,0.2,1.4
				c0.1,0.6,0.2,1.1,0.2,1.3c0,0.7-0.1,0.7-1.7,0.9c-0.6,0.1-1.2,0.3-1.8,0.7c-1,0.7-1.6,1.1-1.7,1.3l-0.7,1.5
				c-0.1,0.2-0.3,0.3-0.4,0.3c-0.4,0-0.9-0.6-1.6-1.8c-0.7-1.2-1-1.8-1-2.1c0-0.2,0.2-0.3,0.6-0.3l0.1,0l0.8,0.1l0.6-0.1l0.5-0.1
				c0.2-0.1,0.4-0.2,0.4-0.5c0-0.2-0.1-0.3-0.3-0.4l-3-1.3c-0.7-0.3-1.5-1.1-2.2-2.2c-0.8-1.2-1.2-2.3-1.2-2.9
				c0-0.5,0.2-0.8,0.5-0.8c0.1,0,0.3,0,0.5,0.1c0.3,0.2,0.6,0.3,0.8,0.3c0.1,0,0.2,0,0.4-0.1c0.1-0.1,0.2-0.2,0.2-0.3
				c0-0.2-0.2-0.4-0.5-0.7c-2.5-1.7-4-3.9-4-5.6c0-0.5,0.1-0.7,0.4-0.7l0.5,0c0.4,0.1,0.8,0.1,0.9,0.1c0.4,0,0.6-0.2,0.6-0.5
				c0-0.2-0.2-0.4-0.6-0.6c-1.6-0.8-2-1.3-3.1-3.6c-0.8-1.8-1.2-2.5-1.9-3.4c0.9-0.4,1.3-0.5,2-0.5c0.9,0,1.5,0.6,2.1,2.2
				c0.4,1,0.8,1.7,1.1,1.7c0.1,0,0.2-0.2,0.2-0.8c0-0.7-0.1-1.3-0.3-2c-0.2-0.6-0.2-1.1-0.2-1.5l-0.1-0.9l-0.7-0.4
				c-0.7-0.4-1.1-1.2-1.1-2.2c0-0.4,0-0.8,0.1-1.2c0-0.1,0.2-0.6,0.4-1.5c0.3-1.1,0.5-2.2,0.5-2.8l0-0.6L138.3,14.9z"/>
			<path class="st2" d="M146.2,62.3c-1.4-0.2-1.6-0.3-3.2-1c-1.1-0.5-1.8-0.7-2.5-0.7c-1,0-1.8,0.3-2.8,1.1l0.6,0.5l1.3,0.9l1.3,1
				c0.3,0.3,0.7,0.4,1.1,0.4C143.3,64.5,144.4,63.9,146.2,62.3"/>
			<path class="st2" d="M171.5,74.3c0.4-0.8,0.5-1,1.3-1.7c1.8-1.6,2.7-2.7,2.7-3.7v-0.7v-0.8c0-0.8,0.1-1.1,0.6-1.1
				c0.2,0,0.4,0.1,0.4,0.2l0.3,0.8c0.1,0.2,0.3,0.3,0.6,0.3c0.5,0,0.8-0.3,1.6-1.7c0.3-0.6,0.5-0.9,0.5-1.3c0-0.2-0.1-0.5-0.2-0.7
				c0-0.1-0.2-0.5-0.5-1c-0.1-0.3-0.3-0.8-0.3-1c0-0.4,0.2-0.7,0.6-0.7c0.2,0,0.4,0.1,0.5,0.2l0.5,0.7c0.1,0.1,0.1,0.2,0.3,0.2
				c0.2,0,0.7-0.2,0.8-0.6l0.5-1.1c0.1-0.3,0.2-0.5,0.2-0.6c0-0.2-0.2-0.4-0.5-0.6l-0.9-0.4c-1.1-0.5-2-2.3-2-4.1
				c0-0.2,0.1-0.5,0.2-0.9l0.4-1.1c0.1-0.4,0.2-0.7,0.2-1.1c0-0.6-0.2-1.3-0.7-2c-0.5-0.7-0.7-1.2-0.8-1.4c-0.4-1-0.6-1.3-0.9-1.3
				c-0.2,0-0.5,0.1-0.8,0.3l-0.7,0.4l-0.9,1.1l-0.9,0.5c-0.5,0.3-1.1,1.5-1.1,2.5c0,1.4,0.3,2.2,2.5,6c0.9,1.6,1.3,2.8,1.3,3.7
				c0,2.7-2.7,4.9-7.2,5.8c-5.3,1.1-6.5,2-7.1,5.4c0.9-0.5,1.3-0.5,2.9-0.5l1,0l0.2,0c0.9,0,1-0.1,1.6-0.9c0.6-0.9,1.3-1.5,2.2-1.8
				l1.1-0.5l0.9-0.5l0.3-0.1c0.2,0,0.4,0.1,0.4,0.3c0,0.2-0.2,0.6-0.6,1.1c-0.6,0.8-1,1.6-1,2.2C170.8,73,171,73.5,171.5,74.3"/>
			<path class="st2" d="M163.2,64.1c0.8,0.5,1.5,1.2,2,1.8c0.6,0.9,0.7,0.9,1.3,0.9c0.3,0,0.6,0,1-0.1l0.6-0.1
				c1.1-0.2,1.5-0.4,1.5-0.7c0-0.2-0.1-0.4-0.3-0.5l-0.8-0.7l-0.7-0.7c-0.4-0.4-1.4-0.7-2.1-0.7C164.9,63.3,164.2,63.5,163.2,64.1"
				/>
			<path class="st2" d="M184.5,67.6l0.4-0.1l0.7-0.1l0.5,0.1l0.4,0c0.7,0,1-0.1,1.3-0.3c0.4-0.3,0.8-0.8,1.3-1.5
				c0.2-0.3,0.3-0.5,0.3-0.7c0-0.4-0.4-0.7-1.1-0.7C186.3,64.3,185.2,65.3,184.5,67.6"/>
			<path d="M160,22.2c0.1,0.6,0.4,1.1,0.7,1.1c0.3,0,0.7-0.9,1.4-2.1c0.9-1.6,1.7-2.9,1.7-3.7c0-0.3-0.1-0.5-0.3-0.5l-0.1,0
				l-0.7,0.7c-0.4,0.4-1.3,0.9-2.2,1.2c-0.8,0.3-1.1,0.6-1.1,1.1l0.1,0.5l0.5,1.1L160,22.2z"/>
			<path d="M154.2,17.3c-0.2-0.2-0.6-0.3-0.7-0.3c-0.3,0-0.4,0.1-0.4,0.5l0,0.2c0.1,0.4,0.1,0.7,0.3,1.1c0.3,1,0.7,1.7,0.9,1.8
				l1,1.7c0.5,0.5,1.2,0.8,1.4,0.9l0,0c0.2,0,0.3-0.1,0.3-0.3l0.2-1.3l0.3-1.2l0-0.3c0-0.3-0.2-0.6-0.5-0.8l-1.1-0.6L154.2,17.3z"/>
			<path d="M158.6,25.7l-0.3,0l-0.8-0.1c0,0-0.3-0.2-0.8-0.5c-0.3-0.2-0.6-0.3-0.9-0.3c-0.6,0-1,0.4-1,1c0,0.5,0.3,1.4,0.8,2.7
				c0.2,0.6,0.5,1.3,0.9,2.1c0.7,1.8,1.5,2.6,2.5,2.6c0.9,0,1.5-0.7,2.1-2.1l0.7-3c0.3-0.9,1.2-1.3,1.2-2c0-0.8-0.8-1.5-1.6-1.5
				l-0.4,0.1l-1,0.7L158.6,25.7z"/>
			<path class="st2" d="M158.5,27.5h-0.8c-0.1,0-0.2,0.1-0.3,0.2c-0.1,0.2-0.2,0.3-0.2,0.3l0.3,1.6l0.3,1.4c0.1,0.8,0.3,1.1,0.8,1.1
				c0.6,0,1.2-0.4,1.3-1.2l0.1-1.4c0.1-1,0.1-1.5,0.1-1.5c0-0.1-0.1-0.3-0.2-0.4c-0.1-0.1-0.2-0.1-0.3-0.1l-0.1,0L158.5,27.5z"/>
		</g>
		<g id="Lion_top_left_00000015342844036438782260000007921551876067218356_">
			<path d="M67.6,43.4l0.3,1c0.2,0.9,0.4,1.6,0.5,2.1c0.8,3.8,1.5,4.7,3.3,4.7c1,0,1.9-0.6,2.2-1.5l0.4-1.3c0.1-0.3,0.3-0.5,0.6-0.5
				c0.7,0,1,0.7,1.1,2.4c0,0.5,0.2,1.5,0.5,3.2c0.2,1,0.3,2,0.3,2.9c0,0.8-0.1,1.2-0.4,2.1c0.2,1.3,0.4,3,0.4,4
				c0,1.6-0.3,3.1-0.8,3.9c0.3,1.1,0.3,1.5,0.3,2.5c0,0.7-0.1,1.5-0.2,2.2c-0.3,1.6-0.3,2-0.3,2.3c0,0.3,0.1,0.6,0.2,0.9
				c0.1,0.4,0.2,0.6,0.2,0.8c0,0.2-0.1,0.3-0.2,0.3l-1.3-0.5l-1.4-0.8c-0.5-0.3-0.8-0.5-1.5-1.2c-1.3,1.1-1.7,1.3-5,2.2
				c-0.7,0.2-1.2,0.4-1.4,0.6c-0.4,0.3-0.7,0.5-0.9,0.5c-0.6,0-0.8-0.9-0.8-2.8c0-1.4,0.1-2.7,0.4-3.7c-1-0.4-1.8-0.6-2.3-0.6
				c-0.1,0-0.4,0-1,0.1l-0.2,0c-0.2,0-0.4-0.3-0.4-0.6c0-0.3,0.2-0.9,0.4-1.4l0.7-1.6c0.2-0.6,0.8-1.2,1.6-1.9
				c0.6-0.6,1.2-0.9,1.7-1l2.4-0.5c1.4-0.3,2.2-1,2.2-2c0-0.9-0.6-1.6-2-2.1l-2.8-1c-0.7-0.3-1.6-0.7-2.6-1.2
				c-1.6-0.9-1.8-1.1-2.2-1.1c-0.6,0-0.9,0.4-0.9,1.2c0,1.2,0.8,2,1.8,2c0.2,0,0.4,0,0.7-0.1c0.3-0.1,0.6-0.2,0.7-0.2
				c0.3,0,0.5,0.2,0.5,0.5l0,0.3l-0.1,1.1c-0.1,1-0.7,2.1-2.1,3.9l-0.6,0.8c-0.5,2.1-1.9,4-3.5,5.2c-0.4,0.3-0.7,0.5-0.7,0.5
				c-0.1,0.1-0.2,0.4-0.5,0.9c-0.1,0.3-0.6,0.8-1.3,1.6c-0.6,0.6-1.1,1.1-1.6,1.5c-0.7,0.6-1.2,1-1.3,1.2l-0.7,1.1
				c-0.1,0.2-0.3,0.3-0.5,0.3c-0.6,0-1.1-0.6-1.4-1.6c-0.2-0.8-0.5-1-1-1c-0.3,0-0.6,0.1-1.1,0.2l-0.9,0.1H42
				c-1.2,0-2.9,0.3-3.6,0.7c-0.3,0.1-0.5,0.2-0.7,0.2c-0.2,0-0.3-0.1-0.4-0.4c-0.1-0.2-0.1-0.3-0.1-0.5c0-1.2,0.9-3.5,2-5.3
				c0.7-1.1,0.9-1.4,1.8-2.1c-0.3-1.1-1-2-1.8-2.2l-1.1-0.3c-0.2,0-0.3-0.2-0.3-0.3c0-0.3,0.5-0.8,1.5-1.3c1.3-0.7,2.6-1.1,3.6-1.1
				c1.1,0,2.1,0.4,3.4,1.4c1.8,1.4,2.3,1.6,3.1,1.6c1.4,0,2.7-1.3,2.7-2.6c0-0.9-0.5-1.9-1.7-3.5c-1.8-2.4-2.4-3.6-2.4-5.3
				c0-1.1,0.3-2.5,0.7-3.1l0.7-1c0.1-0.2,0.2-0.4,0.2-0.6c0-0.4-0.5-0.8-1.2-0.8c-1,0-3,0.7-4.6,1.7c-0.8,0.5-1.3,1-1.3,1.4
				c0,0.2,0.1,0.4,0.3,0.5l0.7,0.5c0.1,0.1,0.1,0.2,0.1,0.3c0,0.1-0.1,0.3-0.3,0.5l-1.3,1.7c-0.7,0.9-1.7,2-2.8,2.9
				c-0.3,0.3-0.6,0.5-0.7,0.7c0,0-0.2,0.3-0.5,1c-0.5,0.9-1.7,2.1-2.9,3c-0.5,0.3-0.8,0.6-0.9,0.7c-0.1,0.1-0.3,0.4-0.5,0.9
				c-0.2,0.3-0.5,0.8-0.9,1.4c-0.6,1-1.2,1.6-1.6,2l-1.8,1.8c-0.6,0.6-1.1,1.7-1.8,4.1c-0.5,1.5-0.9,2.3-1.1,2.3
				c-0.1,0-0.3-0.1-0.5-0.4c-1.3-1.5-2.4-2.4-3-2.4c-0.1,0-0.4,0.1-0.7,0.3c-0.5,0.3-1.1,0.5-1.8,0.7l-2.4,0.5
				c-1.8,0.3-2.6,0.7-3.6,2c-0.3,0.3-0.5,0.5-0.6,0.5c-0.2,0-0.3-0.3-0.3-0.8l0.1-0.6l0.3-1.8c0.3-1.9,0.8-3.3,1.3-4.3l1.1-2
				c0.2-0.4,0.3-0.8,0.3-1.1c0-1.5-1.6-2.9-3.5-3.1c-0.5,0-0.7-0.2-0.7-0.4c0-0.3,0.5-1,1.3-1.5c1.3-1,3-1.7,4.1-1.7
				c0.7,0,1.7,0.3,3,0.8l1.4,0.6c0.5,0.2,1,0.3,1.5,0.3c1.5,0,3-1.4,4.8-4.5c0.8-1.4,1.2-2.5,1.2-3.4c0-1.7-0.8-2.7-2.1-2.7
				c-1,0-2.1,0.5-2.8,1.2c-0.7,0.7-1,1.4-1,2l0,0.7l0,0.2c0,0.6-0.2,1-0.6,1c-0.6,0-1.5-0.9-4.1-4c-1.9-2.3-2.4-3.3-2.4-5.7
				c-2.2-2.8-2.8-4-2.8-6.1l0.1-1.4c-1.5-1.9-2-2.9-2-4.6c0-0.6,0.1-1,0.5-1.7c-0.8-1.2-1-1.7-1.2-2.6L10.9,28
				c-0.2-0.9-0.6-1.8-1.1-2.4c-0.6-0.8-0.7-1-0.7-1.3c0-0.8,0.5-1.1,2.8-1.6c-0.1-0.6-0.1-1.1-0.1-1.5c0-0.4,0-0.8,0.2-1.6l0.5-2.4
				c0.2-1,0.3-1.7,0.3-2.1c0-0.5-0.1-0.8-0.5-2.1c-0.2-0.8-0.4-1.3-0.6-1.5c-0.2-0.3-0.4-0.8-0.4-0.9c0-0.2,0.2-0.4,0.5-0.4
				c0.7,0,2.4,1,4.2,2.5c3.8,3.1,4.6,4.4,5.1,8.1c0,0.3,0.1,0.7,0.2,1.3c1.8,1.3,2.8,2.9,2.8,4.7c0,1.4-0.5,2.9-1.3,4.2l-1.3,2
				c-0.4,0.6-0.6,1.3-0.6,2.2c0,1.2,0.4,2.4,1.2,3.9c1,1.8,1.9,2.5,2.9,2.5c1.7,0,3.3-3,3.3-6.4v-0.5l0-1.2c0-0.7,0-1.3,0.1-2.2
				c0.1-1,0.2-1.7,0.2-1.9l0.1-1.6l0-1c0-0.4-0.2-0.7-0.7-1.3l-1.4-1.6c-2.1-2.3-3.2-4.4-3.2-6c0-2,1.4-3.5,3.4-3.5
				c0.4,0,0.7,0.1,1.4,0.3v-0.4c0-2.9,0.6-5,1.4-5l0.3,0.1l1.2,1l1.4,0.9l0.4,0.4c0-0.8,0-0.9,0.9-1.8c0.2-0.2,0.5-0.6,0.9-1.2
				c0.3-0.5,0.6-0.8,0.7-1c0.1-0.2,0.2-0.4,0.3-0.6c0.2-0.3,0.3-0.5,0.5-0.5c0.2,0,0.3,0.2,0.6,1C36.8,8,36.9,8.2,38,9.2
				c0.4,0.4,0.7,0.6,0.8,0.9c0.1,0.2,0.3,0.6,0.5,1.3c0,0.1,0.1,0.3,0.2,0.5c0.5-0.6,0.7-0.8,1.3-1.2l1-0.6c0.4-0.2,0.6-0.3,0.7-0.3
				c0.1,0,0.2,0.2,0.3,0.4c0.1,0.2,0.3,0.6,0.5,1c0.7,1.2,0.9,1.8,0.9,2.4l0,0.6V15c2.2,0.7,3,1.8,3,4.1c0,1.7-0.9,3.6-2.6,5.6
				c-1.1,1.3-1.3,1.6-1.3,2.5c0,4.9,3.4,7.7,9.3,7.8l4.4,0.1c2.8,0,4.5,0.3,7.2,1.2c3.1,1,4,1.3,4.9,1.3c0.3,0,0.6-0.1,0.9-0.3
				c0.2-0.2,0.4-0.4,0.4-0.6c0-0.9-1.6-1.7-6.9-3.2c-10.8-3.1-15.4-7.4-15.4-14.6c0-5.6,4.6-9.8,10.6-9.8c1.9,0,4.9,0.5,6.6,1.1
				l2.7,1c0.5,0.2,1,0.3,1.4,0.3c0.9,0,1.4-0.8,1.4-2.3c0-0.8,0.2-1.1,0.7-1.1c0.8,0,1.9,0.9,3,2.4c1.1,1.5,1.8,3.2,1.8,4.3
				c0,1.5-0.7,2.5-2.3,3.4c-1.5,2.2-3.3,3.3-5.7,3.3c-1.9,0-4.6-1.1-9.1-3.6c-1.6-0.9-2.3-1.2-3.2-1.2c-1.2,0-1.9,0.7-1.9,1.7
				c0,0.9,0.7,1.6,2.7,2.2c2.8,1,3.5,1.4,4.7,2.6c3.3,0.6,4.8,1.2,6.9,2.8c5.8,1.8,9.3,5.8,9.3,10.3c0,4.4-3,7.5-7.1,7.5
				C69.7,43.8,69.1,43.7,67.6,43.4"/>
			<path class="st2" d="M74.1,72.1c-0.2-0.8-0.2-1.2-0.2-1.6l0-0.5l0.2-1.1l0.1-0.8c0-0.9-0.2-1.6-0.5-2l-0.8-1.1
				c-0.3-0.4-0.5-0.8-0.7-1.3c-0.1-0.2-0.1-0.4-0.1-0.6c0-0.3,0.2-0.5,0.5-0.5c0.2,0,0.2,0,0.8,0.4c0.3,0.2,0.5,0.2,0.6,0.2
				c0.4,0,0.6-0.6,0.6-1.8c0-1.3-0.1-2-0.4-2.3l-1-1.1l-0.9-0.7c-0.2-0.2-0.3-0.4-0.3-0.6c0-0.3,0.2-0.5,0.5-0.5
				c0.3,0,0.9,0.1,1.5,0.3l0.3,0.1c0.3,0,0.4-0.2,0.4-0.5l0-0.2l-0.2-1.4l-0.4-1.4c-0.1-0.5-0.2-0.5-0.5-0.5l-0.2,0l-1.6,0.3l-0.3,0
				c-2.2,0-4.4-1.8-5.1-4.1l-1.3-4.3c-0.4-1.3-1.4-2.6-3.2-4c-0.5-0.4-1-0.7-1.3-0.7l-1.2-0.1c-0.2,0-0.4-0.1-0.4-0.3
				c0-0.3,0.3-0.4,0.8-0.4l2.2,0.2c0.8,0.1,2,0.4,3.5,0.9c2,0.7,3.3,1,4.4,1c3.3,0,5.3-1.8,5.3-4.8c0-2-1.1-4.3-2.7-5.8
				c-0.9-0.8-1.9-1.5-2.2-1.5c-0.2,0-0.3,0.2-0.3,0.3l0.1,0.8l0,0.1c0,0.3-0.2,0.6-0.4,0.6c-0.3,0-0.7-0.4-1.1-1.3
				c-1.2-2.6-3.2-4.1-5.3-4.1c-0.3,0-0.6,0.1-0.6,0.3c0,0.1,0.1,0.5,0.3,1l0.5,1.2c0.1,0.3,0.2,0.5,0.2,0.6c0,0.1-0.1,0.1-0.3,0.1
				c-0.3,0-0.8-0.3-1.1-0.6l-1-1.1l-0.9-1.3c-0.7-1-1.2-1.5-2.7-2.3c-0.8-0.4-1.3-0.7-1.6-0.9c-0.3-0.2-0.6-0.3-0.8-0.3
				c-0.2,0-0.4,0.1-0.4,0.3c0,0.2,0.1,0.5,0.3,0.7c0.5,0.8,0.7,1.1,0.7,1.3c0,0.2-0.2,0.4-0.3,0.4c-0.5,0-1.6-1-2.5-2.4
				c-0.8-1.2-1.2-2.4-1.2-3.7c0-2.8,2.1-4.9,4.9-4.9c1.4,0,3.3,0.6,4.9,1.6l3.1,1.9c1.1,0.7,2.7,1.2,3.6,1.2c0.4,0,1.3-0.1,1.9-0.3
				c0.3-0.1,0.6-0.2,0.8-0.3c0.2-0.1,0.3-0.3,0.3-0.4c0-0.1-0.1-0.3-0.2-0.3L71,17.5l-1.4-0.3c-0.4-0.1-1-0.3-1.8-0.7
				c-1.7-0.8-2.8-1.3-3.3-1.6c-1.1-0.7-1.8-1.1-2.2-1.2c-0.5-0.2-0.9-0.4-0.9-0.6c0-0.2,0.1-0.3,0.3-0.3c0.2,0,0.4,0.1,0.7,0.3
				c1,0.6,1.8,0.9,2.4,0.9l2.8,1c1.4,0.5,3.4,0.9,4.4,0.9c1.2,0,2.2-1,2.2-2.2c0-0.8-0.5-1.9-1.1-2.9c-0.2-0.2-0.3-0.3-0.4-0.3
				c-0.3,0-0.4,0.2-0.4,0.5l0.1,0.5l0.1,0.8c0,0.9-0.6,1.5-1.3,1.5c-0.3,0-0.6-0.1-1-0.2l-4.3-1.4c-3.6-1.2-5.2-1.5-7-1.5
				c-5.1,0-9,3.5-9,8.1c0,5.2,3.7,8.6,12.8,11.7c8.9,3.1,10.2,3.8,10.2,6.1c0,1.3-1.3,2.5-2.8,2.5c-0.6,0-1.1-0.1-1.6-0.1
				c-0.3-0.1-1.8-0.4-4.5-1c-2.7-0.6-5.2-0.9-8.2-0.9c-6.4,0-10,1.1-13.1,4.1c-0.8,0.8-1,0.9-1.9,0.9l-0.4,0L39.2,42l-0.1,0
				c-0.8,0-1.3,0.4-1.9,1.2c-0.7,1.1-1.1,1.7-1.1,1.8c-0.2,0.2-0.5,0.4-0.8,0.4c-0.6,0-0.9-0.4-1.6-2c-0.3-0.8-0.8-1.4-1.4-2
				l-1.3-1.2c-0.2-0.2-0.3-0.4-0.3-0.5c0-0.1,0.1-0.4,0.3-0.6c0.6-0.9,0.8-1.3,0.9-1.7c0.2-0.9,0.2-0.9,0.6-0.9
				c0.4,0,0.5,0.4,0.6,1.9c0,0.4,0.2,1,0.5,1.8l0.7,1.6c0.1,0.2,0.3,0.3,0.6,0.3c0.7,0,1.5-1.6,1.8-3.3c0.2-1.4,0.3-1.8,0.6-1.8
				c0.1,0,0.2,0,0.3,0.1c0.1,0.1,0.3,0.5,0.6,1.2c0.2,0.4,0.5,0.7,0.9,1c0.4,0.3,0.6,0.4,0.8,0.5l0.1,0c0.5,0,0.7-0.3,0.8-1.6
				l0.1-0.7l-0.1-0.9l-0.1-0.6c0-0.4,0.1-0.7,0.4-0.7c0.1,0,0.3,0.1,0.5,0.3l0.7,0.7c0.4,0.4,0.9,0.7,1.3,0.7c0.5,0,0.9-0.2,0.9-0.6
				c0-0.3-0.1-0.6-0.6-1.5l-0.5-0.9c-0.5-1-0.9-1.4-1.4-1.4l-0.7,0.1l-0.8,0.3c-0.2,0.1-0.4,0.2-0.5,0.2c-0.1,0-0.2-0.1-0.2-0.3
				c0-0.6,0.4-1.5,1.1-2.7c0.5-0.8,0.9-2.6,1.1-5.2c0.2-3.4,0.7-5.7,1.2-5.7c0.3,0,0.4,0.3,0.4,1l0,0.9l0,0.6c0,0.6,0.1,1.1,0.3,1.1
				c0.6,0,1.2-0.8,1.8-2.2c0.2-0.6,0.3-1,0.3-1.3L45.7,19l-1.3-2.4l-1.3-0.4c-0.2-0.1-0.4-0.2-0.5-0.3V15v-0.7l-0.1-0.8l-0.3-0.7
				l-0.3-0.7c-1.4,0.8-2.1,1.3-2.6,2c-0.5,0.7-0.8,1-1.1,1c-0.2,0-0.3-0.2-0.3-0.3c0-0.2,0.1-0.5,0.2-1.1l0-0.4
				c0-1.4-0.9-2.8-2.3-3.7L35.4,10L35,10.7l-0.8,0.9c-0.3,0.3-0.5,0.7-0.7,1.3c-0.1,0.3-0.1,0.5-0.1,0.8l0,0.1l0,0.2
				c0,0.5-0.1,0.7-0.3,0.7l-0.2-0.1L32.5,14l-0.7-0.8l-1.1-0.7L30,12c-0.1,0.3-0.2,0.5-0.3,0.6c-0.2,0.5-0.3,0.8-0.3,1.1l-0.1,1.1
				l-0.1,1.1l0,0.2c0,0.6-0.1,0.8-0.5,0.8c-0.1,0-0.4-0.1-0.8-0.3c-0.3-0.2-0.6-0.3-1-0.3c-1,0-1.7,0.7-1.7,1.8
				c0,1.3,0.4,2.6,1.1,3.4l0.9,1.1c0.2,0.3,0.7,0.6,0.7,0.4l0.2-1.4L28,20.5l0-0.5c0-0.4,0.1-0.7,0.4-0.7c0.4,0,0.6,0.4,0.8,1.5
				l0.5,2.4l0.5,3.1c0.1,0.8,0.4,1.7,0.8,2.6c0.5,1.2,0.9,2,1.1,2.3c0.7,0.9,0.8,1.1,0.8,1.3c0,0.2-0.1,0.3-0.3,0.3
				c-0.1,0-0.3-0.1-0.6-0.2c-0.2-0.1-0.5-0.2-0.8-0.3l-0.5-0.1c-1.1,0-1.3,0.9-1.3,5.3c0,2.7,0.6,6.3,1.3,8.1l1.4,3.5
				c0.2,0.5,0.3,1.1,0.3,1.6c0,4.8-6.4,12.3-13.3,15.8c-2.6,1.3-3.4,2.5-3.6,5.4l-0.1,0.9c1.1-0.6,1.5-0.7,2.2-0.9
				c2-0.5,2.3-0.8,2.6-1.7l0.3-0.9c0.1-0.3,0.3-0.4,1.8-1.2c0.5-0.3,0.9-0.6,1.1-0.9c0.3-0.6,0.6-0.8,0.8-0.8c0.2,0,0.3,0.1,0.3,0.2
				l-0.1,0.2l-0.7,1.9l-0.1,0.5c0,1.4,0.8,2.5,2.2,3.3c0.2-1.5,0.4-2,0.9-2.8l1.2-1.8c0.4-0.7,0.6-1.5,0.6-2.8
				c0-0.7-0.1-1.5-0.2-2.1l0-0.5c0-0.3,0.2-0.5,0.5-0.5c0.2,0,0.4,0.1,0.4,0.2l0.3,1.2c0.1,0.3,0.3,0.5,0.6,0.5
				c0.6,0,1.5-0.8,2.3-2.3c0.3-0.6,0.5-1.1,0.5-1.7l-0.1-0.9l-0.2-1l0-0.2c0-0.4,0.2-0.7,0.6-0.7c0.2,0,0.3,0.1,0.3,0.1l0.4,1.5
				c0.1,0.5,0.5,0.9,0.9,0.9c0.4,0,1.2-0.8,1.6-1.6c0.4-0.8,0.6-1.7,0.6-2.7c0-1.4,0.1-1.8,0.7-1.8c0.2,0,0.3,0.1,0.3,0.2l0.3,0.9
				c0.1,0.3,0.3,0.5,0.5,0.5c0.3,0,1-0.8,1.5-1.6c0.1-0.2,0.2-0.4,0.2-0.6c0-0.3-0.2-0.6-0.6-0.9C39.1,51.1,39,51,39,50.2
				c0-0.8,0.1-1.3,0.7-2.3c0.3-0.6,0.6-1.1,0.9-1.6c0.8-1.6,1.1-2,1.4-2c0.3,0,0.5,0.3,0.5,0.6c0,0.2,0,0.4-0.1,0.5
				c-0.2,0.4-0.3,0.6-0.3,0.8c0,0.3,0.2,0.5,0.5,0.5c0.3,0,0.7-0.1,1.2-0.4c0.2-0.1,0.8-0.3,1.8-0.7l2.2-0.8
				c0.4-0.1,0.8-0.2,1.3-0.2c0.4,0,0.8,0,1.2,0.1c0.8,0.2,1.3,0.3,1.5,0.3c0.6,0,1.1-0.5,1.1-1.1c0-0.4-0.5-1.3-1.1-2
				c-0.2-0.3-0.3-0.5-0.3-0.6l0.1-0.3c0.1-0.2,0.2-0.3,0.3-0.3c0.4,0,1.5,1.1,2.4,2.6c5.7,8.9,7.7,11.1,11.5,12.2
				c3.9,1.2,4.9,2.1,4.9,4.4c0,1.3-0.6,2.7-2,4.7c-2.9,4-3.6,5.6-3.6,8.3l0,0.5c0.3-0.1,0.6-0.2,0.7-0.3c0.5-0.3,0.9-0.4,1-0.5
				l1.6-0.3c0.5-0.1,0.9-0.7,0.9-1.3l0-0.2l-0.2-1.4l0-0.2c0-0.5,0.3-1.1,0.6-1.4c0.1-0.1,0.2-0.1,0.3-0.1c0.2,0,0.4,0.2,0.5,0.4
				l1.1,2.2C72.2,71.1,72.7,71.5,74.1,72.1"/>
			<path class="st2" d="M21.1,24.5c-0.5,0-0.7,0.4-0.8,1.3l-0.1,1.2C20,28.2,20,28.3,20,28.6c0,0.9,0.3,1.6,0.7,1.6
				c0.4,0,1.1-0.8,1.4-1.7c0.2-0.6,0.3-1,0.3-1.5c0-0.4-0.1-1-0.3-1.5C21.8,24.9,21.5,24.5,21.1,24.5"/>
			<path class="st2" d="M15.6,14.9l0.9,0.9c1.5,1.5,2.2,4,2.2,7.5c0,0.8,0,1.3-0.2,3.4c-0.1,1.1-0.1,2-0.1,2.7
				c0,8.2,2.6,14.3,6.2,14.3c1.1,0,1.8-0.5,2.9-2.1c0.2-0.3,0.4-0.5,0.6-0.5c0.2,0,0.3,0.2,0.3,0.5l0.1,1.4l0.1,1.2l0.1,1.4L29,47
				l0,0.2c0,0.4-0.2,0.6-0.5,0.6L27.3,48c-0.6,0.1-1.2,0.3-1.8,0.7c-1,0.6-1.6,1.1-1.7,1.3l-0.7,1.5c-0.1,0.2-0.3,0.3-0.4,0.3
				c-0.4,0-1-0.7-1.7-1.8c-0.6-1-1-1.8-1-2.1c0-0.2,0.2-0.3,0.6-0.3h0.1l0.9,0.1l0.5-0.1l0.6-0.1c0.2,0,0.4-0.2,0.4-0.5
				c0-0.2-0.1-0.3-0.3-0.4l-3-1.3c-0.9-0.4-1.7-1.1-2.2-2.2c-0.8-1.6-1.2-2.5-1.2-3c0-0.4,0.2-0.7,0.5-0.7c0.1,0,0.3,0,0.5,0.1
				c0.3,0.1,0.7,0.3,0.8,0.3c0.3,0,0.5-0.2,0.5-0.4c0-0.2-0.2-0.5-0.5-0.7c-2.5-1.8-3.9-3.8-3.9-5.6c0-0.5,0.1-0.7,0.4-0.7l0.5,0.1
				l0.9,0.1h0c0.3,0,0.6-0.2,0.6-0.5c0-0.2-0.2-0.4-0.5-0.6c-0.6-0.3-0.9-0.5-1.1-0.6c-0.4-0.2-0.7-0.5-0.9-0.9
				C14,30,13.6,29.3,13,28l-0.9-1.8c-0.3-0.7-0.5-1-0.6-1.1c-0.1-0.1-0.2-0.3-0.4-0.5c0.9-0.4,1.3-0.5,2-0.5c0.9,0,1.5,0.6,2.1,2.2
				c0.4,1,0.8,1.7,1.1,1.7c0.1,0,0.2-0.2,0.2-0.8c0-0.6-0.1-1.3-0.3-2c-0.2-0.6-0.2-1.1-0.2-1.5l-0.1-0.9l-0.8-0.4
				c-0.2-0.1-0.4-0.3-0.6-0.7c-0.4-0.6-0.5-1.1-0.5-1.5c0-0.3,0.1-0.7,0.2-1.2c0.7-2.5,0.9-3.5,0.9-4.3l0-0.6L15.6,14.9z"/>
			<path class="st2" d="M23.5,62.3c-0.9-0.1-1.3-0.2-1.9-0.5c-0.2-0.1-0.6-0.2-1.2-0.5c-1.1-0.5-1.9-0.7-2.5-0.7
				c-1,0-1.8,0.3-2.7,1.1l0.6,0.5l1.3,0.9l1.3,1c0.3,0.3,0.7,0.4,1.1,0.4C20.6,64.5,21.8,63.9,23.5,62.3"/>
			<path class="st2" d="M48.8,74.3c0.4-0.8,0.5-1,1.3-1.7c1.8-1.6,2.7-2.7,2.7-3.7v-0.7v-0.8c0-0.8,0.1-1.1,0.6-1.1
				c0.2,0,0.4,0.1,0.4,0.2l0.3,0.8c0.1,0.2,0.3,0.3,0.6,0.3c0.3,0,0.6-0.3,1-0.8l0.7-0.9c0.3-0.5,0.5-0.9,0.5-1.3
				c0-0.3-0.1-0.5-0.1-0.8c-0.1-0.1-0.2-0.5-0.5-1c-0.2-0.3-0.3-0.8-0.3-1c0-0.4,0.2-0.7,0.6-0.7c0.2,0,0.4,0.1,0.5,0.2l0.5,0.7
				c0.1,0.1,0.3,0.2,0.5,0.2c0.2,0,0.5-0.2,0.7-0.6l0.5-1.1c0.1-0.3,0.2-0.5,0.2-0.6c0-0.2-0.2-0.4-0.6-0.6L58,59
				c-1.1-0.5-2-2.3-2-4.2c0-0.3,0.1-0.5,0.1-0.7l0.5-1.1c0.1-0.3,0.2-0.7,0.2-1c0-0.7-0.2-1.4-0.7-2c-0.5-0.8-0.8-1.3-0.9-1.4
				c-0.4-1-0.6-1.3-0.9-1.3L54,47.2l-0.5,0.3l-0.7,0.4L52,48.9l-0.9,0.5c-0.6,0.3-1.1,1.4-1.1,2.4c0,1.7,0.2,2.2,2.4,6.1
				c0.9,1.5,1.3,2.8,1.3,3.8c0,2.7-2.4,4.6-7.3,5.8l-3,0.7c-2.2,0.5-3.5,2.1-4,4.7c0.9-0.5,1.3-0.5,2.9-0.5l1,0l0.2,0
				c0.9,0,1-0.1,1.6-0.9c0.7-0.9,1.3-1.5,2.2-1.8l1.1-0.5l0.9-0.5l0.3-0.1c0.2,0,0.4,0.1,0.4,0.3c0,0.3-0.2,0.7-0.6,1.1
				c-0.8,0.8-1.1,1.5-1.1,2.5C48.1,73.2,48.3,73.5,48.8,74.3"/>
			<path class="st2" d="M40.6,64.1c0.8,0.5,1.5,1.2,2,1.8c0.6,0.9,0.7,0.9,1.3,0.9c0.3,0,0.6,0,1-0.1l0.6-0.1
				c1.1-0.2,1.5-0.4,1.5-0.6c0-0.2-0.1-0.4-0.3-0.5l-0.7-0.7L45.1,64c-0.5-0.4-1.4-0.7-2.2-0.7C42.1,63.3,41.7,63.4,40.6,64.1"/>
			<path class="st2" d="M61.9,67.6l0.4-0.1l0.6-0.1l0.6,0.1l0.3,0c1.5,0,2.9-1.2,2.9-2.5c0-0.5-0.4-0.7-1.2-0.7
				C63.7,64.3,62.5,65.3,61.9,67.6"/>
			<path d="M37.3,22.2c0.1,0.6,0.4,1.1,0.7,1.1c0.3,0,0.6-0.7,1.3-1.9c0.9-1.6,1.8-3.1,1.8-4c0-0.3-0.1-0.5-0.3-0.5l-0.1,0L40,17.6
				c-0.5,0.5-0.9,0.7-2.2,1.2c-0.7,0.3-1,0.6-1,1.1l0.1,0.5l0.3,0.9L37.3,22.2z"/>
			<path d="M33.3,18.8l1.1,0.6c0.3,0.2,0.5,0.4,0.5,0.6l-0.1,0.4c-0.2,0.6,0,1.2,0,1.4C34.7,23,33.8,23,33.5,23
				c-0.2,0-0.1-0.1-0.6-0.7l-1.4-1.6c-0.4-0.5-0.8-1.7-1-3l0-0.2c0-0.4,0.1-0.5,0.4-0.5c0.2,0,0.5,0.1,0.7,0.3L33.3,18.8z"/>
			<path d="M35.9,25.7l-0.4,0l-0.8-0.1c0,0-0.3-0.2-0.8-0.5c-0.3-0.2-0.6-0.3-0.9-0.3c-0.6,0-1,0.3-1,0.8c0,0.5,0.3,1.4,0.9,2.9
				l0.9,2.1c0.8,1.9,1.5,2.6,2.4,2.6c0.9,0,1-0.8,1.6-2.3c1.3-3.3,2-3.8,2-5c0-0.8-0.2-1-0.9-1l-0.6-0.1l-1.1,0.7L35.9,25.7z"/>
			<path class="st2" d="M35.8,27.5H35c-0.1,0-0.3,0.1-0.3,0.2L34.5,28l0.3,1.6l0.3,1.4c0.1,0.8,0.4,1.1,1,1.1c0.6,0,1-0.4,1.1-1.2
				l0.1-1.4c0.1-1,0.1-1.5,0.1-1.5c0-0.1-0.1-0.3-0.2-0.4c-0.1-0.1-0.2-0.1-0.3-0.1l-0.1,0L35.8,27.5z"/>
		</g>
	</g>
	<path d="M121.6,86.5c-0.6-1.4-1.9-2.4-3.6-2.4s-3,1-3.6,2.4h-5.6c-0.6-1.4-1.9-2.4-3.6-2.4s-3,1-3.6,2.4h-5.6
		c-0.6-1.4-1.9-2.4-3.6-2.4c-1.6,0-3,1-3.6,2.4h-7.3v34.1h6.4v13.1h7.6v-13.1h19.1v13.1h7.6v-13.1h6.4V86.5H121.6z"/>
	<rect x="89.6" y="123.5" class="st2" width="3.9" height="5"/>
	<rect x="89.6" y="129.7" class="st2" width="3.9" height="1.6"/>
	<rect x="116.2" y="123.5" class="st2" width="3.9" height="5"/>
	<rect x="116.2" y="129.7" class="st2" width="3.9" height="1.6"/>
	<rect x="84.4" y="89.3" class="st1" width="41.8" height="1.6"/>
	<polygon class="st1" points="84.4,117.9 126.2,117.9 126.2,92.3 84.4,92.3 	"/>
	<path class="st2" d="M90.8,88.2c0-1,0.8-1.8,1.8-1.8c1,0,1.8,0.8,1.8,1.8v4.7c0,1-0.8,1.8-1.8,1.8c-1,0-1.8-0.8-1.8-1.8V88.2z"/>
	<path class="st2" d="M103.5,88.2c0-1,0.8-1.8,1.8-1.8c1,0,1.8,0.8,1.8,1.8v4.7c0,1-0.8,1.8-1.8,1.8c-1,0-1.8-0.8-1.8-1.8V88.2z"/>
	<path class="st2" d="M116.2,88.2c0-1,0.8-1.8,1.8-1.8c1,0,1.8,0.8,1.8,1.8v4.7c0,1-0.8,1.8-1.8,1.8c-1,0-1.8-0.8-1.8-1.8V88.2z"/>
	<g>
		<path class="st2" d="M95.3,105.4c2.7,3.4,6.1,5,10.3,5c3.9,0,6.6-1.4,9.7-5c-3.1-3.2-6.1-4.6-9.9-4.6
			C101.3,100.8,97.7,102.5,95.3,105.4"/>
		<path d="M105.3,102.3c-2.9,0-5.2,0.9-8,3.1c2.3,2.3,5,3.4,8,3.4c3.3,0,5.5-0.9,8-3.4C110.4,103.2,108.2,102.3,105.3,102.3z
			 M105.2,106.2c-1.6,0-2.9-0.4-4.5-1.5c1.4-0.8,2.9-1.1,4.6-1.1c1.6,0,3.2,0.4,4.7,1.1C108.5,105.7,107,106.2,105.2,106.2z"/>
	</g>
	<path d="M121.7,115.7c-1.2,0-2.3-1-2.3-2.3c0-1.2,1-2.3,2.3-2.3c1.2,0,2.3,1,2.3,2.3C123.9,114.6,122.9,115.7,121.7,115.7z"/>
	<path class="st2" d="M121.7,111.7c-0.9,0-1.7,0.8-1.7,1.7c0,0.9,0.8,1.7,1.7,1.7c0.9,0,1.7-0.8,1.7-1.7
		C123.4,112.4,122.6,111.7,121.7,111.7z"/>
	<path d="M88.9,115.7c-1.3,0-2.3-1-2.3-2.3c0-1.2,1-2.3,2.3-2.3c1.2,0,2.3,1,2.3,2.3C91.1,114.6,90.1,115.7,88.9,115.7z"/>
	<path class="st2" d="M88.9,111.7c-0.9,0-1.7,0.8-1.7,1.7c0,0.9,0.8,1.7,1.8,1.7c0.9,0,1.7-0.8,1.7-1.7
		C90.6,112.4,89.8,111.7,88.9,111.7z"/>
	<path d="M88.9,100.1c-1.2,0-2.3-1-2.3-2.3c0-1.2,1-2.3,2.3-2.3c1.2,0,2.3,1,2.3,2.3C91.1,99.1,90.1,100.1,88.9,100.1z"/>
	<path class="st2" d="M88.9,96.1c-0.9,0-1.7,0.8-1.7,1.7c0,1,0.8,1.7,1.7,1.7c1,0,1.7-0.8,1.7-1.7C90.6,96.9,89.8,96.1,88.9,96.1z"
		/>
	<path d="M121.7,100.1c-1.2,0-2.3-1-2.3-2.3c0-1.2,1-2.3,2.3-2.3c1.2,0,2.3,1,2.3,2.3C123.9,99.1,122.9,100.1,121.7,100.1z"/>
	<path class="st2" d="M121.7,96.1c-0.9,0-1.7,0.8-1.7,1.7c0,1,0.8,1.7,1.7,1.7c0.9,0,1.7-0.8,1.7-1.7
		C123.4,96.9,122.6,96.1,121.7,96.1z"/>
</g>
</svg>
