<svg width="34" height="34" viewBox="0 0 34 34" fill="none" xmlns="http://www.w3.org/2000/svg">
<path d="M7.06034 0.000572039C3.14886 0.000572039 0 3.14938 0 7.06079V26.9398C0 30.8512 3.14886 34 7.06034 34H26.9397C30.8511 34 34 30.8512 34 26.9398V15.6889C34 12.6071 31.5676 10.1742 28.4852 10.1742H8.60592C7.75229 10.1742 7.06034 9.48228 7.06034 8.62864C7.06034 7.77501 7.75226 7.08365 8.60592 7.08309H28.4852C29.856 7.08309 31.1529 7.40646 32.3047 7.98079C33.3064 8.48 34 8.18222 34 7.06022C34 3.14881 30.8511 0 26.9397 0L7.06034 0.000572039ZM27.217 21.5742C28.0706 21.5742 28.7626 22.2662 28.7626 23.1192C28.7626 23.5292 28.5998 23.9228 28.3102 24.2124C28.02 24.5025 27.627 24.6653 27.217 24.6653C26.8071 24.6653 26.414 24.502 26.1244 24.2124C25.8348 23.9222 25.672 23.5292 25.672 23.1192C25.672 22.2662 26.3639 21.5742 27.217 21.5742H27.217Z" fill="#9CB0C7"/>
</svg>
