<svg width="46" height="34" viewBox="0 0 46 34" fill="none" xmlns="http://www.w3.org/2000/svg">
<path fill-rule="evenodd" clip-rule="evenodd" d="M23.0061 3.9494H32.5482L32.5484 3.94923C29.883 1.40763 26.3488 -0.00601549 22.6766 6.29265e-05H13.8087C10.1503 -0.0133859 6.63761 1.44453 4.05212 4.0496C-0.640963 8.72667 -1.34073 16.1118 2.38895 21.5975C2.47394 21.7147 2.52441 21.8537 2.53434 21.9987V26.2257C2.52263 27.1652 3.07704 28.0189 3.93686 28.3853C4.22117 28.5038 4.52618 28.5646 4.83379 28.5625C5.43818 28.5581 6.01628 28.3141 6.44339 27.8838L7.97624 26.3412C8.57716 26.6278 9.19971 26.8648 9.83865 27.0507C9.44993 26.4072 9.1117 25.7339 8.82697 25.0375C8.07329 23.243 7.68242 21.3157 7.67725 19.3681C7.65008 15.2668 9.26962 11.3286 12.1688 8.44608C15.0425 5.55581 18.9429 3.93724 23.0061 3.9494ZM31.8578 5.46972C35.6802 5.48751 39.3387 7.03267 42.0285 9.76578L42.0292 9.76564C44.5914 12.3211 46.0225 15.8075 45.9996 19.438C45.9698 22.0238 45.2182 24.5499 43.8308 26.7264C43.7497 26.8475 43.7048 26.9895 43.7005 27.1354V31.6937C43.6953 32.6216 43.14 33.4564 42.2901 33.8151C42.0037 33.9353 41.6965 33.9983 41.3859 34C40.7815 33.9957 40.2034 33.7517 39.7763 33.3214L38.5653 32.1027C38.3448 31.8839 38.0152 31.8201 37.7296 31.9408C35.988 32.7101 34.1057 33.1043 32.2036 33.0978L23.3357 33.0974C15.5868 33.0974 9.24836 26.9348 9.20996 19.3529V19.2604C9.23536 11.6179 15.4116 5.44367 23.0055 5.46929L31.8578 5.46972ZM16.8741 19.2835C16.8741 20.9876 18.2465 22.3688 19.9398 22.3688C21.6331 22.3688 23.0055 20.9876 23.0055 19.2835C23.0055 17.5794 21.6331 16.1983 19.9398 16.1983C18.2465 16.1983 16.8741 17.5794 16.8741 19.2835ZM24.5383 19.2835C24.5383 20.9876 25.9107 22.3688 27.604 22.3688C29.2973 22.3688 30.6702 20.9876 30.6697 19.2835C30.6697 17.5794 29.2973 16.1983 27.604 16.1983C25.9107 16.1983 24.5383 17.5794 24.5383 19.2835ZM32.2029 19.2835C32.2029 20.9876 33.5753 22.3688 35.2686 22.3688C36.9619 22.3688 38.3343 20.9876 38.3343 19.2835C38.3343 17.5794 36.9619 16.1983 35.2686 16.1983C33.5753 16.1983 32.2029 17.5794 32.2029 19.2835Z" fill="#9CB0C7"/>
</svg>
