<svg width="41" height="37" viewBox="0 0 41 37" fill="none" xmlns="http://www.w3.org/2000/svg">
<path d="M2.02916 18.5804C2.02916 17.1068 2.61092 15.6934 3.64689 14.6514C4.68286 13.6093 6.08799 13.0237 7.55332 13.0237C9.01826 13.0237 10.4234 13.6093 11.4594 14.6514C12.4953 15.6934 13.0775 17.1068 13.0775 18.5804C13.0775 20.054 12.4953 21.4674 11.4594 22.5094C10.4234 23.5515 9.01826 24.1371 7.55332 24.1371C6.08914 24.1344 4.68546 23.5477 3.65026 22.5064C2.61467 21.4651 2.03176 20.0533 2.02916 18.5804ZM14.8464 31.756C14.2409 29.3403 12.4945 27.378 10.1746 26.5067C7.85465 25.635 5.25701 25.9654 3.22572 27.3905C1.19442 28.8157 -0.0112877 31.1534 7.96674e-05 33.6444V35.8148C7.96674e-05 36.1029 0.113724 36.3788 0.316169 36.5824C0.518624 36.7857 0.792944 36.9 1.07894 36.9H14.0262C14.3122 36.9 14.5869 36.7857 14.789 36.5824C14.9914 36.3788 15.1051 36.1029 15.1051 35.8148V34.8162L22.3986 26.0471H19.5932L14.8464 31.756ZM41 24.962C41 25.2501 40.8864 25.526 40.6839 25.7296C40.4815 25.9329 40.2071 26.0472 39.9211 26.0472H22.399L29.9514 16.9741L29.9517 16.9745C30.2554 16.5146 30.1677 15.8991 29.7482 15.5436C29.3282 15.1878 28.7104 15.206 28.3118 15.5853L19.594 26.0467H13.6383C13.1092 25.6137 12.538 25.2355 11.9333 24.9183C13.7376 23.6597 14.92 21.6838 15.1808 19.4911C15.4415 17.2979 14.7563 15.0976 13.2981 13.4461C11.8399 11.795 9.7488 10.851 7.55307 10.8528C6.43242 10.8498 5.32574 11.1019 4.31606 11.5906V2.17038H3.23722C2.64115 2.17038 2.15838 1.68437 2.15838 1.08519C2.15838 0.485618 2.64117 0 3.23722 0H39.9211C40.5168 0 40.9999 0.485638 40.9999 1.08519C40.9999 1.68439 40.5168 2.17038 39.9211 2.17038H38.8419V23.8761H39.9211C40.2071 23.8761 40.4814 23.9905 40.6839 24.1941C40.8863 24.3974 41 24.6737 41 24.9614L41 24.962ZM32.3683 11.9385C32.3683 11.6505 32.2547 11.3746 32.0522 11.1709C31.8501 10.9676 31.5754 10.8533 31.2894 10.8533H14.0264C13.4304 10.8533 12.9476 11.339 12.9476 11.9385C12.9476 12.5377 13.4304 13.0237 14.0264 13.0237H31.2894C31.5754 13.0237 31.8501 12.9094 32.0522 12.7058C32.2547 12.5025 32.3683 12.2262 32.3683 11.9385V11.9385ZM32.3683 7.5973C32.3683 7.30962 32.2547 7.03331 32.0522 6.83004C31.8501 6.62639 31.5754 6.51209 31.2894 6.51209H18.3422C17.7461 6.51209 17.263 6.99772 17.263 7.59728C17.263 8.19683 17.7461 8.68247 18.3422 8.68247H31.2894C31.5754 8.68247 31.8501 8.56816 32.0522 8.36452C32.2547 8.16125 32.3683 7.88494 32.3683 7.59726V7.5973Z" fill="#9CB0C7"/>
</svg>
