<svg width="24" height="19" viewBox="0 0 24 19" fill="none" xmlns="http://www.w3.org/2000/svg">
<path d="M24 5.472V15.1406C24.0001 16.1264 23.6189 17.0749 22.9348 17.7914C22.2507 18.5079 21.3154 18.9383 20.3208 18.9941L20.1 19H3.9C2.90384 19.0001 1.94541 18.6229 1.22132 17.9459C0.49724 17.2689 0.0623984 16.3433 0.00600014 15.3591L0 15.1406V5.472L11.5824 11.476C11.7113 11.5428 11.8545 11.5777 12 11.5777C12.1455 11.5777 12.2887 11.5428 12.4176 11.476L24 5.472ZM3.9 2.8031e-08H20.1C21.0667 -0.000115205 21.999 0.355057 22.716 0.99663C23.4331 1.6382 23.8838 2.52045 23.9808 3.47225L12 9.68288L0.0192 3.47225C0.112228 2.55825 0.53166 1.70705 1.2021 1.07167C1.87254 0.436298 2.75002 0.0584095 3.6768 0.00593766L3.9 2.8031e-08H20.1H3.9Z" fill="#9CB0C7"/>
</svg>
