<svg width="22" height="25" viewBox="0 0 22 25" fill="none" xmlns="http://www.w3.org/2000/svg">
<path d="M10.9999 0C13.9176 0 16.7155 1.12474 18.7783 3.1274C20.8413 5.13006 22 7.84619 22 10.678C21.9992 13.396 20.9309 16.0112 19.0127 17.9905L13.7084 23.7732C12.2081 25.4089 9.79227 25.4089 8.292 23.7732L2.98945 17.9922C1.07035 16.0127 0.00126839 13.3969 0 10.678C0 7.84619 1.15908 5.13017 3.22173 3.1274C5.28481 1.12474 8.08285 0 11.0001 0H10.9999ZM10.9999 7.18963C10.0468 7.18963 9.13282 7.55693 8.459 8.2114C7.78478 8.86548 7.40641 9.75265 7.40641 10.6779C7.40641 11.6032 7.78478 12.4908 8.459 13.1449C9.13281 13.799 10.0467 14.1667 10.9999 14.1667C11.9531 14.1667 12.8675 13.799 13.5413 13.1449C14.2151 12.4908 14.5939 11.6032 14.5939 10.6779C14.5939 9.75265 14.2151 8.86549 13.5413 8.2114C12.8675 7.55693 11.9532 7.18963 10.9999 7.18963Z" fill="#9CB0C7"/>
</svg>
